<?xml version="1.0" encoding="utf-8"?>
<!-- Generator: Adobe Illustrator 25.0.0, SVG Export Plug-In . SVG Version: 6.00 Build 0)  -->
<svg version="1.1" id="candyBox" xmlns="http://www.w3.org/2000/svg" xmlns:xlink="http://www.w3.org/1999/xlink" x="0px" y="0px"
	 viewBox="0 0 100 100" style="enable-background:new 0 0 100 100;" xml:space="preserve">
<style type="text/css">
	.st0{fill:#76DCFF;}
	.st1{fill:none;}
	.st2{fill:url(#SVGID_1_);}
	.st3{fill:url(#SVGID_2_);}
	.st4{fill:#27AAE1;}
	.st5{fill:#C63900;}
	.st6{fill:#00984E;}
	.st7{fill:#FF26EA;}
	.st8{fill:#7FADFF;}
	.st9{fill:#F09300;}
	.st10{fill:#7F3F98;}
	.st11{fill:#FFFFFF;}
	.st12{fill:#231F20;}
</style>
<circle class="st0" cx="50" cy="50" r="48.2"/>
<g id="candy">
	<polygon class="st1" points="14,35.1 79.4,25.5 79.4,25.5 14,35.1 14,64.9 79.4,74.5 79.4,74.5 14,64.9 	"/>
	<linearGradient id="SVGID_1_" gradientUnits="userSpaceOnUse" x1="14.0322" y1="49.9934" x2="79.3807" y2="49.9934">
		<stop  offset="0" style="stop-color:#9B00ED"/>
		<stop  offset="9.739427e-02" style="stop-color:#8506CA"/>
		<stop  offset="0.2009" style="stop-color:#740BAD"/>
		<stop  offset="0.3115" style="stop-color:#660E97"/>
		<stop  offset="0.4308" style="stop-color:#5C1186"/>
		<stop  offset="0.5652" style="stop-color:#56137D"/>
		<stop  offset="0.746" style="stop-color:#54137A"/>
	</linearGradient>
	<path class="st2" d="M79.4,25.5L14,35.1v29.8l65.3,9.6l0,0L79.4,25.5L79.4,25.5z M74.2,72.1l-56.7-8C16,63.8,15,62.6,15,61.2V38.8
		c0-1.4,1.1-2.7,2.5-2.9l56.7-8c1.7-0.2,3.3,1.1,3.3,2.9v38.5C77.5,71,75.9,72.3,74.2,72.1z"/>
	<linearGradient id="SVGID_2_" gradientUnits="userSpaceOnUse" x1="79.3807" y1="49.9934" x2="93.7085" y2="49.9934">
		<stop  offset="0" style="stop-color:#9B00ED"/>
		<stop  offset="9.739427e-02" style="stop-color:#8506CA"/>
		<stop  offset="0.2009" style="stop-color:#740BAD"/>
		<stop  offset="0.3115" style="stop-color:#660E97"/>
		<stop  offset="0.4308" style="stop-color:#5C1186"/>
		<stop  offset="0.5652" style="stop-color:#56137D"/>
		<stop  offset="0.746" style="stop-color:#54137A"/>
	</linearGradient>
	<polygon class="st3" points="79.4,74.5 86,70.8 86,28.3 79.4,25.5 	"/>
	<path class="st4" d="M74.2,27.9l-56.7,8C16,36.1,15,37.4,15,38.8v22.4c0,1.4,1.1,2.7,2.5,2.9l56.7,8c1.7,0.2,3.3-1.1,3.3-2.9V30.8
		C77.5,29,75.9,27.6,74.2,27.9z M69.1,49.4c-0.6,2.7-1.3,5.7-2.1,9c0,0.4,0,1.8,0.1,6c0,0.6-0.2,1.3-0.7,1.7
		c-0.4,0.3-0.9,0.5-1.4,0.5c-0.1,0-0.3,0-0.4,0c0,0-1.2-0.2-4.8-0.5c-1.2-0.1-2-1.1-1.9-2.3c0,0,0.1-1.3,0-5.6
		c-0.1-0.4-0.3-1.3-0.6-2.8c-0.2,1.1-0.4,2.3-0.8,3.5c-0.2,0.5-0.3,0.9-0.5,1.3c0.8,0.9,1.3,2.1,1.3,3.5c0,2.5-1.8,4.3-3.9,4
		c-1.5-0.2-2.8-1.5-3.4-3.1c-0.4,0-0.7,0.1-1.1,0.1c-0.5,0-1,0-1.5-0.1c-1-0.1-2.1-0.4-3.2-0.7c-0.1,0-0.1,0-0.2-0.1
		c-0.1,0-0.2,0-0.3,0c0,0-0.6,0-1.6,0c-0.5,0-1.1,0-1.7,0c-0.9,0-1.6-0.6-1.9-1.4c-0.2,0.1-0.5,0.1-0.7,0.1c-0.1,0-0.2,0-0.3,0
		c0,0-0.6-0.1-1.5-0.2c0,0-0.1,0.1-0.1,0.1c-0.4,0.4-0.9,0.6-1.5,0.6c-0.1,0-0.2,0-0.4,0c-0.1,0-1.1-0.2-2.7-0.3
		c-0.2,0-0.5-0.1-0.7-0.2c-0.1,0-0.3,0-0.4,0c-0.6,0-1.1-0.4-1.4-1c-0.1,0-0.8-0.1-2.2-0.3c-0.2,0-0.4-0.1-0.5-0.1
		c-0.6,0.4-1.3,0.6-2.1,0.6c-0.2,0-0.4,0-0.6,0c-0.4,0-0.7-0.1-1-0.2c-0.6,0.6-1.4,1-2.2,1.1c-1.9,0.1-3.3-1.7-3.3-3.9
		c0-1.7,0.8-3.2,2-4c-0.1-1.4-0.2-2.9-0.2-4.3c0-1.8,0.1-3.6,0.3-5.2c-0.7-0.7-1.1-1.7-1.1-2.8c0-2.1,1.6-4.1,3.7-4.3
		c0.9-0.1,1.8,0.2,2.5,0.7c0,0,0,0,0,0c1,0,1.9,0.4,2.6,1c0.3-0.6,0.8-1,1.5-1.2c2.1-0.4,3.7-0.6,3.8-0.6c0.1,0,0.1,0,0.2,0
		c0.1,0,0.2,0,0.2,0c0.9-1.9,2.4-3.3,4.2-3.5c1.7-0.2,3.2,0.6,4.3,2.1c0.5,0,1.2-0.1,2.1-0.2c0.1,0,0.2,0,0.3,0
		c0.4,0,0.9,0.1,1.2,0.4c1-0.3,2-0.6,2.9-0.7c0.3,0,0.7-0.1,1-0.1c0.4-2.3,2.1-4.3,4.1-4.5c2.3-0.3,4.3,1.6,4.5,4.4
		c0.7-0.1,1.7-0.3,3.2-0.5c0.1,0,0.2,0,0.3,0c0.5,0,0.9,0.1,1.3,0.4c0.4,0.3,0.6,0.6,0.8,1.1c0-0.3,0.1-0.6,0.1-0.9
		c0.1-1,1-1.8,2-1.8c0.1,0,1.6-0.1,5.4-0.5c0.1,0,0.2,0,0.2,0c0.6,0,1.2,0.3,1.6,0.7c0.2,0.2,0.3,0.5,0.4,0.7c2.3,1.1,4,3.6,4,6.6
		C76.2,45.9,73,49.3,69.1,49.4z"/>
	<path class="st5" d="M29.6,61.5c-0.1,0-0.3,0-0.4,0c-0.1,0-0.3,0-0.4,0c0,0,0,0,0,0c0.4,0.6,0.9,0.9,1.4,1c0.1,0,0.3,0,0.4,0
		C30.2,62.3,29.8,61.9,29.6,61.5z"/>
	<path class="st6" d="M33.8,38.8c0.2-0.1,0.4-0.2,0.6-0.2c0,0,1.2-0.3,3-0.5c0.1,0,0.2,0,0.3,0c0.1,0,0.3,0,0.4,0
		c0.1-0.3,0.2-0.5,0.4-0.7c0.4-0.4,0.9-0.7,1.5-0.7c0,0,0.3,0,0.7-0.1c-1.1-1.5-2.6-2.3-4.3-2.1c-1.8,0.2-3.3,1.6-4.2,3.5
		c0.4,0,0.8,0.2,1.1,0.5C33.6,38.6,33.7,38.7,33.8,38.8z"/>
	<path class="st7" d="M72.2,35.1c0.1,0.4,0.1,0.8,0,1.2c0,0.1-1.3,5-3.2,13.2c3.9-0.1,7.1-3.5,7.1-7.8
		C76.2,38.6,74.6,36.2,72.2,35.1z"/>
	<path class="st7" d="M23.4,38.7c0.2,0,0.3,0,0.5,0c-0.7-0.5-1.6-0.8-2.5-0.7c-2.1,0.2-3.7,2.1-3.7,4.3c0,1.1,0.4,2,1.1,2.8
		C19.3,41.7,20.5,39.1,23.4,38.7z"/>
	<path class="st8" d="M50,64.5c0.5,1.6,1.8,2.9,3.4,3.1c2.1,0.3,3.9-1.5,3.9-4c0-1.3-0.5-2.6-1.3-3.5C54.7,62.7,52.6,64.2,50,64.5z"
		/>
	<path class="st9" d="M53.5,37.5c0.1-0.2,0.1-0.3,0.3-0.5c0.3-0.5,0.9-0.8,1.5-0.9c0,0,0.4,0,1.7-0.2c-0.2-2.8-2.2-4.7-4.5-4.4
		c-2,0.3-3.7,2.2-4.1,4.5c0.1,0,0.3,0,0.4,0C50.6,36,52.2,36.5,53.5,37.5z"/>
	<path class="st9" d="M19.2,57.6c-0.3-0.9-0.4-1.9-0.5-3c-1.2,0.8-2,2.3-2,4c0,2.2,1.5,4,3.3,3.9c0.8,0,1.6-0.4,2.2-1.1
		C20.8,60.9,19.8,59.6,19.2,57.6z"/>
	<path class="st10" d="M24.7,58.9c0,0,0-0.2,0-0.4c-0.5,0.9-1.2,1.2-2,1.1c-2.1-0.3-2.9-2.8-2.9-9.3c0-6.1,0.8-9.1,3-9.4
		c2.2-0.3,2.9,2.8,2.9,7.3c-1.5,0-2.4,0-2.4,0c0-3.3-0.1-4.4-0.6-4.3c-0.6,0-0.7,1.8-0.7,6.5c0,4.9,0.2,6.4,0.7,6.4
		c0.4,0,0.7-0.8,0.6-4.9c0.9,0,1.6,0,2.1,0c0-0.5,0.1-1,0.1-1.5c-0.3,0-0.7,0-1.1,0c0-0.2,0-0.4,0-0.6c0.3,0,0.6,0,1.2,0
		c0.2-2.6,0.5-5.7,0.8-9.2c0,0,0,0,0-0.1c0,0-0.1-0.1-0.1-0.1c-0.6-0.6-1.4-1-2.3-1c-0.1,0-0.3,0-0.5,0c-3.8,0.5-4.4,5.5-4.4,10.9
		c0,5.2,0.3,10.3,4.2,10.8c0.2,0,0.4,0,0.5,0c0.5,0,1.1-0.1,1.5-0.4C24.9,60.3,24.6,59.6,24.7,58.9z"/>
	<path class="st0" d="M23.3,51.7c0.1,4.1-0.2,4.9-0.6,4.9c-0.5,0-0.7-1.5-0.7-6.4c0-4.7,0.1-6.4,0.7-6.5c0.5,0,0.6,1.1,0.6,4.3
		c0,0,0.9,0.1,2.4,0c0.1-4.5-0.7-7.6-2.9-7.3c-2.2,0.3-3,3.3-3,9.4c0,6.5,0.8,9,2.9,9.3c0.8,0.1,1.5-0.2,2-1.1
		c0.1-0.9,0.3-3.3,0.7-6.8C24.9,51.7,24.1,51.7,23.3,51.7z"/>
	<path class="st10" d="M33,60.8c-0.5-0.1-1.3-0.2-2.4-0.3c0,0-0.1-1.3-0.3-3.9c-0.4,0-1.1-0.1-1.9-0.2l-0.2,3c0,0-0.8-0.1-2.4-0.3
		c0,0,0.7-7,1.7-18.4c2-0.4,3.6-0.5,3.6-0.5s0.7,7,1.6,15.7c0-3.4,0-8.6-0.1-15.1c0-0.6,0.2-1.1,0.6-1.5c-0.1-0.1-0.2-0.2-0.3-0.3
		c-0.3-0.2-0.6-0.3-1-0.3c-0.1,0-0.1,0-0.2,0c-0.1,0-1.7,0.2-3.7,0.6c-0.7,0.1-1.2,0.7-1.2,1.4c-1,11.3-1.7,18.3-1.7,18.4
		c-0.1,0.8,0.5,1.6,1.3,1.7c1.5,0.2,2.3,0.3,2.3,0.3c0.1,0,0.2,0,0.3,0c0.3,0,0.6-0.1,0.8-0.2c0.1,0.7,0.7,1.2,1.4,1.3
		c1.6,0.1,2.7,0.3,2.7,0.3c0.1,0,0.2,0,0.3,0c0.3,0,0.5-0.1,0.7-0.2c-0.1,0-0.2,0-0.4,0C33.9,62,33.2,61.5,33,60.8z"/>
	<path class="st10" d="M29.3,43.6c-0.1,1.6-0.4,5.2-0.7,9.8c0,0,0.5,0,1.4,0.1C29.9,50.9,29.7,47.7,29.3,43.6z"/>
	<path class="st0" d="M31.2,40.1c0,0-1.6,0.2-3.6,0.5c-1,11.4-1.7,18.4-1.7,18.4c1.6,0.2,2.4,0.3,2.4,0.3l0.2-3
		c0.8,0.1,1.4,0.1,1.9,0.2c0.2,2.6,0.3,3.9,0.3,3.9c1.1,0.1,1.9,0.2,2.4,0.3c-0.1-0.2-0.1-0.5-0.1-0.8c0,0,0-1.5,0-4.2
		C31.9,47.1,31.2,40.1,31.2,40.1z M28.6,53.4c0.3-4.6,0.6-8.2,0.7-9.8c0.3,4.1,0.6,7.3,0.7,9.9C29.1,53.5,28.6,53.4,28.6,53.4z"/>
	<path class="st10" d="M42.7,61.7c0.1-11.5,0-22.7,0-22.9c0-0.7,0.4-1.4,1-1.8C43.5,37,43.3,37,43.2,37c-0.1,0-0.1,0-0.2,0
		c-1.8,0.2-2.9,0.3-2.9,0.3c-0.4,0-0.8,0.2-1.1,0.5s-0.4,0.7-0.4,1.1c0,0,0,0,0,0c-0.3-0.2-0.6-0.3-0.9-0.3c-0.1,0-0.1,0-0.2,0
		c-1.8,0.3-2.9,0.5-3,0.5c-0.7,0.2-1.2,0.8-1.2,1.5c0.1,11.8,0.1,19.2,0.1,19.3c0,0.8,0.6,1.4,1.3,1.5c1.5,0.2,2.7,0.4,2.7,0.4
		c0.1,0,0.2,0,0.2,0c0.4,0,0.7-0.1,1-0.4c0,0,0.1-0.1,0.1-0.1c0.1,0.4,0.1,0.6,0.1,0.6c0.2,0.7,0.7,1.2,1.4,1.2c0.6,0,1.2,0,1.7,0
		c0.5,0,0.9,0,1.1,0C42.9,62.8,42.7,62.3,42.7,61.7z M39.5,61.6c0,0-1.2-5.2-3-13.3c0,2.7,0.1,7.1,0.3,12c0,0-1.2-0.2-2.8-0.4
		c0,0,0.1-7.4-0.1-19.3c0,0,1.1-0.2,2.9-0.5c0,0,1.2,5.7,2.9,13.1c-0.1-3.1-0.2-8.2-0.5-14.4c0,0,1.1,0,3-0.3c0,0,0.1,8.7,0.4,23.1
		C42.6,61.6,41.6,61.7,39.5,61.6z"/>
	<path class="st0" d="M42.3,38.5c-1.9,0.3-3,0.3-3,0.3c0.3,6.2,0.4,11.3,0.5,14.4c-1.8-7.4-2.9-13.1-2.9-13.1
		c-1.8,0.3-2.9,0.5-2.9,0.5C34.1,52.6,34,60,34,60c1.6,0.2,2.8,0.4,2.8,0.4c-0.2-4.9-0.3-9.2-0.3-12c1.8,8.1,3,13.3,3,13.3
		c2.1,0.1,3.1,0,3.1,0C42.4,47.2,42.3,38.5,42.3,38.5z"/>
	<path class="st10" d="M47.5,42.1c0,8.2,0.2,16.6,0.2,16.6c1.5,0.3,2.3-0.5,2.3-8.3C50,43.9,49.3,41.7,47.5,42.1z"/>
	<path class="st10" d="M53.4,38.8c0-0.2-0.1-0.3-0.1-0.5c-1.1-1-2.7-1.6-4.7-1.6c-0.4,0-0.9,0-1.3,0.1c-1,0.1-2,0.4-3.1,0.7
		c-0.6,0.2-1,0.8-1,1.4c0,0.1,0.1,11.3,0,22.9c0,0.7,0.4,1.2,1.1,1.4c1.1,0.3,2.1,0.6,3.1,0.7c0.5,0.1,0.9,0.1,1.4,0.1
		c6.4,0,7.7-6.4,8-10.6C56.1,50.3,55.1,45.5,53.4,38.8z M46.7,62.4c-0.9-0.1-1.8-0.3-2.8-0.6c0.1-11.7,0-22.9,0-22.9
		c1-0.3,1.9-0.6,2.8-0.7c5.6-0.7,7.8,3.3,7.8,12.6C54.5,60.1,51.7,63,46.7,62.4z"/>
	<path class="st0" d="M46.7,38.2c-0.8,0.1-1.8,0.3-2.8,0.7c0,0,0.1,11.2,0,22.9c1,0.3,2,0.5,2.8,0.6c5,0.6,7.7-2.3,7.7-11.6
		C54.5,41.5,52.3,37.6,46.7,38.2z M47.7,58.7c0,0-0.1-8.4-0.2-16.6c1.7-0.5,2.5,1.8,2.5,8.3C50,58.2,49.1,59,47.7,58.7z"/>
	<path class="st10" d="M71.3,34.7c-0.3-0.3-0.7-0.5-1.1-0.5c-0.1,0-0.1,0-0.2,0c-3.9,0.5-5.4,0.5-5.4,0.5c-0.7,0-1.3,0.6-1.4,1.3
		c-0.3,1.7-0.5,3.4-0.7,4.9c-0.3-2.3-0.5-3.6-0.5-3.6c-0.1-0.4-0.3-0.8-0.6-1c-0.3-0.2-0.6-0.3-0.9-0.3c-0.1,0-0.2,0-0.2,0
		c-3.9,0.6-4.8,0.7-4.9,0.7c-0.4,0-0.8,0.3-1.1,0.6c-0.2,0.4-0.3,0.8-0.2,1.2c3.1,12.8,4.3,18.6,4.4,19.4c0.1,4.5,0,5.7,0,5.7
		c-0.1,0.8,0.5,1.6,1.4,1.6c3.7,0.3,4.8,0.5,4.9,0.6c0.1,0,0.2,0,0.3,0c0.4,0,0.7-0.1,1-0.4c0.4-0.3,0.5-0.7,0.5-1.2
		c-0.2-4.4-0.1-5.8-0.1-6.1c3.1-13.4,5.3-22.2,5.3-22.3C71.8,35.6,71.7,35.1,71.3,34.7z M64,58.1c0,0-0.1,0.8,0.1,6.4
		c0,0-1.1-0.2-5-0.6c0,0,0.1-1.2,0-6c0,0-1.1-5.4-4.5-19.6c0,0,0.8-0.1,4.9-0.7c0,0,0.7,5.5,2,13c0,0,1-6.1,2.2-14.3
		c0,0,1.5-0.1,5.5-0.5C69.3,35.7,67.1,44.5,64,58.1z"/>
	<path class="st11" d="M72.2,35.1c-0.1-0.3-0.2-0.5-0.4-0.7c-0.4-0.5-1-0.7-1.6-0.7c-0.1,0-0.2,0-0.2,0c-3.8,0.5-5.3,0.5-5.4,0.5
		c-1,0-1.9,0.8-2,1.8c0,0.3-0.1,0.6-0.1,0.9c-0.1-0.4-0.4-0.8-0.8-1.1c-0.4-0.3-0.8-0.4-1.3-0.4c-0.1,0-0.2,0-0.3,0
		c-1.4,0.2-2.4,0.4-3.2,0.5c-1.3,0.2-1.7,0.2-1.7,0.2c-0.6,0.1-1.2,0.4-1.5,0.9c-0.1,0.2-0.2,0.3-0.3,0.5c-1.3-1-2.9-1.5-4.8-1.5
		c-0.1,0-0.3,0-0.4,0c-0.3,0-0.6,0-1,0.1c-1,0.1-1.9,0.3-2.9,0.7c-0.4-0.2-0.8-0.4-1.2-0.4c-0.1,0-0.2,0-0.3,0
		c-0.9,0.1-1.6,0.2-2.1,0.2c-0.5,0-0.7,0.1-0.7,0.1c-0.6,0-1.1,0.3-1.5,0.7c-0.2,0.2-0.3,0.4-0.4,0.7c-0.1,0-0.3,0-0.4,0
		c-0.1,0-0.2,0-0.3,0c-1.8,0.3-3,0.5-3,0.5c-0.2,0-0.4,0.1-0.6,0.2c-0.1-0.1-0.2-0.3-0.3-0.4c-0.3-0.3-0.7-0.4-1.1-0.5
		c-0.1,0-0.2,0-0.2,0c-0.1,0-0.1,0-0.2,0c-0.1,0-1.7,0.2-3.8,0.6c-0.7,0.1-1.2,0.6-1.5,1.2c-0.7-0.7-1.6-1-2.6-1c0,0,0,0,0,0
		c-0.2,0-0.3,0-0.5,0c-2.9,0.4-4.1,2.9-4.6,6.3c-0.2,1.6-0.3,3.4-0.3,5.2c0,1.5,0,3,0.2,4.3c0.1,1.1,0.3,2.1,0.5,3
		c0.6,2,1.6,3.3,3.1,3.8c0.3,0.1,0.7,0.2,1,0.2c0.2,0,0.4,0,0.6,0c0.8,0,1.5-0.2,2.1-0.6c0.2,0.1,0.3,0.1,0.5,0.1
		c1.4,0.2,2.1,0.3,2.2,0.3c0,0,0,0,0,0c0.1,0,0.3,0,0.4,0c0.1,0,0.3,0,0.4,0c0.2,0.4,0.6,0.8,1,0.9c0.2,0.1,0.4,0.2,0.7,0.2
		c1.5,0.1,2.5,0.3,2.7,0.3c0.1,0,0.2,0,0.4,0c0.5,0,1.1-0.2,1.5-0.6c0,0,0.1-0.1,0.1-0.1c0.9,0.1,1.5,0.2,1.5,0.2c0.1,0,0.2,0,0.3,0
		c0.2,0,0.5,0,0.7-0.1c0.3,0.8,1,1.4,1.9,1.4c0.6,0,1.2,0,1.7,0c1,0,1.6,0,1.6,0c0.1,0,0.2,0,0.3,0c0.1,0,0.1,0.1,0.2,0.1
		c1.1,0.4,2.2,0.6,3.2,0.7c0.5,0.1,1,0.1,1.5,0.1c0.4,0,0.7,0,1.1-0.1c2.7-0.3,4.7-1.8,6-4.4c0.2-0.4,0.4-0.9,0.5-1.3
		c0.4-1.1,0.6-2.3,0.8-3.5c0.3,1.5,0.5,2.4,0.6,2.8c0.1,4.3,0,5.6,0,5.6c-0.1,1.1,0.8,2.2,1.9,2.3c3.6,0.3,4.8,0.5,4.8,0.5
		c0.1,0,0.3,0,0.4,0c0.5,0,1-0.2,1.4-0.5c0.5-0.4,0.8-1,0.7-1.7c-0.1-4.2-0.1-5.6-0.1-6c0.8-3.3,1.5-6.3,2.1-9
		c1.9-8.2,3.2-13.1,3.2-13.2C72.4,35.8,72.3,35.4,72.2,35.1z M23.9,61.1c-0.2,0-0.4,0-0.5,0c-3.9-0.5-4.2-5.6-4.2-10.8
		c0-5.4,0.5-10.4,4.4-10.9c0.2,0,0.3,0,0.5,0c0.9,0,1.7,0.3,2.3,1c0,0,0.1,0.1,0.1,0.1c0,0,0,0,0,0.1c-0.3,3.5-0.6,6.6-0.8,9.2
		c-0.5,0-0.9,0-1.2,0c0,0.2,0,0.4,0,0.6c0.4,0,0.8,0,1.1,0c0,0.5-0.1,1-0.1,1.5c-0.3,3.5-0.6,5.9-0.7,6.8c0,0.2,0,0.4,0,0.4
		c-0.1,0.7,0.2,1.4,0.8,1.8C25,61,24.4,61.1,23.9,61.1z M34.3,62.3c-0.1,0-0.2,0-0.3,0c0,0-1.1-0.2-2.7-0.3
		c-0.7-0.1-1.3-0.6-1.4-1.3c-0.2,0.1-0.5,0.2-0.8,0.2c-0.1,0-0.2,0-0.3,0c0,0-0.7-0.1-2.3-0.3c-0.8-0.1-1.4-0.8-1.3-1.7
		c0-0.1,0.7-7.2,1.7-18.4c0.1-0.7,0.6-1.2,1.2-1.4c2-0.4,3.7-0.6,3.7-0.6c0.1,0,0.1,0,0.2,0c0.3,0,0.7,0.1,1,0.3
		c0.1,0.1,0.2,0.2,0.3,0.3c-0.4,0.4-0.6,0.9-0.6,1.5c0.1,6.5,0.1,11.7,0.1,15.1c0,2.7,0,4.2,0,4.2c0,0.3,0,0.5,0.1,0.8
		c0.3,0.7,0.9,1.2,1.7,1.3c0.1,0,0.2,0,0.4,0C34.8,62.3,34.6,62.3,34.3,62.3z M40.4,63.2c-0.7,0-1.3-0.5-1.4-1.2c0,0,0-0.2-0.1-0.6
		c0,0-0.1,0.1-0.1,0.1c-0.3,0.2-0.6,0.4-1,0.4c-0.1,0-0.2,0-0.2,0c0,0-1.2-0.2-2.7-0.4c-0.8-0.1-1.4-0.7-1.3-1.5
		c0-0.1,0.1-7.5-0.1-19.3c0-0.7,0.5-1.3,1.2-1.5c0,0,1.2-0.3,3-0.5c0.1,0,0.1,0,0.2,0c0.3,0,0.6,0.1,0.9,0.3c0,0,0,0,0,0
		c0-0.4,0.1-0.8,0.4-1.1s0.7-0.5,1.1-0.5c0,0,1.1,0,2.9-0.3c0.1,0,0.1,0,0.2,0c0.2,0,0.3,0,0.5,0.1c-0.6,0.4-1,1.1-1,1.8
		c0,0.1,0.1,11.4,0,22.9c0,0.5,0.2,1,0.5,1.4c-0.3,0-0.6,0-1.1,0C41.6,63.2,41,63.2,40.4,63.2z M48.9,64c-0.4,0-0.9,0-1.4-0.1
		c-1-0.1-2-0.4-3.1-0.7c-0.6-0.2-1.1-0.8-1.1-1.4c0.1-11.5,0-22.7,0-22.9c0-0.6,0.4-1.2,1-1.4c1.1-0.4,2.1-0.6,3.1-0.7
		c0.5-0.1,0.9-0.1,1.3-0.1c2,0,3.5,0.6,4.7,1.6c0,0.2,0,0.3,0.1,0.5c1.6,6.8,2.7,11.5,3.4,14.7C56.6,57.6,55.3,64,48.9,64z
		 M71.7,36.1c0,0.1-2.2,8.9-5.3,22.3c0,0.3,0,1.7,0.1,6.1c0,0.5-0.2,0.9-0.5,1.2c-0.3,0.2-0.6,0.4-1,0.4c-0.1,0-0.2,0-0.3,0
		c0,0-1.2-0.2-4.9-0.6c-0.8-0.1-1.4-0.8-1.4-1.6c0,0,0.1-1.3,0-5.7c-0.2-0.9-1.3-6.6-4.4-19.4c-0.1-0.4,0-0.9,0.2-1.2
		c0.2-0.4,0.6-0.6,1.1-0.6c0,0,0.9-0.1,4.9-0.7c0.1,0,0.2,0,0.2,0c0.3,0,0.6,0.1,0.9,0.3c0.3,0.2,0.5,0.6,0.6,1c0,0,0.2,1.4,0.5,3.6
		c0.2-1.5,0.5-3.2,0.7-4.9c0.1-0.7,0.7-1.3,1.4-1.3c0,0,1.5-0.1,5.4-0.5c0.1,0,0.1,0,0.2,0c0.4,0,0.8,0.2,1.1,0.5
		C71.7,35.1,71.8,35.6,71.7,36.1z"/>
	<path class="st0" d="M63.8,36.2c-1.2,8.2-2.2,14.3-2.2,14.3c-1.3-7.6-2-13-2-13c-4.1,0.6-4.9,0.7-4.9,0.7
		c3.4,14.2,4.5,19.6,4.5,19.6c0.1,4.8,0,6,0,6c3.9,0.4,5,0.6,5,0.6C63.9,59,64,58.1,64,58.1c3.1-13.7,5.3-22.4,5.3-22.4
		C65.3,36.2,63.8,36.2,63.8,36.2z"/>
	<path class="st12" d="M86.6,26.9L80,24.1l-0.4-0.2L79.2,24l-65.3,9.6l-1.3,0.2v1.3v29.8v1.3l1.3,0.2L79.2,76l0.5,0.1l0.4-0.2
		l6.6-3.7l0.8-0.4v-0.9V28.3v-1L86.6,26.9z M86,70.8l-6.6,3.7l0,0l0,0L14,64.9V35.1l65.3-9.6l0,0h0l6.6,2.8V70.8z"/>
</g>
<defs>
<script>

let icon = document.querySelector("#candyBox");

function logMyId() {
	console.log(this.id);
}

icon.addEventListener("click", () => { console.log(this); });

</script>
</defs>
</svg>