<?xml version="1.0" encoding="utf-8"?>
<!-- Generator: Adobe Illustrator 25.0.0, SVG Export Plug-In . SVG Version: 6.00 Build 0)  -->
<svg version="1.1" id="chocolate" xmlns="http://www.w3.org/2000/svg" xmlns:xlink="http://www.w3.org/1999/xlink" x="0px"
	 y="0px" viewBox="0 0 100 100" style="enable-background:new 0 0 100 100;" xml:space="preserve">
<style type="text/css">
	.st0{fill:#581468;}
	.st1{fill:#310D3A;}
	.st2{fill:url(#SVGID_1_);}
	.st3{fill:url(#SVGID_2_);}
	.st4{fill:url(#SVGID_3_);}
	.st5{fill:#755610;}
	.st6{fill:url(#SVGID_4_);}
	.st7{fill:url(#SVGID_5_);}
	.st8{fill:url(#SVGID_6_);}
	.st9{fill:url(#SVGID_7_);}
	.st10{fill:url(#SVGID_8_);}
	.st11{fill:url(#SVGID_9_);}
	.st12{fill:url(#SVGID_10_);}
	.st13{fill:url(#SVGID_11_);}
	.st14{fill:url(#SVGID_12_);}
	.st15{fill:#FBB040;}
	.st16{fill:url(#SVGID_13_);}
	.st17{fill:#F1F2F2;}
	.st18{fill:url(#topWrap_1_);}

	#topOfWrap{
		transition:1s;
	}

	#topOfWrap:hover{
		opacity:0;
		transition:.5s;
	}
	


</style>
<circle class="st0" cx="50" cy="50" r="48.2"/>
<path id="behindWrap" class="st1" d="M72.8,39.6l-2,3.6l-1-1.6l-1.6,5.2l-2.6-6l-2.1,1.3l-3.8-2.6l-0.8-0.5l-0.2,0.5l-1.1,3
	l-2.7-1.7l-1,1.9L50,39.6l-1-0.8l-1.4,0.8l-3.5,2l-1.4-1.7L40.8,43l-2.7-3.4l-0.5-0.7l-0.5,0.7l-2.1,3l-0.8-2.5l-2.9,4.6l-3.6-5.1
	l4-0.5l3-6.3l4.7,3.4V32l5.1,4.9l3.5-2.3l3.6,2.8l17.8,1.7l1.7,1.8L72.8,39.6z"/>
<g id="bar">
	<linearGradient id="SVGID_1_" gradientUnits="userSpaceOnUse" x1="30.3089" y1="38.3221" x2="33.0878" y2="38.3221">
		<stop  offset="1.278670e-07" style="stop-color:#755610"/>
		<stop  offset="1" style="stop-color:#3D2905"/>
	</linearGradient>
	<path class="st2" d="M32.7,35.1l0.1,1.6l0.3,3.4c-0.2,0.7-0.8,1.2-1.5,1.4c-0.2,0.1-0.4,0.1-0.6,0.1c-0.1,0-0.1,0-0.2,0l-0.4-4.9
		l0.2,0c0.2,0,0.4,0,0.6-0.1C31.9,36.3,32.5,35.8,32.7,35.1z"/>
	<linearGradient id="SVGID_2_" gradientUnits="userSpaceOnUse" x1="32.6993" y1="37.3765" x2="37.5346" y2="37.3765">
		<stop  offset="0" style="stop-color:#755610"/>
		<stop  offset="1" style="stop-color:#3D2905"/>
	</linearGradient>
	<path class="st3" d="M37.2,33.9l0.1,1l0,0l0.1,1.8l0.1,2.3c-0.1,0.9-0.8,1.6-1.7,1.9c-0.9,0.3-1.9,0-2.7-0.6c0,0-0.1-0.1-0.1-0.1
		l-0.3-3.4l-0.1-1.6c0,0,0.1,0.1,0.1,0.1c0.7,0.6,1.7,0.9,2.7,0.6c0.6-0.2,1-0.5,1.3-1C37.1,34.6,37.2,34.2,37.2,33.9z"/>
	<linearGradient id="SVGID_3_" gradientUnits="userSpaceOnUse" x1="37.2404" y1="35.9038" x2="40.9655" y2="35.9038">
		<stop  offset="1.278670e-07" style="stop-color:#755610"/>
		<stop  offset="1" style="stop-color:#3D2905"/>
	</linearGradient>
	<path class="st4" d="M40.4,32.8l0.1,1.1l0,1l0,0.5c0.1,0.2,0.2,0.3,0.3,0.5c0.1,0.2,0.1,0.3,0.1,0.5c0,0.1,0,0.2,0,0.2
		c0,0.2,0,0.3,0,0.5c0,0.1,0,0.1,0,0.2c0,0.1,0,0.1-0.1,0.2c0,0.1,0,0.1-0.1,0.2c0,0.1-0.1,0.1-0.1,0.2c0,0.1-0.1,0.1-0.1,0.2
		c0,0,0,0,0,0c0,0.1-0.1,0.1-0.1,0.2c0,0,0,0,0,0c-0.1,0.1-0.1,0.1-0.2,0.2c-0.1,0-0.1,0.1-0.2,0.1c0,0,0,0,0,0
		c-0.1,0-0.1,0.1-0.2,0.1c-0.1,0-0.1,0.1-0.2,0.1c-0.1,0-0.2,0.1-0.2,0.1l0,0c-0.1,0-0.1,0-0.2,0.1c-0.1,0-0.2,0-0.2,0.1
		c-0.1,0-0.1,0-0.2,0c0,0,0,0,0,0c-0.1,0-0.1,0-0.2,0c-0.1,0-0.2,0-0.2,0c0,0-0.1,0-0.1,0c0,0,0,0,0,0c0,0-0.1,0-0.1,0
		c-0.1,0-0.2,0-0.2,0c0,0,0,0,0,0c-0.1,0-0.2,0-0.2-0.1l-0.1-2.3l-0.1-1.8l0,0l-0.1-1c0.5,0.2,1.1,0.2,1.7,0.1c0.1,0,0.1,0,0.2-0.1
		C39.7,33.7,40.2,33.3,40.4,32.8z"/>
	<path class="st5" d="M69.3,47.5L68.2,63l-1.1,14l-16.6,0.1l-16.6,0.1l-1.2-14h0l-1.4-15.5h0l-0.4-4.7l0,0l-0.1-1.4
		c0.1,0,0.1,0,0.2,0c0.2,0,0.4,0,0.6-0.1c0.8-0.2,1.3-0.8,1.5-1.4c0,0,0.1,0.1,0.1,0.1c0.7,0.6,1.7,0.9,2.7,0.6
		c0.9-0.3,1.6-1,1.7-1.9c0.1,0,0.2,0.1,0.2,0.1c0,0,0,0,0,0c0.1,0,0.2,0,0.2,0c0,0,0.1,0,0.1,0c0,0,0,0,0,0c0,0,0.1,0,0.1,0
		c0.1,0,0.1,0,0.2,0c0.1,0,0.1,0,0.2,0c0,0,0,0,0,0c0.1,0,0.1,0,0.2,0c0.1,0,0.2,0,0.2-0.1c0.1,0,0.1,0,0.2-0.1l0,0
		c0.1,0,0.2-0.1,0.2-0.1c0.1,0,0.1-0.1,0.2-0.1c0.1,0,0.1-0.1,0.2-0.1c0,0,0,0,0,0c0.1,0,0.1-0.1,0.2-0.1c0.1,0,0.1-0.1,0.2-0.2
		c0,0,0,0,0,0c0,0,0.1-0.1,0.1-0.2c0,0,0,0,0,0c0-0.1,0.1-0.1,0.1-0.2c0-0.1,0.1-0.1,0.1-0.2c0-0.1,0.1-0.1,0.1-0.2
		c0-0.1,0-0.1,0.1-0.2c0-0.1,0-0.1,0-0.2c0-0.2,0-0.3,0-0.5c0-0.1,0-0.2,0-0.2c0-0.2-0.1-0.3-0.1-0.5c-0.1-0.2-0.2-0.4-0.3-0.5
		c0.2,0,0.4,0,0.6-0.1c0.1,0,0.2-0.1,0.3-0.1c0,0,0.1,0,0.1,0c0.1,0,0.1-0.1,0.2-0.1c0.1,0,0.1-0.1,0.2-0.1c0.3-0.2,0.5-0.4,0.7-0.7
		c0,0,0-0.1,0-0.1c0-0.1,0.1-0.1,0.1-0.2c0-0.1,0.1-0.2,0.1-0.3c0,0,0-0.1,0-0.1c0-0.1,0-0.2,0.1-0.3c0-0.1,0-0.1,0-0.2
		c0-0.1,0-0.2,0-0.2c0-0.2-0.1-0.5-0.1-0.7c-0.1-0.2-0.1-0.3-0.2-0.5c-0.3-0.5-0.7-0.9-1.2-1.1c0.1-0.1,0.2-0.2,0.3-0.3
		c0.3-0.3,0.6-0.7,0.7-1.2c9.5,0,18.9-0.1,28.4-0.1L69.3,47.5L69.3,47.5z"/>
	<linearGradient id="SVGID_4_" gradientUnits="userSpaceOnUse" x1="41.1125" y1="26.9542" x2="42.3424" y2="26.9542">
		<stop  offset="1.278670e-07" style="stop-color:#755610"/>
		<stop  offset="1" style="stop-color:#3D2905"/>
	</linearGradient>
	<path class="st6" d="M42.1,23.5l0.1,1.6l0,1l0.1,2.9l0,0c-0.1,0.5-0.3,0.9-0.7,1.2c-0.1,0.1-0.2,0.2-0.3,0.3l0-0.3l0-0.3L41.1,25
		C41.6,24.7,42,24.1,42.1,23.5z"/>
	
		<radialGradient id="SVGID_5_" cx="60.2532" cy="38.3343" r="11.2832" gradientTransform="matrix(1 0 0 0.9876 0 0.4742)" gradientUnits="userSpaceOnUse">
		<stop  offset="0.405" style="stop-color:#755610"/>
		<stop  offset="1" style="stop-color:#3D2905"/>
	</radialGradient>
	<path class="st7" d="M64,45.2l-8.2,0c-1.7,0-3-1.2-3-2.8l0-7.9c0-1.7,1.4-3,3.2-3.1l8.6,0c1.8,0,3.1,1.4,3,3l-0.5,7.9
		C67.1,43.9,65.6,45.2,64,45.2z"/>
	<radialGradient id="SVGID_6_" cx="40.4621" cy="38.4057" r="10.5742" gradientUnits="userSpaceOnUse">
		<stop  offset="0.405" style="stop-color:#755610"/>
		<stop  offset="1" style="stop-color:#3D2905"/>
	</radialGradient>
	<path class="st8" d="M47.6,33.7l0,1.6l0.1,7.6l0,0.4c0,1.1-0.9,1.9-2.1,1.9l-10,0c-1.2,0-2.2-0.9-2.2-1.9l0-0.4l-0.1-1.2l0-0.2
		l-0.1-1.4c0.7,0.6,1.7,0.9,2.7,0.6c0.9-0.3,1.6-1,1.7-1.9c0.1,0,0.2,0.1,0.2,0.1c0,0,0,0,0,0c0.1,0,0.2,0,0.2,0c0,0,0.1,0,0.1,0
		c0,0,0,0,0,0c0,0,0.1,0,0.1,0c0.1,0,0.1,0,0.2,0c0.1,0,0.1,0,0.2,0c0,0,0,0,0,0c0.1,0,0.1,0,0.2,0c0.1,0,0.2,0,0.2-0.1
		c0.1,0,0.1,0,0.2-0.1l0,0c0.1,0,0.2-0.1,0.2-0.1c0.1,0,0.1-0.1,0.2-0.1c0.1,0,0.1-0.1,0.2-0.1c0,0,0,0,0,0c0.1,0,0.1-0.1,0.2-0.1
		c0.1,0,0.1-0.1,0.2-0.2c0,0,0,0,0,0c0,0,0.1-0.1,0.1-0.2c0,0,0,0,0,0c0-0.1,0.1-0.1,0.1-0.2c0-0.1,0.1-0.1,0.1-0.2
		c0-0.1,0.1-0.1,0.1-0.2c0-0.1,0-0.1,0.1-0.2c0-0.1,0-0.1,0-0.2c0-0.2,0-0.3,0-0.5c0-0.1,0-0.2,0-0.2c0-0.2-0.1-0.3-0.1-0.5
		c-0.1-0.2-0.2-0.4-0.3-0.5c0.2,0,0.4,0,0.6-0.1c0.1,0,0.2-0.1,0.3-0.1c0,0,0.1,0,0.1,0c0.1,0,0.1-0.1,0.2-0.1
		c0.1,0,0.1-0.1,0.2-0.1c0.3-0.2,0.5-0.4,0.7-0.7c0,0,0-0.1,0-0.1c0-0.1,0.1-0.1,0.1-0.2c0-0.1,0.1-0.2,0.1-0.3c0,0,0-0.1,0-0.1
		c0-0.1,0-0.2,0.1-0.3c0-0.1,0-0.1,0-0.2c0-0.1,0-0.2,0-0.2c0-0.2-0.1-0.5-0.1-0.7c-0.1-0.2-0.1-0.3-0.2-0.5l2.7,0
		C46.5,31.5,47.5,32.5,47.6,33.7z"/>
	<radialGradient id="SVGID_7_" cx="59.6463" cy="55.3493" r="10.1704" gradientUnits="userSpaceOnUse">
		<stop  offset="0.405" style="stop-color:#755610"/>
		<stop  offset="1" style="stop-color:#3D2905"/>
	</radialGradient>
	<path class="st9" d="M63.1,61.3l-7.6,0c-1.5,0-2.8-1.1-2.8-2.4l0-6.8c0-1.4,1.3-2.6,3-2.6l8,0c1.6,0,2.9,1.2,2.8,2.6l-0.4,6.8
		C66,60.2,64.7,61.3,63.1,61.3z"/>
	<radialGradient id="SVGID_8_" cx="41.0565" cy="55.412" r="8.7288" gradientUnits="userSpaceOnUse">
		<stop  offset="0.405" style="stop-color:#755610"/>
		<stop  offset="1" style="stop-color:#3D2905"/>
	</radialGradient>
	<path class="st10" d="M45.2,61.3l-7.6,0c-1.5,0-2.9-1.1-3-2.4l-0.5-6.8c-0.1-1.4,1.1-2.6,2.7-2.6l8,0c1.6,0,3,1.2,3,2.6l0.1,6.8
		C48,60.2,46.8,61.3,45.2,61.3z"/>
	<radialGradient id="SVGID_9_" cx="59.1205" cy="70.1198" r="8.4536" gradientUnits="userSpaceOnUse">
		<stop  offset="0.405" style="stop-color:#755610"/>
		<stop  offset="1" style="stop-color:#3D2905"/>
	</radialGradient>
	<path class="st11" d="M62.4,75.3l-7.1,0c-1.4,0-2.6-0.9-2.6-2.1l0-5.9c0-1.3,1.2-2.3,2.8-2.3l7.5,0c1.5,0,2.7,1,2.6,2.3l-0.4,6
		C65.1,74.3,63.9,75.3,62.4,75.3z"/>
	<radialGradient id="SVGID_10_" cx="41.7681" cy="70.1745" r="8.5637" gradientUnits="userSpaceOnUse">
		<stop  offset="0.405" style="stop-color:#755610"/>
		<stop  offset="1" style="stop-color:#3D2905"/>
	</radialGradient>
	<path class="st12" d="M45.7,75.3l-7.1,0c-1.4,0-2.7-0.9-2.8-2.1l-0.5-5.9c-0.1-1.3,1.1-2.3,2.6-2.3l7.5,0c1.5,0,2.8,1,2.8,2.3
		l0.1,5.9C48.3,74.4,47.1,75.3,45.7,75.3z"/>
	<linearGradient id="SVGID_11_" gradientUnits="userSpaceOnUse" x1="42.1356" y1="26.1512" x2="70.7486" y2="26.1512">
		<stop  offset="1.278670e-07" style="stop-color:#755610"/>
		<stop  offset="1" style="stop-color:#3D2905"/>
	</linearGradient>
	<path class="st13" d="M69.1,23.4c0.5,1.8,1.1,3.6,1.6,5.4c-9.5,0-18.9,0.1-28.4,0.1l0,0c-0.1-1.8-0.1-3.6-0.2-5.4
		C51.1,23.4,60.1,23.4,69.1,23.4z"/>
	<linearGradient id="SVGID_12_" gradientUnits="userSpaceOnUse" x1="40.3129" y1="32.581" x2="42.9064" y2="32.581">
		<stop  offset="1.278670e-07" style="stop-color:#755610"/>
		<stop  offset="1" style="stop-color:#3D2905"/>
	</linearGradient>
	<path class="st14" d="M42.8,32c0.1,0.2,0.1,0.5,0.1,0.7c0,0.1,0,0.2,0,0.2c0,0.1,0,0.1,0,0.2c0,0.1,0,0.2-0.1,0.3c0,0,0,0.1,0,0.1
		c0,0.1-0.1,0.2-0.1,0.3c0,0.1-0.1,0.1-0.1,0.2c0,0,0,0.1,0,0.1c-0.2,0.3-0.4,0.5-0.7,0.7c-0.1,0-0.1,0.1-0.2,0.1
		c-0.1,0-0.1,0.1-0.2,0.1c0,0-0.1,0-0.1,0c-0.1,0-0.2,0.1-0.3,0.1c-0.2,0.1-0.4,0.1-0.6,0.1l0-0.5l0-1l-0.1-1.1l-0.1-2.6
		c0.2,0,0.4,0,0.6-0.1c0.2,0,0.3-0.1,0.4-0.2l0,0.3l0,0.3c0.5,0.2,0.9,0.6,1.2,1.1C42.6,31.7,42.7,31.8,42.8,32z"/>
</g>
<g id="bottomWrap">
	<path class="st15" d="M69.4,79.9l-0.2,1.7l-0.6,0l0,0c0-0.3-0.2-0.7-0.6-0.8c-0.9-0.3-1.7,0.2-1.8,0.8l0,0l-0.7,0l0,0
		c0-0.3-0.2-0.7-0.6-0.8c-0.9-0.3-1.7,0.2-1.8,0.8l0,0l-0.7,0l0,0c0-0.3-0.2-0.7-0.6-0.8c-0.9-0.3-1.7,0.2-1.8,0.8l0,0l-0.9,0l0,0
		c0-0.3-0.2-0.7-0.6-0.8c-0.9-0.3-1.7,0.2-1.8,0.8l0,0l-0.7,0l0,0c0-0.3-0.2-0.7-0.7-0.8c-0.9-0.3-1.7,0.2-1.7,0.8l0,0l-0.7,0l0,0
		c0-0.3-0.2-0.7-0.7-0.8c-0.9-0.3-1.7,0.2-1.7,0.8v0l-0.8,0l0,0c0-0.3-0.3-0.7-0.7-0.8c-0.9-0.3-1.7,0.2-1.7,0.8l0,0l-0.7,0l0,0
		c0-0.4-0.3-0.7-0.8-0.8c-0.8-0.2-1.6,0.3-1.6,0.8l0,0l-0.7,0l0,0c0-0.3-0.3-0.7-0.7-0.8c-0.9-0.3-1.7,0.2-1.7,0.8l0,0l-0.9,0l0,0
		c0-0.3-0.3-0.7-0.7-0.8c-0.9-0.3-1.7,0.2-1.7,0.8l0,0l-0.7,0l0,0c0-0.3-0.3-0.7-0.7-0.8C35.8,80.6,35,81,35,81.6l0,0l-0.7,0l0,0
		c0-0.3-0.3-0.7-0.8-0.8c-0.9-0.3-1.7,0.2-1.6,0.8l0,0l-0.6,0l-0.2-1.9c0.5-0.3,0.9-0.7,1.4-1c11.7,0,23.4,0,35.2,0L69.4,79.9z"/>
	<linearGradient id="SVGID_13_" gradientUnits="userSpaceOnUse" x1="27.65" y1="58.785" x2="72.8" y2="58.785">
		<stop  offset="0.405" style="stop-color:#662D91"/>
		<stop  offset="0.6159" style="stop-color:#692D91"/>
		<stop  offset="0.7705" style="stop-color:#722B90"/>
		<stop  offset="0.9068" style="stop-color:#822990"/>
		<stop  offset="1" style="stop-color:#92278F"/>
	</linearGradient>
	<path class="st16" d="M70.8,43.1l-1-1.6l-1.6,5.2l-2.6-6l-2.1,1.3l-3.8-2.6l-0.8-0.5l-0.2,0.5l-1.1,3l-2.7-1.7l-1,1.9L50,39.6
		l-1-0.8l-1.4,0.8l-3.5,2l-1.4-1.7L40.8,43l-2.7-3.4l-0.5-0.7l-0.5,0.7l-2.1,3l-0.8-2.5l-2.9,4.6l-3.6-5.1l5,39.2h35.2l5-39.2
		L70.8,43.1z"/>
	<path class="st15" d="M36.7,43.6h26.9c1.9,0,3.3,1.5,3,3.4l-3.2,23.5c-0.2,1.2-1.5,2.1-2.9,2.1H39.9c-1.5,0-2.8-0.9-2.9-2.1
		L33.7,47C33.5,45.2,34.8,43.6,36.7,43.6z"/>
	<g id="cacao">
		<path class="st17" d="M45.3,71.3c-0.8,0-1.6-0.3-2.1-0.9c-0.4,0.5-1.1,0.8-2,0.8c-1.3,0-2.3-0.6-2.5-1.7c-0.2-1.2,0.7-1.8,2-1.8
			c1.1,0,1.7,0.4,2.3,0.9c0.4-0.7,1.1-1,2.1-1c1.7,0,2.4,0.8,2.5,1.9C47.5,70.7,46.7,71.3,45.3,71.3z M41,69.1c-0.7,0-1,0.2-1,0.4
			c0,0.3,0.4,0.4,1.1,0.4c0.6,0,1.1-0.2,1.4-0.5C42.1,69.2,41.6,69.1,41,69.1z M45.2,69c-0.7,0-1.2,0.2-1.5,0.5
			c0.3,0.3,0.9,0.5,1.4,0.5c0.6,0,1-0.2,1-0.5C46.2,69.2,45.8,69,45.2,69z"/>
		<path class="st17" d="M44.2,67.3c0-0.8,0-1.4,0-1.4c1.4,0,1.9-0.1,1.8-0.4c0-0.3-0.4-0.5-1.9-0.5c-1.2,0-1.8,0.1-1.8,0.4
			c0,0.3,0.5,0.4,1.3,0.5c0,0,0,0.7,0,1.4c0,0-2.3-0.1-5-0.1c0,0-0.2-1.4-0.6-3.5c0,0,0.3,0,1.7,0c0,0,0.1,0.8,0.3,2.1
			c0.4,0,1,0,1.9,0c-0.5-0.2-0.8-0.6-0.8-1.1c-0.1-1,1.2-1.3,2.9-1.3c2.3,0,3.4,0.7,3.4,2C47.4,67,46.2,67.4,44.2,67.3z"/>
		<path class="st17" d="M39.9,63.4c-1.4,0-2.3-0.5-2.4-1.5c-0.2-1,0.7-1.5,2.3-1.5c1.8,0,2.5,0.6,2.6,1.5
			C42.4,63,41.5,63.4,39.9,63.4z M47,62.6c-6.2-2.6-9.7-4-9.7-4c0-0.5-0.1-0.9-0.1-0.9c8.7,3.7,9.9,4.1,9.9,4.1
			C47,62.3,47,62.6,47,62.6z M39.9,61.5c-1.1,0-1.5,0.1-1.5,0.4c0,0.3,0.5,0.4,1.5,0.4c1.2,0,1.6-0.1,1.6-0.4
			C41.4,61.6,41.1,61.5,39.9,61.5z M44.5,60.2c-1.4,0-2.4-0.5-2.5-1.6c-0.1-1.2,0.9-1.7,2.4-1.7c1.9,0,2.6,0.7,2.6,1.7
			C47,59.8,46.1,60.2,44.5,60.2z M44.5,58.1c-1.2,0-1.6,0.1-1.6,0.4c0,0.3,0.4,0.4,1.6,0.4c1.3,0,1.7-0.1,1.7-0.4
			C46.1,58.3,45.8,58.1,44.5,58.1z"/>
		<path class="st17" d="M57.4,71.2c-2.9,0-4.3-0.5-4.3-1.9c0-1.3,1.5-1.7,3.6-1.7c-0.1,0.9-0.2,1.4-0.2,1.4c-1.5,0-2.1,0.1-2.1,0.3
			c0,0.3,0.8,0.4,3,0.4c2.3,0,3-0.1,3.1-0.4c0-0.2-0.3-0.4-2.3-0.4c0-0.8,0.1-1.4,0.1-1.4c3,0,3.7,0.7,3.6,1.8
			C61.8,70.7,60.5,71.2,57.4,71.2z"/>
		<path class="st17" d="M53.4,66.6c0-1.1,0-2,0-2s4.5-0.5,9.4-1.2c0,0-0.1,0.6-0.2,1.5c0,0-0.6,0-1.8,0.1c0,0.2-0.1,0.6-0.1,1
			l1.3,0.1c0,0-0.1,0.4-0.2,1.4C61.8,67.5,58.6,67.1,53.4,66.6z M59.3,66c0,0,0-0.3,0.1-0.8c-1.2,0.1-2.6,0.2-4.5,0.4
			C55.6,65.6,57.3,65.8,59.3,66z"/>
		<path class="st17" d="M58.1,63.3c-3.2,0-4.6-0.6-4.6-2.3c0.1-1.5,1.4-2.2,3.8-2.1c-0.1,1.1-0.1,1.7-0.1,1.7
			c-1.7,0-2.2,0.2-2.2,0.5c0,0.4,0.9,0.5,3.2,0.5c2.4,0,3.2-0.1,3.3-0.5c0-0.3-0.3-0.5-2.3-0.5c0.1-0.9,0.1-1.8,0.1-1.8
			c3-0.1,4,0.7,3.8,2.2C62.9,62.4,61.9,63.3,58.1,63.3z"/>
		<path class="st17" d="M53.9,57.5c0-1.4,0.1-2.5,0.1-2.5s4.6-0.6,10-1.4c0,0-0.1,0.7-0.3,1.9l-1.6,0.1c0,0.3-0.1,0.7-0.2,1.3
			l1.6,0.1c0,0-0.1,0.5-0.3,1.7C63.3,58.8,59.8,58.3,53.9,57.5z M60.5,56.8c0.1-0.8,0.1-1,0.1-1c-1.2,0.1-2.9,0.3-5.1,0.5
			C56.3,56.4,58.1,56.6,60.5,56.8z"/>
		<path class="st17" d="M59,53.6c-2.9,0-5.2-0.5-5.1-2.7c0.1-2.3,2.4-2.9,5.6-2.9c4.3,0,5.5,1,5.2,2.9C64.4,52.9,62.5,53.6,59,53.6z
			 M59.2,50.2c-2.9,0-3.7,0.2-3.7,0.7c0,0.5,0.9,0.6,3.6,0.6c3.1,0,3.9-0.2,4-0.7C63.2,50.4,62.5,50.2,59.2,50.2z"/>
	</g>
</g>
<g id="topOfWrap">
	<linearGradient id="topWrap_1_" gradientUnits="userSpaceOnUse" x1="25.28" y1="33.9" x2="75.17" y2="33.9">
		<stop  offset="0.405" style="stop-color:#662D91"/>
		<stop  offset="0.6159" style="stop-color:#692D91"/>
		<stop  offset="0.7705" style="stop-color:#722B90"/>
		<stop  offset="0.9068" style="stop-color:#822990"/>
		<stop  offset="1" style="stop-color:#92278F"/>
	</linearGradient>
	<path id="topWrap" class="st18" d="M75.2,21l-2.4,18.6l-2,3.6l-1-1.6l-1.6,5.2l-2.6-6l-2.1,1.3l-3.8-2.6l-0.8-0.5l-0.2,0.5l-1.1,3
		l-2.7-1.7l-1,1.9L50,39.6l-1-0.8l-1.4,0.8l-3.5,2l-1.4-1.7L40.8,43l-2.7-3.4l-0.5-0.7l-0.5,0.7l-2.1,3l-0.8-2.5l-2.9,4.6l-3.6-5.1
		L25.3,21H75.2z"/>
	<path id="rim" class="st15" d="M23.1,19.5l0.2-2.4l0.8,0l0,0c0,0.5,0.3,0.9,0.9,1.1c1.2,0.4,2.5-0.3,2.5-1.1l0,0l0.9,0l0,0
		c0,0.5,0.3,0.9,0.9,1.1c1.2,0.4,2.5-0.3,2.5-1.1l0,0l0.9,0l0,0c0,0.5,0.3,0.9,0.9,1.1c1.2,0.4,2.5-0.3,2.5-1.1l0,0l1.3,0l0,0
		c0,0.5,0.3,0.9,0.9,1.1c1.2,0.4,2.5-0.3,2.5-1.1l0,0l0.9,0l0,0c0,0.5,0.3,0.9,0.9,1.1c1.2,0.4,2.4-0.3,2.5-1.1l0,0l0.9,0l0,0
		c0,0.5,0.4,0.9,1,1.1c1.2,0.4,2.4-0.3,2.4-1.1l0,0l1.1,0l0,0c0,0.5,0.4,0.9,1,1.1c1.3,0.4,2.4-0.3,2.4-1.1l0,0l0.9,0l0,0
		c0,0.5,0.5,1,1.2,1.2c1.2,0.3,2.3-0.4,2.2-1.2l0,0l0.9,0l0,0c0,0.5,0.4,0.9,1,1.1c1.3,0.4,2.4-0.3,2.4-1.1l0,0l1.3,0l0,0
		c0,0.5,0.4,0.9,1,1.1c1.3,0.4,2.4-0.3,2.4-1.1l0,0l0.9,0l0,0c0,0.5,0.4,0.9,1,1.1c1.3,0.4,2.4-0.3,2.4-1.1l0,0l0.9,0l0,0
		c0,0.5,0.4,0.9,1.1,1.1c1.3,0.4,2.4-0.3,2.3-1.1l0,0l0.8,0l0.3,2.6c-0.6,0.5-1.3,0.9-1.9,1.4c-16.6,0-33.2,0-49.8,0L23.1,19.5z"/>
	<g id="chocolate">
		<path class="st15" d="M31.3,32.3c-0.8-4.8-0.6-7.4,1.1-7.4c1.6,0,2.4,2.5,2.8,5.8c-1,0-1.6-0.1-1.6-0.1c-0.4-2.5-0.6-3.4-0.9-3.4
			c-0.4,0-0.3,1.4,0.3,4.9c0.6,3.5,0.8,4.5,1.2,4.5c0.3,0,0.4-0.6-0.1-3.4c0.9-0.1,1.6-0.1,1.6-0.1c0.6,4.2,0,5.4-1.2,5.4
			C33,38.7,32.1,37,31.3,32.3z"/>
		<path class="st15" d="M38.4,34.4c-0.2,0-0.4,0-0.8,0l0.5,3.7c0,0-0.6,0-1.4,0c0,0-0.6-4.6-1.7-12.5c0,0,0.4,0,1.6,0
			c0,0,0.3,2.8,0.8,6.6c0.1,0,0.4,0,0.9,0c-0.2-2-0.5-4.5-0.8-7.3c0,0,0.6,0,1.6,0c0,0,0.6,6.5,1.4,13.8c0,0-0.6-0.1-1.4,0
			C38.9,38.8,38.7,37,38.4,34.4z"/>
		<path class="st15" d="M40.2,32.3c-0.4-3.9-0.2-7.2,1.6-7.2c1.8,0,2.4,3.1,2.7,7.2c0.2,5-0.3,6.4-1.7,6.4
			C41.3,38.7,40.6,36.6,40.2,32.3z M42.8,32.2c-0.2-3.7-0.5-4.8-0.9-4.8c-0.4,0-0.4,1.3-0.2,4.8c0.3,3.8,0.5,4.7,0.9,4.7
			C43,36.9,43,36.2,42.8,32.2z"/>
		<path class="st15" d="M44.8,32.3c-0.2-4.7,0.3-7.2,2-7.2c1.5,0,2.2,2.1,2.1,5.6c-1,0-1.6,0.1-1.6,0.1c-0.1-2.5-0.2-3.2-0.5-3.2
			c-0.4,0-0.5,1.4-0.3,4.8c0.1,3.3,0.3,4.3,0.6,4.3c0.3,0,0.5-0.4,0.3-3.1c0.8,0,1.6-0.1,1.6-0.1c0.1,3.9-0.5,5.2-1.9,5.2
			C45.9,38.6,45,37.4,44.8,32.3z"/>
		<path class="st15" d="M53.6,32.3c-0.2,4.7-0.9,6.2-2.2,6.2c-1.5,0-2-1.8-2.1-6.2c0-4.9,0.6-7.1,2.2-7.1
			C53.2,25.2,53.8,27.5,53.6,32.3z M51,32.5c0,3.7,0.2,4.3,0.5,4.3c0.3,0,0.5-0.5,0.6-4.2c0.1-4.1-0.1-5-0.5-5
			C51.2,27.5,51,28.4,51,32.5z"/>
		<path class="st15" d="M54.3,25.5c0,0,0.5,0,1.6,0c0,0-0.2,2.9-0.5,10.8c1,0.1,1.6,0.1,1.6,0.1c-0.1,1.3-0.2,2.1-0.2,2.1
			c-1,0-2.9-0.1-2.9-0.1S54.1,33.6,54.3,25.5z"/>
		<path class="st15" d="M59,25.3c1.3-0.1,2.3-0.1,2.3-0.1s-0.2,7-0.2,13.5c0,0-0.6,0-1.5,0c0,0,0-0.7,0.1-2.3c-0.2,0-0.6,0-1.1,0
			l-0.2,1.8c0,0-0.4,0-1.4,0C57,38.2,57.7,33.6,59,25.3z M58.9,34.4c0,0,0.3,0,0.8,0c0.1-1.7,0.1-3.8,0.2-6.8
			C59.7,28.8,59.3,31.3,58.9,34.4z"/>
		<path class="st15" d="M62.3,25.4c0,0,1.2,0,4-0.1c0,0-0.2,1-0.4,2.8c0,0-0.5,0-1.2,0c-0.3,2-0.7,5.2-1.3,10.5c0,0-0.5,0-1.4,0
			c0,0,0.5-3.9,1.2-10.5l-1.2,0C62,28.1,62.1,27.3,62.3,25.4z"/>
		<path class="st15" d="M66.6,25.6c0,0,0.9,0,3.3-0.1c0,0-0.2,1.2-0.5,2.8c0,0-0.8,0-1.7,0.1c0,0-0.2,1.2-0.5,3.2c0,0,0.6,0,1.4,0
			c0,0-0.2,0.9-0.4,2.3c0,0-0.6,0-1.3,0c-0.1,0.7-0.2,1.5-0.3,2.3c0,0,0.6,0,1.5,0c0,0-0.2,0.7-0.4,2.2c0,0-1.3,0-2.9-0.1
			C64.9,38.3,65.5,33.5,66.6,25.6z"/>
	</g>
</g>
<defs>
<script>

let icon = document.querySelector("#chocolate");

function logMyId() {
	console.log(this.id);
}

icon.addEventListener("click", () => { console.log(this); });

</script>
</defs>
</svg>
