<?xml version="1.0" encoding="utf-8"?>
<!-- Generator: Adobe Illustrator 25.0.0, SVG Export Plug-In . SVG Version: 6.00 Build 0)  -->
<svg version="1.1" id="masterShake" xmlns="http://www.w3.org/2000/svg" xmlns:xlink="http://www.w3.org/1999/xlink" x="0px" y="0px"
	 viewBox="0 0 100 100" style="enable-background:new 0 0 100 100;" xml:space="preserve">
<style type="text/css">
	.st0{fill:#FFB361;}
	.st1{fill:none;}
	.st2{fill:#231F20;}
	.st3{fill:#F7941D;}
	.st4{fill:#30D8C8;}
	.st5{opacity:0.5;}
	.st6{fill:#00A79D;}
</style>
<g>
	<circle class="st0" cx="50" cy="50" r="48.2"/>
</g>
<g>
	<polygon class="st1" points="61.4,81.1 61,85.9 61.4,81.1 61.4,80.4 61.9,75.5 61.4,80.4 	"/>
	<polygon class="st1" points="62.4,69.2 62.4,69.8 62.4,69.2 62.9,64.1 62.9,63.3 62.9,64.1 	"/>
	<polygon class="st1" points="38,65 38.4,70.1 38.5,70.8 38.4,70.1 	"/>
	<polygon class="st1" points="64.7,42.4 65.1,37.6 65.2,36.6 65.1,37.6 	"/>
	<polygon class="st1" points="39.5,82 39.1,76.8 39.5,82 39.7,83.4 39.7,83.8 39.7,83.4 	"/>
	<polygon class="st1" points="60.8,88.1 60.9,86.6 61,85.9 60.9,86.6 	"/>
	<polygon class="st1" points="35.4,37.3 35.6,38.9 35.9,42.4 35.6,38.9 	"/>
	<polygon class="st1" points="63.4,58.2 63.4,57.3 63.9,52.2 63.4,57.3 	"/>
	<polygon class="st2" points="53.4,20.4 53.4,20.4 53.4,20.4 	"/>
	<g>
		<path class="st3" d="M53.2,20.2c-0.3-0.3-0.6-0.8-0.8-1.4c-0.2-0.7-0.1-1.3-0.1-1.7c-0.1-0.5-0.6-0.9-1.1-0.9
			c-0.2,0-0.5,0.1-0.6,0.2c-0.1,0.1-0.2,0.1-0.2,0.2c-0.1,0.1-0.1,0.2-0.2,0.3C51.3,18,52.3,19.1,53.2,20.2z"/>
	</g>
	<g>
		<path class="st3" d="M49.8,20.5c0.1,0,0.1,0.1,0.2,0.1c0.4,0.1,0.8,0.1,1.5,0c0.8-0.1,1.5-0.2,2-0.2c0,0,0,0,0,0c0,0,0,0,0,0
			c-1.2-0.2-2.6-1.2-4.1-2.1c-0.5,0.5-0.6,1.2-0.4,1.6C49.1,20.3,49.5,20.4,49.8,20.5z"/>
	</g>
	<g>
		<rect x="61.1" y="11.4" class="st4" width="0" height="0"/>
	</g>
	<g>
		<path class="st4" d="M52.5,18.7c0.2,0.7,0.5,1.1,0.8,1.4c0.1,0.1,0.1,0.1,0.2,0.2c0,0,0,0,0,0c0,0,0,0,0,0c0,0,0,0,0,0h0
			c-0.5,0.1-1.2,0.1-2,0.2c-0.7,0.1-1.1,0.1-1.5,0l-0.5,8.7h4.4l-0.5-8.9c3.2-0.4,6.5-0.7,9.7-1.1c-1-0.1-2.3-1.3-2.8-2.6
			c-0.8-1.7-0.6-4.1,0.3-5c-2.7,1.8-5.5,3.5-8.2,5.3C52.3,17.4,52.3,18,52.5,18.7z"/>
	</g>
	<path class="st3" d="M53.1,52.1c0.2-0.1,0.3-0.2,0.5-0.3l0.1-1.2l0.3-4c-0.1,0.1-0.3,0.2-0.5,0.3l-0.3,3.7L53.1,52.1z"/>
	<path class="st3" d="M50.7,79.8c0.1,0.1,0.3,0.3,0.4,0.4l0.4-4.6l0-0.1c-0.2,0-0.3-0.1-0.4-0.2l0,0.3L50.7,79.8z"/>
	<path class="st3" d="M54.7,48.8c0.4-0.8,1.2-1.3,2.1-1.4l0.1-1.7l0.3-3l0-0.3c-0.1,0-0.1,0-0.2,0c-0.6,0-1.1,0.2-1.5,0.6
		c-0.2,0.2-0.4,0.5-0.5,0.8L55,45.8L54.7,48.8z"/>
	<path class="st3" d="M59.2,67.1c0-0.4-0.1-0.8-0.3-1.2l-0.3,3.2l-0.1,0.7l0,0.5c0.8,0.5,1.4,1.4,1.4,2.4c0,1.1,0.9,2.1,2.1,2.1
		l0.4-5c-0.1,0-0.3,0-0.4,0C60.4,69.9,59.2,68.6,59.2,67.1z"/>
	<path class="st3" d="M57.1,36.1c0.2,0,0.5,0,0.7,0.1l0.1-0.6h-2l-0.1,0.9C56.2,36.3,56.6,36.1,57.1,36.1z"/>
	<path class="st3" d="M40.4,50.2c0,1.2,0.9,2.1,2.1,2.1c1.2,0,2.1-0.9,2.1-2.1c0-1.5,1.2-2.8,2.8-2.8c0.8,0,1.5,0.3,1.9,0.8
		c0.5,0.5,0.8,1.2,0.8,2c0,0.5,0.2,1,0.5,1.3l0.1-0.9L51,47c-0.3-0.1-0.5-0.3-0.7-0.5c-0.5-0.5-0.8-1.2-0.8-2c0-1.2-0.9-2.1-2.1-2.1
		c-1.2,0-2.1,0.9-2.1,2.1c0,1.5-1.2,2.8-2.8,2.8c-1.5,0-2.8-1.2-2.8-2.8c0-1.2-0.9-2.1-2.1-2.1c-0.6,0-1.1,0.2-1.5,0.6
		c-0.1,0.1-0.1,0.2-0.2,0.2l0.4,4.4c0.4-0.2,0.8-0.3,1.3-0.3C39.2,47.4,40.4,48.7,40.4,50.2z"/>
	<path class="st3" d="M52,80.4L52,80.4c0.1,0.1,0.2,0.1,0.3,0.1c0.6,0,1.1-0.2,1.5-0.6c0.1-0.1,0.3-0.3,0.4-0.5l0.3-3.9l0.1-0.7
		l0-0.6c-0.5,0.7-1.2,1.2-2.1,1.2l0,0L52,80.4z"/>
	<path class="st3" d="M52.6,57.9c0.2,0,0.3-0.1,0.5-0.1l0-0.5l0.4-4.7c-0.1,0.1-0.3,0.1-0.5,0.2l-0.4,4.5L52.6,57.9z"/>
	<path class="st3" d="M54,57c0.2-0.3,0.4-0.7,0.4-1.2c0-1.3,0.8-2.3,2-2.7l0.1-1l0.1-1.5l0.2-2.5c-0.5,0.1-0.9,0.3-1.2,0.6
		c-0.4,0.4-0.6,0.9-0.6,1.5c0,0.6-0.2,1.2-0.6,1.7l0,0.3L54,57z"/>
	<path class="st3" d="M60,52.2l-0.3,3c0,0.2,0.1,0.4,0.1,0.6c0,1.2,0.9,2.1,2.1,2.1c0.6,0,1.1-0.2,1.5-0.6l0.4-5.2
		c-0.5,0.5-1.2,0.8-1.9,0.8C61.2,52.9,60.5,52.6,60,52.2z"/>
	<path class="st3" d="M54.3,37.6l-0.2,2.2c0.1-0.3,0.2-0.6,0.2-0.9c0-0.5,0.2-1.1,0.4-1.5l0.1-0.8l0.1-1h-0.5l-0.1,1L54.3,37.6z"/>
	<path class="st3" d="M40.4,44.5c0,1.2,0.9,2.1,2.1,2.1c1.2,0,2.1-0.9,2.1-2.1c0-1.5,1.2-2.8,2.8-2.8c0.8,0,1.5,0.3,1.9,0.8
		c0.5,0.5,0.8,1.2,0.8,2c0,0.7,0.4,1.4,0.9,1.7l0-0.5l0.3-3l0.1-1.3c-0.5-0.1-0.9-0.4-1.2-0.7c-0.5-0.5-0.8-1.2-0.8-2
		c0-1.2-0.9-2.1-2.1-2.1c-1.2,0-2.1,0.9-2.1,2.1c0,1.5-1.2,2.8-2.8,2.8c-1.5,0-2.8-1.2-2.8-2.8c0-1.2-0.9-2.1-2.1-2.1
		c-0.6,0-1.1,0.2-1.5,0.6c-0.4,0.4-0.6,0.9-0.6,1.5l0.3,3.5c0.5-0.4,1.1-0.6,1.8-0.6C39.2,41.8,40.4,43,40.4,44.5z"/>
	<path class="st3" d="M37.7,36.1c1.5,0,2.8,1.2,2.8,2.8c0,1.2,0.9,2.1,2.1,2.1c1.2,0,2.1-0.9,2.1-2.1c0-1.5,1.2-2.8,2.8-2.8
		c0.8,0,1.5,0.3,1.9,0.8c0.5,0.5,0.8,1.2,0.8,2c0,0.9,0.6,1.7,1.4,2l0.3-3.2l0.1-1l0.1-1H35.3l0.2,1.7
		C35.9,36.6,36.8,36.1,37.7,36.1z"/>
	<path class="st3" d="M40.4,84.1c0,1.2,0.9,2.1,2.1,2.1c1.2,0,2.1-0.9,2.1-2.1c0-1.5,1.2-2.8,2.8-2.8c0.2,0,0.5,0,0.7,0.1l0-0.3
		l0.1-0.7l0.3-3.8c-0.3-0.2-0.7-0.3-1.1-0.3c-1.2,0-2.1,0.9-2.1,2.1c0,1.5-1.2,2.8-2.8,2.8c-1.5,0-2.8-1.2-2.8-2.8
		c0-0.6-0.3-1.2-0.7-1.6l0.5,5.2C40.1,82.5,40.4,83.3,40.4,84.1z"/>
	<path class="st3" d="M59.2,84.1c0-1-0.7-1.9-1.7-2.1l-0.3,3.9l-0.1,0.7L57,88.1h-1.1h-1.4h-1.1l0.1-1.5l0-0.1
		c-0.4,0.2-0.8,0.3-1.2,0.3c-0.3,0-0.6,0-0.8-0.1l-0.1,1.4h-0.9l0.1-1.5l0-0.4c-0.1-0.1-0.2-0.2-0.3-0.2c0,0-0.1-0.1-0.1-0.2l0,0.1
		l-0.1,0.7L50,88.1h-2.5l0.1-1.5l0.1-0.7l0.3-3.9C47.8,82,47.6,82,47.4,82c-1.2,0-2.1,0.9-2.1,2.1c0,1.5-1.2,2.8-2.8,2.8
		c-1.5,0-2.8-1.2-2.8-2.8c0-0.2,0-0.5-0.1-0.7l0,0.4l0.4,4.3h20.7l0.1-1.5C59.9,86.2,59.2,85.2,59.2,84.1z"/>
	<path class="st3" d="M62,47.3c-0.5,0-1-0.2-1.5-0.4l-0.3,3.8l0,0.6c0.4,0.6,1,1.1,1.8,1.1c0.6,0,1.1-0.2,1.5-0.6
		c0.3-0.3,0.5-0.6,0.6-1l0.4-4.9C64,46.7,63,47.3,62,47.3z"/>
	<path class="st3" d="M59.2,78.4c0-0.9-0.5-1.6-1.3-1.9l-0.3,4l-0.1,0.7l0,0.2c1.3,0.2,2.3,1.3,2.3,2.7c0,0.8,0.4,1.5,1.1,1.8
		l0.4-4.8C60.1,80.8,59.2,79.7,59.2,78.4z"/>
	<path class="st3" d="M59.2,72.8c0-0.7-0.3-1.3-0.8-1.6l-0.3,3.7L58,75.5l0,0.3c1.1,0.4,1.9,1.4,1.9,2.6c0,1,0.7,1.8,1.6,2l0.4-4.9
		C60.4,75.5,59.2,74.3,59.2,72.8z"/>
	<path class="st3" d="M53.6,45.8l0,0.4c0.1,0,0.1-0.1,0.2-0.1c0.1-0.1,0.3-0.3,0.3-0.5l0.2-2.8l0.2-2.3c-0.1,0.2-0.3,0.4-0.5,0.5
		l-0.2,1.8L53.6,45.8z"/>
	<path class="st3" d="M40.4,78.4c0,1.2,0.9,2.1,2.1,2.1c1.2,0,2.1-0.9,2.1-2.1c0-1.5,1.2-2.8,2.8-2.8c0.4,0,0.8,0.1,1.1,0.3l0-0.4
		l0.1-0.7l0.3-3.5c-0.4-0.4-0.9-0.7-1.5-0.7c-1.2,0-2.1,0.9-2.1,2.1c0,1.5-1.2,2.8-2.8,2.8c-1.5,0-2.8-1.2-2.8-2.8
		c0-0.9-0.5-1.6-1.3-1.9L39,76v0C39.8,76.4,40.4,77.4,40.4,78.4z"/>
	<path class="st3" d="M55.2,42.5c0.5-0.4,1.1-0.7,1.9-0.7c0.1,0,0.2,0,0.2,0l0.4-4.1l0.1-0.8c-0.2-0.1-0.4-0.1-0.7-0.1
		c-0.5,0-1,0.2-1.4,0.6l0,0.3L55.2,42.5z"/>
	<path class="st3" d="M59.6,57.3L59.6,57.3l-0.1,0.9l-0.1,1.7c0.3,0.4,0.5,1,0.5,1.6c0,1.2,0.9,2.1,2.1,2.1c0.3,0,0.7-0.1,1-0.2
		l0.4-5.1c-0.4,0.2-0.9,0.4-1.4,0.4C61,58.6,60.1,58,59.6,57.3z"/>
	<path class="st3" d="M52,69.2L52,69.2l0.4-5c-0.1,0-0.1,0-0.2,0c-0.1,0-0.2,0-0.2,0l-0.4,4.9C51.7,69.2,51.9,69.2,52,69.2z"/>
	<path class="st3" d="M40.4,72.8c0,1.2,0.9,2.1,2.1,2.1c1.2,0,2.1-0.9,2.1-2.1c0-1.5,1.2-2.8,2.8-2.8c0.6,0,1.2,0.2,1.6,0.5l0.1-0.7
		l0.1-0.7l0.2-2.8c-0.3-0.8-1.1-1.4-2-1.4c-1.2,0-2.1,0.9-2.1,2.1c0,1.5-1.2,2.8-2.8,2.8c-1.5,0-2.8-1.2-2.8-2.8
		c0-1.1-0.8-1.9-1.8-2.1l0.5,5.1C39.6,70.4,40.4,71.5,40.4,72.8z"/>
	<path class="st3" d="M53,69.1c0.3-0.1,0.6-0.3,0.8-0.5c0.4-0.4,0.6-0.9,0.6-1.5c0-0.8,0.4-1.6,1-2.1l0.1-0.9l0.1-0.7l0.3-3.5
		c-0.1,0-0.1,0.1-0.2,0.1c-0.4,0.4-0.6,0.9-0.6,1.5c0,1.1-0.7,2.1-1.6,2.5l0,0.1L53,69.1z"/>
	<path class="st3" d="M52.5,74.9c0.5,0,0.9-0.3,1.3-0.6c0.4-0.4,0.6-0.9,0.6-1.5c0-0.6,0.2-1.1,0.4-1.5l0.1-1.4l0.1-0.7l0.3-3
		c-0.1,0.3-0.2,0.6-0.2,0.9c0,1.3-0.9,2.4-2.1,2.7l0,0.1L52.5,74.9z"/>
	<path class="st3" d="M61.4,36.6l-0.1,1L61,40.8c0.3,0.1,0.6,0.2,0.9,0.2c0.6,0,1.1-0.2,1.5-0.6c0.4-0.4,0.6-0.9,0.6-1.5
		c0-0.9,0.5-1.7,1.2-2.2l0.1-1h-3.8L61.4,36.6z"/>
	<path class="st3" d="M40.4,67.1c0,1.2,0.9,2.1,2.1,2.1c1.2,0,2.1-0.9,2.1-2.1c0-1.5,1.2-2.8,2.8-2.8c0.8,0,1.5,0.3,1.9,0.8
		c0,0,0.1,0.1,0.1,0.1l0.1-1.2l0.1-0.7l0.1-0.8c-0.1-0.3-0.2-0.7-0.2-1c0-1.2-0.9-2.1-2.1-2.1c-1.2,0-2.1,0.9-2.1,2.1
		c0,1.5-1.2,2.8-2.8,2.8c-1.5,0-2.8-1.2-2.8-2.8c0-1.2-0.9-2.1-2.1-2.1c-0.1,0-0.1,0-0.2,0l0.5,5l0,0C39.3,64.5,40.4,65.7,40.4,67.1
		z"/>
	<path class="st3" d="M64.7,38.9c0,1.5-1.2,2.8-2.8,2.8c-0.4,0-0.7-0.1-1-0.2l-0.1,1.3l-0.3,3l0,0.3c0.4,0.3,0.9,0.5,1.4,0.5
		c0.6,0,1.1-0.2,1.5-0.6c0.4-0.4,0.6-0.9,0.6-1.5c0-0.7,0.2-1.3,0.6-1.7v0l0-0.4l0.4-4.7C64.9,38,64.7,38.4,64.7,38.9z"/>
	<path class="st3" d="M53.5,63.2c0.1-0.1,0.2-0.1,0.3-0.2c0.4-0.4,0.6-0.9,0.6-1.5c0-1.1,0.6-2,1.5-2.5l0.1-0.8l0.1-0.9l0.3-3.4
		c-0.3,0.1-0.5,0.3-0.7,0.5c-0.4,0.4-0.6,0.9-0.6,1.5c0,0.9-0.4,1.7-1.1,2.2l0,0.2L53.5,63.2z"/>
	<path class="st3" d="M51.1,74.5c0.1,0.1,0.3,0.2,0.4,0.2l0.4-4.9c-0.2,0-0.3,0-0.4-0.1l0,0.1L51.1,74.5z"/>
	<path class="st3" d="M59,64.1l-0.1,1c0.6,0.5,0.9,1.2,0.9,2.1c0,1.2,0.9,2.1,2.1,2.1c0.2,0,0.3,0,0.4,0l0.4-5.1
		c-0.3,0.1-0.6,0.1-0.9,0.1c-1.4,0-2.6-1.1-2.7-2.5l-0.1,1.6L59,64.1z"/>
	<path class="st3" d="M40.4,55.8c0,1.2,0.9,2.1,2.1,2.1c1.2,0,2.1-0.9,2.1-2.1c0-1.5,1.2-2.8,2.8-2.8c0.8,0,1.5,0.3,1.9,0.8
		c0.5,0.5,0.8,1.2,0.8,2c0,0.2,0,0.4,0.1,0.5l0.3-4c-0.1-0.1-0.2-0.1-0.3-0.2c-0.5-0.5-0.8-1.2-0.8-2c0-1.2-0.9-2.1-2.1-2.1
		c-1.2,0-2.1,0.9-2.1,2.1c0,1.5-1.2,2.8-2.8,2.8c-1.5,0-2.8-1.2-2.8-2.8c0-1.2-0.9-2.1-2.1-2.1c-0.5,0-0.9,0.1-1.2,0.4l0.4,4.7
		c0.2-0.1,0.5-0.1,0.8-0.1C39.2,53.1,40.4,54.3,40.4,55.8z"/>
	<path class="st3" d="M54,80.5c-0.5,0.4-1.1,0.6-1.7,0.6c-0.1,0-0.2,0-0.3,0l-0.4,4.8l0,0.1c0.2,0.1,0.5,0.1,0.8,0.1
		c0.5,0,0.9-0.2,1.3-0.5l0.4-4.6L54,80.5z"/>
	<path class="st3" d="M40.4,61.5c0,1.2,0.9,2.1,2.1,2.1c1.2,0,2.1-0.9,2.1-2.1c0-1.5,1.2-2.8,2.8-2.8c0.8,0,1.5,0.3,1.9,0.8
		c0.2,0.2,0.4,0.5,0.5,0.8l0.2-2.1l0.1-0.6c-0.4-0.5-0.6-1.1-0.6-1.7c0-1.2-0.9-2.1-2.1-2.1c-1.2,0-2.1,0.9-2.1,2.1
		c0,1.5-1.2,2.8-2.8,2.8c-1.5,0-2.8-1.2-2.8-2.8c0-1.2-0.9-2.1-2.1-2.1c-0.3,0-0.5,0-0.7,0.1l0.4,4.9c0.1,0,0.2,0,0.3,0
		C39.2,58.7,40.4,59.9,40.4,61.5z"/>
	<path class="st3" d="M51,80.9c-0.2-0.1-0.3-0.2-0.4-0.3l0,0.5l-0.3,3.6c0.1,0.3,0.2,0.5,0.4,0.7l0.4-4.3L51,80.9z"/>
	<path class="st3" d="M52.1,63.6c0.1,0,0.1,0,0.2,0c0.1,0,0.2,0,0.3,0l0-0.2l0.4-4.9c-0.1,0-0.3,0.1-0.5,0.1l-0.4,4.8L52.1,63.6z"/>
	<g class="st5">
		<path class="st4" d="M52.2,57.9c0.1,0,0.2,0,0.3,0l0-0.6l0.4-4.5c-0.2,0.1-0.5,0.1-0.8,0.1c-0.6,0-1.2-0.2-1.7-0.6l-0.3,4
			C50.5,57.3,51.3,57.9,52.2,57.9z"/>
	</g>
	<g class="st5">
		<path class="st4" d="M48.6,75.5l0,0.4c0.3,0.1,0.6,0.3,0.8,0.6c0.5,0.5,0.8,1.2,0.8,2c0,0.5,0.2,1,0.5,1.4l0.4-4.3l0-0.3
			c-0.3-0.1-0.5-0.3-0.8-0.5c-0.5-0.5-0.8-1.2-0.8-2c0-0.6-0.2-1.1-0.6-1.4l-0.3,3.5L48.6,75.5z"/>
	</g>
	<g class="st5">
		<path class="st4" d="M50.6,51.5c0.4,0.5,1,0.8,1.6,0.8c0.3,0,0.6-0.1,0.8-0.2l0.1-1.5l0.3-3.7c-0.4,0.2-0.8,0.3-1.3,0.3
			c-0.4,0-0.9-0.1-1.2-0.3l-0.3,3.6L50.6,51.5z"/>
	</g>
	<g class="st5">
		<path class="st4" d="M50.6,80.6c-0.1-0.1-0.2-0.2-0.3-0.3c-0.5-0.5-0.8-1.2-0.8-2c0-0.8-0.4-1.4-1-1.8l-0.3,3.8l-0.1,0.7l0,0.3
			c0.5,0.1,0.9,0.4,1.3,0.7c0.5,0.5,0.8,1.2,0.8,2c0,0.2,0,0.4,0.1,0.7l0.3-3.6L50.6,80.6z"/>
	</g>
	<g class="st5">
		<path class="st4" d="M49.9,60.3c0.2,0.4,0.3,0.8,0.3,1.2c0,1.1,0.8,2,1.9,2.1l0-0.2l0.4-4.8c-0.1,0-0.2,0-0.3,0
			c-0.8,0-1.5-0.3-2-0.8c-0.1-0.1-0.1-0.1-0.2-0.2l-0.1,0.6L49.9,60.3z"/>
	</g>
	<g class="st5">
		<path class="st4" d="M49.1,69.8L49,70.5c0.1,0.1,0.2,0.2,0.3,0.3c0.5,0.5,0.8,1.2,0.8,2c0,0.7,0.4,1.4,1,1.8l0.4-4.7l0-0.1
			c-0.5-0.1-0.9-0.4-1.2-0.7c-0.5-0.5-0.8-1.2-0.8-2c0-0.3,0-0.5-0.1-0.7l-0.2,2.8L49.1,69.8z"/>
	</g>
	<g class="st5">
		<path class="st4" d="M49.6,64.1l-0.1,1.2c0.4,0.5,0.7,1.1,0.7,1.8c0,0.9,0.6,1.7,1.4,2l0.4-4.9c-0.7-0.1-1.3-0.3-1.7-0.8
			c-0.3-0.3-0.5-0.6-0.6-0.9l-0.1,0.8L49.6,64.1z"/>
	</g>
	<g class="st5">
		<path class="st4" d="M47.6,86.6l-0.1,1.5H50l0.1-1.5l0.1-0.7l0-0.1c-0.4-0.5-0.7-1.1-0.7-1.8c0-0.9-0.6-1.7-1.5-2l-0.3,3.9
			L47.6,86.6z"/>
	</g>
	<g class="st5">
		<path class="st4" d="M51.8,37.6l-0.3,3.2c0.2,0.1,0.5,0.1,0.7,0.1c0.6,0,1.1-0.2,1.5-0.6c0.2-0.2,0.3-0.3,0.4-0.5l0.2-2.2l0.1-1
			l0.1-1H52l-0.1,1L51.8,37.6z"/>
	</g>
	<g class="st5">
		<path class="st4" d="M51.1,45.8l0,0.5c0.3,0.2,0.7,0.4,1.2,0.4c0.5,0,1-0.2,1.3-0.5l0-0.4l0.3-3L54,41c-0.5,0.4-1.1,0.6-1.8,0.6
			c-0.3,0-0.5,0-0.8-0.1l-0.1,1.3L51.1,45.8z"/>
	</g>
	<g class="st5">
		<path class="st4" d="M57,45.8l-0.1,1.7c0.1,0,0.2,0,0.3,0c1.5,0,2.8,1.2,2.8,2.8c0,0.4,0.1,0.7,0.3,1l0-0.6l0.3-3.8
			c-0.8-0.5-1.3-1.4-1.3-2.3c0-1.1-0.8-2-1.9-2.1l0,0.3L57,45.8z"/>
	</g>
	<g class="st5">
		<path class="st4" d="M57.3,41.8c1.4,0.1,2.5,1.3,2.5,2.7c0,0.6,0.3,1.2,0.7,1.6l0-0.3l0.3-3l0.1-1.3c-1-0.4-1.8-1.4-1.8-2.6
			c0-0.9-0.6-1.7-1.4-2l-0.1,0.8L57.3,41.8z"/>
	</g>
	<g class="st5">
		<path class="st4" d="M59.9,38.9c0,0.8,0.5,1.5,1.2,1.9l0.3-3.1l0.1-1l0.1-1h-3.6l-0.1,0.6C59,36.5,59.9,37.6,59.9,38.9z"/>
	</g>
	<g class="st5">
		<path class="st4" d="M53.3,88.1h1.1h1.4H57l0.1-1.5l0.1-0.7l0.3-3.9c-0.1,0-0.2,0-0.4,0c-0.6,0-1.1,0.2-1.5,0.6
			C55.2,83,55,83.5,55,84.1c0,1.1-0.6,2-1.5,2.5l0,0.1L53.3,88.1z"/>
	</g>
	<g class="st5">
		<path class="st4" d="M55.4,64.1L55.3,65c0.5-0.4,1.1-0.6,1.8-0.6c0.7,0,1.3,0.3,1.8,0.7l0.1-1l0.1-0.7l0.1-1.6c0-0.1,0-0.2,0-0.3
			c0-1.2-0.9-2.1-2.1-2.1c-0.5,0-1,0.2-1.3,0.5l-0.3,3.5L55.4,64.1z"/>
	</g>
	<g class="st5">
		<path class="st4" d="M55.6,76.9c-0.4,0.4-0.6,0.9-0.6,1.5c0,0.9-0.4,1.6-1,2.1l0,0.6l-0.4,4.6c0.1-0.1,0.1-0.1,0.2-0.2
			c0.4-0.4,0.6-0.9,0.6-1.5c0-1.5,1.2-2.8,2.8-2.8c0.1,0,0.3,0,0.4,0l0-0.2l0.1-0.7l0.3-4c-0.3-0.1-0.5-0.2-0.8-0.2
			C56.5,76.3,56,76.5,55.6,76.9z"/>
	</g>
	<g class="st5">
		<path class="st4" d="M55.9,58.2L55.9,59c0.4-0.2,0.8-0.3,1.3-0.3c0.9,0,1.8,0.5,2.3,1.2l0.1-1.7l0.1-0.9l0-0.1
			c-0.3-0.4-0.4-0.9-0.4-1.4c0-1.2-0.9-2.1-2.1-2.1c-0.3,0-0.6,0.1-0.8,0.2L56,57.3L55.9,58.2z"/>
	</g>
	<g class="st5">
		<path class="st4" d="M54.9,69.8l-0.1,1.4c0.5-0.8,1.3-1.3,2.3-1.3c0.5,0,1,0.1,1.4,0.4l0-0.5l0.1-0.7l0.3-3.2
			c-0.4-0.6-1-0.9-1.8-0.9c-0.6,0-1.1,0.2-1.5,0.6c-0.2,0.2-0.3,0.3-0.4,0.5l-0.3,3L54.9,69.8z"/>
	</g>
	<g class="st5">
		<path class="st4" d="M56.4,52.2l-0.1,1c0.2-0.1,0.5-0.1,0.8-0.1c1.3,0,2.4,0.9,2.7,2.1l0.3-3c-0.5-0.5-0.8-1.2-0.8-2
			c0-1.2-0.9-2.1-2.1-2.1c-0.1,0-0.2,0-0.3,0l-0.2,2.5L56.4,52.2z"/>
	</g>
	<g class="st5">
		<path class="st4" d="M54.4,75.5l-0.3,3.9c0.2-0.3,0.3-0.6,0.3-1c0-1.5,1.2-2.8,2.8-2.8c0.3,0,0.6,0.1,0.9,0.2l0-0.3l0.1-0.7
			l0.3-3.7c-0.4-0.3-0.8-0.5-1.3-0.5c-0.6,0-1.1,0.2-1.5,0.6c-0.4,0.4-0.6,0.9-0.6,1.5c0,0.6-0.2,1.1-0.5,1.5l0,0.6L54.4,75.5z"/>
	</g>
	<g class="st5">
		<path class="st4" d="M51.9,81.1c-0.3,0-0.6-0.1-0.9-0.3l0,0.2l-0.4,4.3c0.2,0.3,0.5,0.5,0.8,0.6l0-0.1L51.9,81.1z"/>
	</g>
	<g class="st5">
		<path class="st4" d="M50.4,88.1h0.9l0.1-1.4c-0.3-0.1-0.6-0.3-0.9-0.4l0,0.4L50.4,88.1z"/>
	</g>
	<g class="st5">
		<path class="st4" d="M52.2,74.9c0.1,0,0.1,0,0.2,0l0.4-5l0-0.1c-0.2,0-0.4,0.1-0.6,0.1c-0.1,0-0.2,0-0.3,0l-0.4,4.9
			C51.8,74.8,52,74.9,52.2,74.9z"/>
	</g>
	<g class="st5">
		<path class="st4" d="M51.1,80.2c0.3,0.2,0.6,0.3,0.9,0.3l0,0l0.4-4.9l0,0c-0.1,0-0.1,0-0.2,0c-0.3,0-0.5,0-0.7-0.1l0,0.1
			L51.1,80.2z"/>
	</g>
	<g class="st5">
		<path class="st4" d="M53,57.8c0.3-0.1,0.5-0.3,0.7-0.5c0.1-0.1,0.2-0.2,0.3-0.3l0.4-4.8l0-0.3c-0.3,0.3-0.6,0.6-1,0.8l-0.4,4.7
			L53,57.8z"/>
	</g>
	<g class="st5">
		<path class="st4" d="M52,69.2c0.1,0,0.1,0,0.2,0c0.2,0,0.5,0,0.7-0.1l0.4-5l0-0.1c-0.3,0.1-0.6,0.2-0.9,0.2L52,69.2L52,69.2z"/>
	</g>
	<g class="st5">
		<path class="st4" d="M53.5,51.8c0.1-0.1,0.1-0.1,0.2-0.2c0.4-0.4,0.6-0.9,0.6-1.5c0-0.5,0.1-0.9,0.4-1.3l0.3-3.1l0.2-1.9
			C55.1,44,55,44.3,55,44.5c0,0.9-0.4,1.6-1,2.1l-0.3,4L53.5,51.8z"/>
	</g>
	<g class="st5">
		<path class="st4" d="M54.8,37.4c0.2-0.4,0.6-0.7,1-0.9l0.1-0.9h-0.9l-0.1,1L54.8,37.4z"/>
	</g>
	<g class="st5">
		<path class="st4" d="M54.1,45.5c0.2-0.3,0.3-0.7,0.3-1c0-0.8,0.3-1.5,0.9-2l0.4-4.9l0-0.3c0,0,0,0-0.1,0.1
			c-0.4,0.4-0.6,0.9-0.6,1.5c0,0.6-0.2,1.1-0.5,1.6l-0.2,2.3L54.1,45.5z"/>
	</g>
	<g class="st5">
		<path class="st4" d="M52.5,63.5c0.3,0,0.7-0.2,0.9-0.4l0.4-5l0-0.2c-0.3,0.2-0.6,0.4-0.9,0.5l-0.4,4.9L52.5,63.5z"/>
	</g>
	<polygon class="st6" points="52,30.4 32.9,30.4 32.9,34.5 34,34.5 35.3,34.5 52,34.5 	"/>
	<path class="st2" d="M67.1,29.3H54.5L54,20.9l9.1-1c0.2,0,0.4,0,0.6-0.1c0.5-0.2,1-0.6,1.3-1.2c0.6-1.3,0.6-3.2,0-4.6
		c-0.7-1.6-2.5-3.6-4.1-3.1c-0.2,0.1-0.5,0.2-0.7,0.4l-7.6,5c-0.3-0.4-0.8-0.6-1.3-0.6c0,0,0,0,0,0c-0.5,0-0.9,0.2-1.2,0.6
		c-0.2-0.1-0.4-0.1-0.7-0.1c-0.4,0-0.7,0.2-0.9,0.4c-0.2,0.3-0.3,0.7-0.3,1.1c0,0.3,0.2,0.5,0.3,0.8c-0.3,0.6-0.4,1.3-0.1,1.8
		c0.2,0.5,0.7,0.7,1,0.9l-0.4,8.3h-16h-1.1v1.1v4.1v1.1h1.1h1.2l0,0.1l0.2,1.7l0.1,1.6l0.3,3.5l0.1,0.9l0.4,4.4l0.1,0.7l0.4,4.7
		l0.1,0.7l0.4,4.9l0.1,0.7l0.5,5l0.1,0.7l0.5,5.1l0.1,0.7l0.5,5.1l0.1,0.9l0.5,5.2l0.1,1.3l0.4,4.7l0.1,1h1h20.7h1l0.1-1l0.1-1.5
		l0.1-0.7l0.4-4.8l0.1-0.7l0.4-4.9L63,75l0.4-5l0.1-0.7l0.4-5.1l0.1-0.7l0.4-5.1l0.1-0.9l0.4-5.2l0.1-1.5l0.4-4.9l0.3-3l0.4-5.1
		l0.1-1l0.1-1l0-0.1h0.6h1.1v-1.1v-4.1v-1.1H67.1z M61.1,11.4L61.1,11.4C61.1,11.4,61.1,11.4,61.1,11.4
		C61.1,11.4,61.1,11.4,61.1,11.4L61.1,11.4z M49.3,18.2c-0.6-0.4-0.7-1.1-0.4-1.4c0.3-0.3,0.9-0.4,1.4,0.1c0,0,0,0,0,0
		c0-0.1,0.1-0.2,0.2-0.3c0.1-0.1,0.2-0.2,0.2-0.2c0.2-0.1,0.4-0.2,0.6-0.2c0.5,0,0.9,0.4,1.1,0.9c2.7-1.8,5.5-3.5,8.2-5.3
		c-0.9,0.9-1.1,3.3-0.3,5c0.6,1.2,1.8,2.5,2.8,2.6c-3.2,0.4-6.5,0.7-9.7,1.1l0.5,8.9h-4.4l0.5-8.7c-0.1,0-0.1,0-0.2-0.1
		c-0.2-0.1-0.6-0.3-0.8-0.6C48.7,19.4,48.9,18.8,49.3,18.2z M65.2,36.6l-0.1,1l-0.4,4.7l0,0.4v0l0,0l-0.3,3L64,50.6l-0.1,1.5
		l-0.4,5.2l-0.1,0.9l-0.4,5.1l-0.1,0.7l-0.4,5.1l-0.1,0.7l-0.4,5l-0.1,0.7l-0.4,4.9l-0.1,0.7L61,85.9l-0.1,0.7l-0.1,1.5H40.1
		l-0.4-4.3l0-0.4L39.5,82l-0.5-5.2L39,76l0,0v0l-0.5-5.1l-0.1-0.7L38,65l-0.1-0.7h0l0,0l-0.5-5l-0.1-0.7L37,53.9l-0.1-0.7h0
		l-0.4-4.7l0,0l-0.1-0.7h0L36,43.3l-0.1-0.9l-0.3-3.5l-0.1-1.6l-0.2-1.7H52h2.5h0.5h0.9h2h3.6h3.8L65.2,36.6z M67.1,34.5h-0.5h-1.2
		H52H35.3H34h-1.1v-4.1H52h15V34.5z"/>
	<g>
		<path class="st4" d="M62,52.3c-0.8,0-1.5-0.4-1.8-1.1c-0.2-0.3-0.3-0.6-0.3-1c0-1.5-1.2-2.8-2.8-2.8c-0.1,0-0.2,0-0.3,0
			c-0.9,0.1-1.7,0.6-2.1,1.4c-0.2,0.4-0.4,0.9-0.4,1.3c0,0.6-0.2,1.1-0.6,1.5c-0.1,0.1-0.1,0.1-0.2,0.2c-0.1,0.1-0.3,0.2-0.5,0.3
			c-0.3,0.1-0.5,0.2-0.8,0.2c-0.6,0-1.2-0.3-1.6-0.8c-0.3-0.4-0.5-0.8-0.5-1.3c0-0.8-0.3-1.5-0.8-2c-0.5-0.5-1.2-0.8-1.9-0.8
			c-1.5,0-2.8,1.2-2.8,2.8c0,1.2-0.9,2.1-2.1,2.1c-1.2,0-2.1-0.9-2.1-2.1c0-1.5-1.2-2.8-2.8-2.8c-0.5,0-0.9,0.1-1.3,0.3h0l0.1,0.7
			l0,0c0.3-0.2,0.8-0.4,1.2-0.4c1.2,0,2.1,0.9,2.1,2.1c0,1.5,1.2,2.8,2.8,2.8c1.5,0,2.8-1.2,2.8-2.8c0-1.2,0.9-2.1,2.1-2.1
			c1.2,0,2.1,0.9,2.1,2.1c0,0.8,0.3,1.5,0.8,2c0.1,0.1,0.2,0.2,0.3,0.2c0.5,0.4,1.1,0.6,1.7,0.6c0.3,0,0.5,0,0.8-0.1
			c0.2,0,0.3-0.1,0.5-0.2c0.4-0.2,0.7-0.5,1-0.8c0.4-0.5,0.6-1,0.6-1.7c0-0.6,0.2-1.1,0.6-1.5c0.3-0.3,0.7-0.5,1.2-0.6
			c0.1,0,0.2,0,0.3,0c1.2,0,2.1,0.9,2.1,2.1c0,0.8,0.3,1.5,0.8,2c0.5,0.5,1.2,0.8,1.9,0.8c0.7,0,1.4-0.3,1.9-0.8l0.1-1.5
			c-0.1,0.4-0.3,0.7-0.6,1C63.1,52,62.5,52.3,62,52.3z"/>
	</g>
	<g>
		<path class="st0" d="M63.4,46c-0.4,0.4-0.9,0.6-1.5,0.6c-0.5,0-1-0.2-1.4-0.5c-0.4-0.4-0.7-0.9-0.7-1.6c0-1.4-1.1-2.6-2.5-2.7
			c-0.1,0-0.2,0-0.2,0c-0.7,0-1.4,0.3-1.9,0.7c-0.6,0.5-0.9,1.2-0.9,2c0,0.4-0.1,0.7-0.3,1c-0.1,0.2-0.2,0.3-0.3,0.5
			c0,0-0.1,0.1-0.2,0.1c-0.4,0.3-0.8,0.5-1.3,0.5c-0.4,0-0.8-0.1-1.2-0.4c-0.6-0.4-0.9-1-0.9-1.7c0-0.8-0.3-1.5-0.8-2
			c-0.5-0.5-1.2-0.8-1.9-0.8c-1.5,0-2.8,1.2-2.8,2.8c0,1.2-0.9,2.1-2.1,2.1c-1.2,0-2.1-0.9-2.1-2.1c0-1.5-1.2-2.8-2.8-2.8
			c-0.7,0-1.3,0.2-1.8,0.6l0.1,0.9c0.1-0.1,0.1-0.2,0.2-0.2c0.4-0.4,0.9-0.6,1.5-0.6c1.2,0,2.1,0.9,2.1,2.1c0,1.5,1.2,2.8,2.8,2.8
			c1.5,0,2.8-1.2,2.8-2.8c0-1.2,0.9-2.1,2.1-2.1c1.2,0,2.1,0.9,2.1,2.1c0,0.8,0.3,1.5,0.8,2c0.2,0.2,0.5,0.4,0.7,0.5
			c0.4,0.2,0.8,0.3,1.2,0.3c0.5,0,0.9-0.1,1.3-0.3c0.2-0.1,0.3-0.2,0.5-0.3c0.6-0.5,1-1.3,1-2.1c0-0.2,0-0.5,0.1-0.7
			c0.1-0.3,0.3-0.6,0.5-0.8c0.4-0.4,0.9-0.6,1.5-0.6c0.1,0,0.1,0,0.2,0c1.1,0.1,1.9,1,1.9,2.1c0,1,0.5,1.8,1.3,2.3
			c0.4,0.3,0.9,0.4,1.5,0.4c1.1,0,2-0.6,2.5-1.5l0.3-3l0,0c-0.4,0.5-0.6,1.1-0.6,1.7C64.1,45.1,63.8,45.6,63.4,46z"/>
	</g>
	<g>
		<path class="st4" d="M64.1,38.9c0,0.6-0.2,1.1-0.6,1.5C63.1,40.7,62.5,41,62,41c-0.3,0-0.7-0.1-0.9-0.2c-0.7-0.3-1.2-1.1-1.2-1.9
			c0-1.3-0.9-2.3-2-2.7c-0.2-0.1-0.5-0.1-0.7-0.1c-0.5,0-0.9,0.1-1.3,0.3c-0.4,0.2-0.7,0.5-1,0.9c-0.3,0.4-0.4,0.9-0.4,1.5
			c0,0.3-0.1,0.7-0.2,0.9c-0.1,0.2-0.2,0.4-0.4,0.5c-0.4,0.4-0.9,0.6-1.5,0.6c-0.2,0-0.5,0-0.7-0.1c-0.8-0.3-1.4-1.1-1.4-2
			c0-0.8-0.3-1.5-0.8-2c-0.5-0.5-1.2-0.8-1.9-0.8c-1.5,0-2.8,1.2-2.8,2.8c0,1.2-0.9,2.1-2.1,2.1c-1.2,0-2.1-0.9-2.1-2.1
			c0-1.5-1.2-2.8-2.8-2.8c-0.9,0-1.7,0.5-2.2,1.2l0.1,1.6c0-0.6,0.2-1.1,0.6-1.5c0.4-0.4,0.9-0.6,1.5-0.6c1.2,0,2.1,0.9,2.1,2.1
			c0,1.5,1.2,2.8,2.8,2.8c1.5,0,2.8-1.2,2.8-2.8c0-1.2,0.9-2.1,2.1-2.1c1.2,0,2.1,0.9,2.1,2.1c0,0.8,0.3,1.5,0.8,2
			c0.3,0.3,0.7,0.6,1.2,0.7c0.2,0.1,0.5,0.1,0.8,0.1c0.7,0,1.3-0.2,1.8-0.6c0.2-0.2,0.4-0.3,0.5-0.5c0.3-0.4,0.5-1,0.5-1.6
			c0-0.6,0.2-1.1,0.6-1.5c0,0,0,0,0.1-0.1c0.4-0.3,0.9-0.6,1.4-0.6c0.2,0,0.4,0,0.7,0.1c0.8,0.3,1.4,1.1,1.4,2
			c0,1.2,0.7,2.2,1.8,2.6c0.3,0.1,0.6,0.2,1,0.2c1.5,0,2.8-1.2,2.8-2.8c0-0.5,0.2-0.9,0.4-1.2l0.1-1C64.5,37.1,64.1,38,64.1,38.9z"
			/>
	</g>
	<g>
		<path class="st0" d="M62,57.9c-1.2,0-2.1-0.9-2.1-2.1c0-0.2,0-0.4-0.1-0.6c-0.3-1.2-1.4-2.1-2.7-2.1c-0.3,0-0.5,0-0.8,0.1
			c-1.2,0.3-2,1.4-2,2.7c0,0.4-0.1,0.8-0.4,1.2c-0.1,0.1-0.2,0.2-0.3,0.3c-0.2,0.2-0.4,0.4-0.7,0.5c-0.1,0.1-0.3,0.1-0.5,0.1
			c-0.1,0-0.2,0-0.3,0c-1,0-1.8-0.7-2-1.6c0-0.2-0.1-0.3-0.1-0.5c0-0.8-0.3-1.5-0.8-2c-0.5-0.5-1.2-0.8-1.9-0.8
			c-1.5,0-2.8,1.2-2.8,2.8c0,1.2-0.9,2.1-2.1,2.1c-1.2,0-2.1-0.9-2.1-2.1c0-1.5-1.2-2.8-2.8-2.8c-0.3,0-0.5,0-0.8,0.1h0l0.1,0.7
			c0.2-0.1,0.5-0.1,0.7-0.1c1.2,0,2.1,0.9,2.1,2.1c0,1.5,1.2,2.8,2.8,2.8c1.5,0,2.8-1.2,2.8-2.8c0-1.2,0.9-2.1,2.1-2.1
			c1.2,0,2.1,0.9,2.1,2.1c0,0.7,0.2,1.3,0.6,1.7c0.1,0.1,0.1,0.1,0.2,0.2c0.5,0.5,1.2,0.8,2,0.8c0.1,0,0.2,0,0.3,0
			c0.2,0,0.3,0,0.5-0.1c0.3-0.1,0.7-0.3,0.9-0.5c0.7-0.5,1.1-1.3,1.1-2.2c0-0.6,0.2-1.1,0.6-1.5c0.2-0.2,0.4-0.3,0.7-0.5
			c0.3-0.1,0.5-0.2,0.8-0.2c1.2,0,2.1,0.9,2.1,2.1c0,0.5,0.1,1,0.4,1.4c0.5,0.8,1.4,1.3,2.4,1.3c0.5,0,1-0.1,1.4-0.4l0.1-0.9
			C63.1,57.7,62.5,57.9,62,57.9z"/>
	</g>
	<g>
		<path class="st4" d="M59.9,61.5c0-0.6-0.2-1.1-0.5-1.6c-0.5-0.7-1.3-1.2-2.3-1.2c-0.5,0-0.9,0.1-1.3,0.3c-0.9,0.5-1.5,1.4-1.5,2.5
			c0,0.6-0.2,1.1-0.6,1.5c-0.1,0.1-0.2,0.2-0.3,0.2c-0.3,0.2-0.6,0.3-0.9,0.4c-0.1,0-0.2,0-0.3,0c-0.1,0-0.1,0-0.2,0
			c-1.1-0.1-1.9-1-1.9-2.1c0-0.4-0.1-0.8-0.3-1.2c-0.1-0.3-0.3-0.5-0.5-0.8c-0.5-0.5-1.2-0.8-1.9-0.8c-1.5,0-2.8,1.2-2.8,2.8
			c0,1.2-0.9,2.1-2.1,2.1c-1.2,0-2.1-0.9-2.1-2.1c0-1.5-1.2-2.8-2.8-2.8c-0.1,0-0.2,0-0.3,0l0.1,0.7c0.1,0,0.1,0,0.2,0
			c1.2,0,2.1,0.9,2.1,2.1c0,1.5,1.2,2.8,2.8,2.8c1.5,0,2.8-1.2,2.8-2.8c0-1.2,0.9-2.1,2.1-2.1c1.2,0,2.1,0.9,2.1,2.1
			c0,0.4,0.1,0.7,0.2,1c0.1,0.3,0.3,0.7,0.6,0.9c0.4,0.4,1.1,0.7,1.7,0.8c0.1,0,0.2,0,0.2,0c0.1,0,0.1,0,0.2,0
			c0.3,0,0.6-0.1,0.9-0.2c1-0.4,1.6-1.4,1.6-2.5c0-0.6,0.2-1.1,0.6-1.5c0,0,0.1-0.1,0.2-0.1c0.4-0.3,0.8-0.5,1.3-0.5
			c1.2,0,2.1,0.9,2.1,2.1c0,0.1,0,0.2,0,0.3c0.1,1.4,1.3,2.5,2.7,2.5c0.3,0,0.6-0.1,0.9-0.1l0.1-0.7c-0.3,0.1-0.6,0.2-1,0.2
			C60.8,63.6,59.9,62.6,59.9,61.5z"/>
	</g>
	<g>
		<path class="st0" d="M62,69.2c-1.2,0-2.1-0.9-2.1-2.1c0-0.8-0.4-1.6-0.9-2.1c-0.5-0.4-1.1-0.7-1.8-0.7c-0.7,0-1.3,0.2-1.8,0.6
			c-0.6,0.5-1,1.3-1,2.1c0,0.6-0.2,1.1-0.6,1.5c-0.2,0.2-0.5,0.4-0.8,0.5c-0.2,0.1-0.5,0.1-0.7,0.1c-0.1,0-0.1,0-0.2,0
			c-0.2,0-0.3,0-0.4-0.1c-0.8-0.3-1.4-1.1-1.4-2c0-0.7-0.3-1.3-0.7-1.8c0,0-0.1-0.1-0.1-0.1c-0.5-0.5-1.2-0.8-1.9-0.8
			c-1.5,0-2.8,1.2-2.8,2.8c0,1.2-0.9,2.1-2.1,2.1c-1.2,0-2.1-0.9-2.1-2.1c0-1.4-1.1-2.6-2.5-2.7h0L38,65c1,0.1,1.8,1,1.8,2.1
			c0,1.5,1.2,2.8,2.8,2.8c1.5,0,2.8-1.2,2.8-2.8c0-1.2,0.9-2.1,2.1-2.1c0.9,0,1.7,0.6,2,1.4c0.1,0.2,0.1,0.5,0.1,0.7
			c0,0.8,0.3,1.5,0.8,2c0.3,0.3,0.8,0.6,1.2,0.7c0.1,0,0.3,0.1,0.4,0.1c0.1,0,0.2,0,0.3,0c0.2,0,0.4,0,0.6-0.1
			c1.2-0.3,2.1-1.4,2.1-2.7c0-0.3,0.1-0.7,0.2-0.9c0.1-0.2,0.2-0.4,0.4-0.5c0.4-0.4,0.9-0.6,1.5-0.6c0.7,0,1.4,0.4,1.8,0.9
			c0.2,0.3,0.3,0.7,0.3,1.2c0,1.5,1.2,2.8,2.8,2.8c0.1,0,0.3,0,0.4,0l0.1-0.7C62.3,69.2,62.1,69.2,62,69.2z"/>
	</g>
	<g>
		<path class="st4" d="M59.9,72.8c0-1-0.6-1.9-1.4-2.4c-0.4-0.2-0.9-0.4-1.4-0.4c-1,0-1.8,0.5-2.3,1.3c-0.3,0.4-0.4,0.9-0.4,1.5
			c0,0.6-0.2,1.1-0.6,1.5c-0.3,0.3-0.8,0.6-1.3,0.6c-0.1,0-0.1,0-0.2,0c-0.2,0-0.5,0-0.7-0.1c-0.2-0.1-0.3-0.1-0.4-0.2
			c-0.6-0.4-1-1-1-1.8c0-0.8-0.3-1.5-0.8-2c-0.1-0.1-0.2-0.2-0.3-0.3c-0.5-0.3-1-0.5-1.6-0.5c-1.5,0-2.8,1.2-2.8,2.8
			c0,1.2-0.9,2.1-2.1,2.1c-1.2,0-2.1-0.9-2.1-2.1c0-1.3-0.8-2.3-2-2.6l0.1,0.7c0.7,0.3,1.3,1.1,1.3,1.9c0,1.5,1.2,2.8,2.8,2.8
			c1.5,0,2.8-1.2,2.8-2.8c0-1.2,0.9-2.1,2.1-2.1c0.6,0,1.2,0.3,1.5,0.7c0.3,0.4,0.6,0.9,0.6,1.4c0,0.8,0.3,1.5,0.8,2
			c0.2,0.2,0.5,0.4,0.8,0.5c0.1,0.1,0.3,0.1,0.4,0.2c0.2,0.1,0.5,0.1,0.7,0.1c0.1,0,0.1,0,0.2,0c0.9,0,1.7-0.5,2.1-1.2
			c0.3-0.4,0.5-1,0.5-1.5c0-0.6,0.2-1.1,0.6-1.5c0.4-0.4,0.9-0.6,1.5-0.6c0.5,0,0.9,0.2,1.3,0.5c0.5,0.4,0.8,1,0.8,1.6
			c0,1.5,1.2,2.7,2.7,2.8l0.1-0.7C60.8,74.8,59.9,73.9,59.9,72.8z"/>
	</g>
	<g>
		<path class="st0" d="M39.8,78.4c0,1.5,1.2,2.8,2.8,2.8c1.5,0,2.8-1.2,2.8-2.8c0-1.2,0.9-2.1,2.1-2.1c0.4,0,0.8,0.1,1.1,0.3
			c0.6,0.4,1,1,1,1.8c0,0.8,0.3,1.5,0.8,2c0.1,0.1,0.2,0.2,0.3,0.3c0.1,0.1,0.3,0.2,0.4,0.3c0.3,0.1,0.6,0.2,0.9,0.3
			c0.1,0,0.2,0,0.3,0c0.7,0,1.3-0.2,1.7-0.6c0.6-0.5,1-1.3,1-2.1c0-0.6,0.2-1.1,0.6-1.5c0.4-0.4,0.9-0.6,1.5-0.6
			c0.3,0,0.6,0.1,0.8,0.2c0.7,0.3,1.3,1.1,1.3,1.9c0,1.3,0.9,2.4,2.2,2.7l0.1-0.7c-0.9-0.2-1.6-1.1-1.6-2c0-1.2-0.8-2.2-1.9-2.6
			c-0.3-0.1-0.6-0.2-0.9-0.2c-1.5,0-2.8,1.2-2.8,2.8c0,0.4-0.1,0.7-0.3,1c-0.1,0.2-0.2,0.3-0.4,0.5c-0.4,0.4-0.9,0.6-1.5,0.6
			c-0.1,0-0.2,0-0.3,0c-0.3,0-0.6-0.2-0.9-0.3c-0.2-0.1-0.3-0.2-0.4-0.4c-0.3-0.4-0.5-0.9-0.5-1.4c0-0.8-0.3-1.5-0.8-2
			c-0.2-0.2-0.5-0.4-0.8-0.6c-0.3-0.2-0.7-0.3-1.1-0.3c-1.5,0-2.8,1.2-2.8,2.8c0,1.2-0.9,2.1-2.1,2.1c-1.2,0-2.1-0.9-2.1-2.1
			c0-1.1-0.6-2-1.5-2.4l0,0l0.1,0.9C39.5,77.2,39.8,77.8,39.8,78.4z"/>
	</g>
	<g>
		<path class="st4" d="M59.9,84.1c0-1.4-1-2.5-2.3-2.7c-0.1,0-0.3,0-0.4,0c-1.5,0-2.8,1.2-2.8,2.8c0,0.6-0.2,1.1-0.6,1.5
			c-0.1,0.1-0.1,0.1-0.2,0.2c-0.4,0.3-0.8,0.5-1.3,0.5c-0.3,0-0.5-0.1-0.8-0.1c-0.3-0.1-0.6-0.3-0.8-0.6c-0.2-0.2-0.3-0.4-0.4-0.7
			c-0.1-0.2-0.1-0.4-0.1-0.7c0-0.8-0.3-1.5-0.8-2c-0.3-0.3-0.8-0.6-1.3-0.7c-0.2-0.1-0.4-0.1-0.7-0.1c-1.5,0-2.8,1.2-2.8,2.8
			c0,1.2-0.9,2.1-2.1,2.1c-1.2,0-2.1-0.9-2.1-2.1c0-0.8-0.3-1.5-0.9-2l0.1,1.3c0.1,0.2,0.1,0.5,0.1,0.7c0,1.5,1.2,2.8,2.8,2.8
			c1.5,0,2.8-1.2,2.8-2.8c0-1.2,0.9-2.1,2.1-2.1c0.2,0,0.4,0,0.6,0.1c0.9,0.3,1.5,1.1,1.5,2c0,0.7,0.3,1.3,0.7,1.8
			c0,0.1,0.1,0.1,0.1,0.2c0.1,0.1,0.2,0.2,0.3,0.2c0.3,0.2,0.5,0.4,0.9,0.4c0.3,0.1,0.5,0.1,0.8,0.1c0.4,0,0.9-0.1,1.2-0.3
			c0.9-0.5,1.5-1.4,1.5-2.5c0-0.6,0.2-1.1,0.6-1.5c0.4-0.4,0.9-0.6,1.5-0.6c0.1,0,0.3,0,0.4,0c1,0.2,1.7,1,1.7,2.1
			c0,1.2,0.7,2.1,1.7,2.6l0.1-0.7C60.3,85.6,59.9,84.9,59.9,84.1z"/>
	</g>
	<g>
		<polygon class="st4" points="52,30.4 52,34.5 65.3,34.5 66.5,34.5 67.1,34.5 67.1,30.4 		"/>
	</g>
	<g>
		<path class="st4" d="M53.4,20.4C53.4,20.4,53.4,20.4,53.4,20.4c-0.1-0.1-0.1-0.1-0.2-0.2c-1-1.1-2-2.1-3-3.2c0,0,0,0,0,0
			c-0.5-0.4-1.1-0.4-1.4-0.1c-0.3,0.3-0.2,1,0.4,1.4C50.8,19.2,52.2,20.2,53.4,20.4z"/>
	</g>
</g>
<defs>
<script>

let icon = document.querySelector("#masterShake");

function logMyId() {
	console.log(this.id);
}

icon.addEventListener("click", () => { console.log(this); });

</script>
</defs>
</svg>
