<?xml version="1.0" encoding="utf-8"?>
<!-- Generator: Adobe Illustrator 25.0.0, SVG Export Plug-In . SVG Version: 6.00 Build 0)  -->
<svg version="1.1" id="iceCream" xmlns="http://www.w3.org/2000/svg" xmlns:xlink="http://www.w3.org/1999/xlink" x="0px" y="0px"
	 viewBox="0 0 100 100" style="enable-background:new 0 0 100 100;" xml:space="preserve">
<style type="text/css">
	.st0{fill:#E3FFE9;}
	.st1{fill:none;}
	.st2{fill:#DDC45B;}
	.st3{fill:#231F20;}
	.st4{fill:#3DE24D;}
	.st5{fill:#1B8E29;}
</style>
<circle class="st0" cx="50" cy="50" r="48.2"/>
<g>
	<path class="st1" d="M42.2,13.6c0.2,0,0.4,0.1,0.7,0.1C42.7,13.6,42.5,13.6,42.2,13.6z"/>
	<path class="st1" d="M43.8,13.8c0.2,0,0.5,0.1,0.7,0.1C44.3,13.9,44.1,13.8,43.8,13.8z"/>
	<path class="st1" d="M36.2,14.1c0.3-0.1,0.6-0.1,0.8-0.2C36.8,14,36.5,14.1,36.2,14.1z"/>
	<path class="st1" d="M40.8,13.5c0,0-0.1,0-0.1,0c0.2,0,0.4,0,0.6,0C41.1,13.5,40.9,13.5,40.8,13.5z"/>
	<path class="st1" d="M37.7,13.8c0.3-0.1,0.6-0.1,0.9-0.1C38.3,13.7,38,13.7,37.7,13.8z"/>
	<path class="st1" d="M45.4,14.2c0.2,0.1,0.4,0.1,0.7,0.2C45.9,14.3,45.7,14.2,45.4,14.2z"/>
	<path class="st1" d="M39.1,13.6c0.3,0,0.6,0,0.9-0.1C39.7,13.5,39.4,13.6,39.1,13.6z"/>
	<path class="st1" d="M53,18.7c0.2-0.1,0.4-0.1,0.7-0.1C53.5,18.7,53.3,18.7,53,18.7z"/>
	<path class="st1" d="M54.3,18.6c-0.1,0-0.2,0-0.4,0C54.1,18.6,54.2,18.6,54.3,18.6C54.3,18.6,54.3,18.6,54.3,18.6z"/>
	<path class="st1" d="M55.4,18.7c0.1,0,0.1,0,0.2,0.1C55.5,18.7,55.4,18.7,55.4,18.7z"/>
	<path class="st1" d="M49.9,16.2c0.2,0.1,0.4,0.2,0.6,0.4C50.3,16.4,50.1,16.3,49.9,16.2z"/>
	<path class="st1" d="M47,14.7c0.2,0.1,0.4,0.2,0.7,0.3C47.4,14.9,47.2,14.8,47,14.7z"/>
	<path class="st1" d="M48.5,15.4c0.2,0.1,0.4,0.2,0.6,0.3C48.9,15.6,48.7,15.5,48.5,15.4z"/>
	<path class="st1" d="M51.4,17.2c0.1,0.1,0.3,0.2,0.4,0.3C51.7,17.5,51.5,17.4,51.4,17.2z"/>
	<path class="st1" d="M30.1,52.8c-0.1,0-0.2-0.1-0.3-0.1C29.9,52.7,30,52.8,30.1,52.8z"/>
	<path class="st1" d="M27.5,51.4c-0.1-0.1-0.2-0.2-0.3-0.2C27.3,51.3,27.4,51.3,27.5,51.4z"/>
	<path class="st1" d="M31.1,53.1c-0.1,0-0.1,0-0.2-0.1C30.9,53,31,53.1,31.1,53.1z"/>
	<path class="st1" d="M29.2,52.4c-0.1-0.1-0.2-0.1-0.3-0.2C29,52.3,29.1,52.4,29.2,52.4z"/>
	<path class="st1" d="M32.3,53.2c-0.1,0-0.2,0-0.2,0C32.1,53.2,32.2,53.2,32.3,53.2z"/>
	<path class="st1" d="M34.8,14.6c0.3-0.1,0.5-0.2,0.8-0.3C35.4,14.4,35.1,14.5,34.8,14.6z"/>
	<path class="st1" d="M26.7,50.7c-0.1-0.1-0.2-0.1-0.2-0.2C26.5,50.6,26.6,50.7,26.7,50.7z"/>
	<path class="st1" d="M32,16c0.3-0.2,0.6-0.4,0.9-0.5C32.6,15.6,32.3,15.8,32,16z"/>
	<path class="st1" d="M33.4,15.2c0.3-0.1,0.6-0.3,0.8-0.4C33.9,14.9,33.7,15.1,33.4,15.2z"/>
	<path class="st1" d="M23.1,34.5c0.4-0.2,0.7-0.3,1.1-0.4C23.8,34.2,23.4,34.4,23.1,34.5z"/>
	<path class="st1" d="M30.3,17.1c0.4-0.3,0.8-0.6,1.3-0.9C31.1,16.5,30.7,16.8,30.3,17.1z"/>
	<path class="st1" d="M28.4,52c-0.1-0.1-0.2-0.1-0.3-0.2C28.1,51.9,28.2,51.9,28.4,52z"/>
	<path class="st1" d="M34.6,53.2c-0.3,0-0.6,0.1-0.8,0.1C34.1,53.2,34.4,53.2,34.6,53.2z"/>
	<path class="st1" d="M33,53.3C33,53.3,33.1,53.3,33,53.3c0.3,0,0.4,0,0.6,0C33.4,53.3,33.2,53.3,33,53.3z"/>
	<path class="st1" d="M57.4,19.6c0.1,0,0.1,0.1,0.2,0.1C57.5,19.7,57.5,19.7,57.4,19.6z"/>
	<path class="st1" d="M56.4,19.1c0,0,0.1,0,0.1,0.1C56.5,19.1,56.5,19.1,56.4,19.1z"/>
	<path class="st2" d="M57.7,47.8c0.4,0.1,0.8,0,1.1-0.1c0.6-0.2,1.1-0.7,1.4-1.2c0.3-0.6,0.3-1.2,0.1-1.8c-0.4-1.2-0.1-2.4,0.8-3.3
		l-0.2-1c-0.5,0.3-1,0.6-1.5,0.9C59.5,43.6,58.9,45.8,57.7,47.8z"/>
	<path class="st2" d="M39.8,52.5c-0.3,0.2-0.5,0.4-0.8,0.6c0.1,0,0.3,0,0.4,0.1c0.8,0.2,1.5,0.8,1.9,1.5c0.6,1.2,2.1,1.6,3.3,1
		c0.6-0.3,1-0.8,1.2-1.4c0.1-0.3,0.1-0.6,0.1-0.9c-1.8-0.3-3.4-0.9-4.9-1.9C40.6,51.8,40.2,52.1,39.8,52.5z"/>
	<path class="st2" d="M37.1,52.4c-0.2,0.1-0.3,0.2-0.5,0.2C36.7,52.5,36.9,52.5,37.1,52.4z"/>
	<path class="st2" d="M37.9,52c-0.2,0.1-0.3,0.2-0.5,0.3C37.5,52.2,37.7,52.1,37.9,52z"/>
	<path class="st2" d="M67.7,76.8c-0.5-0.1-1,0-1.5,0.2c-0.6,0.3-1,0.8-1.2,1.4c-0.2,0.6-0.1,1.3,0.2,1.8c0.6,1.2,0.4,2.7-0.5,3.6
		l1.6,1.8c0.6,0.7,1.4,0.6,1.9,0.4c0.5-0.3,1-0.8,0.9-1.7L67.7,76.8z"/>
	<path class="st2" d="M49.6,65.1c0.8,0.2,1.5,0.8,1.9,1.5c0.6,1.2,2.1,1.6,3.3,1c0.6-0.3,1-0.8,1.2-1.4c0.2-0.6,0.1-1.3-0.2-1.8
		c-0.8-1.6-0.2-3.5,1.3-4.3c1.6-0.8,3.5-0.2,4.3,1.3c0.6,1.2,2.1,1.6,3.3,1c0.1-0.1,0.2-0.1,0.3-0.2l-1.6-8.9
		c-0.7-0.3-1.3-0.8-1.7-1.5c-0.6-1.2-2.1-1.6-3.3-1c-0.6,0.3-1,0.8-1.2,1.4c-0.2,0.6-0.1,1.3,0.2,1.8c0.8,1.6,0.2,3.5-1.3,4.3
		c-0.8,0.4-1.6,0.5-2.4,0.2c-0.8-0.2-1.5-0.8-1.9-1.6c-0.6-1.2-2.1-1.6-3.3-1c-1.2,0.6-1.6,2.1-1,3.3c0.8,1.5,0.3,3.4-1.2,4.2
		l1.4,1.5C48.3,64.9,49,64.9,49.6,65.1z"/>
	<path class="st2" d="M44.9,56.3c-0.8,0.4-1.6,0.5-2.4,0.2c-0.8-0.2-1.5-0.8-1.9-1.6c-0.6-1.1-1.9-1.6-3-1.1l8.2,9.1c0,0,0,0,0,0
		c1.2-0.6,1.6-2.1,1-3.3c-0.8-1.6-0.2-3.5,1.3-4.3c0.8-0.4,1.6-0.5,2.4-0.2c0.8,0.2,1.5,0.8,1.9,1.5c0.6,1.2,2.1,1.6,3.3,1
		c0.6-0.3,1-0.8,1.2-1.4c0.2-0.6,0.1-1.3-0.2-1.8c-0.8-1.6-0.2-3.5,1.3-4.3c1.6-0.8,3.5-0.2,4.3,1.3c0.2,0.4,0.5,0.7,0.8,0.9
		l-1.8-10c0,0.1-0.1,0.1-0.1,0.2c-0.3,0.6-0.3,1.2-0.1,1.8c0.6,1.7-0.3,3.5-2,4c-0.6,0.2-1.3,0.2-1.8,0.1c-0.5,0.7-1.1,1.4-1.7,2
		l0,0.1c-0.2,0.2-0.3,0.3-0.5,0.4c0,0,0,0-0.1,0c-2.1,1.7-4.6,2.5-7.3,2.5c-0.4,0-0.7,0-1.1-0.1C46.6,54.6,46,55.7,44.9,56.3z"/>
	<path class="st2" d="M38.9,51.3c-0.2,0.2-0.5,0.4-0.7,0.5C38.4,51.6,38.6,51.5,38.9,51.3z"/>
	<path class="st2" d="M65.8,76.4c0.5-0.3,1.1-0.4,1.7-0.4l-1.4-7.8c-0.1,0.1-0.1,0.2-0.2,0.4c-0.2,0.6-0.1,1.3,0.2,1.8
		c0.8,1.6,0.2,3.5-1.3,4.3c-0.8,0.4-1.6,0.5-2.4,0.2c-0.8-0.2-1.5-0.8-1.9-1.6c-0.6-1.2-2.1-1.6-3.3-1c-0.7,0.4-1.2,1.1-1.3,1.8
		l8.3,9.2c0.2-0.3,0.4-0.5,0.5-0.9c0.2-0.6,0.1-1.3-0.2-1.8C63.7,79.2,64.2,77.2,65.8,76.4z"/>
	<path class="st2" d="M56.8,71.8c0.8-0.4,1.6-0.5,2.4-0.2c0.8,0.2,1.5,0.8,1.9,1.5c0.6,1.2,2.1,1.6,3.3,1c0.6-0.3,1-0.8,1.2-1.4
		c0.2-0.6,0.1-1.3-0.2-1.8c-0.7-1.2-0.4-2.7,0.5-3.6L65.1,63c0,0,0,0-0.1,0c-1.6,0.8-3.5,0.2-4.3-1.3c-0.6-1.2-2.1-1.6-3.3-1
		c-0.6,0.3-1,0.8-1.2,1.4c-0.2,0.6-0.1,1.3,0.2,1.8c0.8,1.6,0.2,3.5-1.3,4.3c-0.8,0.4-1.6,0.5-2.4,0.2c-0.8-0.2-1.5-0.8-1.9-1.6
		c-0.5-1-1.6-1.4-2.6-1.2l7,7.8C55.5,72.8,56.1,72.2,56.8,71.8z"/>
	<path class="st2" d="M49.6,51.8c-0.2,0-0.3,0.1-0.5,0.1C49.3,51.9,49.5,51.8,49.6,51.8z"/>
	<path class="st2" d="M50.5,51.6c-0.2,0-0.3,0.1-0.5,0.1C50.2,51.7,50.3,51.6,50.5,51.6z"/>
	<path class="st2" d="M48.8,51.9c-0.2,0-0.3,0-0.5,0C48.4,52,48.6,52,48.8,51.9z"/>
	<path class="st2" d="M51.3,51.3c-0.2,0.1-0.3,0.1-0.5,0.2C51,51.4,51.2,51.4,51.3,51.3z"/>
	<path class="st2" d="M46.9,52c-0.1,0-0.3,0-0.4,0C46.7,52,46.8,52,46.9,52z"/>
	<path class="st2" d="M47.6,52c0.1,0,0.2,0,0.3,0c-0.2,0-0.3,0-0.5,0C47.5,52,47.6,52,47.6,52z"/>
	<path class="st2" d="M54,49.8c-0.2,0.2-0.5,0.4-0.7,0.5C53.5,50.2,53.8,50,54,49.8z"/>
	<path class="st2" d="M51.9,51.1C51.9,51.1,51.9,51.1,51.9,51.1c-0.1,0-0.1,0.1-0.2,0.1C51.7,51.1,51.8,51.1,51.9,51.1z"/>
	<path class="st2" d="M52.8,50.6c0.1,0,0.1-0.1,0.2-0.1C52.9,50.5,52.9,50.6,52.8,50.6C52.8,50.6,52.8,50.6,52.8,50.6z"/>
	<path class="st2" d="M41.7,50.1c-0.1-0.1-0.2-0.1-0.3-0.2C41.5,50,41.6,50,41.7,50.1z"/>
	<path class="st2" d="M44.3,51.4c-0.1,0-0.3-0.1-0.4-0.1C44,51.3,44.1,51.4,44.3,51.4z"/>
	<path class="st2" d="M43.4,51.1C43.3,51,43.1,51,43,50.9C43.1,51,43.3,51,43.4,51.1z"/>
	<path class="st2" d="M42.5,50.6c-0.1-0.1-0.2-0.1-0.3-0.2C42.3,50.5,42.4,50.6,42.5,50.6z"/>
	<path class="st2" d="M45.1,51.7c-0.1,0-0.3-0.1-0.4-0.1C44.9,51.6,45,51.7,45.1,51.7z"/>
	<path class="st3" d="M70.5,84.1l-8.3-44.8c1.6-1.6,2.7-3.7,2.9-6c0.3-2.6-0.4-5.3-2.1-7.3c-0.6-0.8-1.4-1.5-2.2-2.1
		c0.1-1.6-0.4-3.1-1.4-4.3c-1.3-1.6-3.2-2.5-5.2-2.5c-0.2,0-0.5,0-0.7,0c-3.4-3.3-8-5.1-12.8-5.1v1.5l0-1.5c-4.2,0-8.1,1.4-11.4,4
		c-2.8,2.2-4.9,5.1-6,8.4c-1,2.8-1.3,5.8-0.8,8.7c-0.5,0.2-1,0.5-1.4,0.8c-2.8,2.2-3.3,6.4-1.1,9.2c0.6,0.8,1.4,1.4,2.4,1.9
		c0.2,2,1,3.9,2.3,5.6c2.1,2.6,5.2,4.1,8.5,4.1c1,0,1.9-0.1,2.9-0.4l29.2,32.4c0.6,0.7,1.4,1,2.3,1c0.5,0,0.9-0.1,1.4-0.3
		C70.1,86.8,70.8,85.5,70.5,84.1z M68.2,86.1c-0.5,0.3-1.3,0.3-1.9-0.4L64.7,84c0.9-1,1.1-2.4,0.5-3.6c-0.3-0.6-0.4-1.3-0.2-1.8
		c0.2-0.6,0.6-1.1,1.2-1.4c0.5-0.3,1-0.3,1.5-0.2l1.4,7.6C69.2,85.3,68.7,85.9,68.2,86.1z M47.6,53.5c2.7,0,5.2-0.9,7.3-2.5
		c0,0,0,0,0.1,0c0.2-0.1,0.4-0.2,0.5-0.4l0-0.1c0.7-0.6,1.2-1.3,1.7-2c0.6,0.2,1.2,0.2,1.8-0.1c1.7-0.6,2.6-2.4,2-4
		c-0.2-0.6-0.2-1.3,0.1-1.8c0-0.1,0.1-0.1,0.1-0.2l1.8,10c-0.3-0.2-0.6-0.5-0.8-0.9c-0.8-1.6-2.8-2.1-4.3-1.3
		c-1.6,0.8-2.1,2.8-1.3,4.3c0.3,0.6,0.4,1.3,0.2,1.8c-0.2,0.6-0.6,1.1-1.2,1.4c-1.2,0.6-2.6,0.2-3.3-1c-0.4-0.8-1.1-1.3-1.9-1.5
		c-0.8-0.2-1.6-0.2-2.4,0.2c-1.6,0.8-2.1,2.8-1.3,4.3c0.6,1.2,0.2,2.6-1,3.3c0,0,0,0,0,0l-8.2-9.1c1.1-0.5,2.5,0,3,1.1
		c0.4,0.8,1.1,1.3,1.9,1.6c0.8,0.2,1.6,0.2,2.4-0.2c1.1-0.6,1.7-1.7,1.7-2.9C46.9,53.5,47.3,53.5,47.6,53.5z M64.5,80.7
		c0.3,0.6,0.4,1.3,0.2,1.8c-0.1,0.3-0.3,0.6-0.5,0.9l-8.3-9.2c0.1-0.7,0.5-1.4,1.3-1.8c1.2-0.6,2.6-0.2,3.3,1
		c0.4,0.8,1.1,1.3,1.9,1.6c0.8,0.2,1.6,0.2,2.4-0.2c1.6-0.8,2.1-2.8,1.3-4.3c-0.3-0.6-0.4-1.3-0.2-1.8c0-0.1,0.1-0.3,0.2-0.4
		l1.4,7.8c-0.6,0-1.2,0.1-1.7,0.4C64.2,77.2,63.7,79.2,64.5,80.7z M48.3,65.8c1-0.2,2.1,0.3,2.6,1.2c0.4,0.8,1.1,1.3,1.9,1.6
		c0.8,0.2,1.6,0.2,2.4-0.2c1.6-0.8,2.1-2.8,1.3-4.3c-0.3-0.6-0.4-1.3-0.2-1.8c0.2-0.6,0.6-1.1,1.2-1.4c1.2-0.6,2.6-0.2,3.3,1
		c0.8,1.6,2.8,2.1,4.3,1.3c0,0,0,0,0.1,0l0.8,4.1c-0.9,1-1.1,2.4-0.5,3.6c0.3,0.6,0.4,1.3,0.2,1.8c-0.2,0.6-0.6,1.1-1.2,1.4
		c-1.2,0.6-2.6,0.2-3.3-1c-0.4-0.8-1.1-1.3-1.9-1.5c-0.8-0.2-1.6-0.2-2.4,0.2c-0.8,0.4-1.3,1.1-1.5,1.8L48.3,65.8z M46.3,63.6
		c1.4-0.9,2-2.7,1.2-4.2c-0.6-1.2-0.2-2.6,1-3.3c1.2-0.6,2.6-0.2,3.3,1c0.4,0.8,1.1,1.3,1.9,1.6c0.8,0.2,1.6,0.2,2.4-0.2
		c1.6-0.8,2.1-2.8,1.3-4.3c-0.3-0.6-0.4-1.3-0.2-1.8c0.2-0.6,0.6-1.1,1.2-1.4c1.2-0.6,2.6-0.2,3.3,1c0.4,0.7,1,1.2,1.7,1.5l1.6,8.9
		c-0.1,0.1-0.2,0.1-0.3,0.2c-1.2,0.6-2.6,0.2-3.3-1c-0.8-1.6-2.8-2.1-4.3-1.3c-1.6,0.8-2.1,2.8-1.3,4.3c0.3,0.6,0.4,1.3,0.2,1.8
		c-0.2,0.6-0.6,1.1-1.2,1.4c-1.2,0.6-2.6,0.2-3.3-1c-0.4-0.8-1.1-1.3-1.9-1.5c-0.6-0.2-1.3-0.2-1.9,0L46.3,63.6z M61.1,41.4
		c-0.8,0.8-1.2,2.1-0.8,3.3c0.2,0.6,0.2,1.3-0.1,1.8c-0.3,0.6-0.8,1-1.4,1.2c-0.4,0.1-0.8,0.1-1.1,0.1c1.2-1.9,1.8-4.2,1.7-6.5
		c0.5-0.2,1-0.5,1.5-0.9L61.1,41.4z M45.8,53.4c0,0.3,0,0.6-0.1,0.9c-0.2,0.6-0.6,1.1-1.2,1.4c-1.2,0.6-2.6,0.2-3.3-1
		c-0.4-0.8-1.1-1.3-1.9-1.5c-0.1,0-0.3-0.1-0.4-0.1c0.3-0.2,0.5-0.4,0.8-0.6c0.4-0.3,0.8-0.7,1.2-1.1C42.4,52.4,44.1,53.1,45.8,53.4
		z M33,53.3c-0.2,0-0.5,0-0.7,0c-0.1,0-0.2,0-0.2,0c-0.3,0-0.6-0.1-1-0.2c-0.1,0-0.1,0-0.2-0.1c-0.2-0.1-0.5-0.1-0.7-0.2
		c-0.1,0-0.2-0.1-0.3-0.1c-0.2-0.1-0.4-0.1-0.6-0.2c-0.1-0.1-0.2-0.1-0.3-0.2c-0.2-0.1-0.4-0.2-0.5-0.3c-0.1-0.1-0.2-0.1-0.3-0.2
		c-0.2-0.1-0.3-0.2-0.5-0.4c-0.1-0.1-0.2-0.2-0.3-0.2c-0.2-0.1-0.3-0.3-0.5-0.5c-0.1-0.1-0.2-0.1-0.2-0.2c-0.2-0.2-0.5-0.5-0.7-0.8
		c-1.3-1.7-2-3.7-2-5.7c-1-0.3-1.9-0.9-2.6-1.7c-1.7-2.2-1.4-5.4,0.8-7.1c0.3-0.3,0.7-0.5,1.1-0.6c0.4-0.2,0.7-0.3,1.1-0.4
		c-1.4-6.2,0.8-12.9,6.1-17c0.4-0.3,0.8-0.6,1.3-0.9c0.1-0.1,0.3-0.2,0.4-0.3c0.3-0.2,0.6-0.4,0.9-0.5c0.2-0.1,0.4-0.2,0.5-0.3
		c0.3-0.1,0.6-0.3,0.8-0.4c0.2-0.1,0.4-0.2,0.6-0.2c0.3-0.1,0.5-0.2,0.8-0.3c0.2-0.1,0.4-0.1,0.6-0.2c0.3-0.1,0.6-0.1,0.8-0.2
		c0.2,0,0.4-0.1,0.6-0.1c0.3-0.1,0.6-0.1,0.9-0.1c0.2,0,0.4-0.1,0.6-0.1c0.3,0,0.6,0,0.9-0.1c0.2,0,0.4,0,0.6,0c0,0,0.1,0,0.1,0
		c0.2,0,0.3,0,0.5,0c0.3,0,0.7,0,1,0c0.2,0,0.4,0.1,0.7,0.1c0.3,0,0.6,0.1,0.9,0.1c0.2,0,0.5,0.1,0.7,0.1c0.3,0.1,0.6,0.1,0.9,0.2
		c0.2,0.1,0.4,0.1,0.7,0.2c0.3,0.1,0.6,0.2,0.9,0.3c0.2,0.1,0.4,0.2,0.7,0.3c0.3,0.1,0.6,0.3,0.9,0.4c0.2,0.1,0.4,0.2,0.6,0.3
		c0.3,0.2,0.6,0.3,0.8,0.5c0.2,0.1,0.4,0.2,0.6,0.4c0.3,0.2,0.6,0.4,0.9,0.7c0.1,0.1,0.3,0.2,0.4,0.3c0.4,0.4,0.8,0.8,1.2,1.2
		c0.2-0.1,0.4-0.1,0.7-0.1c0.1,0,0.2,0,0.2,0c0.1,0,0.2,0,0.4,0c0,0,0,0,0.1,0c0.3,0,0.7,0,1,0.1c0.1,0,0.1,0,0.2,0.1
		c0.3,0.1,0.6,0.2,0.9,0.3c0,0,0.1,0,0.1,0.1c0.3,0.1,0.6,0.3,0.9,0.5c0.1,0,0.1,0.1,0.2,0.1c0.3,0.2,0.5,0.5,0.8,0.8
		c1,1.2,1.3,2.8,1,4.2c1,0.5,1.9,1.3,2.6,2.2c2.9,3.7,2.3,9-1.4,11.9c-0.8,0.7-1.8,1.1-2.7,1.4c0.5,3.5-0.8,7.2-3.8,9.5
		c-0.2,0.2-0.5,0.4-0.7,0.5c-0.1,0.1-0.2,0.1-0.3,0.2c-0.1,0-0.1,0.1-0.2,0.1c0,0,0,0,0,0c-0.1,0.1-0.2,0.1-0.3,0.2
		c-0.1,0.1-0.2,0.1-0.3,0.2c-0.1,0-0.2,0.1-0.3,0.1c0,0,0,0,0,0c-0.1,0-0.1,0.1-0.2,0.1c-0.1,0-0.2,0.1-0.4,0.1
		c-0.2,0.1-0.3,0.1-0.5,0.2c-0.1,0-0.2,0.1-0.4,0.1c-0.2,0-0.3,0.1-0.5,0.1c-0.1,0-0.3,0.1-0.4,0.1c-0.2,0-0.3,0.1-0.5,0.1
		c-0.1,0-0.3,0-0.4,0c-0.2,0-0.3,0-0.5,0c-0.1,0-0.3,0-0.4,0c-0.1,0-0.2,0-0.3,0c-0.1,0-0.1,0-0.2,0c-0.2,0-0.3,0-0.5,0
		c-0.1,0-0.3,0-0.4,0c-0.2,0-0.3,0-0.5-0.1c-0.1,0-0.3,0-0.4-0.1c-0.2,0-0.3-0.1-0.5-0.1c-0.1,0-0.3-0.1-0.4-0.1
		c-0.2,0-0.3-0.1-0.5-0.2c-0.1,0-0.3-0.1-0.4-0.1c-0.2-0.1-0.3-0.1-0.5-0.2C43.3,51,43.1,51,43,50.9c-0.2-0.1-0.3-0.2-0.5-0.3
		c-0.1-0.1-0.2-0.1-0.3-0.2c-0.2-0.1-0.3-0.2-0.5-0.3c-0.1-0.1-0.2-0.1-0.3-0.2c-0.3-0.2-0.5-0.4-0.7-0.6c-0.5,0.7-1.1,1.4-1.9,2
		c-0.2,0.2-0.5,0.4-0.7,0.5C38,51.9,38,51.9,37.9,52c-0.2,0.1-0.3,0.2-0.5,0.3c-0.1,0.1-0.2,0.1-0.3,0.1c-0.2,0.1-0.3,0.2-0.5,0.2
		c-0.1,0-0.2,0.1-0.3,0.1c-0.2,0.1-0.3,0.1-0.5,0.2c-0.1,0-0.2,0.1-0.3,0.1c-0.2,0.1-0.4,0.1-0.6,0.1c-0.1,0-0.1,0-0.2,0
		c-0.3,0-0.6,0.1-0.8,0.1c-0.1,0-0.1,0-0.2,0C33.4,53.3,33.3,53.3,33,53.3C33.1,53.3,33,53.3,33,53.3z"/>
	<path class="st4" d="M33.8,53.3c0.3,0,0.6-0.1,0.8-0.1c0.1,0,0.1,0,0.2,0c0.2,0,0.4-0.1,0.6-0.1c0.1,0,0.2-0.1,0.3-0.1
		c0.2-0.1,0.3-0.1,0.5-0.2c0.1,0,0.2-0.1,0.3-0.1c0.2-0.1,0.3-0.1,0.5-0.2c0.1,0,0.2-0.1,0.3-0.1c0.2-0.1,0.3-0.2,0.5-0.3
		c0.1,0,0.2-0.1,0.2-0.1c0.2-0.2,0.5-0.3,0.7-0.5c0.7-0.6,1.4-1.2,1.9-2c0.2,0.2,0.5,0.4,0.7,0.6c0.1,0.1,0.2,0.1,0.3,0.2
		c0.2,0.1,0.3,0.2,0.5,0.3c0.1,0.1,0.2,0.1,0.3,0.2c0.2,0.1,0.3,0.2,0.5,0.3c0.1,0.1,0.2,0.1,0.4,0.2c0.2,0.1,0.3,0.1,0.5,0.2
		c0.1,0,0.3,0.1,0.4,0.1c0.2,0.1,0.3,0.1,0.5,0.2c0.1,0,0.3,0.1,0.4,0.1c0.2,0,0.3,0.1,0.5,0.1c0.1,0,0.3,0,0.4,0.1
		c0.2,0,0.3,0,0.5,0.1c0.1,0,0.3,0,0.4,0c0.2,0,0.3,0,0.5,0c0.1,0,0.3,0,0.5,0c0.1,0,0.3,0,0.4,0c0.2,0,0.3,0,0.5,0
		c0.1,0,0.3,0,0.4,0c0.2,0,0.3-0.1,0.5-0.1c0.1,0,0.3,0,0.4-0.1c0.2,0,0.3-0.1,0.5-0.1c0.1,0,0.2-0.1,0.4-0.1
		c0.2-0.1,0.3-0.1,0.5-0.2c0.1,0,0.2-0.1,0.4-0.1c0.1,0,0.1-0.1,0.2-0.1c0.1,0,0.2-0.1,0.3-0.1c0.1-0.1,0.2-0.1,0.3-0.2
		c0.1-0.1,0.2-0.1,0.3-0.2c0.1,0,0.1-0.1,0.2-0.1c0.1-0.1,0.2-0.1,0.3-0.2c0.3-0.2,0.5-0.3,0.7-0.5c3-2.3,4.3-6,3.8-9.5
		c1-0.3,1.9-0.8,2.7-1.4c3.7-2.9,4.3-8.2,1.4-11.9c-0.7-0.9-1.6-1.7-2.6-2.2c0.3-1.4,0-3-1-4.2c-0.2-0.3-0.5-0.5-0.8-0.8
		c-0.1-0.1-0.1-0.1-0.2-0.1c-0.3-0.2-0.6-0.4-0.9-0.5c0,0-0.1,0-0.1-0.1c-0.3-0.1-0.6-0.2-0.9-0.3c-0.1,0-0.1,0-0.2-0.1
		c-0.3-0.1-0.7-0.1-1-0.1c-0.1,0-0.3,0-0.4,0c-0.1,0-0.2,0-0.2,0c-0.2,0-0.5,0.1-0.7,0.1c-0.4-0.4-0.8-0.8-1.2-1.2
		c-0.1-0.1-0.3-0.2-0.4-0.3c-0.3-0.2-0.6-0.5-0.9-0.7c-0.2-0.1-0.4-0.2-0.6-0.4c-0.3-0.2-0.6-0.4-0.8-0.5c-0.2-0.1-0.4-0.2-0.6-0.3
		c-0.3-0.1-0.6-0.3-0.9-0.4c-0.2-0.1-0.4-0.2-0.7-0.3c-0.3-0.1-0.6-0.2-0.9-0.3c-0.2-0.1-0.4-0.1-0.7-0.2c-0.3-0.1-0.6-0.2-0.9-0.2
		c-0.2-0.1-0.5-0.1-0.7-0.1c-0.3-0.1-0.6-0.1-0.9-0.1c-0.2,0-0.4-0.1-0.7-0.1c-0.3,0-0.7,0-1,0c-0.2,0-0.4,0-0.6,0
		c-0.2,0-0.4,0-0.6,0c-0.3,0-0.6,0-0.9,0.1c-0.2,0-0.4,0-0.6,0.1c-0.3,0-0.6,0.1-0.9,0.1c-0.2,0-0.4,0.1-0.6,0.1
		c-0.3,0.1-0.6,0.1-0.8,0.2c-0.2,0.1-0.4,0.1-0.6,0.2c-0.3,0.1-0.5,0.2-0.8,0.3c-0.2,0.1-0.4,0.1-0.6,0.2c-0.3,0.1-0.6,0.2-0.8,0.4
		c-0.2,0.1-0.4,0.2-0.5,0.3c-0.3,0.2-0.6,0.3-0.9,0.5c-0.1,0.1-0.3,0.2-0.4,0.3c-0.4,0.3-0.9,0.6-1.3,0.9c-5.3,4.2-7.4,10.9-6.1,17
		c-0.4,0.1-0.8,0.2-1.1,0.4c-0.4,0.2-0.7,0.4-1.1,0.6c-2.2,1.7-2.6,4.9-0.8,7.1c0.7,0.9,1.6,1.5,2.6,1.7c0,2,0.7,4,2,5.7
		c0.2,0.3,0.4,0.5,0.7,0.8c0.1,0.1,0.2,0.1,0.2,0.2c0.2,0.2,0.3,0.3,0.5,0.5c0.1,0.1,0.2,0.2,0.3,0.2c0.2,0.1,0.3,0.2,0.5,0.4
		c0.1,0.1,0.2,0.1,0.3,0.2c0.2,0.1,0.4,0.2,0.5,0.3c0.1,0.1,0.2,0.1,0.3,0.2c0.2,0.1,0.4,0.2,0.6,0.2c0.1,0,0.2,0.1,0.3,0.1
		c0.2,0.1,0.5,0.1,0.7,0.2c0.1,0,0.1,0,0.2,0.1c0.3,0.1,0.6,0.1,1,0.2c0.1,0,0.2,0,0.2,0c0.2,0,0.5,0,0.7,0c0.2,0,0.4,0,0.6,0
		C33.7,53.3,33.7,53.3,33.8,53.3z M43.4,20.1c3.7,0,6.6,3,6.6,6.6s-3,6.6-6.6,6.6s-6.6-3-6.6-6.6S39.7,20.1,43.4,20.1z M25.8,42.9
		c-0.9-0.2-1.7-0.8-2.3-1.5c-1.5-1.9-1.2-4.8,0.7-6.3c0.6-0.5,1.2-0.7,1.9-0.9C27.7,40.9,33.7,46,40.9,46c8.3,0,15-6.7,15-15
		c0-4.1-1.6-7.7-4.2-10.4c1.7-0.4,3.5,0.2,4.6,1.6c0.9,1.1,1.1,2.4,0.9,3.7c0.9,0.5,1.7,1.1,2.3,1.9c2.6,3.2,2,7.9-1.2,10.5
		c-0.7,0.6-1.6,1-2.4,1.3c0.4,3.1-0.7,6.3-3.4,8.4c-3.5,2.8-8.5,2.5-11.7-0.4c-0.4,0.6-1,1.2-1.6,1.7c-3.6,2.8-8.7,2.2-11.5-1.4
		C26.4,46.4,25.9,44.6,25.8,42.9z"/>
	<path class="st5" d="M39.1,49.3c0.6-0.5,1.2-1.1,1.6-1.7c3.2,2.9,8.2,3.2,11.7,0.4c2.6-2.1,3.8-5.3,3.4-8.4
		c0.8-0.3,1.7-0.7,2.4-1.3c3.2-2.6,3.8-7.3,1.2-10.5c-0.6-0.8-1.4-1.5-2.3-1.9c0.2-1.3,0-2.6-0.9-3.7c-1.1-1.4-2.9-2-4.6-1.6
		c2.6,2.7,4.2,6.4,4.2,10.4c0,8.3-6.7,15-15,15c-7.2,0-13.2-5.1-14.7-11.8c-0.7,0.1-1.3,0.4-1.9,0.9c-1.9,1.5-2.3,4.3-0.7,6.3
		c0.6,0.8,1.4,1.3,2.3,1.5c0,1.8,0.6,3.5,1.8,5C30.4,51.5,35.6,52.1,39.1,49.3z"/>
	<ellipse transform="matrix(0.3827 -0.9239 0.9239 0.3827 2.0661 56.5867)" class="st0" cx="43.4" cy="26.7" rx="6.6" ry="6.6"/>
</g>
<defs>
<script>

let icon = document.querySelector("#iceCream");

function logMyId() {
	console.log(this.id);
}

icon.addEventListener("click", () => { console.log(this); });

</script>
</defs>
</svg>
