<?xml version="1.0" encoding="utf-8"?>
<!-- Generator: Adobe Illustrator 25.0.0, SVG Export Plug-In . SVG Version: 6.00 Build 0)  -->
<svg version="1.1" id="jelly" xmlns="http://www.w3.org/2000/svg" xmlns:xlink="http://www.w3.org/1999/xlink" x="0px" y="0px"
	 viewBox="0 0 100 100" style="enable-background:new 0 0 100 100;" xml:space="preserve">
<style type="text/css">
	.st0{fill:#FF00FF;}
	.st1{fill:none;}
	.st2{fill:#3DE24D;}
	.st3{fill:#DD715B;}
	.st4{fill:#1B8E29;}
	.st5{fill:#AF5DDB;}
	.st6{fill:#DDC45B;}
	.st7{fill:#231F20;}
	.st8{fill:#C3EAFC;}
	.st9{fill:#5AB0E0;}
	.st10{fill:#EACAFF;}
	.st11{fill:#BEF4C2;}
	.st12{fill:#FAA4FC;}
</style>
<circle class="st0" cx="50" cy="50" r="48.2"/>
<g>
	<path class="st1" d="M43.5,67.5c-0.1,0.1-0.2,0.1-0.3,0.2C43.4,67.6,43.4,67.5,43.5,67.5z"/>
	<path class="st1" d="M44.1,67c-0.1,0.1-0.1,0.1-0.2,0.2C44,67.1,44,67.1,44.1,67z"/>
	<path class="st1" d="M42.9,67.9c-0.1,0.1-0.2,0.1-0.3,0.2C42.7,68,42.8,67.9,42.9,67.9z"/>
	<path class="st1" d="M41.6,68.5c-0.1,0-0.3,0.1-0.4,0.1C41.3,68.6,41.4,68.5,41.6,68.5z"/>
	<path class="st1" d="M42.3,68.2c-0.1,0.1-0.2,0.1-0.3,0.2C42,68.3,42.2,68.3,42.3,68.2z"/>
	<path class="st1" d="M40.8,68.7c-0.1,0-0.3,0.1-0.4,0.1C40.6,68.8,40.7,68.7,40.8,68.7z"/>
	<path class="st1" d="M44.6,66.5c-0.1,0.1-0.1,0.1-0.2,0.2C44.5,66.6,44.6,66.6,44.6,66.5z"/>
	<path class="st1" d="M45.1,65.9c0,0.1-0.1,0.1-0.1,0.2C45,66.1,45.1,66,45.1,65.9z"/>
	<path class="st1" d="M47,62.6c0,0.1-0.1,0.2-0.1,0.3C47,62.8,47,62.7,47,62.6z"/>
	<path class="st1" d="M46.4,64.1c0,0.1-0.1,0.1-0.1,0.2C46.3,64.2,46.3,64.1,46.4,64.1z"/>
	<path class="st1" d="M46.7,63.4c0,0.1,0,0.1-0.1,0.2C46.6,63.5,46.7,63.4,46.7,63.4z"/>
	<path class="st1" d="M45.6,65.3c0,0.1-0.1,0.1-0.1,0.2C45.5,65.5,45.5,65.4,45.6,65.3z"/>
	<path class="st1" d="M46,64.7c0,0.1-0.1,0.1-0.1,0.2C45.9,64.8,46,64.8,46,64.7z"/>
	<path class="st1" d="M55.7,64c0,0-0.1,0-0.1,0C55.7,64,55.7,64,55.7,64z"/>
	<path class="st1" d="M54.7,63.7c-0.1,0-0.1,0-0.2-0.1C54.6,63.7,54.6,63.7,54.7,63.7z"/>
	<path class="st1" d="M56.7,64.2C56.7,64.2,56.7,64.2,56.7,64.2C56.7,64.2,56.7,64.2,56.7,64.2z"/>
	<path class="st1" d="M53.6,63.4c0,0-0.1,0-0.1-0.1C53.5,63.3,53.5,63.4,53.6,63.4z"/>
	<path class="st1" d="M47.3,61.7c-0.1,0.2-0.1,0.4-0.2,0.6C47.2,62,47.3,61.8,47.3,61.7z"/>
	<path class="st1" d="M50.6,61.9c-0.1,0-0.1-0.1-0.2-0.1C50.4,61.8,50.5,61.8,50.6,61.9z"/>
	<path class="st1" d="M51.6,62.4c0,0-0.1,0-0.1-0.1C51.5,62.4,51.5,62.4,51.6,62.4z"/>
	<path class="st1" d="M47.4,61.4c0,0.1,0,0.1,0,0.2C47.4,61.5,47.4,61.4,47.4,61.4L47.4,61.4z"/>
	<path class="st1" d="M59.8,64c-0.1,0-0.1,0-0.2,0C59.6,64,59.7,64,59.8,64z"/>
	<path class="st1" d="M39.6,68.8c0.1,0,0.3,0,0.4,0C39.9,68.8,39.7,68.8,39.6,68.8C39.6,68.8,39.6,68.8,39.6,68.8z"/>
	<path class="st1" d="M57.8,64.2c0,0,0.1,0,0.1,0c-0.1,0-0.1,0-0.2,0C57.7,64.2,57.7,64.2,57.8,64.2z"/>
	<path class="st1" d="M59.2,64.1c-0.1,0-0.2,0-0.3,0C59,64.1,59.1,64.1,59.2,64.1z"/>
	<path class="st1" d="M58.5,64.2c-0.1,0-0.2,0-0.3,0C58.3,64.2,58.4,64.2,58.5,64.2z"/>
	<path class="st1" d="M24,63.2c-0.1,0-0.1,0-0.2,0C23.9,63.2,23.9,63.2,24,63.2z"/>
	<path class="st1" d="M31.7,31.7c0,0,0.1,0,0.1,0C31.8,31.7,31.7,31.7,31.7,31.7z"/>
	<path class="st1" d="M30.9,31.5c0.1,0,0.2,0,0.2,0C31,31.6,30.9,31.6,30.9,31.5z"/>
	<path class="st1" d="M29.3,31.6c0,0,0.1,0,0.1,0C29.4,31.6,29.3,31.6,29.3,31.6z"/>
	<path class="st1" d="M30.2,31.5C30.1,31.5,30.1,31.5,30.2,31.5c0,0,0.1,0,0.1,0C30.2,31.5,30.2,31.5,30.2,31.5z"/>
	<path class="st1" d="M32.5,31.9c0.1,0,0.1,0,0.2,0.1C32.7,31.9,32.6,31.9,32.5,31.9z"/>
	<path class="st1" d="M33.3,32.1c0.1,0,0.1,0.1,0.2,0.1C33.4,32.2,33.3,32.2,33.3,32.1z"/>
	<path class="st1" d="M28.5,31.7c0.1,0,0.1,0,0.2,0C28.6,31.7,28.6,31.7,28.5,31.7z"/>
	<path class="st1" d="M34,32.5C34.1,32.5,34.1,32.6,34,32.5C34.1,32.6,34.1,32.5,34,32.5z"/>
	<path class="st1" d="M55.2,19.6c1.2,0.4,2.3,1,3.3,1.8C57.5,20.6,56.4,20,55.2,19.6z"/>
	<path class="st1" d="M27.8,31.9c0.1,0,0.1,0,0.2-0.1C27.9,31.9,27.9,31.9,27.8,31.9z"/>
	<path class="st1" d="M23,63.3C23,63.3,23,63.3,23,63.3C23,63.3,23,63.3,23,63.3C23,63.3,23,63.3,23,63.3z"/>
	<path class="st1" d="M59.7,22.7c-0.4-0.5-0.8-0.9-1.3-1.3C58.9,21.8,59.3,22.2,59.7,22.7z"/>
	<path class="st1" d="M26.7,62.7c0,0-0.1,0-0.1,0C26.6,62.7,26.6,62.7,26.7,62.7z"/>
	<path class="st1" d="M27.5,62.4c0,0-0.1,0-0.1,0C27.4,62.5,27.5,62.4,27.5,62.4z"/>
	<path class="st1" d="M28.4,62.1c-0.1,0-0.1,0-0.2,0.1C28.3,62.1,28.4,62.1,28.4,62.1z"/>
	<path class="st1" d="M25.8,62.9c-0.1,0-0.1,0-0.2,0C25.6,63,25.7,62.9,25.8,62.9z"/>
	<path class="st1" d="M24.8,63.1C24.8,63.1,24.8,63.1,24.8,63.1C24.8,63.1,24.8,63.1,24.8,63.1z"/>
	<path class="st1" d="M49.5,61.2c0,0-0.1,0-0.1-0.1C49.5,61.2,49.5,61.2,49.5,61.2z"/>
	<path class="st1" d="M30.1,61.3c-0.1,0-0.1,0.1-0.2,0.1C30,61.4,30.1,61.4,30.1,61.3z"/>
	<path class="st1" d="M22.2,63.2c0,0-0.1,0-0.1,0C22.1,63.2,22.1,63.2,22.2,63.2z"/>
	<path class="st1" d="M29.2,61.7C29.2,61.8,29.1,61.8,29.2,61.7C29.1,61.8,29.2,61.8,29.2,61.7z"/>
	<path class="st1" d="M21.2,63.1c-0.1,0-0.1,0-0.2,0C21.1,63.1,21.2,63.1,21.2,63.1z"/>
	<path class="st1" d="M20.3,62.8c0,0-0.1,0-0.1,0C20.2,62.8,20.3,62.8,20.3,62.8z"/>
	<path class="st1" d="M34.7,33c0.1,0,0.1,0.1,0.2,0.1C34.8,33.1,34.8,33,34.7,33z"/>
	<path class="st1" d="M80.2,54.6c0.2,0.1,0.4,0.2,0.6,0.3C80.6,54.8,80.4,54.7,80.2,54.6z"/>
	<path class="st1" d="M76.9,68c-0.2,0.1-0.5,0.1-0.7,0.2C76.5,68.1,76.7,68,76.9,68z"/>
	<path class="st1" d="M76,68.2c-0.2,0-0.4,0.1-0.6,0.1C75.6,68.2,75.8,68.2,76,68.2z"/>
	<path class="st1" d="M70.8,67.8c-0.3-0.1-0.5-0.2-0.8-0.4C70.3,67.6,70.6,67.7,70.8,67.8z"/>
	<path class="st1" d="M75.2,68.3c-0.3,0-0.5,0.1-0.8,0.1C74.7,68.3,75,68.3,75.2,68.3z"/>
	<path class="st1" d="M71.7,68.1c-0.3-0.1-0.5-0.1-0.8-0.2C71.2,68,71.4,68.1,71.7,68.1z"/>
	<path class="st1" d="M72.6,68.3c-0.3,0-0.5-0.1-0.8-0.1C72.1,68.2,72.3,68.3,72.6,68.3z"/>
	<path class="st1" d="M73.5,68.4c-0.3,0-0.5,0-0.8-0.1C73,68.3,73.2,68.4,73.5,68.4z"/>
	<path class="st1" d="M73.8,68.4c0.2,0,0.3,0,0.5,0c-0.2,0-0.5,0-0.7,0C73.7,68.4,73.8,68.4,73.8,68.4z"/>
	<path class="st1" d="M79.5,67.1c-0.1,0.1-0.3,0.1-0.4,0.2C79.2,67.2,79.4,67.2,79.5,67.1z"/>
	<path class="st1" d="M80,66.9c-0.1,0-0.2,0.1-0.3,0.1C79.7,67,79.9,67,80,66.9z"/>
	<path class="st1" d="M80.3,66.8c-0.1,0-0.2,0.1-0.3,0.1C80.1,66.9,80.2,66.8,80.3,66.8z"/>
	<path class="st1" d="M79,67.3c-0.2,0.1-0.4,0.1-0.6,0.2C78.6,67.5,78.8,67.4,79,67.3z"/>
	<path class="st1" d="M77.6,67.8c-0.2,0.1-0.4,0.1-0.7,0.2C77.2,67.9,77.4,67.8,77.6,67.8z"/>
	<path class="st1" d="M78.3,67.6c-0.2,0.1-0.3,0.1-0.5,0.2C78,67.7,78.1,67.6,78.3,67.6z"/>
	<path class="st1" d="M80.5,66.7c0,0-0.1,0-0.1,0.1C80.4,66.7,80.5,66.7,80.5,66.7z"/>
	<path class="st1" d="M81.7,55.6c0.2,0.2,0.4,0.4,0.6,0.6C82.1,55.9,81.9,55.7,81.7,55.6z"/>
	<path class="st1" d="M81.8,65.8c0.1,0,0.1-0.1,0.2-0.2c0.7-0.6,1.2-1.4,1.6-2.2c-0.4,0.8-0.9,1.5-1.6,2.2
		C81.9,65.7,81.9,65.7,81.8,65.8z"/>
	<path class="st1" d="M81,55.1c0.2,0.1,0.3,0.2,0.5,0.3C81.4,55.3,81.2,55.2,81,55.1z"/>
	<path class="st1" d="M79.3,54.3c0.3,0.1,0.5,0.2,0.8,0.3C79.8,54.4,79.6,54.3,79.3,54.3z"/>
	<path class="st1" d="M78.6,54.1C78.6,54.1,78.6,54.1,78.6,54.1c0.2,0,0.3,0.1,0.5,0.1C79,54.2,78.8,54.1,78.6,54.1z"/>
	<path class="st1" d="M84.1,61.6c-0.1,0.4-0.2,0.8-0.3,1.3C83.9,62.5,84,62,84.1,61.6z"/>
	<path class="st1" d="M80.6,66.6C80.6,66.6,80.6,66.6,80.6,66.6C80.6,66.6,80.6,66.6,80.6,66.6z"/>
	<path class="st2" d="M35.5,49.4C35.5,49.4,35.5,49.4,35.5,49.4c0.1,0.1,0.2,0.1,0.3,0.2C35.7,49.5,35.6,49.5,35.5,49.4z"/>
	<path class="st2" d="M35.9,49.6c0.2,0.1,0.4,0.3,0.6,0.5C36.3,49.9,36.1,49.8,35.9,49.6z"/>
	<path class="st2" d="M36.2,34.6c0.2,0.3,0.3,0.6,0.4,0.8C36.5,35.1,36.4,34.8,36.2,34.6z"/>
	<path class="st2" d="M36.1,34.4L36.1,34.4c0,0.1,0.1,0.1,0.1,0.2C36.2,34.5,36.1,34.5,36.1,34.4z"/>
	<path class="st2" d="M43.7,47.1c0.2-0.2,0.5-0.3,0.8-0.4C44.2,46.8,44,46.9,43.7,47.1z"/>
	<path class="st2" d="M38.4,37.1c0.4,2.5-0.1,4.1-1.7,9l0,0c-0.1,0.3-0.3,1-0.7,2c0.5,0.3,1,0.6,1.4,1c0.3,0.3,0.6,0.6,0.8,0.9
		c0.7-0.3,1.4-0.5,2.1-0.6c0.5-1.4,1.4-2.6,2.7-3.4c1.1-0.7,2.4-1.1,3.8-1.1c1.5,0,3.1,0.5,4.3,1.5c0.5,0.3,1,0.6,1.5,0.9
		c-1.1-3.1-1.9-6.2-2.4-8.7c-0.2-0.9-0.3-1.8-0.5-2.6l0-0.1v-0.1c0-5,4-9,9-9c1.1,0,2.1,0.2,3.1,0.6c-0.3-1.7-1-3.2-2.1-4.5
		c-0.4-0.5-0.8-0.9-1.3-1.3c-1-0.8-2.1-1.4-3.3-1.8c-0.9-0.3-1.9-0.4-2.9-0.4c-4.3,0-7.9,2.8-9.2,6.7c-0.5,1.2-1.2,2.7-2.4,4.3
		c-1.1,1.5-2.4,2.6-3.5,3.5C38.1,34.9,38.3,36.2,38.4,37.1z M51.7,20.5c2.9,0.2,5.5,3,5,4.4c-0.3,1.1-2.4,1.3-5.3,1.5
		c-2.9,0.3-5.6,0.5-6.1-0.5C44.7,24.5,48,20.3,51.7,20.5z"/>
	<path class="st2" d="M48.8,46.5c0.2,0.1,0.5,0.2,0.7,0.3C49.3,46.7,49,46.6,48.8,46.5z"/>
	<path class="st2" d="M49.5,46.9c0.2,0.1,0.5,0.3,0.7,0.5C50,47.2,49.8,47,49.5,46.9z"/>
	<path class="st2" d="M39.9,50.8c-0.1,0-0.2,0-0.2,0.1C39.8,50.9,39.9,50.8,39.9,50.8C39.9,50.8,39.9,50.8,39.9,50.8z"/>
	<path class="st2" d="M53.2,48.8c-0.2,0-0.3-0.1-0.5-0.1C52.9,48.7,53,48.7,53.2,48.8C53.2,48.8,53.2,48.8,53.2,48.8z"/>
	<path class="st2" d="M47.1,46.2c0.2,0,0.5,0,0.7,0.1C47.6,46.2,47.3,46.2,47.1,46.2z"/>
	<path class="st2" d="M48,46.3c0.2,0.1,0.5,0.1,0.7,0.2C48.4,46.4,48.2,46.3,48,46.3z"/>
	<path class="st2" d="M44.7,46.5c0.2-0.1,0.4-0.1,0.5-0.2C45.1,46.4,44.9,46.5,44.7,46.5z"/>
	<path class="st2" d="M46.8,46.1c-0.1,0-0.2,0-0.3,0c0.2,0,0.4,0,0.5,0C46.9,46.2,46.8,46.1,46.8,46.1z"/>
	<path class="st2" d="M45.6,46.3c0.2,0,0.3-0.1,0.5-0.1C45.9,46.2,45.8,46.2,45.6,46.3z"/>
	<path class="st2" d="M41.9,49.1c0.2-0.3,0.4-0.6,0.6-0.9C42.2,48.5,42,48.8,41.9,49.1z"/>
	<path class="st2" d="M39,51.1c0.2-0.1,0.3-0.1,0.5-0.2C39.3,51,39.1,51.1,39,51.1z"/>
	<path class="st3" d="M62.5,62.4l-0.1-0.1l-0.1-0.1c-0.8-0.8-1.3-1.8-1.5-2.8c-3.4-2.4-5.9-6.4-7.6-10.6c-0.2,0-0.3-0.1-0.5-0.1
		c-1.1-0.4-1.9-0.9-2.5-1.3c-0.2-0.2-0.4-0.3-0.7-0.5c0,0,0,0-0.1,0c-0.2-0.1-0.5-0.2-0.7-0.3c0,0-0.1,0-0.1,0
		c-0.2-0.1-0.5-0.2-0.7-0.2c0,0-0.1,0-0.1,0c-0.2,0-0.5-0.1-0.7-0.1c0,0-0.1,0-0.1,0c-0.2,0-0.4,0-0.5,0c-0.1,0-0.2,0-0.3,0
		c-0.2,0-0.3,0.1-0.5,0.1c-0.1,0-0.2,0-0.3,0.1c-0.2,0.1-0.4,0.1-0.5,0.2c-0.1,0-0.2,0.1-0.3,0.1c-0.3,0.1-0.5,0.3-0.8,0.4
		c-0.5,0.3-0.9,0.7-1.2,1.1c-0.2,0.3-0.4,0.6-0.6,0.9c0,0.1-0.1,0.1-0.1,0.2c0.3,0,0.6,0,0.9,0.1c0.2-1,1.6-2.6,3-2.5
		c0.3,0,0.9,0.1,1,0.4c0.1,0.2-0.2,0.4-0.6,1.2c-0.2,0.4-0.4,0.7-0.5,1c-0.1,0.4-0.1,0.8-0.1,1.1c3.4,2.3,4,7.2,3.4,10.4
		c0.2,0.1,0.3,0.2,0.5,0.4c0,0,0.1,0,0.1,0.1c0.3,0.2,0.6,0.4,0.9,0.5c0.1,0,0.1,0.1,0.2,0.1c0.3,0.2,0.6,0.3,0.9,0.5
		c0,0,0.1,0,0.1,0.1c0.6,0.3,1.2,0.6,1.9,0.9c0,0,0.1,0,0.1,0.1c0.3,0.1,0.6,0.2,0.9,0.3c0.1,0,0.1,0,0.2,0.1
		c0.3,0.1,0.6,0.2,0.9,0.2c0,0,0.1,0,0.1,0c0.3,0.1,0.6,0.1,0.9,0.2c0,0,0,0,0.1,0c0.3,0,0.6,0.1,0.9,0.1c0.1,0,0.1,0,0.2,0
		c0.1,0,0.2,0,0.4,0c0.1,0,0.2,0,0.3,0c0.1,0,0.3,0,0.4,0c0.1,0,0.2,0,0.3,0c0.1,0,0.3-0.1,0.4-0.1c0.1,0,0.1,0,0.2,0
		c0.2-0.1,0.4-0.1,0.6-0.2c0.1,0,0.1,0,0.2-0.1c0,0,0.1,0,0.1-0.1c0,0,0,0,0.1,0c0,0,0.1,0,0.1-0.1c0,0,0,0,0,0c0,0,0.1,0,0.1-0.1
		c0.1,0,0.1-0.1,0.2-0.1c0.1,0,0.1-0.1,0.2-0.1c0.1-0.1,0.3-0.2,0.4-0.2c0.1,0,0.1-0.1,0.2-0.1c0.2-0.1,0.4-0.3,0.6-0.4
		C62.6,62.5,62.5,62.4,62.5,62.4z"/>
	<path class="st3" d="M43.4,50.9c0.2,0.1,0.4,0.2,0.7,0.3C43.8,51,43.6,51,43.4,50.9z"/>
	<path class="st3" d="M42,50.6c0.2,0,0.3,0,0.5,0C42.3,50.6,42.1,50.6,42,50.6z"/>
	<path class="st3" d="M41.6,50.6c-0.1,0-0.2,0-0.3,0c0,0,0,0,0,0c0.1,0,0.3,0,0.4,0C41.7,50.6,41.7,50.6,41.6,50.6z"/>
	<path class="st3" d="M42.7,50.7c0.2,0,0.3,0.1,0.5,0.1C43,50.8,42.9,50.7,42.7,50.7z"/>
	<path class="st4" d="M77.2,54c-0.1,0-0.2,0-0.3,0C77,54,77.1,54,77.2,54C77.2,54,77.2,54,77.2,54z"/>
	<path class="st4" d="M68,53.1c0.2,0,0.3,0.1,0.5,0.1C68.3,53.2,68.1,53.2,68,53.1z"/>
	<path class="st4" d="M71.7,54.4c0.3,0,0.5,0.1,0.7,0.1C72.2,54.5,71.9,54.4,71.7,54.4z"/>
	<path class="st4" d="M68.6,53.3c0.2,0.1,0.4,0.2,0.6,0.3C69.1,53.5,68.9,53.4,68.6,53.3z"/>
	<path class="st4" d="M72.6,54.5c0.2,0,0.4,0,0.5,0C73,54.5,72.8,54.5,72.6,54.5z"/>
	<path class="st4" d="M75.8,54.2c0.3-0.1,0.6-0.1,0.8-0.2C76.3,54.1,76.1,54.1,75.8,54.2z"/>
	<path class="st4" d="M74,54.5c0.2,0,0.3,0,0.5-0.1C74.3,54.5,74.2,54.5,74,54.5z"/>
	<path class="st4" d="M66.3,53c-0.2,0-0.4,0.1-0.6,0.1C65.8,53.1,66,53.1,66.3,53z"/>
	<path class="st4" d="M73.9,54.5c-0.2,0-0.4,0-0.6,0C73.5,54.5,73.7,54.5,73.9,54.5z"/>
	<path class="st4" d="M75.1,54.3c0.1,0,0.3-0.1,0.4-0.1C75.4,54.3,75.3,54.3,75.1,54.3z"/>
	<path class="st4" d="M66.9,53c-0.2,0-0.3,0-0.5,0c0.2,0,0.4,0,0.6,0C67,53,66.9,53,66.9,53z"/>
	<path class="st4" d="M67.2,53c0.2,0,0.3,0,0.5,0.1C67.6,53,67.4,53,67.2,53z"/>
	<path class="st4" d="M74.6,54.4c0.1,0,0.2,0,0.4-0.1C74.9,54.4,74.8,54.4,74.6,54.4z"/>
	<path class="st4" d="M58.7,28c-4.2,0-7.6,3.4-7.6,7.6c0.1,0.4,0.2,1.3,0.4,2.6c1,4.8,3.5,14.6,9.1,19.3c0.1-1.6,0.8-3.1,2-4.2
		c1.2-1.1,2.7-1.7,4.3-1.7c1.1,0,2.1,0.3,3,0.8c0.6,0.3,1.3,0.5,2,0.6c0.4,0.1,0.9,0.1,1.4,0.1c0.7,0,1.3-0.1,2-0.3
		c0.1,0,0.1,0,0.1,0l0.2-0.1l0,0c0.6-0.1,1.2-0.2,1.8-0.2c0.1,0,0.2,0,0.3,0c0.3-0.9,0.4-1.8,0.4-2.8c0-3.9-2.2-7.4-5.4-9.1l0,0
		c-0.1,0-0.2-0.1-0.3-0.2c-1.2-0.7-3-1.9-4.6-3.9c-0.9-1.2-1.5-2.4-1.9-3.4C64.9,30.2,62.1,28,58.7,28z M52.4,36.4
		c-0.5-0.2-0.6-2.6,0.7-4.4c1.3-1.9,3.9-2.6,4.2-2.2c0.2,0.3-0.6,0.9-2.5,3.4C53.1,35.6,52.7,36.5,52.4,36.4z"/>
	<path class="st4" d="M63.5,54.3c0.2-0.2,0.4-0.3,0.6-0.5C63.9,54,63.7,54.1,63.5,54.3z"/>
	<path class="st4" d="M64.8,53.5c-0.2,0.1-0.4,0.2-0.6,0.3C64.4,53.7,64.6,53.5,64.8,53.5z"/>
	<path class="st4" d="M64.9,53.4c0.2-0.1,0.4-0.2,0.6-0.2C65.3,53.2,65.1,53.3,64.9,53.4z"/>
	<path class="st5" d="M26.7,50.3c-0.2,0-0.4,0-0.6,0C26.3,50.3,26.5,50.3,26.7,50.3z"/>
	<path class="st5" d="M18.3,51.4C18.3,51.4,18.3,51.4,18.3,51.4C18.3,51.4,18.3,51.4,18.3,51.4C18.3,51.4,18.3,51.4,18.3,51.4z"/>
	<path class="st5" d="M20.9,50c0.2-0.1,0.4-0.1,0.6-0.1C21.3,49.9,21.1,50,20.9,50z"/>
	<path class="st5" d="M18.5,51.2c0.2-0.1,0.3-0.2,0.5-0.3C18.8,51,18.6,51.1,18.5,51.2z"/>
	<path class="st5" d="M22.6,49.8C22.6,49.8,22.5,49.8,22.6,49.8c0.1,0,0.3,0,0.5,0C22.9,49.8,22.8,49.8,22.6,49.8z"/>
	<path class="st5" d="M19.9,50.3c0.2-0.1,0.5-0.2,0.8-0.3C20.4,50.1,20.2,50.2,19.9,50.3z"/>
	<path class="st5" d="M19.2,50.7c0.2-0.1,0.4-0.2,0.6-0.3C19.6,50.5,19.4,50.6,19.2,50.7z"/>
	<path class="st5" d="M21.7,49.8c0.2,0,0.4,0,0.6-0.1C22.1,49.8,21.9,49.8,21.7,49.8z"/>
	<path class="st5" d="M25.5,50.2c0.2,0,0.3,0,0.5,0.1C25.8,50.3,25.7,50.3,25.5,50.2z"/>
	<path class="st5" d="M25,50.2c0.1,0,0.2,0,0.4,0.1C25.2,50.2,25.1,50.2,25,50.2z"/>
	<path class="st5" d="M23.4,49.8c0.3,0,0.6,0.1,0.8,0.2C23.9,49.9,23.7,49.9,23.4,49.8z"/>
	<path class="st5" d="M24.4,50c0.1,0,0.3,0.1,0.4,0.1C24.7,50.1,24.6,50.1,24.4,50z"/>
	<path class="st5" d="M24.4,48.6L24.4,48.6l0.3,0.1c0,0,0.1,0,0.2,0c0.6,0.2,1.3,0.2,2,0.2c0.5,0,0.9,0,1.4-0.1
		c0.7-0.1,1.4-0.3,2-0.6c0.9-0.5,2-0.8,3-0.8h0c0.5,0,1.1,0.1,1.6,0.2c0.4-1.1,0.7-1.9,0.7-1.9c1.6-5,2-6.3,1.7-8.4
		c-0.1-0.6-0.2-1.3-0.5-1.9c-0.1-0.3-0.2-0.6-0.4-0.8c0-0.1-0.1-0.1-0.1-0.2c-0.1-0.1-0.1-0.2-0.2-0.3c0,0,0,0,0,0
		c-0.1-0.2-0.3-0.4-0.5-0.5c0-0.1-0.1-0.1-0.2-0.1c-0.1-0.1-0.3-0.2-0.4-0.4c-0.1,0-0.1-0.1-0.2-0.1c-0.2-0.1-0.4-0.3-0.6-0.4
		c0,0-0.1,0-0.1,0c-0.2-0.1-0.4-0.2-0.6-0.3c-0.1,0-0.1-0.1-0.2-0.1c-0.2-0.1-0.3-0.1-0.5-0.2c-0.1,0-0.1,0-0.2-0.1
		c-0.2-0.1-0.5-0.1-0.7-0.2c0,0-0.1,0-0.1,0c-0.2,0-0.4-0.1-0.6-0.1c-0.1,0-0.2,0-0.2,0c-0.2,0-0.4,0-0.6,0c-0.1,0-0.1,0-0.2,0
		c-0.2,0-0.5,0-0.7,0c0,0-0.1,0-0.1,0c-0.2,0-0.4,0.1-0.6,0.1c-0.1,0-0.1,0-0.2,0c-0.2,0-0.3,0.1-0.5,0.1c-0.1,0-0.1,0-0.2,0.1
		c-0.2,0.1-0.4,0.2-0.6,0.3c-0.3,0.1-2.2,1.1-3.2,3.2c-0.6,1.2-0.1,1.3-0.8,3c-0.8,1.9-1.9,3.2-2.7,3.9c-0.1,0.1-0.1,0.1-0.2,0.2
		l0,0c-0.1,0.1-0.3,0.3-0.4,0.4c-0.2,0.3-0.5,0.6-0.7,0.8c-0.3,0.4-0.6,0.9-0.8,1.4c-0.1,0.3-0.3,0.7-0.4,1
		c-0.1,0.2-0.1,0.4-0.1,0.5c-0.1,0.4-0.1,0.7-0.2,1.1c-0.1,0.7,0,1.5,0.1,2.2c1.4-1,3-1.5,4.7-1.5C23.2,48.4,23.8,48.5,24.4,48.6z
		 M30.1,32.7c2,0.1,3.8,2.1,3.5,3.1c-0.2,0.8-1.7,0.9-3.7,1.1c-2,0.2-3.9,0.4-4.3-0.4C25.2,35.5,27.5,32.5,30.1,32.7z"/>
	<path class="st5" d="M32.3,48.9c0.2,0,0.3,0,0.5-0.1C32.6,48.8,32.4,48.8,32.3,48.9z"/>
	<path class="st5" d="M34.2,48.9c-0.2,0-0.3-0.1-0.5-0.1C33.9,48.8,34.1,48.9,34.2,48.9C34.2,48.9,34.2,48.9,34.2,48.9z"/>
	<path class="st5" d="M33.1,48.8c0,0-0.1,0-0.1,0c0.2,0,0.4,0,0.6,0C33.5,48.8,33.3,48.8,33.1,48.8z"/>
	<path class="st5" d="M31.6,49c0.2-0.1,0.3-0.1,0.5-0.1C31.9,48.9,31.7,49,31.6,49z"/>
	<path class="st5" d="M30.7,49.4c0.2-0.1,0.4-0.2,0.6-0.3C31.1,49.2,30.9,49.3,30.7,49.4z"/>
	<path class="st5" d="M26.8,50.3c0.2,0,0.4,0,0.5,0C27.2,50.3,27,50.3,26.8,50.3z"/>
	<path class="st5" d="M28.3,50.2c-0.3,0-0.5,0.1-0.7,0.1C27.8,50.3,28.1,50.2,28.3,50.2z"/>
	<path class="st6" d="M82.3,56.1c-0.2-0.2-0.4-0.4-0.6-0.6c-0.1-0.1-0.1-0.1-0.2-0.2c-0.2-0.1-0.3-0.2-0.5-0.3
		c-0.1,0-0.1-0.1-0.2-0.1c-0.2-0.1-0.4-0.2-0.6-0.3c0,0-0.1,0-0.1-0.1c-0.2-0.1-0.5-0.2-0.8-0.3c-0.1,0-0.1,0-0.2-0.1
		c-0.2,0-0.3-0.1-0.5-0.1c0,0-0.1,0-0.1,0c-0.1,0-0.2,0-0.3,0c-0.2,0-0.4,0-0.6-0.1c-0.1,0-0.1,0-0.2,0c-0.1,0-0.2,0-0.2,0
		c-0.1,0-0.2,0-0.3,0c-0.1,0-0.2,0-0.3,0c-0.3,0-0.6,0.1-0.8,0.2l0,0c-0.1,0-0.1,0-0.2,0.1c-0.1,0-0.3,0.1-0.4,0.1c0,0-0.1,0-0.1,0
		c-0.1,0-0.2,0-0.4,0.1c-0.1,0-0.1,0-0.2,0c-0.2,0-0.3,0-0.5,0.1c0,0-0.1,0-0.1,0c-0.2,0-0.4,0-0.6,0c0,0,0,0-0.1,0c0,0-0.1,0-0.1,0
		c-0.2,0-0.4,0-0.5,0c-0.1,0-0.1,0-0.2,0c-0.2,0-0.5-0.1-0.7-0.1c-1-0.2-1.8-0.5-2.4-0.8c-0.2-0.1-0.4-0.2-0.6-0.3
		c-0.1,0-0.1,0-0.2-0.1c-0.2-0.1-0.3-0.1-0.5-0.1c-0.1,0-0.2,0-0.3,0c-0.2,0-0.3,0-0.5-0.1c-0.1,0-0.2,0-0.2,0c-0.2,0-0.4,0-0.6,0
		c0,0-0.1,0-0.1,0c-0.2,0-0.4,0.1-0.6,0.1c0,0,0,0-0.1,0c-0.2,0.1-0.4,0.1-0.6,0.2c0,0-0.1,0-0.1,0.1c-0.2,0.1-0.4,0.2-0.6,0.3
		c0,0-0.1,0-0.1,0.1c-0.2,0.1-0.4,0.3-0.6,0.5c0,0,0,0,0,0c-0.8,0.7-1.2,1.6-1.5,2.5c0,0.2-0.1,0.3-0.1,0.5c0,0.3-0.1,0.6,0,0.9
		c0.1,1.1,0.5,2.2,1.3,3.1c0.3,0.2,0.8,0.6,1.3,1c1.7,1.4,2.6,2.3,3.2,3.1c0.2,0.2,0.3,0.4,0.5,0.6c0.2,0.3,0.4,0.5,0.6,0.7
		c0.3,0.3,0.6,0.5,1.1,0.8c0,0,0,0,0,0c0.3,0.1,0.5,0.3,0.8,0.4c0,0,0.1,0,0.1,0c0.3,0.1,0.5,0.2,0.8,0.2c0,0,0.1,0,0.1,0
		c0.3,0.1,0.5,0.1,0.8,0.1c0,0,0.1,0,0.1,0c0.3,0,0.5,0.1,0.8,0.1c0,0,0.1,0,0.1,0c0.2,0,0.5,0,0.7,0c0,0,0.1,0,0.1,0
		c0.3,0,0.5,0,0.8-0.1c0.1,0,0.1,0,0.2,0c0.2,0,0.4-0.1,0.6-0.1c0.1,0,0.1,0,0.2,0c0.2,0,0.5-0.1,0.7-0.2c0,0,0,0,0,0
		c0.2-0.1,0.4-0.1,0.7-0.2c0.1,0,0.1,0,0.2-0.1c0.2-0.1,0.3-0.1,0.5-0.2c0,0,0.1,0,0.1,0c0.2-0.1,0.4-0.1,0.6-0.2c0,0,0.1,0,0.1,0
		c0.1-0.1,0.3-0.1,0.4-0.2c0,0,0.1,0,0.1-0.1c0.1-0.1,0.2-0.1,0.3-0.1c0,0,0,0,0.1,0c0.1-0.1,0.2-0.1,0.3-0.1c0,0,0,0,0.1,0
		c0.1,0,0.1-0.1,0.1-0.1c0,0,0,0,0,0c0,0,0.1,0,0.1,0c0,0,0.1,0,0.1-0.1c0,0,0.1,0,0.1-0.1c0,0,0,0,0,0c0,0,0.1,0,0.1-0.1
		c0,0,0,0,0,0c0,0,0.1-0.1,0.1-0.1c0,0,0.1-0.1,0.1-0.1c0.1,0,0.1-0.1,0.2-0.1c0.1-0.1,0.2-0.2,0.3-0.3c0.1,0,0.1-0.1,0.2-0.2
		c0.7-0.6,1.2-1.4,1.6-2.2c0.1-0.2,0.2-0.4,0.2-0.6c0.1-0.4,0.2-0.8,0.3-1.3C84.3,59.7,83.8,57.7,82.3,56.1z M62.9,56.4
		c0.8-2,3.4-3.2,4.2-2.6c0.5,0.4,0.3,1.8-0.3,2.7c-0.5,0.8-1,0.7-2.2,2c-0.9,0.9-1,1.3-1.3,1.3C62.8,59.6,62.4,57.8,62.9,56.4z"/>
	<path class="st7" d="M83.3,55.2c-1.1-1.2-2.6-2.1-4.3-2.4c0.2-0.9,0.4-1.9,0.4-3c0-4.2-2.3-8.1-5.9-10.2l0,0l-0.2-0.1
		c-0.1,0-0.2-0.1-0.2-0.1c-1.7-0.9-3.1-2.1-4.2-3.6c-0.7-0.9-1.3-1.9-1.7-3c-0.7-2.1-2.1-3.8-4-4.9c-0.5-5.6-5.2-10.1-11-10.1
		c-4.8,0-9,3-10.5,7.6c-0.5,1.4-1.3,2.7-2.2,3.9c-0.9,1.2-2.1,2.3-3.3,3.3c-1.5-1.5-3.8-2.4-6.2-2.4h0c-1.3,0-2.5,0.3-3.6,0.8
		c-0.6,0.3-2.7,1.5-3.8,3.8c-0.4,0.8-0.4,1.3-0.5,1.7c0,0.3-0.1,0.6-0.3,1.3c-0.5,1.3-1.3,2.5-2.4,3.5c-0.1,0.1-0.1,0.1-0.2,0.1
		l-0.2,0.1l0,0c-2.4,2.4-3.4,6-2.5,9.3c0,0,0,0,0,0.1c0,0,0,0-0.1,0.1c-3,3.3-2.8,8.4,0.4,11.4c0.1,0.1,0.1,0.1,0.2,0.2
		c0.1,0.1,0.3,0.2,0.4,0.3c0.1,0,0.1,0.1,0.2,0.1l0.1,0c0,0,0.1,0.1,0.1,0.1c0,0,0.1,0.1,0.1,0.1l0,0l0,0c0,0,0.1,0,0.1,0.1
		c0,0,0.1,0,0.1,0l0.1,0.1c0.1,0,0.1,0.1,0.2,0.1c1.3,0.7,2.7,1,4.3,1c2.6,0,5.3-0.9,7.7-2.1c0.1,0.3,0.1,0.6,0.2,0.8
		c1,3.4,4.3,6.8,8.6,6.8c4.9,0,7.9-4.5,9-8c2.8,1.9,6,3.4,9.2,3.4c1.1,0,2.1-0.2,3.1-0.5c0.1,0,0.1-0.1,0.2-0.1l0.1,0
		c0,0,0.1,0,0.1,0c0.1,0,0.1,0,0.1-0.1l0,0c0.1,0,0.1-0.1,0.2-0.1c0,0,0.1,0,0.1-0.1l0,0c0.1-0.1,0.2-0.1,0.3-0.1
		c0.2-0.1,0.3-0.2,0.5-0.3c0.1-0.1,0.2-0.1,0.3-0.2c0.3-0.2,0.6-0.5,0.9-0.7c2,1.6,2.8,2.6,3.4,3.3c0.6,0.7,1.1,1.3,2.2,1.9
		c1.3,0.7,2.8,1.1,4.5,1.1c3.8,0,7.4-1.9,7.4-1.9l0.1-0.1l0.1-0.1c0,0,0.1,0,0.1-0.1c0,0,0.1-0.1,0.1-0.1l0,0c0,0,0.1-0.1,0.1-0.1
		c0,0,0.1,0,0.1-0.1l0,0c0.1-0.1,0.1-0.1,0.2-0.2c0.1-0.1,0.3-0.2,0.4-0.3c0.1-0.1,0.1-0.1,0.2-0.2c1.6-1.5,2.5-3.5,2.6-5.6
		C85.6,58.9,84.8,56.8,83.3,55.2z M65.9,33.3c0.4,1,1,2.2,1.9,3.4c1.5,2.1,3.4,3.3,4.6,3.9c0.1,0.1,0.2,0.1,0.3,0.2l0,0
		c3.2,1.8,5.4,5.2,5.4,9.1c0,1-0.1,1.9-0.4,2.8c-0.1,0-0.2,0-0.3,0c-0.6,0-1.2,0.1-1.8,0.2l0,0l-0.2,0.1c0,0-0.1,0-0.1,0
		c-0.7,0.2-1.3,0.3-2,0.3c-0.5,0-0.9,0-1.4-0.1c-0.7-0.1-1.4-0.3-2-0.6c-0.9-0.5-2-0.8-3-0.8c-1.6,0-3.1,0.6-4.3,1.7
		c-1.2,1.1-1.9,2.6-2,4.2C55,52.8,52.4,43,51.5,38.2c-0.2-1.2-0.4-2.1-0.4-2.6c0-4.2,3.4-7.6,7.6-7.6C62.1,28,64.9,30.2,65.9,33.3z
		 M40.7,30.1c1.2-1.6,1.9-3.1,2.4-4.3c1.3-3.9,4.9-6.7,9.2-6.7c1,0,2,0.2,2.9,0.4c1.2,0.4,2.3,1,3.3,1.8c0.5,0.4,0.9,0.8,1.3,1.3
		c1.1,1.3,1.8,2.8,2.1,4.5c-1-0.4-2-0.6-3.1-0.6c-5,0-9,4-9,9v0.1l0,0.1c0.1,0.8,0.3,1.7,0.5,2.6c0.5,2.5,1.2,5.6,2.4,8.7
		c-0.5-0.2-1-0.5-1.5-0.9c-1.2-1-2.7-1.5-4.3-1.5c-1.4,0-2.7,0.4-3.8,1.1c-1.3,0.8-2.2,2-2.7,3.4c-0.7,0.1-1.4,0.3-2.1,0.6
		c-0.2-0.3-0.5-0.6-0.8-0.9c-0.4-0.4-0.9-0.7-1.4-1c0.4-0.9,0.6-1.7,0.7-2l0,0c1.6-4.9,2.1-6.6,1.7-9c-0.1-0.9-0.4-2.2-1.2-3.5
		C38.3,32.8,39.6,31.6,40.7,30.1z M17.8,47.8c0-0.4,0.1-0.7,0.2-1.1c0-0.2,0.1-0.4,0.1-0.5c0.1-0.3,0.2-0.7,0.4-1
		c0.2-0.5,0.5-1,0.8-1.4c0.2-0.3,0.4-0.6,0.7-0.8c0.1-0.1,0.3-0.3,0.4-0.4l0,0c0.1-0.1,0.1-0.1,0.2-0.2c0.8-0.8,1.9-2.1,2.7-3.9
		c0.7-1.7,0.2-1.7,0.8-3c1-2.1,2.9-3.1,3.2-3.2c0.2-0.1,0.4-0.2,0.6-0.3c0.1,0,0.1,0,0.2-0.1c0.2-0.1,0.3-0.1,0.5-0.1
		c0.1,0,0.1,0,0.2,0c0.2,0,0.4-0.1,0.6-0.1c0,0,0.1,0,0.1,0c0.2,0,0.5,0,0.7,0c0,0,0,0,0,0c0,0,0.1,0,0.1,0c0.2,0,0.4,0,0.6,0
		c0.1,0,0.2,0,0.2,0c0.2,0,0.4,0.1,0.6,0.1c0,0,0.1,0,0.1,0c0.2,0.1,0.5,0.1,0.7,0.2c0.1,0,0.1,0,0.2,0.1c0.2,0.1,0.4,0.1,0.5,0.2
		c0.1,0,0.1,0.1,0.2,0.1c0.2,0.1,0.4,0.2,0.6,0.3c0,0,0.1,0,0.1,0c0.2,0.1,0.4,0.3,0.6,0.4c0.1,0,0.1,0.1,0.2,0.1
		c0.1,0.1,0.3,0.2,0.4,0.4c0.1,0,0.1,0.1,0.2,0.1c0.2,0.2,0.3,0.3,0.5,0.5c0,0,0,0,0,0c0.1,0.1,0.1,0.2,0.2,0.3h0
		c0,0.1,0.1,0.1,0.1,0.2c0.2,0.3,0.3,0.6,0.4,0.8c0.3,0.7,0.4,1.4,0.5,1.9c0.3,2.1-0.1,3.5-1.7,8.4c0,0-0.3,0.8-0.7,1.9
		c-0.5-0.1-1.1-0.2-1.6-0.2h0c-1.1,0-2.1,0.3-3,0.8c-0.6,0.3-1.3,0.5-2,0.6c-0.4,0.1-0.9,0.1-1.4,0.1c-0.7,0-1.3-0.1-2-0.2
		c-0.1,0-0.1,0-0.2,0l-0.2-0.1l0,0c-0.6-0.1-1.2-0.2-1.8-0.2c-1.7,0-3.4,0.5-4.7,1.5C17.7,49.2,17.7,48.5,17.8,47.8z M23,63.3
		c-0.3,0-0.6,0-0.8,0c0,0-0.1,0-0.1,0c-0.3,0-0.5-0.1-0.8-0.1c-0.1,0-0.1,0-0.2,0c-0.3-0.1-0.5-0.1-0.8-0.2c0,0-0.1,0-0.1,0
		c-0.3-0.1-0.5-0.2-0.8-0.4c0,0-0.1,0-0.1-0.1c0,0-0.1,0-0.1-0.1c0,0,0,0,0,0c0,0-0.1,0-0.1-0.1c0,0,0,0,0,0c0,0-0.1-0.1-0.1-0.1
		c0,0-0.1-0.1-0.1-0.1c-0.1,0-0.1-0.1-0.2-0.1c-0.1-0.1-0.2-0.2-0.3-0.3c-0.1,0-0.1-0.1-0.2-0.2c-2.7-2.5-2.9-6.8-0.4-9.5
		c0.2-0.2,0.4-0.4,0.6-0.6c0,0,0,0,0,0c0,0,0,0,0,0c0.1-0.1,0.1-0.1,0.2-0.2c0.2-0.1,0.3-0.2,0.5-0.3c0.1,0,0.1-0.1,0.2-0.1
		c0.2-0.1,0.4-0.2,0.6-0.3c0,0,0.1,0,0.1-0.1c0.2-0.1,0.5-0.2,0.8-0.3c0.1,0,0.1,0,0.2-0.1c0.2-0.1,0.4-0.1,0.6-0.1
		c0.1,0,0.2,0,0.3,0c0.2,0,0.4,0,0.6-0.1c0.1,0,0.1,0,0.2,0c0,0,0,0,0.1,0c0.2,0,0.3,0,0.5,0c0.1,0,0.2,0,0.3,0
		c0.3,0,0.6,0.1,0.8,0.2l0,0c0.1,0,0.1,0,0.2,0.1c0.1,0,0.3,0.1,0.4,0.1c0,0,0.1,0,0.1,0c0.1,0,0.2,0,0.4,0.1c0.1,0,0.1,0,0.2,0
		c0.2,0,0.3,0,0.5,0.1c0,0,0.1,0,0.1,0c0.2,0,0.4,0,0.6,0c0,0,0,0,0.1,0c0,0,0.1,0,0.1,0c0.2,0,0.4,0,0.5,0c0.1,0,0.1,0,0.2,0
		c0.2,0,0.5-0.1,0.7-0.1c0.7-0.1,1.4-0.3,1.9-0.6c0.2-0.1,0.3-0.1,0.5-0.2c0,0,0,0,0,0c0.2-0.1,0.4-0.2,0.6-0.3c0.1,0,0.1,0,0.2-0.1
		c0.2-0.1,0.3-0.1,0.5-0.1c0.1,0,0.2,0,0.3,0c0.2,0,0.3,0,0.5-0.1c0.1,0,0.2,0,0.2,0c0,0,0.1,0,0.1,0c0.2,0,0.3,0,0.5,0
		c0,0,0.1,0,0.1,0c0.2,0,0.3,0,0.5,0.1c0,0,0,0,0,0c0.1,0,0.1,0,0.2,0c0,0,0,0,0.1,0c0.2,0.1,0.4,0.1,0.6,0.2c0,0,0.1,0,0.1,0.1
		c0.1,0,0.2,0.1,0.3,0.2c0,0,0,0,0,0c0.1,0.1,0.2,0.1,0.3,0.2c0,0,0.1,0,0.1,0.1c0.2,0.1,0.4,0.3,0.6,0.5c0.2,0.2,0.3,0.3,0.5,0.5
		c-1.9,1.1-3.5,2.7-4.5,4.3c-1.3,2-1.9,4.1-1.8,6.2c-0.2,0.1-0.3,0.2-0.5,0.2c-0.1,0-0.1,0.1-0.2,0.1c-0.2,0.1-0.5,0.2-0.7,0.3
		c0,0-0.1,0-0.1,0c-0.2,0.1-0.5,0.2-0.7,0.3c-0.1,0-0.1,0-0.2,0.1c-0.3,0.1-0.5,0.2-0.8,0.3c0,0-0.1,0-0.1,0
		c-0.2,0.1-0.5,0.2-0.7,0.2c0,0-0.1,0-0.1,0c-0.3,0.1-0.5,0.1-0.8,0.2c-0.1,0-0.1,0-0.2,0c-0.3,0.1-0.5,0.1-0.8,0.1c0,0,0,0-0.1,0
		c-0.3,0-0.5,0.1-0.8,0.1c-0.1,0-0.1,0-0.2,0C23.6,63.3,23.3,63.3,23,63.3C23,63.3,23,63.3,23,63.3C23,63.3,23,63.3,23,63.3z
		 M47.3,61.7c-0.1,0.2-0.1,0.4-0.2,0.6c0,0.1-0.1,0.2-0.1,0.4c0,0.1-0.1,0.2-0.1,0.3c-0.1,0.2-0.1,0.3-0.2,0.5c0,0.1,0,0.1-0.1,0.2
		c-0.1,0.2-0.2,0.3-0.3,0.5c0,0.1-0.1,0.1-0.1,0.2c-0.1,0.2-0.2,0.3-0.3,0.5c0,0.1-0.1,0.1-0.1,0.2c-0.1,0.2-0.2,0.3-0.3,0.4
		c0,0.1-0.1,0.1-0.1,0.2c-0.1,0.1-0.2,0.3-0.3,0.4c0,0.1-0.1,0.1-0.1,0.2c-0.1,0.1-0.2,0.2-0.3,0.4c-0.1,0.1-0.1,0.1-0.2,0.2
		c-0.1,0.1-0.2,0.2-0.3,0.3c-0.1,0.1-0.1,0.1-0.2,0.2c-0.1,0.1-0.2,0.2-0.4,0.3c-0.1,0.1-0.2,0.1-0.3,0.2c-0.1,0.1-0.2,0.1-0.4,0.2
		c-0.1,0.1-0.2,0.1-0.3,0.2c-0.1,0.1-0.2,0.1-0.4,0.2c-0.1,0.1-0.2,0.1-0.3,0.2c-0.1,0-0.2,0.1-0.4,0.1c-0.1,0-0.3,0.1-0.4,0.1
		c-0.1,0-0.2,0-0.4,0.1c-0.1,0-0.3,0.1-0.4,0.1c-0.1,0-0.3,0-0.4,0c-0.1,0-0.3,0-0.4,0c0,0,0,0,0,0c-0.4,0-0.9,0-1.3-0.1
		c-1-0.2-2-0.7-2.8-1.3c-0.3-0.2-0.7-0.5-1-0.8c-0.3-0.3-0.6-0.6-0.8-0.9c-0.6-0.8-1.1-1.8-1.4-2.7c-0.6-1.8-0.3-3.5,0.1-4.8
		c0.4-1.3,1-2.2,1.2-2.5c0.1-0.2,0.2-0.4,0.4-0.5c0-0.1,0.1-0.1,0.1-0.2c0.1-0.1,0.2-0.2,0.3-0.4c0.1-0.1,0.1-0.1,0.2-0.2
		c0.1-0.1,0.2-0.2,0.3-0.4c0-0.1,0.1-0.1,0.1-0.2c0.2-0.2,0.3-0.3,0.5-0.5c0,0,0,0,0.1-0.1c0.2-0.1,0.3-0.3,0.5-0.4
		c0.1-0.1,0.1-0.1,0.2-0.1c0.1-0.1,0.3-0.2,0.4-0.3c0.1-0.1,0.1-0.1,0.2-0.1c0.1-0.1,0.3-0.2,0.4-0.3c0.1,0,0.1-0.1,0.2-0.1
		c0.1,0,0.1-0.1,0.2-0.1c0,0,0,0,0,0c0.2-0.1,0.3-0.2,0.5-0.3c0,0,0.1,0,0.1-0.1c0.2-0.1,0.4-0.2,0.5-0.2c0.1,0,0.1-0.1,0.2-0.1
		c0.2-0.1,0.3-0.1,0.5-0.2c0.1,0,0.2-0.1,0.2-0.1c0.1,0,0.2,0,0.2-0.1c0,0,0,0,0,0c0.1,0,0.2,0,0.3-0.1c0.1,0,0.1,0,0.2,0
		c0.2,0,0.5-0.1,0.7-0.1c0,0,0.1,0,0.1,0c0,0,0.1,0,0.1,0c0,0,0,0,0,0c0.1,0,0.2,0,0.3,0c0,0,0.1,0,0.1,0c0.1,0,0.2,0,0.2,0
		c0.2,0,0.3,0,0.5,0c0.1,0,0.2,0,0.2,0c0.2,0,0.3,0.1,0.5,0.1c0.1,0,0.1,0,0.2,0.1c0.2,0.1,0.4,0.2,0.7,0.3c3.5,1.7,4.1,6.6,3.5,9.8
		c0,0.2-0.1,0.3-0.1,0.5h0c0,0.1,0,0.1,0,0.2C47.4,61.6,47.3,61.6,47.3,61.7z M62.1,63c-0.1,0-0.1,0.1-0.2,0.1
		c-0.1,0.1-0.3,0.2-0.4,0.2c-0.1,0-0.1,0.1-0.2,0.1c-0.1,0-0.1,0.1-0.2,0.1c0,0-0.1,0-0.1,0.1c0,0,0,0,0,0c0,0-0.1,0-0.1,0.1
		c0,0,0,0-0.1,0c0,0-0.1,0-0.1,0.1c-0.1,0-0.1,0-0.2,0.1c-0.2,0.1-0.4,0.1-0.6,0.2c-0.1,0-0.1,0-0.2,0c-0.1,0-0.3,0.1-0.4,0.1
		c-0.1,0-0.2,0-0.3,0c-0.1,0-0.3,0-0.4,0c-0.1,0-0.2,0-0.3,0c-0.1,0-0.2,0-0.4,0c0,0-0.1,0-0.1,0c0,0-0.1,0-0.1,0
		c-0.3,0-0.6,0-0.9-0.1c0,0,0,0-0.1,0c-0.3,0-0.6-0.1-0.9-0.2c0,0-0.1,0-0.1,0c-0.3-0.1-0.6-0.2-0.9-0.2c-0.1,0-0.1,0-0.2-0.1
		c-0.3-0.1-0.6-0.2-0.9-0.3c0,0-0.1,0-0.1-0.1c-0.6-0.3-1.3-0.6-1.9-0.9c0,0-0.1,0-0.1-0.1c-0.3-0.2-0.6-0.3-0.9-0.5
		c-0.1,0-0.1-0.1-0.2-0.1c-0.3-0.2-0.6-0.4-0.9-0.5c0,0-0.1,0-0.1-0.1c-0.2-0.1-0.4-0.2-0.5-0.4c0.5-3.2,0-8.1-3.4-10.4
		c-0.3-0.2-0.5-0.3-0.8-0.5c-0.6-0.3-1.3-0.5-2-0.6c-0.3,0-0.6-0.1-0.9-0.1c0-0.1,0.1-0.1,0.1-0.2c0.2-0.3,0.4-0.6,0.6-0.9
		c0.3-0.4,0.8-0.8,1.2-1.1c0.2-0.2,0.5-0.3,0.8-0.4c0.1,0,0.2-0.1,0.3-0.1c0.2-0.1,0.4-0.1,0.5-0.2c0.1,0,0.2,0,0.3-0.1
		c0.2,0,0.3-0.1,0.5-0.1c0.1,0,0.2,0,0.3,0c0.1,0,0.2,0,0.3,0c0.1,0,0.1,0,0.2,0c0,0,0.1,0,0.1,0c0.2,0,0.5,0,0.7,0.1
		c0,0,0.1,0,0.1,0c0.2,0.1,0.5,0.1,0.7,0.2c0,0,0.1,0,0.1,0c0.2,0.1,0.5,0.2,0.7,0.3c0,0,0,0,0.1,0c0.2,0.1,0.5,0.3,0.7,0.5
		c0.6,0.4,1.4,0.9,2.5,1.3c0.2,0.1,0.3,0.1,0.5,0.1c0,0,0,0,0,0c1.7,4.2,4.1,8.2,7.6,10.6c0.2,1,0.8,2,1.5,2.8l0.1,0.1l0.1,0.1
		c0.1,0.1,0.1,0.1,0.2,0.2C62.5,62.7,62.3,62.8,62.1,63z M83.8,62.9c-0.1,0.2-0.1,0.4-0.2,0.6c-0.4,0.8-0.9,1.5-1.6,2.2
		c-0.1,0.1-0.1,0.1-0.2,0.2c-0.1,0.1-0.2,0.2-0.3,0.3c-0.1,0-0.1,0.1-0.2,0.1c0,0-0.1,0.1-0.1,0.1c0,0-0.1,0.1-0.1,0.1c0,0,0,0,0,0
		c0,0-0.1,0-0.1,0.1c0,0,0,0,0,0c0,0-0.1,0-0.1,0.1c-0.1,0-0.1,0.1-0.1,0.1c0,0,0,0-0.1,0c0,0,0,0,0,0c0,0-0.1,0-0.1,0.1
		c0,0,0,0-0.1,0c-0.1,0-0.2,0.1-0.3,0.1c0,0,0,0-0.1,0c-0.1,0-0.2,0.1-0.3,0.1c0,0-0.1,0-0.1,0.1c-0.1,0.1-0.3,0.1-0.4,0.2
		c0,0-0.1,0-0.1,0c-0.2,0.1-0.4,0.1-0.6,0.2c0,0-0.1,0-0.1,0c-0.2,0.1-0.3,0.1-0.5,0.2c-0.1,0-0.1,0-0.2,0.1
		c-0.2,0.1-0.4,0.1-0.7,0.2c0,0,0,0,0,0c-0.2,0.1-0.5,0.1-0.7,0.2c-0.1,0-0.1,0-0.2,0c-0.2,0-0.4,0.1-0.6,0.1c-0.1,0-0.1,0-0.2,0
		c-0.3,0-0.5,0.1-0.8,0.1c0,0-0.1,0-0.1,0c-0.2,0-0.3,0-0.5,0c-0.1,0-0.2,0-0.2,0c0,0-0.1,0-0.1,0c-0.3,0-0.5,0-0.8-0.1
		c0,0-0.1,0-0.1,0c-0.3,0-0.5-0.1-0.8-0.1c0,0-0.1,0-0.1,0c-0.3-0.1-0.5-0.1-0.8-0.2c0,0-0.1,0-0.1,0c-0.3-0.1-0.5-0.2-0.8-0.4
		c0,0,0,0,0,0c-0.5-0.3-0.8-0.5-1.1-0.8c-0.2-0.2-0.4-0.5-0.6-0.7c-0.1-0.2-0.3-0.4-0.5-0.6c-0.6-0.7-1.5-1.7-3.2-3.1
		c-0.6-0.4-1-0.8-1.3-1c-0.8-0.9-1.2-2-1.3-3.1c0-0.3,0-0.6,0-0.9c0-0.2,0-0.3,0.1-0.5c0.2-0.9,0.7-1.8,1.5-2.5c0,0,0,0,0,0
		c0.2-0.2,0.4-0.3,0.6-0.5c0,0,0.1,0,0.1-0.1c0.2-0.1,0.4-0.2,0.6-0.3c0,0,0.1,0,0.1-0.1c0.2-0.1,0.4-0.2,0.6-0.2c0,0,0,0,0.1,0
		c0.2-0.1,0.4-0.1,0.6-0.1c0,0,0.1,0,0.1,0c0.2,0,0.3,0,0.5,0c0,0,0.1,0,0.1,0c0.1,0,0.2,0,0.2,0c0.2,0,0.3,0,0.5,0.1
		c0.1,0,0.2,0,0.3,0c0.2,0,0.3,0.1,0.5,0.1c0.1,0,0.1,0,0.2,0.1c0.2,0.1,0.4,0.2,0.6,0.3c0.6,0.3,1.4,0.6,2.4,0.8
		c0.3,0,0.5,0.1,0.7,0.1c0.1,0,0.1,0,0.2,0c0.2,0,0.4,0,0.5,0c0,0,0.1,0,0.1,0c0,0,0,0,0.1,0c0.2,0,0.4,0,0.6,0c0,0,0.1,0,0.1,0
		c0.2,0,0.3,0,0.5-0.1c0.1,0,0.1,0,0.2,0c0.1,0,0.2,0,0.4-0.1c0,0,0.1,0,0.1,0c0.1,0,0.3-0.1,0.4-0.1c0.1,0,0.1,0,0.2-0.1l0,0
		c0.3-0.1,0.6-0.1,0.8-0.2c0.1,0,0.2,0,0.3,0c0.1,0,0.2,0,0.3,0c0,0,0,0,0,0c0.1,0,0.2,0,0.2,0c0.1,0,0.1,0,0.2,0
		c0.2,0,0.4,0,0.6,0.1c0.1,0,0.2,0,0.3,0c0,0,0.1,0,0.1,0c0,0,0,0,0,0c0.2,0,0.3,0.1,0.5,0.1c0.1,0,0.1,0,0.2,0.1
		c0.3,0.1,0.5,0.2,0.8,0.3c0,0,0.1,0,0.1,0.1c0.2,0.1,0.4,0.2,0.6,0.3c0.1,0,0.1,0.1,0.2,0.1c0.2,0.1,0.3,0.2,0.5,0.3
		c0.1,0.1,0.1,0.1,0.2,0.2c0.2,0.2,0.4,0.4,0.6,0.6c1.4,1.5,2,3.5,1.7,5.5C84,62,83.9,62.5,83.8,62.9z"/>
	<path class="st8" d="M45.6,49.3c0.1-0.3,0.2-0.6,0.5-1c0.4-0.7,0.6-0.9,0.6-1.2c-0.1-0.3-0.6-0.4-1-0.4c-1.4,0-2.7,1.5-3,2.5
		c0.7,0.1,1.4,0.3,2,0.6c0.3,0.1,0.6,0.3,0.8,0.5C45.4,50.1,45.4,49.7,45.6,49.3z"/>
	<path class="st0" d="M23.8,63.2c0.1,0,0.1,0,0.2,0c0.3,0,0.5-0.1,0.8-0.1c0,0,0,0,0.1,0c0.3,0,0.5-0.1,0.8-0.1c0.1,0,0.1,0,0.2,0
		c0.3-0.1,0.5-0.1,0.8-0.2c0,0,0.1,0,0.1,0c0.2-0.1,0.5-0.1,0.7-0.2c0,0,0.1,0,0.1,0c0.3-0.1,0.5-0.2,0.8-0.3c0.1,0,0.1,0,0.2-0.1
		c0.2-0.1,0.5-0.2,0.7-0.3c0,0,0.1,0,0.1,0c0.2-0.1,0.5-0.2,0.7-0.3c0.1,0,0.1-0.1,0.2-0.1c0.2-0.1,0.3-0.2,0.5-0.2
		c-0.1-2.1,0.5-4.2,1.8-6.2c1-1.5,2.6-3.2,4.5-4.3c-0.1-0.2-0.3-0.3-0.5-0.5c-0.2-0.2-0.4-0.3-0.6-0.5c0,0-0.1,0-0.1-0.1
		c-0.1-0.1-0.2-0.1-0.3-0.2c-0.1-0.1-0.2-0.1-0.3-0.2c0,0-0.1,0-0.1-0.1c-0.2-0.1-0.4-0.2-0.6-0.2c0,0,0,0-0.1,0c-0.1,0-0.1,0-0.2,0
		c-0.2,0-0.3-0.1-0.5-0.1c0,0-0.1,0-0.1,0c-0.2,0-0.4,0-0.6,0c-0.1,0-0.2,0-0.2,0c-0.2,0-0.3,0-0.5,0.1c-0.1,0-0.2,0-0.3,0
		c-0.2,0-0.3,0.1-0.5,0.1c-0.1,0-0.1,0-0.2,0.1c-0.2,0.1-0.4,0.2-0.6,0.3c0,0,0,0,0,0c-0.1,0.1-0.3,0.1-0.5,0.2
		c-0.5,0.2-1.2,0.4-1.9,0.6c-0.3,0-0.5,0.1-0.7,0.1c-0.1,0-0.1,0-0.2,0c-0.2,0-0.4,0-0.5,0c0,0-0.1,0-0.1,0c0,0,0,0-0.1,0
		c-0.2,0-0.4,0-0.6,0c0,0-0.1,0-0.1,0c-0.2,0-0.3,0-0.5-0.1c-0.1,0-0.1,0-0.2,0c-0.1,0-0.2,0-0.4-0.1c0,0-0.1,0-0.1,0
		c-0.1,0-0.3-0.1-0.4-0.1c-0.1,0-0.1,0-0.2-0.1l0,0c-0.3-0.1-0.6-0.1-0.8-0.2c-0.1,0-0.2,0-0.3,0c-0.2,0-0.4,0-0.6,0
		c-0.1,0-0.1,0-0.2,0c-0.2,0-0.4,0-0.6,0.1c-0.1,0-0.2,0-0.3,0c-0.2,0-0.4,0.1-0.6,0.1c-0.1,0-0.1,0-0.2,0.1
		c-0.3,0.1-0.5,0.2-0.8,0.3c0,0-0.1,0-0.1,0.1c-0.2,0.1-0.4,0.2-0.6,0.3c-0.1,0-0.1,0.1-0.2,0.1c-0.2,0.1-0.3,0.2-0.5,0.3
		c-0.1,0.1-0.1,0.1-0.2,0.2c0,0,0,0,0,0c-0.2,0.2-0.4,0.4-0.6,0.6c-2.5,2.7-2.4,7,0.4,9.5c0.1,0.1,0.1,0.1,0.2,0.2
		c0.1,0.1,0.2,0.2,0.3,0.3c0.1,0,0.1,0.1,0.2,0.1c0,0,0.1,0.1,0.1,0.1c0,0,0.1,0.1,0.1,0.1c0,0,0,0,0,0c0,0,0.1,0,0.1,0.1
		c0,0,0,0,0,0c0,0,0.1,0,0.1,0.1c0,0,0.1,0.1,0.1,0.1c0.3,0.1,0.5,0.3,0.8,0.4c0,0,0.1,0,0.1,0c0.3,0.1,0.5,0.2,0.8,0.2
		c0.1,0,0.1,0,0.2,0c0.3,0.1,0.5,0.1,0.8,0.1c0,0,0.1,0,0.1,0c0.3,0,0.5,0,0.8,0c0,0,0,0,0.1,0C23.3,63.3,23.6,63.3,23.8,63.2z
		 M16.7,55.6c-0.3-0.2,0.8-3.6,3.4-4.3c0.1,0,1.7-0.5,2.1,0.2c0.5,0.7-0.3,2.3-1.5,2.7c-0.6,0.2-0.9-0.1-1.7,0
		C17.5,54.4,16.8,55.7,16.7,55.6z"/>
	<path class="st0" d="M35.6,53.3c0.2-0.1,0.3-0.3,0.5-0.4C35.9,53,35.7,53.1,35.6,53.3z"/>
	<path class="st0" d="M36.2,52.7c0.1-0.1,0.3-0.2,0.4-0.3C36.5,52.5,36.4,52.6,36.2,52.7z"/>
	<path class="st0" d="M35,53.8c0.2-0.2,0.3-0.3,0.5-0.5C35.3,53.5,35.1,53.6,35,53.8z"/>
	<path class="st0" d="M34,54.9c0.1-0.1,0.2-0.2,0.3-0.4C34.2,54.6,34.1,54.8,34,54.9z"/>
	<path class="st0" d="M34.5,54.3c0.1-0.1,0.2-0.2,0.3-0.4C34.7,54.1,34.6,54.2,34.5,54.3z"/>
	<path class="st0" d="M33.5,55.6c0.1-0.2,0.2-0.4,0.4-0.5C33.8,55.2,33.7,55.4,33.5,55.6z"/>
	<path class="st0" d="M36.9,52.3c0.1-0.1,0.3-0.2,0.4-0.3C37.1,52.1,37,52.2,36.9,52.3z"/>
	<path class="st0" d="M37.6,51.8c-0.1,0-0.1,0.1-0.2,0.1C37.5,51.8,37.6,51.8,37.6,51.8C37.6,51.8,37.6,51.8,37.6,51.8z"/>
	<path class="st9" d="M47.5,60.9c0.6-3.1,0-8.1-3.5-9.8c-0.2-0.1-0.4-0.2-0.7-0.3c-0.1,0-0.1,0-0.2-0.1c-0.2,0-0.3-0.1-0.5-0.1
		c-0.1,0-0.2,0-0.2,0c-0.2,0-0.3,0-0.5,0c-0.1,0-0.2,0-0.2,0c-0.1,0-0.3,0-0.4,0c0,0-0.1,0-0.1,0c0,0-0.1,0-0.1,0
		c-0.2,0-0.5,0.1-0.7,0.1c-0.1,0-0.1,0-0.2,0c-0.1,0-0.2,0-0.3,0.1c-0.1,0-0.2,0-0.2,0.1c-0.1,0-0.2,0-0.2,0.1
		c-0.2,0-0.3,0.1-0.5,0.2c-0.1,0-0.1,0.1-0.2,0.1c-0.2,0.1-0.4,0.2-0.5,0.2c0,0-0.1,0-0.1,0.1c-0.2,0.1-0.3,0.2-0.5,0.3
		c-0.1,0-0.1,0.1-0.2,0.1c-0.1,0-0.1,0.1-0.2,0.1c-0.1,0.1-0.3,0.2-0.4,0.3c-0.1,0-0.1,0.1-0.2,0.1c-0.1,0.1-0.3,0.2-0.4,0.3
		c-0.1,0-0.1,0.1-0.2,0.1c-0.2,0.1-0.3,0.3-0.5,0.4c0,0,0,0-0.1,0.1c-0.2,0.2-0.3,0.3-0.5,0.5c-0.1,0.1-0.1,0.1-0.1,0.2
		c-0.1,0.1-0.2,0.2-0.3,0.4c-0.1,0.1-0.1,0.1-0.2,0.2c-0.1,0.1-0.2,0.2-0.3,0.4c0,0.1-0.1,0.1-0.1,0.2c-0.1,0.2-0.3,0.4-0.4,0.5
		c-0.2,0.3-0.8,1.2-1.2,2.5c-0.4,1.3-0.6,3-0.1,4.8c0.3,1,0.8,1.9,1.4,2.7c0.3,0.3,0.5,0.6,0.8,0.9c0.3,0.3,0.6,0.6,1,0.8
		c0.9,0.6,1.8,1.1,2.8,1.3c0.4,0.1,0.8,0.1,1.3,0.1c0.2,0,0.3,0,0.4,0c0.1,0,0.3,0,0.4,0c0.1,0,0.3-0.1,0.4-0.1c0.1,0,0.2,0,0.4-0.1
		c0.1,0,0.3-0.1,0.4-0.1c0.1,0,0.2-0.1,0.4-0.1c0.1,0,0.2-0.1,0.3-0.2c0.1-0.1,0.2-0.1,0.4-0.2c0.1-0.1,0.2-0.1,0.3-0.2
		c0.1-0.1,0.2-0.1,0.4-0.2c0.1-0.1,0.2-0.1,0.3-0.2c0.1-0.1,0.2-0.2,0.4-0.3c0.1-0.1,0.1-0.1,0.2-0.2c0.1-0.1,0.2-0.2,0.3-0.3
		c0.1-0.1,0.1-0.1,0.2-0.2c0.1-0.1,0.2-0.2,0.3-0.4c0.1-0.1,0.1-0.1,0.1-0.2c0.1-0.1,0.2-0.3,0.3-0.4c0-0.1,0.1-0.1,0.1-0.2
		c0.1-0.1,0.2-0.3,0.3-0.4c0-0.1,0.1-0.1,0.1-0.2c0.1-0.2,0.2-0.3,0.3-0.5c0-0.1,0.1-0.1,0.1-0.2c0.1-0.2,0.2-0.3,0.3-0.5
		c0-0.1,0-0.1,0.1-0.2c0.1-0.2,0.2-0.3,0.2-0.5c0-0.1,0.1-0.2,0.1-0.3c0-0.1,0.1-0.2,0.1-0.4c0.1-0.2,0.1-0.4,0.2-0.6
		c0,0,0-0.1,0-0.1c0-0.1,0-0.1,0-0.2C47.4,61.2,47.5,61.1,47.5,60.9z M41.7,51.2c0.2,0.2-0.5,0.7-1.5,2.7c-1,1.9-0.9,2.7-1.6,3
		c-1,0.4-3-0.6-3.1-1.8C35.4,53.1,41.2,50.6,41.7,51.2z"/>
	<path class="st10" d="M29.9,36.9c2-0.2,3.5-0.3,3.7-1.1c0.3-1-1.5-3-3.5-3.1c-2.6-0.2-4.9,2.8-4.5,3.8C26,37.3,27.9,37.1,29.9,36.9
		z"/>
	<path class="st11" d="M51.5,26.5c2.9-0.3,5-0.5,5.3-1.5c0.5-1.4-2.2-4.3-5-4.4c-3.7-0.2-7,4-6.4,5.5C45.8,27,48.5,26.8,51.5,26.5z"
		/>
	<path class="st11" d="M57.3,29.8c-0.3-0.4-2.9,0.3-4.2,2.2c-1.2,1.8-1.2,4.2-0.7,4.4c0.3,0.1,0.7-0.8,2.4-3.2
		C56.7,30.7,57.5,30.1,57.3,29.8z"/>
	<path class="st11" d="M63.4,59.7c0.3,0.1,0.4-0.4,1.3-1.3c1.2-1.2,1.7-1.2,2.2-2c0.5-0.9,0.8-2.3,0.3-2.7c-0.8-0.6-3.4,0.6-4.2,2.6
		C62.4,57.8,62.8,59.6,63.4,59.7z"/>
	<path class="st8" d="M38.7,56.9c0.7-0.3,0.6-1,1.6-3c1-2,1.7-2.5,1.5-2.7c-0.5-0.7-6.3,1.8-6.1,3.9C35.7,56.3,37.7,57.4,38.7,56.9z
		"/>
	<path class="st12" d="M19,54.2c0.8-0.1,1.1,0.2,1.7,0c1.1-0.4,1.9-2,1.5-2.7c-0.4-0.6-2-0.2-2.1-0.2c-2.6,0.7-3.7,4.1-3.4,4.3
		C16.8,55.7,17.5,54.4,19,54.2z"/>
</g>
<defs>
<script>

let icon = document.querySelector("#jelly");

function logMyId() {
	console.log(this.id);
}

icon.addEventListener("click", () => { console.log(this); });

</script>
</defs>
</svg>
