<?xml version="1.0" encoding="utf-8"?>
<!-- Generator: Adobe Illustrator 25.0.0, SVG Export Plug-In . SVG Version: 6.00 Build 0)  -->
<svg version="1.1" id="popcorn" xmlns="http://www.w3.org/2000/svg" xmlns:xlink="http://www.w3.org/1999/xlink" x="0px" y="0px"
	 viewBox="0 0 100 100" style="enable-background:new 0 0 100 100;" xml:space="preserve">
<style type="text/css">
	.st0{fill:#F2D766;}
	.st1{fill:none;}
	.st2{fill:#E5D68C;}
	.st3{fill:#DBD2AD;}
	.st4{fill:#7F0912;}
	.st5{fill:#FFF7D4;}
	.st6{fill:#231F20;}
	.st7{fill:url(#SVGID_1_);}
	.st8{fill:url(#SVGID_2_);}
	.st9{fill:url(#SVGID_3_);}
	.st10{fill:url(#SVGID_4_);}
	.st11{fill:url(#SVGID_5_);}
	.st12{fill:url(#SVGID_6_);}
	.st13{fill:url(#SVGID_7_);}
	.st14{fill:url(#SVGID_8_);}
	.st15{fill:url(#SVGID_9_);}
	.st16{fill:url(#SVGID_10_);}
	.st17{fill:url(#SVGID_11_);}
	.st18{fill:url(#SVGID_12_);}
	.st19{fill:url(#SVGID_13_);}
	.st20{fill:url(#SVGID_14_);}
	.st21{fill:url(#SVGID_15_);}
	.st22{fill:url(#SVGID_16_);}
	.st23{fill:url(#SVGID_17_);}
	.st24{fill:url(#SVGID_18_);}
	.st25{fill:url(#SVGID_19_);}
	.st26{fill:url(#SVGID_20_);}
	.st27{fill:url(#SVGID_21_);}
	.st28{fill:url(#SVGID_22_);}
	.st29{fill:url(#SVGID_23_);}
	.st30{fill:url(#SVGID_24_);}
	.st31{fill:url(#SVGID_25_);}
	.st32{fill:url(#SVGID_26_);}
	.st33{fill:url(#SVGID_27_);}
	.st34{fill:url(#SVGID_28_);}
	.st35{fill:url(#SVGID_29_);}
	.st36{fill:url(#SVGID_30_);}
	.st37{fill:url(#SVGID_31_);}
	.st38{fill:url(#SVGID_32_);}
	.st39{fill:url(#SVGID_33_);}
	.st40{fill:url(#SVGID_34_);}
	.st41{fill:url(#SVGID_35_);}
	.st42{fill:url(#SVGID_36_);}
	.st43{fill:url(#SVGID_37_);}
	.st44{fill:url(#SVGID_38_);}
	.st45{fill:url(#SVGID_39_);}
	.st46{fill:url(#SVGID_40_);}
	.st47{fill:url(#SVGID_41_);}
	.st48{fill:url(#SVGID_42_);}
	.st49{clip-path:url(#SVGID_44_);}
	.st50{clip-path:url(#SVGID_48_);}
	.st51{clip-path:url(#SVGID_52_);}
</style>
<circle class="st0" cx="50" cy="49.5" r="48.2"/>
<g>
	<path class="st1" d="M82,30.4c-0.1-0.1-0.2-0.1-0.3-0.2c-0.1-0.1-0.2-0.1-0.4-0.2c0.1,0.1,0.3,0.1,0.4,0.2
		C81.8,30.2,81.9,30.3,82,30.4z"/>
	<path class="st1" d="M75.3,34.4c0-0.3,0-0.6,0-0.8C75.3,33.8,75.3,34.1,75.3,34.4C75.3,34.4,75.3,34.4,75.3,34.4z"/>
	<path class="st1" d="M69.2,30.4c0.1-0.1,0.2-0.2,0.4-0.2c0,0,0,0,0,0c0,0,0,0,0,0C69.5,30.3,69.3,30.3,69.2,30.4
		c-0.1,0.1-0.3,0.2-0.4,0.4C68.9,30.7,69.1,30.5,69.2,30.4z"/>
	<path class="st1" d="M74.1,30.7C74.1,30.7,74.1,30.7,74.1,30.7c0.2,0.2,0.3,0.4,0.4,0.5c0.1,0.1,0.1,0.2,0.2,0.3
		c-0.1-0.1-0.1-0.2-0.2-0.3C74.4,31.1,74.3,30.9,74.1,30.7C74.1,30.7,74.1,30.7,74.1,30.7c-0.1-0.1-0.2-0.2-0.3-0.3
		c-0.1-0.1-0.2-0.1-0.3-0.2c0.1,0.1,0.2,0.1,0.3,0.2C73.9,30.5,74,30.6,74.1,30.7z"/>
	<path class="st1" d="M75.5,33.4c0.3-1.2,1-2.3,2-3c0.1-0.1,0.2-0.2,0.3-0.2c0,0,0.1,0,0.1-0.1c0,0-0.1,0-0.1,0.1
		c-0.1,0.1-0.2,0.2-0.4,0.2c-0.5,0.3-0.9,0.8-1.2,1.3S75.6,32.8,75.5,33.4c-0.1,0.2-0.1,0.4-0.1,0.6c0,0,0,0,0,0c0,0.1,0,0.2,0,0.2
		c0-0.1,0-0.2,0-0.2C75.4,33.8,75.4,33.6,75.5,33.4z"/>
	<path class="st1" d="M83.4,33.5C83.4,33.5,83.4,33.5,83.4,33.5c0-0.3-0.1-0.5-0.1-0.6C83.4,33.1,83.4,33.2,83.4,33.5
		C83.4,33.5,83.4,33.5,83.4,33.5z"/>
	<polygon class="st1" points="70.3,29.8 70.3,29.8 70.3,29.8 	"/>
	<path class="st1" d="M81,29.8C81,29.8,81,29.8,81,29.8C81,29.8,81,29.8,81,29.8C81,29.8,81,29.8,81,29.8z"/>
	<polygon class="st1" points="56.3,29.8 56.3,29.8 56.3,29.8 	"/>
	<path class="st1" d="M57.4,30.4c0.1,0.1,0.2,0.2,0.3,0.3C57.6,30.6,57.5,30.5,57.4,30.4c-0.1-0.1-0.2-0.2-0.3-0.2c0,0,0,0,0,0
		c0,0,0,0,0,0C57.2,30.3,57.3,30.3,57.4,30.4z"/>
	<path class="st1" d="M58.4,31.6C58.4,31.6,58.4,31.7,58.4,31.6C58.4,31.7,58.4,31.6,58.4,31.6c-0.1-0.2-0.2-0.3-0.3-0.4
		c0,0,0,0,0,0C58.2,31.3,58.3,31.5,58.4,31.6z"/>
	<path class="st1" d="M68.4,31.3c0.1-0.2,0.3-0.3,0.4-0.5C68.6,31,68.5,31.1,68.4,31.3c-0.7,0.8-1.1,1.9-1.1,3.1v0
		C67.3,33.2,67.7,32.1,68.4,31.3z"/>
	<path class="st1" d="M51.6,31.9c0,0.1-0.1,0.2-0.1,0.2c0,0,0,0.1,0,0.1c0,0,0-0.1,0-0.1C51.5,32,51.6,32,51.6,31.9z"/>
	<path class="st1" d="M59.1,34.4c0-0.2,0-0.3,0-0.5C59.1,34.1,59.1,34.2,59.1,34.4C59.1,34.4,59.1,34.4,59.1,34.4z"/>
	<path class="st1" d="M59.5,32.5c0-0.1,0.1-0.1,0.1-0.2C59.5,32.4,59.5,32.5,59.5,32.5c-0.1,0.2-0.1,0.4-0.2,0.6c0,0.1,0,0.1,0,0.2
		c0-0.1,0-0.1,0-0.2C59.3,32.9,59.4,32.7,59.5,32.5z"/>
	<path class="st1" d="M66.8,32.1c-0.3-0.7-0.7-1.2-1.2-1.7c-0.2-0.1-0.3-0.3-0.5-0.4c0.2,0.1,0.4,0.2,0.5,0.4
		C66.1,30.8,66.5,31.4,66.8,32.1z"/>
	<path class="st1" d="M61.4,30.2C61.4,30.2,61.4,30.2,61.4,30.2C61.4,30.2,61.4,30.2,61.4,30.2c-0.1,0.1-0.2,0.2-0.3,0.2
		c0,0,0,0,0,0c0,0,0,0,0,0C61.1,30.3,61.2,30.3,61.4,30.2z"/>
	<path class="st1" d="M77.7,23.9c0-0.2-0.1-0.3-0.2-0.5c0-0.1-0.1-0.2-0.1-0.3c0,0.1,0.1,0.2,0.1,0.3C77.6,23.5,77.6,23.7,77.7,23.9
		z"/>
	<path class="st1" d="M46.1,15.9C46.1,15.9,46.1,15.9,46.1,15.9C46.1,15.9,46.1,15.9,46.1,15.9C46.1,15.9,46.1,15.9,46.1,15.9z"/>
	<path class="st1" d="M58.6,19.4C58.6,19.4,58.6,19.4,58.6,19.4c0,0,0.1,0,0.1,0C58.7,19.4,58.6,19.4,58.6,19.4z"/>
	<path class="st1" d="M53.9,17.2C53.9,17.2,53.9,17.2,53.9,17.2c0.1,0,0.2,0,0.2,0C54.1,17.2,54,17.2,53.9,17.2z"/>
	<path class="st1" d="M42.8,33.7C42.8,33.7,42.8,33.8,42.8,33.7C42.8,33.8,42.8,33.7,42.8,33.7z"/>
	<path class="st1" d="M51.4,16.6C51.4,16.6,51.4,16.6,51.4,16.6C51.4,16.6,51.4,16.6,51.4,16.6C51.4,16.6,51.4,16.6,51.4,16.6z"/>
	<path class="st1" d="M51.3,32.7C51.3,32.7,51.3,32.7,51.3,32.7c0,0.1,0,0.2-0.1,0.2C51.2,32.9,51.2,32.8,51.3,32.7
		C51.3,32.7,51.3,32.7,51.3,32.7z"/>
	<path class="st1" d="M74.6,21.5C74.6,21.5,74.6,21.5,74.6,21.5c0.1,0,0.1,0,0.2,0C74.8,21.5,74.7,21.5,74.6,21.5z"/>
	<path class="st1" d="M63.9,20.8C63.9,20.8,63.9,20.8,63.9,20.8C63.9,20.8,64,20.8,63.9,20.8C64,20.8,64,20.8,63.9,20.8z"/>
	<polygon class="st1" points="23.2,79.3 23.2,79.3 23.2,79.3 21.9,66.7 	"/>
	<path class="st1" d="M21,29.8C21,29.8,20.9,29.8,21,29.8C20.9,29.8,21,29.8,21,29.8C21,29.8,21,29.8,21,29.8z"/>
	<polygon class="st1" points="31.7,29.8 31.7,29.8 31.7,29.8 	"/>
	<polygon class="st1" points="28.2,23.1 28.2,23.1 28.2,23.1 	"/>
	<path class="st1" d="M30.4,22.3C30.4,22.3,30.4,22.3,30.4,22.3C30.4,22.3,30.4,22.3,30.4,22.3C30.5,22.3,30.4,22.3,30.4,22.3z"/>
	<path class="st1" d="M32.8,23.1c-0.1,0.1-0.1,0.2-0.2,0.2C32.7,23.3,32.7,23.2,32.8,23.1L32.8,23.1z"/>
	<path class="st1" d="M27.5,23c0,0-0.1,0-0.1,0c0.1,0,0.2,0,0.3,0C27.6,23,27.6,23,27.5,23z"/>
	<path class="st1" d="M53.2,30.2C53.2,30.2,53.2,30.2,53.2,30.2c-0.1,0-0.1,0.1-0.2,0.1C53,30.3,53.1,30.2,53.2,30.2
		C53.2,30.2,53.2,30.2,53.2,30.2z"/>
	<path class="st1" d="M24.6,30.4C24.6,30.4,24.6,30.5,24.6,30.4C24.6,30.5,24.6,30.4,24.6,30.4c-0.1-0.1-0.2-0.2-0.4-0.2
		c0,0,0,0,0,0c0,0,0,0,0,0C24.3,30.3,24.5,30.3,24.6,30.4z"/>
	<path class="st1" d="M32.8,30.4c0.2,0.1,0.3,0.3,0.5,0.5C33.1,30.7,32.9,30.6,32.8,30.4c-0.1-0.1-0.2-0.2-0.4-0.2c0,0,0,0,0,0
		c0,0,0,0,0,0C32.5,30.3,32.7,30.3,32.8,30.4z"/>
	<path class="st1" d="M26.8,32.9c0,0,0,0.1,0,0.1c0,0,0,0.1,0,0.1c0,0,0-0.1,0-0.1C26.8,33,26.8,32.9,26.8,32.9z"/>
	<path class="st1" d="M35,32.5c0-0.1,0-0.1,0.1-0.2C35.1,32.4,35,32.5,35,32.5c0,0.1,0,0.1,0,0.2c0,0.1,0,0.2-0.1,0.3
		c0-0.1,0-0.2,0.1-0.3C35,32.6,35,32.6,35,32.5z"/>
	<path class="st1" d="M28.2,30.4c0.1-0.1,0.2-0.2,0.3-0.2c0,0,0,0,0,0c0,0,0,0,0,0C28.4,30.3,28.3,30.3,28.2,30.4
		c-0.1,0.1-0.2,0.2-0.3,0.2c-0.1,0.1-0.1,0.2-0.2,0.2c0.1-0.1,0.1-0.2,0.2-0.2C28,30.6,28.1,30.5,28.2,30.4z"/>
	<path class="st1" d="M34.6,33.3c0-0.1,0-0.1,0-0.2c-0.1-0.2-0.1-0.3-0.2-0.5c0.1,0.2,0.1,0.3,0.2,0.5
		C34.6,33.1,34.6,33.2,34.6,33.3z"/>
	<path class="st1" d="M36.7,30.2C36.7,30.2,36.8,30.2,36.7,30.2C36.8,30.2,36.7,30.2,36.7,30.2c-0.1,0.1-0.2,0.2-0.3,0.2
		c-0.1,0.1-0.2,0.2-0.3,0.3c0.1-0.1,0.2-0.2,0.3-0.3C36.5,30.3,36.6,30.3,36.7,30.2z"/>
	<path class="st1" d="M25.7,31.7c-0.3-0.4-0.6-0.8-1-1.1c0,0,0,0,0,0c0,0,0,0,0,0C25.1,30.9,25.5,31.3,25.7,31.7z"/>
	<path class="st1" d="M27.1,31.9c0,0.1-0.1,0.2-0.1,0.3c0,0,0,0.1,0,0.1c0,0,0-0.1,0-0.1C27,32,27.1,31.9,27.1,31.9z"/>
	<polygon class="st1" points="78.8,79.3 78.8,79.3 81.3,54.8 	"/>
	<path class="st1" d="M18.7,32.6c-0.1,0.5-0.2,1-0.1,1.5C18.5,33.6,18.6,33.1,18.7,32.6z"/>
	<path class="st1" d="M26.7,34c0,0.1,0,0.3,0,0.4c0,0,0,0,0,0C26.7,34.3,26.7,34.1,26.7,34z"/>
	<path class="st1" d="M19.7,30.7C19.7,30.7,19.7,30.7,19.7,30.7C19.7,30.7,19.7,30.7,19.7,30.7C19.7,30.7,19.7,30.7,19.7,30.7
		C19.7,30.7,19.7,30.7,19.7,30.7C19.7,30.7,19.7,30.7,19.7,30.7C19.7,30.7,19.7,30.7,19.7,30.7C19.7,30.7,19.7,30.7,19.7,30.7z"/>
	<path class="st1" d="M49,30.3c-0.1,0-0.1-0.1-0.2-0.1c0,0,0,0,0,0c0,0,0,0,0,0C48.9,30.2,49,30.3,49,30.3z"/>
	<path class="st1" d="M50.5,32.2C50.5,32.2,50.5,32.1,50.5,32.2c-0.1-0.2-0.1-0.2-0.2-0.3C50.4,32,50.5,32,50.5,32.2
		C50.5,32.1,50.5,32.2,50.5,32.2z"/>
	<path class="st1" d="M34.8,34.4c0-0.1,0-0.2,0-0.3C34.8,34.2,34.8,34.3,34.8,34.4C34.8,34.4,34.8,34.4,34.8,34.4z"/>
	<path class="st1" d="M51,34.3C51,34.3,51,34.4,51,34.3C51,34.4,51,34.3,51,34.3C51,34.3,51,34.4,51,34.3C51,34.4,51,34.3,51,34.3z"
		/>
	<path class="st1" d="M42.9,33.9c0,0.2,0,0.3,0,0.5c0,0,0,0,0,0C42.9,34.2,42.9,34.1,42.9,33.9z"/>
	<path class="st1" d="M45.7,29.8C45.7,29.8,45.7,29.8,45.7,29.8c-0.4,0.1-0.7,0.3-1.1,0.6c-0.3,0.3-0.6,0.6-0.8,0.9
		c-0.5,0.7-0.8,1.6-0.9,2.5c0,0,0,0,0,0C43.1,31.9,44.2,30.4,45.7,29.8z"/>
	<path class="st1" d="M41,30.4c0.1,0.1,0.2,0.2,0.3,0.3c0,0,0,0,0,0l0,0c0.2,0.2,0.4,0.5,0.6,0.7c0,0,0,0,0.1,0.1c0,0,0,0,0-0.1
		c-0.2-0.3-0.4-0.5-0.6-0.7c0,0,0,0,0,0c0,0,0,0,0,0C41.2,30.6,41.1,30.5,41,30.4c-0.1-0.1-0.2-0.2-0.3-0.2c0,0,0,0-0.1,0
		c0,0,0,0,0.1,0C40.8,30.3,40.9,30.3,41,30.4z"/>
	<path class="st2" d="M28.4,27.2c0,0-0.1,0-0.1,0C28.4,27.2,28.4,27.2,28.4,27.2C28.5,27.2,28.4,27.2,28.4,27.2z"/>
	<path class="st2" d="M26.4,30.4c0.1-0.1,0.2-0.2,0.2-0.3c-0.6-1.1-0.4-2.4,0.6-3.1c0.2-0.2,0.5-0.3,0.8-0.3c0-0.1,0.1-0.3,0.1-0.4
		c-0.6-1.1-0.6-2.3,0-3.2c0,0,0,0,0,0c0,0-0.1,0-0.1,0c-0.1,0-0.2,0-0.3,0c0,0-0.1,0-0.1,0c-0.1,0-0.2,0-0.3,0c0,0-0.1,0-0.1,0
		c-0.1,0-0.2,0-0.4,0c-0.6,0.1-1.2,0.4-1.6,0.7c-0.2,0.2-0.4,0.4-0.6,0.6c-0.4,0.5-0.7,1.1-0.8,1.8c0,0.3,0,0.6,0,0.9
		c-0.1,0.1-0.3,0.2-0.4,0.3c-0.2,0.2-0.4,0.5-0.5,0.8c0,0.1,0,0.1,0,0.2C24.3,28.5,25.5,29.3,26.4,30.4z"/>
	<path class="st2" d="M38.3,25.4c-0.1,0-0.1,0-0.2,0C38.2,25.4,38.3,25.4,38.3,25.4C38.3,25.4,38.3,25.4,38.3,25.4z"/>
	<path class="st2" d="M45.1,19.2c0.2,0.2,0.3,0.3,0.4,0.5c0.1,0,0.1,0,0.2,0c0.8,0,1.6,0.4,2.2,1c0.2-0.5,0.5-0.9,1-1.2
		c-0.2-0.6-0.1-1.3,0.2-1.9c0,0,0,0,0,0c-0.1,0-0.2,0-0.2,0.1c-0.1-0.3-0.3-0.5-0.5-0.8c-0.1-0.1-0.1-0.1-0.2-0.2
		c-0.2-0.1-0.3-0.3-0.5-0.4c-0.2-0.1-0.4-0.2-0.6-0.2c-0.1,0-0.2-0.1-0.3-0.1c0,0-0.1,0-0.1,0c-0.1,0-0.2,0-0.3,0c0,0,0,0,0,0
		c-0.1,0-0.2,0-0.3,0c0,0,0,0-0.1,0c-0.1,0-0.2,0-0.3,0.1c0,0,0,0-0.1,0c-0.1,0-0.2,0.1-0.3,0.1c0,0,0,0,0,0c-0.1,0-0.2,0.1-0.3,0.1
		c0,0,0,0-0.1,0c-0.1,0.1-0.2,0.1-0.3,0.2c0,0,0,0,0,0c-0.1,0.1-0.2,0.1-0.2,0.2c0,0,0,0,0,0c-0.1,0.1-0.2,0.1-0.2,0.2
		c0,0,0,0,0,0.1c-0.1,0.1-0.1,0.2-0.2,0.3c-0.1,0.2-0.2,0.4-0.3,0.6c-0.3,0-0.7,0.1-0.9,0.4c0,0,0,0.1,0,0.1
		C43.4,18.2,44.4,18.5,45.1,19.2z"/>
	<path class="st2" d="M55.9,21c0,0-0.1,0-0.1,0C55.9,21,55.9,21,55.9,21C55.9,21,55.9,21,55.9,21z"/>
	<path class="st2" d="M49.8,23.2C49.8,23.1,49.7,23.1,49.8,23.2C49.7,23.1,49.8,23.1,49.8,23.2C49.8,23.2,49.8,23.2,49.8,23.2z"/>
	<path class="st2" d="M55.2,20.9C55.2,20.9,55.1,20.9,55.2,20.9c0.1,0,0.3,0,0.5,0.1C55.6,20.9,55.4,20.9,55.2,20.9z"/>
	<path class="st2" d="M52.2,21c0,0-0.1,0-0.1,0C52.2,21,52.2,21,52.2,21C52.2,21,52.2,21,52.2,21z"/>
	<path class="st2" d="M48.6,22.8C48.6,22.8,48.6,22.8,48.6,22.8C48.6,22.8,48.6,22.8,48.6,22.8C48.6,22.8,48.6,22.8,48.6,22.8z"/>
	<path class="st2" d="M48.5,20.5c-0.1,0.2-0.2,0.4-0.2,0.6c0,0,0,0,0,0c0.2,0.4,0.4,0.7,0.5,1.1c0.4,0,0.9,0.2,1.3,0.4
		c0-1,0.6-1.9,1.6-2.2c0.2,0,0.3-0.1,0.5-0.1c0.4,0,0.9,0.1,1.2,0.4c0.5-0.3,1.1-0.5,1.8-0.5c0.2,0,0.4,0,0.6,0.1
		c0-0.1-0.1-0.3-0.2-0.4c-0.1-0.1-0.1-0.2-0.2-0.3c-0.1-0.1-0.1-0.2-0.2-0.3c0.1-0.1,0.1-0.2,0.1-0.4c0-0.1,0-0.1,0-0.2
		c0-0.1,0-0.3,0-0.4c0-0.1,0-0.1-0.1-0.2c0-0.1-0.1-0.3-0.2-0.4c-0.1-0.1-0.1-0.1-0.2-0.2c0,0,0,0,0,0c-0.1-0.1-0.1-0.1-0.2-0.2
		c0,0,0,0,0,0c-0.1,0-0.1-0.1-0.2-0.1c0,0,0,0,0,0c-0.1,0-0.2-0.1-0.2-0.1c0,0,0,0-0.1,0c-0.1,0-0.2,0-0.2,0c0,0,0,0-0.1,0
		c-0.1,0-0.1,0-0.2,0c0,0-0.1,0-0.1,0c-0.1,0-0.1,0-0.2,0.1c0,0-0.1,0-0.1,0c-0.1,0-0.2,0.1-0.2,0.1c0,0,0,0,0,0c0,0,0,0,0,0
		c0-0.1-0.1-0.1-0.1-0.2c0,0,0,0-0.1-0.1c0,0-0.1-0.1-0.1-0.1c0,0,0,0-0.1-0.1c0,0-0.1-0.1-0.1-0.1c0,0,0,0-0.1,0
		c-0.1,0-0.1-0.1-0.2-0.1c0,0,0,0,0,0c-0.1,0-0.1-0.1-0.2-0.1c0,0,0,0-0.1,0c-0.1,0-0.1,0-0.2,0c0,0-0.1,0-0.1,0c0,0-0.1,0-0.1,0
		c0,0-0.1,0-0.1,0c-0.1,0-0.1,0-0.2,0c0,0,0,0-0.1,0c-0.1,0-0.2,0-0.3,0c0,0,0,0-0.1,0c-0.1,0-0.2,0-0.2,0.1c0,0,0,0,0,0
		c-0.1,0-0.2,0.1-0.3,0.1c0,0,0,0-0.1,0c-0.1,0-0.2,0.1-0.2,0.1c-0.4,0.3-0.7,0.7-0.8,1.2c0,0.1,0,0.2-0.1,0.4c0,0.1,0,0.1,0,0.2
		c0,0.3,0.1,0.6,0.2,0.9c-0.1,0-0.2,0.1-0.3,0.2C48.9,20,48.7,20.3,48.5,20.5z"/>
	<path class="st0" d="M66.8,24.7c-0.1,0-0.1-0.1-0.2-0.1C66.7,24.6,66.8,24.7,66.8,24.7C66.8,24.7,66.8,24.7,66.8,24.7z"/>
	<path class="st0" d="M69.7,21.1C69.6,21.1,69.6,21.1,69.7,21.1C69.6,21.1,69.6,21.1,69.7,21.1C69.7,21.1,69.7,21.1,69.7,21.1z"/>
	<path class="st0" d="M61.6,23.5c0.4,0.2,0.8,0.5,1.1,0.8c0.2-0.2,0.5-0.3,0.7-0.4c0.5-0.2,1-0.3,1.5-0.3c0.6,0,1.2,0.2,1.7,0.4
		c-0.1-1.3,0.6-2.6,1.9-3.1c0.2-0.1,0.4-0.1,0.6-0.2c-0.3-0.2-0.6-0.3-0.9-0.4c-0.2,0-0.4-0.1-0.6-0.1c-0.9,0-1.6,0.4-2.1,1
		c-0.1-0.1-0.2-0.1-0.3-0.2c0,0-0.1,0-0.1,0c-0.1,0-0.2-0.1-0.2-0.1c0,0-0.1,0-0.1,0c-0.1,0-0.2,0-0.2-0.1c0,0-0.1,0-0.1,0
		c-0.1,0-0.2,0-0.3,0c-0.1,0-0.1,0-0.2,0c0,0-0.1,0-0.1,0c-0.1,0-0.1,0-0.2,0c0,0-0.1,0-0.1,0c-0.1,0-0.2,0-0.2,0c0,0-0.1,0-0.1,0
		c-0.1,0-0.2,0.1-0.3,0.1c-0.1-0.2-0.2-0.3-0.4-0.5c-0.3-0.2-0.6-0.3-1-0.3c0,0-0.1,0-0.1,0c0.3,0.3,0.4,0.7,0.6,1.2
		C62,22.1,61.9,22.8,61.6,23.5z"/>
	<path class="st0" d="M64.9,24.1C64.9,24.1,64.9,24.1,64.9,24.1c0.1,0,0.1,0,0.2,0C65.1,24.1,65,24.1,64.9,24.1z"/>
	<path class="st0" d="M56.7,26.1c0,0-0.1,0-0.1,0C56.7,26.1,56.8,26.1,56.7,26.1C56.8,26.1,56.8,26.1,56.7,26.1z"/>
	<path class="st0" d="M57,26.1C57,26.1,57,26.1,57,26.1C57,26.1,57,26.1,57,26.1C57,26.1,57,26.1,57,26.1z"/>
	<path class="st0" d="M53.9,23.5C53.9,23.5,53.9,23.5,53.9,23.5C53.9,23.5,53.9,23.5,53.9,23.5C53.9,23.5,53.9,23.5,53.9,23.5z"/>
	<path class="st0" d="M55.1,20.9C55.1,20.9,55.1,20.9,55.1,20.9c-0.3,0-0.5,0-0.7,0.1c0,0-0.1,0-0.1,0c-0.2,0.1-0.4,0.1-0.6,0.2
		c0,0,0,0-0.1,0c-0.1,0.1-0.2,0.1-0.3,0.2c0,0-0.1-0.1-0.1-0.1c0,0,0,0,0,0c0,0-0.1-0.1-0.1-0.1c0,0,0,0-0.1,0c0,0-0.1,0-0.1-0.1
		c0,0,0,0,0,0c-0.1,0-0.1,0-0.2-0.1c0,0,0,0,0,0c0,0-0.1,0-0.1,0c0,0,0,0-0.1,0c0,0-0.1,0-0.1,0c0,0,0,0-0.1,0c0,0-0.1,0-0.1,0
		c0,0,0,0-0.1,0c-0.1,0-0.1,0-0.2,0c-0.9,0.2-1.4,1.1-1.2,2c0,0,0,0.1,0,0.1c0.5,0.1,1,0.3,1.4,0.6c0.1-0.1,0.2-0.2,0.4-0.3
		c0.4-0.3,0.9-0.4,1.5-0.4c1,0,2,0.5,2.6,1.5c0.2,0.4,0.4,0.7,0.5,1.1c0,0,0.1,0,0.1,0c0.2-0.9,0.9-1.7,1.8-2.1
		c0.4-0.2,0.9-0.3,1.3-0.3c0.3,0,0.6,0,0.8,0.1c0.2-0.5,0.3-1,0.2-1.5c0-0.1,0-0.2-0.1-0.3c-0.1-0.5-0.3-0.9-0.6-1.2
		c-0.1-0.1-0.1-0.1-0.2-0.2c0,0,0,0,0,0c0,0-0.1-0.1-0.2-0.1c0,0,0,0-0.1-0.1c0,0-0.1-0.1-0.1-0.1c0,0-0.1,0-0.1,0
		c0,0-0.1,0-0.1-0.1c0,0-0.1,0-0.1,0c0,0-0.1,0-0.1-0.1c0,0-0.1,0-0.1,0c-0.1,0-0.1,0-0.2-0.1c0,0,0,0-0.1,0c-0.1,0-0.2,0-0.2-0.1
		c0,0,0,0-0.1,0c-0.1,0-0.1,0-0.2,0c0,0-0.1,0-0.1,0c0,0-0.1,0-0.1,0c-0.1,0-0.1,0-0.2,0c0,0-0.1,0-0.1,0c-0.1,0-0.2,0-0.3,0.1
		c-0.2,0.1-0.4,0.1-0.6,0.2s-0.4,0.2-0.5,0.3c-0.3,0.3-0.6,0.6-0.7,0.9c-0.1,0-0.1,0-0.2,0c0,0-0.1,0-0.1,0c0,0-0.1,0-0.1,0
		C55.5,20.9,55.3,20.9,55.1,20.9z"/>
	<path class="st0" d="M60.3,23.7C60.2,23.7,60.2,23.7,60.3,23.7C60.2,23.7,60.3,23.7,60.3,23.7C60.3,23.7,60.3,23.7,60.3,23.7z"/>
	<path class="st3" d="M74.5,26.5C74.5,26.5,74.4,26.5,74.5,26.5c0,0,0.1,0,0.1,0C74.6,26.5,74.5,26.5,74.5,26.5z"/>
	<path class="st3" d="M71.6,25.7C71.6,25.7,71.5,25.7,71.6,25.7c0,0,0.1,0,0.1,0C71.7,25.7,71.6,25.7,71.6,25.7z"/>
	<path class="st3" d="M70.5,28c0,0-0.1,0-0.1,0C70.4,28,70.5,28,70.5,28C70.5,28,70.5,28,70.5,28z"/>
	<path class="st3" d="M68.8,21.3c-1.1,0.5-1.7,1.6-1.6,2.7c0,0.1,0,0.2,0.1,0.3c0.5,0.4,0.8,0.8,1.1,1.4c0.2,0.5,0.3,1,0.3,1.5
		c0.3,0.1,0.6,0.2,0.9,0.3c0.1,0,0.1,0,0.2-0.1c0-0.1,0-0.2,0-0.3c0-0.5,0.1-1,0.5-1.4c0.3-0.4,0.8-0.6,1.3-0.7c0,0,0.1,0,0.1,0
		c0,0,0,0,0,0c0.7,0,1.3,0.4,1.6,1c0.4-0.2,0.8-0.2,1.3-0.2c0.4,0,0.8,0.1,1.2,0.2c0.3-0.3,0.7-0.4,1.1-0.4c0,0,0.1,0,0.1,0
		c1,0,1.9,0.9,2,2c0,0.2,0,0.5-0.1,0.7c0.4-0.1,0.7-0.1,1.1-0.1c0.4,0,0.7,0,1.1,0.1c0,0,0,0,0,0c0-0.2,0-0.4-0.1-0.6
		s-0.1-0.4-0.2-0.6c-0.2-0.5-0.6-0.9-1-1.3c-0.2-0.2-0.5-0.3-0.8-0.4c-0.1-0.1-0.2-0.1-0.4-0.1c-0.2-0.1-0.5-0.1-0.7-0.1
		c0-0.3,0-0.6,0-0.9c0,0,0,0,0-0.1c0-0.1,0-0.2-0.1-0.4c0-0.2-0.1-0.3-0.2-0.5c0-0.1-0.1-0.2-0.1-0.3c0,0,0,0,0-0.1
		c0-0.1-0.1-0.1-0.1-0.2c0,0,0,0,0-0.1c-0.1-0.1-0.1-0.2-0.2-0.2c0,0,0,0,0,0c-0.1-0.1-0.1-0.1-0.2-0.2c0,0,0,0-0.1-0.1
		c-0.1,0-0.1-0.1-0.2-0.1c0,0,0,0-0.1,0c-0.1-0.1-0.1-0.1-0.2-0.2c0,0,0,0-0.1,0c-0.1,0-0.1-0.1-0.2-0.1c0,0-0.1,0-0.1,0
		c-0.1,0-0.1-0.1-0.2-0.1c0,0,0,0-0.1,0c-0.1,0-0.2-0.1-0.3-0.1c0,0,0,0-0.1,0c-0.1,0-0.1,0-0.2,0c0,0-0.1,0-0.1,0
		c-0.1,0-0.2,0-0.2,0c0,0,0,0,0,0c-0.1,0-0.2,0-0.3,0c-0.1,0-0.1,0-0.2,0c0,0-0.1,0-0.1,0c-0.1,0-0.1,0-0.2,0c0,0-0.1,0-0.1,0
		c-0.1,0-0.1,0-0.2,0.1c0,0-0.1,0-0.1,0c-0.1,0-0.2,0.1-0.3,0.1c-0.3,0.1-0.6,0.3-0.8,0.5c-0.1,0.1-0.2,0.1-0.2,0.2
		c-0.1-0.1-0.1-0.2-0.2-0.3c0,0,0,0-0.1-0.1c-0.1-0.1-0.1-0.1-0.2-0.2c0,0,0,0,0,0c-0.1-0.1-0.2-0.1-0.2-0.2c0,0,0,0-0.1,0
		c-0.1-0.1-0.1-0.1-0.2-0.1c0,0,0,0-0.1,0c-0.1-0.1-0.2-0.1-0.3-0.1c0,0,0,0-0.1,0c-0.1,0-0.2-0.1-0.2-0.1c0,0-0.1,0-0.1,0
		c-0.1,0-0.2,0-0.3-0.1c0,0,0,0,0,0c-0.1,0-0.2,0-0.3,0c0,0-0.1,0-0.1,0c-0.1,0-0.1,0-0.2,0c0,0,0,0,0,0c0,0-0.1,0-0.1,0
		c-0.1,0-0.1,0-0.2,0c0,0-0.1,0-0.1,0c-0.1,0-0.1,0-0.2,0c0,0-0.1,0-0.1,0C69,21.3,68.9,21.3,68.8,21.3z"/>
	<path class="st3" d="M76.8,26.2C76.8,26.2,76.8,26.2,76.8,26.2C76.8,26.2,76.8,26.2,76.8,26.2C76.9,26.2,76.9,26.2,76.8,26.2z"/>
	<path class="st3" d="M68.9,27.9c0,0-0.1,0-0.1,0c-0.1,0-0.3-0.1-0.4-0.1c-0.1,0-0.1,0-0.2,0c0-0.2,0-0.4,0-0.7c0-0.1,0-0.3-0.1-0.4
		c0-0.2-0.1-0.4-0.2-0.7c-0.2-0.3-0.4-0.7-0.6-0.9c0,0,0,0,0,0c0,0-0.1-0.1-0.1-0.1c0,0,0,0-0.1-0.1c-0.1,0-0.1-0.1-0.2-0.1
		c0,0,0,0-0.1,0c0,0,0,0-0.1,0c-0.1,0-0.1-0.1-0.2-0.1c0,0,0,0-0.1,0c-0.1,0-0.1-0.1-0.2-0.1c0,0-0.1,0-0.1,0
		c-0.1,0-0.1-0.1-0.2-0.1c0,0,0,0-0.1,0c-0.1,0-0.2-0.1-0.3-0.1c0,0,0,0-0.1,0c-0.1,0-0.1,0-0.2,0c0,0-0.1,0-0.1,0
		c-0.1,0-0.2,0-0.2,0c0,0,0,0,0,0c-0.1,0-0.2,0-0.3,0c-0.1,0-0.1,0-0.2,0c0,0-0.1,0-0.1,0c-0.1,0-0.1,0-0.2,0c0,0-0.1,0-0.1,0
		c-0.1,0-0.1,0-0.2,0.1c0,0-0.1,0-0.1,0c-0.1,0-0.2,0.1-0.3,0.1c-0.4,0.2-0.7,0.4-1,0.7c-0.1-0.1-0.1-0.2-0.2-0.3c0,0,0,0-0.1-0.1
		c-0.1-0.1-0.1-0.1-0.2-0.2c0,0,0,0,0,0c-0.1-0.1-0.2-0.1-0.2-0.2c0,0,0,0-0.1,0c-0.1-0.1-0.1-0.1-0.2-0.1c0,0,0,0-0.1,0
		c-0.1-0.1-0.2-0.1-0.3-0.1c0,0,0,0-0.1,0c-0.1,0-0.2-0.1-0.2-0.1c0,0-0.1,0-0.1,0c-0.1,0-0.2,0-0.3-0.1c0,0,0,0,0,0
		c-0.1,0-0.2,0-0.3,0c0,0-0.1,0-0.1,0c-0.1,0-0.1,0-0.2,0c0,0-0.1,0-0.1,0c-0.1,0-0.1,0-0.2,0c0,0-0.1,0-0.1,0c-0.1,0-0.1,0-0.2,0
		c0,0-0.1,0-0.1,0c-0.1,0-0.2,0.1-0.3,0.1c0,0,0,0,0,0c-0.3,0.1-0.5,0.3-0.7,0.4c-0.1,0.1-0.3,0.2-0.4,0.4c-0.1,0.1-0.2,0.3-0.3,0.4
		c-0.1,0.2-0.1,0.3-0.2,0.5c0.7,0.2,1.3,0.7,1.8,1.4c0.5,0.7,0.7,1.5,0.6,2.3c0,0,0,0.1,0,0.1c0.9-0.8,2.1-1.2,3.3-1.2
		c1.3,0,2.6,0.6,3.6,1.6c0.1,0.1,0.2,0.2,0.3,0.3c0.1-0.5,0.4-1,0.8-1.5C68.2,28.4,68.5,28.1,68.9,27.9z"/>
	<path class="st3" d="M34.6,21.6C34.6,21.6,34.6,21.6,34.6,21.6c0,0.1,0.1,0.1,0.2,0.1c1.2,0,2.4,0.7,3.2,1.8
		c0.3,0.4,0.4,0.8,0.6,1.2c0.1,0,0.2-0.1,0.2-0.2c0,0,0.1-0.1,0.2-0.1c0,0,0,0,0.1,0c0.1,0,0.1,0,0.1,0.1c0.1-0.2,0.3-0.3,0.5-0.5
		c0.2-0.1,0.4-0.2,0.6-0.3c0-0.1,0-0.1,0.1-0.2c-0.6-1.2-0.4-2.6,0.6-3.3c0.4-0.3,0.8-0.4,1.3-0.4c0.6,0,1.2,0.2,1.7,0.6
		c0.1-0.1,0.2-0.2,0.4-0.3c0.2-0.1,0.5-0.3,0.7-0.3c-0.1-0.1-0.1-0.1-0.2-0.2c-0.6-0.6-1.6-0.9-2.4-0.6c-0.1,0-0.1,0-0.2,0
		c-0.1,0-0.1-0.1-0.1-0.2c-0.1-0.4-0.3-0.8-0.6-1.1c-0.9-0.9-2.4-0.9-3.3,0c-0.2,0.2-0.4,0.5-0.5,0.8c0,0.1-0.1,0.1-0.2,0.2
		c-0.1,0-0.2,0-0.2-0.1c-0.8-0.6-1.9-0.6-2.6,0.1c-0.7,0.7-0.8,1.9,0,2.7C34.6,21.4,34.6,21.5,34.6,21.6z"/>
	<path class="st3" d="M28.3,27.2c0,0-0.1,0-0.1,0c0,0-0.1,0-0.1,0c0,0-0.1,0-0.1,0c-0.1,0-0.1,0-0.1,0.1c0,0,0,0-0.1,0
		c-0.1,0-0.1,0.1-0.2,0.1c-0.6,0.4-0.8,1.2-0.6,1.9c0,0.1,0.1,0.2,0.1,0.3c0.9-0.9,2.1-1.4,3.4-1.4c1.6,0,3.1,0.8,4.2,2.1
		c0.1-0.2,0.3-0.4,0.5-0.6c1-1,2.2-1.6,3.6-1.6c0.8,0,1.5,0.2,2.2,0.5c-0.2-0.3-0.3-0.7-0.4-1c-0.5-0.1-1-0.4-1.3-0.9
		c-0.3-0.4-0.4-0.9-0.4-1.4c0,0,0,0-0.1,0c0,0,0,0,0,0c-0.1,0-0.2,0-0.4,0c-0.1,0-0.1,0-0.2,0c-0.1-0.6-0.3-1.2-0.6-1.7
		c-0.7-1-1.7-1.5-2.7-1.5c-0.1,0-0.2,0-0.3,0c0,0,0,0,0,0c-0.1,0-0.2,0-0.3,0.1c0,0-0.1,0-0.1,0c-0.1,0-0.2,0.1-0.2,0.1
		c0,0-0.1,0-0.1,0c-0.1,0.1-0.2,0.1-0.3,0.2c-0.2,0.1-0.3,0.2-0.4,0.4c0,0-0.1,0.1-0.1,0.1c-0.1,0.1-0.1,0.2-0.2,0.2c0,0,0,0,0,0.1
		c-0.1-0.1-0.1-0.2-0.2-0.2c0,0,0,0-0.1-0.1c-0.1,0-0.1-0.1-0.2-0.1c0,0,0,0-0.1-0.1c-0.1,0-0.1-0.1-0.2-0.1c0,0,0,0-0.1,0
		c-0.1-0.1-0.2-0.1-0.2-0.1c0,0,0,0-0.1,0c-0.1,0-0.1-0.1-0.2-0.1c0,0-0.1,0-0.1,0c-0.1,0-0.1,0-0.2-0.1c0,0-0.1,0-0.1,0
		c-0.1,0-0.2,0-0.3,0c0,0,0,0,0,0c-0.1,0-0.2,0-0.3,0c0,0,0,0-0.1,0c-0.1,0-0.2,0-0.2,0c0,0,0,0-0.1,0c-0.1,0-0.2,0-0.3,0.1
		c0,0,0,0,0,0c-0.1,0-0.1,0.1-0.2,0.1c0,0,0,0-0.1,0c-0.1,0-0.2,0.1-0.3,0.1c-0.1,0-0.1,0.1-0.2,0.1c-0.1,0.1-0.2,0.2-0.3,0.4
		c0,0,0,0,0,0c-0.1,0.1-0.2,0.3-0.2,0.4c-0.1,0.1-0.1,0.3-0.1,0.5s-0.1,0.3-0.1,0.5c0,0.6,0.2,1.2,0.5,1.7c-0.1,0.3-0.3,0.6-0.3,0.9
		C28.4,27.2,28.4,27.2,28.3,27.2z"/>
	<path class="st3" d="M46.4,26C46.4,26,46.4,26,46.4,26C46.4,26,46.4,26,46.4,26C46.4,26,46.4,26,46.4,26z"/>
	<path class="st3" d="M40.5,24.2c-0.2,0-0.5,0.1-0.7,0.2c-0.6,0.4-0.7,1.4-0.2,2.1c0.2,0.3,0.5,0.5,0.8,0.6c0.1-1.4,1.2-2.4,2.6-2.4
		c0.8,0,1.5,0.4,2,0.9c0.4-0.1,0.9-0.2,1.3-0.2c0.6,0,1.2,0.1,1.8,0.4c-0.1-0.9,0.2-1.9,1-2.4c0.2-0.1,0.4-0.2,0.7-0.3
		c0,0-0.1,0-0.1,0c0,0-0.1,0-0.1-0.1c-0.1,0-0.1-0.1-0.2-0.1c0,0-0.1,0-0.1,0c-0.1,0-0.1,0-0.2-0.1c0,0-0.1,0-0.1,0
		c-0.1,0-0.1,0-0.2,0c0,0-0.1,0-0.1,0c0,0,0,0,0,0c-0.1,0-0.1,0-0.2,0c0-0.2-0.1-0.5-0.2-0.7c-0.1-0.2-0.2-0.5-0.3-0.7
		c-0.1-0.1-0.1-0.2-0.2-0.3c0,0,0,0-0.1-0.1c-0.1-0.1-0.1-0.1-0.2-0.2c0,0,0,0-0.1-0.1c-0.1-0.1-0.1-0.1-0.2-0.2c0,0,0,0,0,0
		c-0.1-0.1-0.2-0.1-0.3-0.2c0,0,0,0-0.1,0c-0.1,0-0.1-0.1-0.2-0.1c0,0-0.1,0-0.1,0c-0.1,0-0.2-0.1-0.2-0.1c0,0,0,0,0,0
		c-0.1,0-0.2,0-0.3-0.1c0,0-0.1,0-0.1,0c-0.1,0-0.1,0-0.2,0c0,0-0.1,0-0.1,0c-0.1,0-0.2,0-0.2,0c0,0,0,0,0,0c-0.3,0-0.6,0.2-0.8,0.3
		c-0.2,0.1-0.3,0.3-0.5,0.5c0,0.1-0.1,0.1-0.1,0.2c-0.5-0.6-1.1-0.9-1.7-0.9c-0.3,0-0.7,0.1-1,0.3c-0.1,0.1-0.2,0.2-0.3,0.3
		c-0.1,0.1-0.2,0.2-0.2,0.3s-0.1,0.2-0.2,0.3c-0.2,0.6-0.1,1.3,0.3,2C40.7,23.7,40.6,24,40.5,24.2C40.6,24.2,40.6,24.2,40.5,24.2z"
		/>
	<polygon class="st3" points="58.1,31.2 58.1,31.2 58.1,31.2 58.1,31.2 	"/>
	<path class="st3" d="M59,27.3c-0.4-0.6-0.9-1-1.5-1.2c-0.1,0-0.1,0-0.2-0.1c0,0-0.1,0-0.1,0c0,0-0.1,0-0.1,0c0,0,0,0-0.1,0
		c0,0-0.1,0-0.1,0c-0.1,0-0.2,0-0.2,0c0-0.2-0.1-0.5-0.2-0.7c-0.1-0.2-0.2-0.5-0.3-0.7c-0.1-0.1-0.1-0.2-0.2-0.3c0,0,0,0-0.1-0.1
		c-0.1-0.1-0.1-0.1-0.2-0.2c0,0,0,0-0.1-0.1c-0.1-0.1-0.1-0.1-0.2-0.2c0,0,0,0,0,0c-0.1-0.1-0.2-0.1-0.3-0.2c0,0,0,0-0.1,0
		c-0.1,0-0.1-0.1-0.2-0.1c0,0-0.1,0-0.1,0c-0.1,0-0.2-0.1-0.2-0.1c0,0,0,0,0,0c-0.1,0-0.2,0-0.3-0.1c0,0-0.1,0-0.1,0
		c-0.1,0-0.1,0-0.2,0c0,0-0.1,0-0.1,0c-0.1,0-0.2,0-0.2,0c0,0,0,0,0,0c-0.1,0-0.2,0-0.3,0.1c0,0,0,0-0.1,0c-0.1,0-0.1,0-0.2,0.1
		c0,0,0,0-0.1,0c-0.1,0-0.2,0.1-0.2,0.1c-0.3,0.2-0.5,0.4-0.6,0.7c-0.1-0.1-0.1-0.1-0.2-0.2c0,0,0,0-0.1-0.1c0,0-0.1-0.1-0.1-0.1
		c0,0,0,0-0.1,0c0,0-0.1-0.1-0.1-0.1c0,0,0,0,0,0c-0.1,0-0.1-0.1-0.2-0.1c0,0,0,0,0,0c-0.1,0-0.1,0-0.2-0.1c0,0,0,0-0.1,0
		c0,0-0.1,0-0.2,0c0,0,0,0-0.1,0c-0.1,0-0.1,0-0.2,0c0,0,0,0,0,0c-0.1,0-0.1,0-0.2,0c0,0,0,0-0.1,0c0,0,0,0,0,0
		c-0.3,0-0.7,0.1-0.9,0.3c-0.5,0.4-0.8,1-0.7,1.7c0.7-0.6,1.6-0.9,2.5-0.9c2.1,0,3.8,1.5,4,3.5c1.3,0,2.5,0.6,3.4,1.5
		c0.2,0.2,0.3,0.4,0.5,0.6C59.7,29.6,59.7,28.3,59,27.3z"/>
	<path class="st3" d="M48.8,26.2L48.8,26.2c0.1-0.1,0.3-0.2,0.4-0.3C49.1,26,48.9,26.1,48.8,26.2z"/>
	<path class="st0" d="M44.6,30.4c-0.3,0.3-0.6,0.6-0.8,0.9C44,31,44.3,30.7,44.6,30.4z"/>
	<path class="st0" d="M44.6,30.4c0.3-0.3,0.7-0.5,1.1-0.6C45.3,30,44.9,30.2,44.6,30.4z"/>
	<path class="st0" d="M54.5,27.4c-0.2-0.4-0.4-0.8-0.8-1.1c-0.6-0.6-1.5-1-2.5-1c-0.3,0-0.6,0-0.8,0.1c-0.3,0.1-0.5,0.2-0.7,0.3
		c-0.2,0.1-0.3,0.2-0.5,0.3c-0.1,0.1-0.3,0.2-0.4,0.3c-0.1,0.1-0.2,0.2-0.3,0.4c0,0,0,0,0,0c-0.1,0-0.1-0.1-0.2-0.1c0,0,0,0-0.1,0
		c-0.1,0-0.1-0.1-0.2-0.1c0,0-0.1,0-0.1,0c0,0-0.1,0-0.1-0.1c0,0-0.1,0-0.1,0c-0.1,0-0.1,0-0.2,0c0,0-0.1,0-0.1,0
		c-0.1,0-0.1,0-0.2,0c0,0,0,0-0.1,0c-0.1,0-0.2,0-0.2,0c0,0,0,0,0,0c-0.1,0-0.1,0-0.2,0c0,0-0.1,0-0.1,0c-0.1,0-0.1,0-0.2,0
		c0,0-0.1,0-0.1,0c-0.1,0-0.2,0-0.3,0c0,0,0,0,0,0c-0.1,0-0.2,0-0.3,0c0,0,0,0-0.1,0c-0.1,0-0.2,0.1-0.3,0.1c0,0,0,0-0.1,0
		c-0.1,0-0.2,0.1-0.3,0.1c0,0,0,0,0,0c-0.1-0.2-0.2-0.3-0.3-0.4c-0.1-0.1-0.1-0.1-0.2-0.2c-0.4-0.3-0.8-0.4-1.3-0.4
		c-1.2,0-2.1,0.9-2.1,2.1c0,1,0.7,1.8,1.6,2c0,0.1,0,0.2,0,0.3c0,0.1,0,0.2,0,0.3c0.1,0.1,0.2,0.2,0.3,0.4c0.2-0.2,0.3-0.4,0.5-0.6
		c1-1,2.2-1.6,3.6-1.6c1.6,0,3.1,0.8,4.1,2.1c0.9-1.2,2.2-2,3.7-2.1C54.7,28,54.6,27.7,54.5,27.4z"/>
	<path class="st0" d="M78.1,28.6c0.1-0.1,0.1-0.2,0.1-0.3c0.1-0.2,0.1-0.4,0.1-0.6c0-0.1,0-0.1,0-0.2c0,0,0,0,0-0.1c0,0,0-0.1,0-0.1
		c0,0,0,0,0-0.1c0,0,0-0.1,0-0.1c0,0,0,0,0-0.1c0,0,0-0.1,0-0.1c0,0,0,0,0-0.1c0,0,0,0,0-0.1c0,0,0,0,0-0.1c0,0,0,0,0-0.1
		c0,0,0,0,0-0.1c0,0,0,0,0-0.1c0,0,0,0,0,0c0,0,0,0-0.1-0.1c0,0,0,0,0,0c0,0,0,0-0.1,0c0,0,0,0-0.1,0c0,0,0,0-0.1,0c0,0,0,0-0.1,0
		c0,0,0,0-0.1,0c0,0,0,0-0.1,0c0,0,0,0-0.1,0c0,0,0,0-0.1,0c0,0,0,0-0.1,0c0,0,0,0-0.1,0c0,0,0,0-0.1,0c0,0,0,0-0.1,0c0,0,0,0-0.1,0
		c0,0,0,0-0.1,0c0,0-0.1,0-0.1,0c-0.1,0-0.1,0-0.1,0c-0.1,0-0.2,0-0.3,0.1c-0.1,0-0.2,0.1-0.3,0.1c-0.1,0.1-0.2,0.2-0.3,0.3
		c-0.1-0.1-0.2-0.1-0.3-0.1c0,0-0.1,0-0.1,0c-0.1,0-0.2,0-0.2-0.1c0,0-0.1,0-0.1,0c-0.1,0-0.1,0-0.2,0c0,0-0.1,0-0.1,0
		c-0.1,0-0.1,0-0.2,0c-0.1,0-0.1,0-0.2,0c-0.1,0-0.1,0-0.2,0c-0.1,0-0.2,0-0.2,0c-0.1,0-0.1,0-0.2,0c-0.1,0-0.2,0.1-0.3,0.1
		c0,0-0.1,0-0.1,0c-0.1,0.1-0.2,0.1-0.4,0.2c0-0.1,0-0.2-0.1-0.3c0,0,0-0.1,0-0.1c0-0.1,0-0.1-0.1-0.2c0,0,0-0.1-0.1-0.1
		c0,0-0.1-0.1-0.1-0.1c0,0,0-0.1-0.1-0.1c0,0-0.1-0.1-0.1-0.1c0,0-0.1,0-0.1-0.1c0,0-0.1-0.1-0.1-0.1c0,0-0.1,0-0.1-0.1
		c0,0-0.1,0-0.1-0.1c0,0-0.1,0-0.1,0c0,0-0.1,0-0.1,0c0,0-0.1,0-0.1,0c-0.1,0-0.1,0-0.2,0c-0.1,0-0.3,0-0.4,0.1
		c-0.1,0-0.2,0.1-0.2,0.1s-0.1,0.1-0.2,0.2c-0.1,0.1-0.2,0.2-0.2,0.3s-0.1,0.2-0.1,0.4c0,0.1,0,0.3,0,0.4c0,0.2,0,0.3,0.1,0.4
		c0,0.1,0.1,0.3,0.2,0.4c0,0-0.1,0-0.1,0c-1.2,0.1-2.1,0.8-2.6,1.9c1-1,2.3-1.6,3.7-1.6c1.3,0,2.6,0.6,3.5,1.6
		c0.2,0.2,0.3,0.4,0.5,0.6C76.2,29.6,77.1,29,78.1,28.6z"/>
	<path class="st0" d="M75.5,33.4L75.5,33.4c0.2-0.6,0.4-1.2,0.8-1.7C75.9,32.2,75.6,32.8,75.5,33.4z"/>
	<path class="st0" d="M69.2,30.4c-0.2,0.1-0.3,0.2-0.4,0.4c0,0,0,0,0,0C68.9,30.7,69.1,30.5,69.2,30.4z"/>
	<path class="st0" d="M68.8,30.8c-0.1,0.1-0.3,0.3-0.4,0.5C68.5,31.1,68.6,31,68.8,30.8C68.8,30.8,68.8,30.8,68.8,30.8z"/>
	<path class="st4" d="M28.7,62.8c-0.1-0.1-0.1-0.2-0.2-0.3c-0.1-0.2-0.1-0.3-0.2-0.5c-0.1-0.1-0.1-0.2-0.2-0.4
		c-0.1-0.2-0.1-0.4-0.2-0.6c0-0.1-0.1-0.2-0.1-0.3c-0.5-1.4-0.7-2.9-0.7-4.4c0-0.1,0-0.2,0-0.4c0-0.2,0-0.5,0-0.7
		c0-0.2,0-0.4,0.1-0.5c0-0.2,0-0.4,0.1-0.6c0-0.2,0.1-0.3,0.1-0.5c0.1-0.3,0.1-0.7,0.2-1c0-0.1,0.1-0.2,0.1-0.3
		c0.1-0.3,0.2-0.6,0.3-0.9c0,0,0-0.1,0-0.1l-1.3-17c0,0,0,0,0,0c0,0,0,0,0,0c0-0.3-0.1-0.7-0.2-1c0-0.2-0.1-0.4-0.2-0.6
		c0-0.1-0.1-0.2-0.1-0.3c-0.1-0.1-0.1-0.3-0.2-0.4c-0.1-0.1-0.2-0.3-0.3-0.4c-0.3-0.4-0.6-0.8-1-1.1c0,0,0,0,0,0c0,0,0,0-0.1-0.1
		c0,0,0,0-0.1,0c0,0,0,0-0.1,0c-0.1-0.1-0.2-0.2-0.3-0.2c0,0,0,0,0,0c-0.2-0.1-0.5-0.3-0.8-0.4c-0.4-0.1-0.8-0.2-1.2-0.2
		c-0.4,0-0.8,0.1-1.2,0.2c0,0-0.1,0-0.1,0c-0.2,0.1-0.3,0.1-0.5,0.2c-0.2,0.1-0.5,0.3-0.7,0.5c0,0,0,0-0.1,0.1c0,0,0,0,0,0
		c0,0,0,0,0,0c-0.3,0.4-0.6,0.8-0.8,1.4c-0.1,0.2-0.1,0.3-0.1,0.5c-0.1,0.5-0.2,1-0.1,1.5c0,0.1,0,0.2,0,0.3L21,58.1l0.9,8.7
		l1.3,12.5h6.9l-1.2-16.1C28.8,63.1,28.8,62.9,28.7,62.8z"/>
	<path class="st5" d="M27.6,52.7c0-0.1,0.1-0.2,0.1-0.3C27.7,52.5,27.6,52.6,27.6,52.7z"/>
	<path class="st5" d="M27.3,54.2c0-0.2,0.1-0.3,0.1-0.5C27.3,53.8,27.3,54,27.3,54.2z"/>
	<path class="st5" d="M68,44C68,44,68,44,68,44C68,44,68,44,68,44z"/>
	<path class="st5" d="M27.1,55.3c0-0.2,0-0.4,0.1-0.5C27.2,54.9,27.2,55.1,27.1,55.3z"/>
	<path class="st5" d="M73.4,50.8C73.4,50.9,73.4,50.9,73.4,50.8C73.4,50.9,73.4,50.9,73.4,50.8z"/>
	<path class="st5" d="M27.1,56c0,0.1,0,0.2,0,0.4c0,1.5,0.3,3,0.7,4.4c-0.5-1.4-0.7-2.9-0.7-4.5C27.1,56.2,27.1,56.1,27.1,56z"/>
	<path class="st5" d="M72.8,49.5c0,0,0.1,0.1,0.1,0.1C72.8,49.6,72.8,49.6,72.8,49.5z"/>
	<path class="st5" d="M28.2,61.6c-0.1-0.2-0.1-0.4-0.2-0.6C28,61.2,28.1,61.4,28.2,61.6z"/>
	<path class="st5" d="M28.5,62.4c-0.1-0.2-0.1-0.3-0.2-0.5C28.4,62.1,28.5,62.3,28.5,62.4z"/>
	<path class="st5" d="M36.9,41.8c0.1,0,0.1-0.1,0.2-0.1C37,41.8,37,41.8,36.9,41.8z"/>
	<path class="st5" d="M57,39c0.1,0,0.2,0,0.3,0.1C57.2,39.1,57.1,39.1,57,39z"/>
	<path class="st5" d="M71.2,47.1c0,0,0.1,0.1,0.1,0.1C71.3,47.2,71.2,47.2,71.2,47.1z"/>
	<path class="st5" d="M54.9,38.7c0.1,0,0.2,0,0.3,0C55.2,38.7,55,38.7,54.9,38.7z"/>
	<path class="st5" d="M70.2,46c0.1,0.1,0.1,0.1,0.2,0.2C70.3,46.1,70.2,46,70.2,46z"/>
	<path class="st5" d="M40.9,40.1c0,0,0.1,0,0.1,0C40.9,40.1,40.9,40.1,40.9,40.1z"/>
	<path class="st5" d="M38.8,40.9c0.1,0,0.1,0,0.2-0.1C38.9,40.9,38.9,40.9,38.8,40.9z"/>
	<path class="st5" d="M38.5,71.6c-0.1-0.1-0.3-0.1-0.4-0.2C38.2,71.5,38.3,71.5,38.5,71.6z"/>
	<path class="st5" d="M53,38.5C53,38.5,53.1,38.5,53,38.5C53.1,38.5,53,38.5,53,38.5z"/>
	<path class="st5" d="M72,48.2c0,0.1,0.1,0.1,0.1,0.2C72.1,48.4,72,48.3,72,48.2z"/>
	<path class="st5" d="M42.2,73c-0.1,0-0.3-0.1-0.4-0.1C41.9,72.9,42.1,72.9,42.2,73z"/>
	<path class="st5" d="M56.5,73.7c-0.1,0-0.2,0-0.4,0.1C56.3,73.7,56.4,73.7,56.5,73.7z"/>
	<path class="st5" d="M71,65.8c-0.1,0.1-0.1,0.1-0.2,0.2C70.9,65.9,70.9,65.9,71,65.8z"/>
	<path class="st5" d="M66.6,69.7C66.6,69.7,66.6,69.7,66.6,69.7C66.6,69.7,66.6,69.7,66.6,69.7z"/>
	<path class="st5" d="M51.2,74.2c-0.1,0-0.2,0-0.4,0c-2.5,0-4.8-0.3-7.1-0.8c0,0,0.1,0,0.1,0l0.1,5.8H51v-5.1
		C51.1,74.2,51.1,74.2,51.2,74.2z"/>
	<path class="st5" d="M53,74.1c-0.2,0-0.3,0-0.5,0C52.7,74.1,52.9,74.1,53,74.1z"/>
	<path class="st5" d="M70,66.8c0,0-0.1,0.1-0.1,0.1C70,66.9,70,66.9,70,66.8z"/>
	<path class="st5" d="M36.9,70.8c-3.7-2-6.6-4.8-8.2-8c0.1,0.1,0.1,0.3,0.2,0.4l1.2,16.1h0h6.9l-0.4-8.6
		C36.8,70.7,36.8,70.8,36.9,70.8z"/>
	<path class="st5" d="M71.8,64.7C71.8,64.8,71.8,64.8,71.8,64.7C71.8,64.8,71.8,64.8,71.8,64.7z"/>
	<path class="st5" d="M69,67.8c-0.1,0.1-0.1,0.1-0.2,0.2C68.9,67.9,68.9,67.9,69,67.8z"/>
	<path class="st5" d="M72.6,63.5c-0.1,0.1-0.1,0.2-0.2,0.3C72.5,63.7,72.5,63.6,72.6,63.5z"/>
	<path class="st5" d="M40.3,72.4c-0.1-0.1-0.3-0.1-0.4-0.2C40,72.2,40.2,72.3,40.3,72.4z"/>
	<path class="st5" d="M67.9,68.7c0,0-0.1,0.1-0.1,0.1C67.8,68.8,67.9,68.8,67.9,68.7z"/>
	<path class="st5" d="M54.9,73.9c-0.1,0-0.2,0-0.3,0C54.7,74,54.8,74,54.9,73.9z"/>
	<path class="st5" d="M28,51.4C28,51.5,28,51.5,28,51.4c1.2-3.3,3.8-6.3,7.3-8.6c0,0,0,0-0.1,0l-0.4-8.5c0-0.1,0-0.2,0-0.3
		c0-0.2,0-0.5-0.1-0.7c0-0.1,0-0.1,0-0.2c0-0.1,0-0.1-0.1-0.2c0-0.2-0.1-0.3-0.2-0.5c0,0,0,0,0,0c-0.1-0.1-0.1-0.3-0.2-0.4
		c-0.2-0.5-0.6-0.9-0.9-1.2c-0.2-0.2-0.3-0.3-0.5-0.5c-0.1-0.1-0.2-0.2-0.4-0.2c0,0,0,0,0,0c-0.2-0.1-0.5-0.3-0.7-0.3c0,0,0,0,0,0
		c-0.4-0.1-0.8-0.2-1.2-0.2c-0.4,0-0.8,0.1-1.2,0.2c-0.2,0.1-0.5,0.2-0.7,0.4c0,0,0,0,0,0c-0.1,0.1-0.2,0.1-0.3,0.2
		c-0.1,0.1-0.2,0.2-0.3,0.2c-0.1,0.1-0.1,0.2-0.2,0.2c0,0.1-0.1,0.1-0.1,0.2c-0.2,0.2-0.3,0.5-0.5,0.8c0,0.1-0.1,0.2-0.1,0.3
		c0,0,0,0.1,0,0.1c0,0.1-0.1,0.2-0.1,0.3c0,0.1-0.1,0.2-0.1,0.3c0,0,0,0.1,0,0.1c0,0,0,0.1,0,0.1c0,0.1,0,0.2,0,0.3
		c0,0.2,0,0.4,0,0.5c0,0.1,0,0.3,0,0.4L28,51.4z"/>
	<path class="st4" d="M35.2,42.9C35.3,42.8,35.3,42.8,35.2,42.9c0.6-0.4,1.1-0.7,1.7-1c0.1,0,0.1-0.1,0.2-0.1
		c0.6-0.3,1.1-0.6,1.7-0.9c0.1,0,0.1,0,0.2-0.1c0.6-0.3,1.2-0.5,1.9-0.7c0,0,0.1,0,0.1,0c0.7-0.2,1.3-0.4,2-0.6c0,0,0,0,0,0l-0.1-5
		c0,0,0,0,0,0c0,0,0,0,0,0c0,0,0,0,0,0c0,0,0,0,0,0c0,0,0,0,0,0c0-0.2,0-0.4-0.1-0.6c0,0,0,0,0-0.1c0-0.2-0.1-0.4-0.1-0.6
		c0-0.1,0-0.1-0.1-0.2c-0.1-0.5-0.3-0.9-0.6-1.3c0,0,0,0,0,0c0,0,0,0-0.1-0.1c-0.2-0.3-0.4-0.5-0.6-0.7l0,0c0,0,0,0,0,0
		c-0.1-0.1-0.2-0.2-0.3-0.3c-0.1-0.1-0.2-0.2-0.3-0.2c0,0,0,0-0.1,0c-0.2-0.1-0.4-0.3-0.7-0.3c-0.4-0.1-0.8-0.2-1.2-0.2
		c-0.4,0-0.8,0.1-1.2,0.2c-0.2,0.1-0.4,0.2-0.7,0.3c0,0,0,0-0.1,0c-0.1,0.1-0.2,0.1-0.3,0.2c-0.1,0.1-0.2,0.2-0.3,0.3
		c-0.4,0.4-0.7,0.8-0.9,1.4c0,0.1-0.1,0.1-0.1,0.2c0,0.1-0.1,0.1-0.1,0.2c0,0.1,0,0.1,0,0.2c0,0.1,0,0.2-0.1,0.3c0,0.1,0,0.1,0,0.2
		c0,0.1,0,0.1,0,0.2c0,0.3-0.1,0.6,0,1c0,0,0,0,0,0c0,0,0,0,0,0L35.2,42.9z"/>
	<path class="st4" d="M43.8,73.4c-0.5-0.1-1-0.3-1.5-0.4c-0.1,0-0.3-0.1-0.4-0.1c-0.5-0.2-1-0.3-1.5-0.5c-0.1-0.1-0.3-0.1-0.4-0.2
		c-0.5-0.2-1-0.4-1.4-0.6c-0.1-0.1-0.3-0.1-0.4-0.2c-0.4-0.2-0.8-0.4-1.2-0.6c-0.1,0-0.2-0.1-0.3-0.1l0.4,8.6h0h6.9h0l-0.1-5.8
		C43.9,73.4,43.8,73.4,43.8,73.4z"/>
	<path class="st5" d="M42.9,34.4l0.1,5c0,0,0,0,0,0c2.5-0.6,5.1-1,7.8-1c0.1,0,0.1,0,0.2,0v-4c0,0,0-0.1,0-0.1c0-0.3,0-0.6-0.1-0.9
		c-0.1-0.3-0.1-0.6-0.2-0.9c0-0.1-0.1-0.2-0.1-0.3c0,0,0-0.1,0-0.1c0-0.1-0.1-0.1-0.1-0.2c-0.3-0.6-0.7-1.1-1.2-1.5
		c-0.1,0-0.1-0.1-0.2-0.1c-0.1,0-0.1-0.1-0.2-0.1c0,0,0,0,0,0c-0.2-0.1-0.5-0.3-0.7-0.4c-0.4-0.1-0.8-0.2-1.2-0.2
		c-0.4,0-0.8,0.1-1.2,0.2c-1.5,0.6-2.6,2.1-2.8,4c0,0,0,0,0,0C42.9,34.1,42.9,34.2,42.9,34.4C42.9,34.4,42.9,34.4,42.9,34.4z"/>
	<path class="st4" d="M58,73.4c-0.5,0.1-1,0.2-1.5,0.3c-0.1,0-0.2,0-0.4,0.1c-0.4,0.1-0.9,0.1-1.3,0.2c-0.1,0-0.2,0-0.3,0
		c-0.5,0.1-1,0.1-1.5,0.1c-0.2,0-0.3,0-0.5,0c-0.4,0-0.9,0-1.4,0c-0.1,0-0.1,0-0.2,0v5.1h6.9L58,73.4C58.1,73.4,58.1,73.4,58,73.4z"
		/>
	<path class="st4" d="M51,38.4c0.7,0,1.3,0,2,0.1c0,0,0.1,0,0.1,0c0.6,0,1.2,0.1,1.8,0.2c0.1,0,0.2,0,0.3,0c0.6,0.1,1.1,0.2,1.7,0.3
		c0.1,0,0.2,0,0.3,0.1c0.5,0.1,1,0.2,1.5,0.4c0,0,0.1,0,0.1,0l0.1-5.1c0-0.2,0-0.3,0-0.5c0-0.1,0-0.3,0-0.4c0-0.1,0-0.3-0.1-0.4
		c0-0.2-0.1-0.3-0.1-0.5c0-0.1-0.1-0.3-0.2-0.4c-0.1-0.1-0.1-0.3-0.2-0.4c0,0,0,0,0-0.1c-0.1-0.1-0.2-0.3-0.3-0.4c0,0,0,0,0,0
		c-0.1-0.1-0.2-0.3-0.3-0.4c0,0-0.1,0-0.1-0.1c-0.1-0.1-0.2-0.2-0.3-0.3c-0.1-0.1-0.2-0.2-0.3-0.2c0,0,0,0,0,0
		c-0.2-0.1-0.4-0.3-0.7-0.3c0,0,0,0,0,0c-0.4-0.1-0.8-0.2-1.2-0.2c-0.4,0-0.8,0.1-1.2,0.2c-0.3,0.1-0.5,0.2-0.7,0.4c0,0,0,0,0,0
		c-0.1,0-0.1,0.1-0.2,0.1c-0.1,0-0.1,0.1-0.2,0.1c-0.5,0.4-0.9,0.9-1.2,1.5c0,0.1-0.1,0.1-0.1,0.2c0,0,0,0.1,0,0.1
		c0,0.1-0.1,0.2-0.1,0.3c0,0.1,0,0.1,0,0.2c0,0,0,0,0,0c0,0.1,0,0.1,0,0.2c0,0.2-0.1,0.3-0.1,0.5C51,33.7,51,34,51,34.3
		c0,0,0,0.1,0,0.1V38.4z"/>
	<path class="st5" d="M58,73.4C58.1,73.4,58.1,73.4,58,73.4l-0.1,5.9h0h6.9h0l0.4-8.8C63.2,71.7,60.7,72.7,58,73.4z"/>
	<path class="st5" d="M59,39.5c0,0-0.1,0-0.1,0c3,0.8,5.6,2,7.9,3.6l0.4-8.7v0c0,0,0,0,0,0c0,0,0,0,0,0c0,0,0,0,0,0c0,0,0-0.1,0-0.1
		c0-0.2,0-0.4,0-0.6c0-0.4-0.1-0.8-0.2-1.1c-0.1-0.2-0.1-0.3-0.2-0.5c-0.3-0.7-0.7-1.2-1.2-1.7c-0.2-0.1-0.3-0.3-0.5-0.4
		c-0.2-0.1-0.3-0.2-0.5-0.2c-0.4-0.1-0.8-0.2-1.2-0.2c-0.4,0-0.8,0.1-1.2,0.2c-0.2,0.1-0.5,0.2-0.7,0.3c0,0,0,0-0.1,0
		c-0.1,0.1-0.2,0.1-0.3,0.2c0,0,0,0,0,0c-0.5,0.4-1,1-1.3,1.7c0,0.1-0.1,0.1-0.1,0.2c0,0.1-0.1,0.1-0.1,0.2
		c-0.1,0.2-0.1,0.4-0.2,0.6c0,0.1,0,0.1,0,0.2c0,0,0,0.1,0,0.1c-0.1,0.3-0.1,0.6-0.1,1c0,0,0,0,0,0c0,0,0,0,0,0L59,39.5z"/>
	<path class="st4" d="M73,62.7c-0.1,0.3-0.3,0.6-0.5,0.8c-0.1,0.1-0.1,0.2-0.2,0.3c-0.2,0.3-0.4,0.6-0.6,0.9c0,0,0,0,0,0.1
		c-0.2,0.3-0.5,0.7-0.8,1c-0.1,0.1-0.1,0.1-0.2,0.2c-0.2,0.3-0.5,0.6-0.7,0.8c0,0-0.1,0.1-0.1,0.1c-0.3,0.3-0.6,0.6-0.9,0.9
		c-0.1,0.1-0.1,0.1-0.2,0.2c-0.3,0.3-0.6,0.5-0.9,0.7c0,0-0.1,0.1-0.1,0.1c-0.4,0.3-0.8,0.6-1.1,0.8c0,0,0,0,0,0
		c-0.4,0.3-0.8,0.5-1.3,0.8l-0.4,8.8h6.9h0l1.3-16.8C73.1,62.6,73.1,62.6,73,62.7z"/>
	<path class="st4" d="M68.4,31.3c-0.7,0.8-1.1,1.9-1.1,3.1l-0.4,8.7c0.4,0.3,0.8,0.6,1.2,0.9c0,0,0,0,0.1,0.1
		c0.8,0.6,1.5,1.3,2.1,1.9c0.1,0.1,0.1,0.1,0.2,0.2c0.3,0.3,0.6,0.7,0.9,1c0,0,0.1,0.1,0.1,0.1c0.2,0.3,0.5,0.6,0.7,1
		c0,0.1,0.1,0.1,0.1,0.2c0.2,0.4,0.5,0.7,0.7,1.1c0,0,0.1,0.1,0.1,0.1c0.2,0.4,0.4,0.8,0.6,1.2c0,0,0,0,0,0c0.2,0.4,0.3,0.9,0.5,1.3
		l1.4-17.8c0-0.3,0-0.6,0-0.9c-0.1-0.7-0.3-1.4-0.6-2c-0.1-0.1-0.1-0.2-0.2-0.3c-0.1-0.2-0.2-0.4-0.4-0.5c0,0,0,0,0,0
		c-0.1-0.1-0.2-0.2-0.3-0.3c-0.1-0.1-0.2-0.1-0.3-0.2c-0.1,0-0.1-0.1-0.2-0.1c-0.2-0.1-0.4-0.2-0.6-0.3c-0.4-0.1-0.8-0.2-1.2-0.2
		c-0.4,0-0.8,0.1-1.2,0.2c0,0,0,0,0,0c-0.2,0.1-0.5,0.2-0.7,0.3c0,0,0,0,0,0c-0.1,0.1-0.2,0.1-0.4,0.2c-0.1,0.1-0.3,0.2-0.4,0.4
		c0,0,0,0,0,0c0,0,0,0,0,0c0,0,0,0,0,0C68.6,31,68.5,31.1,68.4,31.3z"/>
	<path class="st5" d="M83.4,34.4c0-0.3,0-0.6,0-0.9c0,0,0-0.1,0-0.1c0-0.2-0.1-0.4-0.1-0.5c0-0.1,0-0.2-0.1-0.4
		c0-0.1-0.1-0.3-0.1-0.4c-0.2-0.7-0.6-1.3-1.1-1.7c0,0,0,0-0.1,0c-0.1-0.1-0.2-0.1-0.3-0.2c-0.1-0.1-0.2-0.1-0.4-0.2
		c-0.1,0-0.1-0.1-0.2-0.1c0,0-0.1,0-0.1-0.1c0,0,0,0,0,0c-0.4-0.1-0.8-0.2-1.2-0.2c-0.4,0-0.8,0.1-1.2,0.2c-0.1,0-0.2,0.1-0.3,0.1
		C78.2,30,78,30,77.9,30.1c0,0-0.1,0-0.1,0.1c-0.1,0.1-0.2,0.1-0.3,0.2c-0.9,0.7-1.6,1.7-2,3c0,0.2-0.1,0.4-0.1,0.6
		c0,0.1,0,0.2,0,0.2c0,0.1,0,0.1,0,0.2c0,0,0,0,0,0c0,0,0,0,0,0c0,0,0,0,0,0l-1.4,17.8c0.4,1.3,0.6,2.7,0.6,4.1
		c0,2.2-0.6,4.4-1.5,6.4c0-0.1,0.1-0.1,0.1-0.2l-1.3,16.8h6.9l2.5-24.4L83.4,34.4z"/>
	<path class="st6" d="M83.3,29.9c-0.5-0.6-1.2-1-1.9-1.3c0-0.6-0.1-1.1-0.3-1.7c-0.5-1.2-1.5-2-2.8-2.2c0-0.5-0.1-1-0.3-1.5
		c-0.6-1.3-1.9-2.2-3.4-2.2c-0.5,0-1,0.1-1.5,0.3c-0.3,0.1-0.5,0.3-0.7,0.4c-0.6-0.7-1.5-1.1-2.4-1.1c0,0,0,0,0,0
		c-0.6-0.5-1.4-0.9-2.2-0.9c-0.8,0-1.6,0.3-2.2,0.9c-0.5-0.2-1-0.3-1.5-0.3c-0.3,0-0.7,0-1,0.1c-0.4-0.4-1-0.7-1.6-0.7
		c-0.2,0-0.4,0-0.5,0.1c-0.6-0.5-1.4-0.8-2.2-0.8c-0.3,0-0.5,0-0.8,0.1c-0.6,0.2-1.2,0.5-1.6,1c0-0.1-0.1-0.1-0.1-0.2
		c-0.1-0.2-0.2-0.3-0.3-0.4c0.2-0.6,0.1-1.2-0.3-1.8c-0.4-0.5-1-0.9-1.7-0.9c-0.3,0-0.5,0.1-0.8,0.2c-0.5-0.5-1.1-0.7-1.8-0.7
		c-0.5,0-1,0.2-1.5,0.5c-0.2,0.1-0.3,0.3-0.5,0.4c-0.1,0-0.1,0-0.2,0c-0.1,0-0.1,0-0.2,0c-0.5-0.7-1.2-1.3-2-1.5
		c-0.3-0.1-0.6-0.1-0.9-0.1c-1.2,0-2.3,0.6-3,1.6c-0.1,0.1-0.2,0.3-0.2,0.4c-0.3,0.1-0.5,0.2-0.8,0.4c-0.1-0.2-0.3-0.4-0.4-0.5
		c-1.1-1.1-2.9-1.1-4,0c-0.2,0.2-0.3,0.4-0.5,0.6c-1-0.6-2.2-0.5-3,0.3c-0.9,0.9-1,2.3-0.1,3.3c0,0.1,0,0.1-0.1,0.2
		c-0.3,0.1-0.7,0.2-0.9,0.4c-0.2,0.1-0.4,0.3-0.5,0.4c-0.6-0.5-1.4-0.8-2.1-0.8c-0.6,0-1.1,0.2-1.5,0.5c-0.1,0.1-0.3,0.2-0.4,0.3
		c-0.3-0.1-0.7-0.1-1-0.1c-0.2,0-0.5,0-0.7,0.1c-1.8,0.3-3.2,1.8-3.5,3.6c0,0.2,0,0.4,0,0.7c-0.5,0.4-0.8,0.9-0.9,1.5
		c-0.1,0-0.1,0-0.2,0c-1.4,0-2.6,0.6-3.5,1.6c-1.1,1.2-1.6,2.9-1.4,4.7l4.6,44.9l0.1,1.2h1.2h6.9h6.9h6.9H51h6.9h6.9h6.9h6.9H80
		l0.1-1.2l4.6-44.9C84.9,32.8,84.4,31.1,83.3,29.9z M75.1,29.8c-0.9-1-2.2-1.6-3.5-1.6c-1.4,0-2.7,0.6-3.7,1.6
		c0.4-1.1,1.4-1.8,2.6-1.9c0,0,0.1,0,0.1,0c0,0,0,0,0,0c-0.1-0.1-0.1-0.2-0.2-0.4c0-0.1-0.1-0.3-0.1-0.4c0-0.1,0-0.3,0-0.4
		c0-0.1,0.1-0.3,0.1-0.4s0.1-0.2,0.2-0.3c0.1-0.1,0.1-0.1,0.2-0.2s0.2-0.1,0.2-0.1c0.1,0,0.3-0.1,0.4-0.1c0,0,0,0,0.1,0
		c0,0,0.1,0,0.1,0c0,0,0.1,0,0.1,0c0,0,0.1,0,0.1,0c0,0,0.1,0,0.1,0c0,0,0.1,0,0.1,0.1c0,0,0.1,0,0.1,0.1c0,0,0.1,0.1,0.1,0.1
		c0,0,0.1,0,0.1,0.1c0,0,0.1,0.1,0.1,0.1c0,0,0,0.1,0.1,0.1c0,0,0.1,0.1,0.1,0.1c0,0,0,0.1,0.1,0.1c0,0,0,0.1,0.1,0.2
		c0,0,0,0.1,0,0.1c0,0.1,0,0.2,0.1,0.3c0.1-0.1,0.2-0.1,0.4-0.2c0,0,0.1,0,0.1,0c0.1,0,0.2-0.1,0.3-0.1c0.1,0,0.1,0,0.2,0
		c0.1,0,0.2,0,0.2,0c0.1,0,0.1,0,0.2,0c0.1,0,0.1,0,0.2,0c0,0,0,0,0.1,0c0,0,0.1,0,0.1,0c0,0,0.1,0,0.1,0c0.1,0,0.1,0,0.2,0
		c0,0,0.1,0,0.1,0c0.1,0,0.2,0,0.2,0.1c0,0,0.1,0,0.1,0c0.1,0,0.2,0.1,0.3,0.1c0.1-0.1,0.2-0.2,0.3-0.3c0.1-0.1,0.2-0.1,0.3-0.1
		c0.1,0,0.2-0.1,0.3-0.1c0,0,0.1,0,0.1,0c0,0,0,0,0.1,0c0,0,0,0,0,0c0,0,0,0,0.1,0c0,0,0,0,0.1,0c0,0,0,0,0.1,0c0,0,0,0,0.1,0
		c0,0,0,0,0.1,0c0,0,0,0,0.1,0c0,0,0,0,0.1,0c0,0,0,0,0.1,0c0,0,0,0,0.1,0c0,0,0,0,0.1,0c0,0,0,0,0.1,0c0,0,0,0,0.1,0c0,0,0,0,0.1,0
		c0,0,0,0,0.1,0c0,0,0,0,0,0c0,0,0,0,0.1,0.1c0,0,0,0,0,0c0,0,0,0,0,0.1c0,0,0,0,0,0.1c0,0,0,0,0,0.1c0,0,0,0,0,0.1c0,0,0,0,0,0.1
		c0,0,0,0,0,0.1c0,0,0,0.1,0,0.1c0,0,0,0,0,0.1c0,0,0,0.1,0,0.1c0,0,0,0,0,0.1c0,0,0,0.1,0,0.1c0,0,0,0,0,0.1c0,0.1,0,0.1,0,0.2
		c0,0.2,0,0.4-0.1,0.6c0,0.1-0.1,0.2-0.1,0.3c-0.9,0.4-1.8,1-2.5,1.8C75.4,30.2,75.3,30,75.1,29.8z M67.2,30.2
		c-0.1-0.1-0.2-0.2-0.3-0.3c-1-1-2.2-1.6-3.6-1.6c-1.2,0-2.4,0.5-3.3,1.2c0,0,0-0.1,0-0.1c0.1-0.8-0.1-1.6-0.6-2.3
		c-0.5-0.7-1.1-1.1-1.8-1.4c0-0.2,0.1-0.3,0.2-0.5c0.1-0.2,0.2-0.3,0.3-0.4c0.1-0.1,0.2-0.3,0.4-0.4c0.2-0.2,0.4-0.3,0.7-0.4
		c0,0,0,0,0,0c0.1,0,0.2-0.1,0.3-0.1c0,0,0.1,0,0.1,0c0.1,0,0.1,0,0.2,0c0,0,0.1,0,0.1,0c0.1,0,0.1,0,0.2,0c0,0,0.1,0,0.1,0
		c0.1,0,0.1,0,0.2,0c0,0,0,0,0.1,0c0,0,0,0,0,0c0.1,0,0.2,0,0.3,0c0,0,0,0,0,0c0.1,0,0.2,0,0.3,0.1c0,0,0.1,0,0.1,0
		c0.1,0,0.2,0.1,0.2,0.1c0,0,0,0,0.1,0c0.1,0,0.2,0.1,0.3,0.1c0,0,0,0,0.1,0c0.1,0,0.1,0.1,0.2,0.1c0,0,0,0,0.1,0
		c0.1,0.1,0.2,0.1,0.2,0.2c0,0,0,0,0,0c0.1,0.1,0.1,0.1,0.2,0.2c0,0,0,0,0.1,0.1c0.1,0.1,0.1,0.2,0.2,0.3c0.3-0.3,0.6-0.5,1-0.7
		c0.1,0,0.2-0.1,0.3-0.1c0,0,0.1,0,0.1,0c0.1,0,0.1,0,0.2-0.1c0,0,0.1,0,0.1,0c0.1,0,0.1,0,0.2,0c0,0,0.1,0,0.1,0c0.1,0,0.1,0,0.2,0
		c0,0,0,0,0,0c0.1,0,0.2,0,0.2,0c0,0,0,0,0,0c0.1,0,0.2,0,0.2,0c0,0,0.1,0,0.1,0c0.1,0,0.1,0,0.2,0c0,0,0,0,0.1,0
		c0.1,0,0.2,0.1,0.3,0.1c0,0,0,0,0.1,0c0.1,0,0.1,0.1,0.2,0.1c0,0,0.1,0,0.1,0c0.1,0,0.1,0.1,0.2,0.1c0,0,0,0,0.1,0
		c0.1,0,0.1,0.1,0.2,0.1c0,0,0,0,0,0c0,0,0,0,0.1,0c0,0,0,0,0.1,0c0.1,0,0.1,0.1,0.2,0.1c0,0,0,0,0.1,0.1c0,0,0.1,0.1,0.1,0.1
		c0,0,0,0,0,0c0.3,0.3,0.5,0.6,0.6,0.9c0.1,0.2,0.2,0.4,0.2,0.7c0,0.1,0,0.3,0.1,0.4c0,0.2,0,0.4,0,0.7c0.1,0,0.1,0,0.2,0
		c0.1,0,0.3,0,0.4,0.1c0,0,0.1,0,0.1,0c-0.4,0.2-0.7,0.5-0.9,0.8C67.6,29.1,67.3,29.6,67.2,30.2z M59.2,30.4
		c-0.1-0.2-0.3-0.4-0.5-0.6c-0.9-1-2.2-1.5-3.4-1.5c-0.3-2-2-3.5-4-3.5c-0.9,0-1.8,0.3-2.5,0.9c-0.1-0.7,0.2-1.4,0.7-1.7
		c0.3-0.2,0.6-0.3,0.9-0.3c0,0,0,0,0,0c0,0,0,0,0.1,0c0.1,0,0.1,0,0.2,0c0,0,0,0,0,0c0.1,0,0.1,0,0.2,0c0,0,0,0,0.1,0
		c0.1,0,0.1,0,0.2,0c0,0,0,0,0.1,0c0.1,0,0.1,0,0.2,0.1c0,0,0,0,0,0c0.1,0,0.1,0.1,0.2,0.1c0,0,0,0,0,0c0,0,0.1,0.1,0.1,0.1
		c0,0,0,0,0.1,0c0,0,0.1,0.1,0.1,0.1c0,0,0,0,0.1,0.1c0.1,0.1,0.1,0.1,0.2,0.2c0.1-0.3,0.3-0.5,0.6-0.7c0.1-0.1,0.2-0.1,0.2-0.1
		c0,0,0,0,0.1,0c0.1,0,0.1-0.1,0.2-0.1c0,0,0,0,0.1,0c0.1,0,0.2,0,0.3-0.1c0,0,0,0,0,0c0.1,0,0.2,0,0.2,0c0,0,0,0,0,0c0,0,0,0,0,0
		c0.1,0,0.1,0,0.2,0c0,0,0.1,0,0.1,0c0.1,0,0.2,0,0.3,0.1c0,0,0,0,0,0c0.1,0,0.2,0.1,0.2,0.1c0,0,0.1,0,0.1,0c0.1,0,0.1,0.1,0.2,0.1
		c0,0,0.1,0,0.1,0c0.1,0,0.2,0.1,0.3,0.2c0,0,0,0,0,0c0.1,0.1,0.2,0.1,0.2,0.2c0,0,0,0,0.1,0.1c0.1,0.1,0.1,0.1,0.2,0.2
		c0,0,0,0,0.1,0.1c0.1,0.1,0.1,0.2,0.2,0.3c0.1,0.2,0.3,0.4,0.3,0.7c0.1,0.2,0.1,0.5,0.2,0.7c0,0,0.1,0,0.1,0c0,0,0.1,0,0.1,0
		c0,0,0.1,0,0.1,0c0,0,0,0,0.1,0c0,0,0,0,0,0c0,0,0.1,0,0.1,0c0,0,0.1,0,0.1,0c0.1,0,0.1,0,0.2,0.1c0.6,0.2,1.1,0.6,1.5,1.2
		C59.7,28.3,59.7,29.6,59.2,30.4z M51,30.4c-1-1.3-2.5-2.1-4.1-2.1c-1.3,0-2.6,0.6-3.6,1.6c-0.2,0.2-0.3,0.4-0.5,0.6
		c-0.1-0.1-0.2-0.2-0.3-0.4c0-0.1,0-0.2,0-0.3c0-0.1,0-0.2,0-0.3c-0.9-0.2-1.6-1.1-1.6-2c0-1.2,0.9-2.1,2.1-2.1
		c0.5,0,0.9,0.2,1.3,0.4c0.1,0.1,0.1,0.1,0.2,0.2c0.1,0.1,0.2,0.3,0.3,0.4c0,0,0,0,0,0c0.1,0,0.2-0.1,0.3-0.1c0,0,0,0,0.1,0
		c0.1,0,0.2-0.1,0.3-0.1c0,0,0,0,0.1,0c0.1,0,0.2,0,0.3,0c0,0,0,0,0,0c0.1,0,0.2,0,0.3,0c0,0,0,0,0,0c0,0,0,0,0,0c0.1,0,0.1,0,0.2,0
		c0,0,0.1,0,0.1,0c0.1,0,0.1,0,0.2,0c0,0,0,0,0,0c0.1,0,0.2,0,0.2,0c0,0,0,0,0.1,0c0.1,0,0.1,0,0.2,0c0,0,0.1,0,0.1,0
		c0.1,0,0.1,0,0.2,0c0,0,0.1,0,0.1,0c0,0,0.1,0,0.1,0.1c0,0,0.1,0,0.1,0c0.1,0,0.1,0,0.2,0.1c0,0,0,0,0.1,0c0.1,0,0.1,0.1,0.2,0.1
		c0,0,0,0,0,0c0.1-0.1,0.2-0.3,0.3-0.4v0c0.1-0.1,0.3-0.2,0.4-0.3c0.1-0.1,0.3-0.2,0.5-0.3c0.2-0.1,0.5-0.2,0.7-0.3
		c0.3-0.1,0.5-0.1,0.8-0.1c1,0,1.9,0.4,2.5,1c0.3,0.3,0.6,0.7,0.8,1.1c0.1,0.3,0.2,0.6,0.2,0.9C53.2,28.4,51.9,29.2,51,30.4z
		 M40.5,21.5c0-0.1,0.1-0.2,0.2-0.3s0.1-0.2,0.2-0.3c0.1-0.1,0.2-0.2,0.3-0.3c0.3-0.2,0.6-0.3,1-0.3c0.6,0,1.3,0.3,1.7,0.9
		c0-0.1,0.1-0.1,0.1-0.2c0.1-0.2,0.3-0.3,0.5-0.5c0.3-0.2,0.5-0.3,0.8-0.3c0,0,0,0,0,0c0.1,0,0.2,0,0.2,0c0,0,0.1,0,0.1,0
		c0.1,0,0.1,0,0.2,0c0,0,0.1,0,0.1,0c0.1,0,0.2,0,0.3,0.1c0,0,0,0,0,0c0.1,0,0.2,0.1,0.2,0.1c0,0,0.1,0,0.1,0c0.1,0,0.1,0.1,0.2,0.1
		c0,0,0,0,0.1,0c0.1,0,0.2,0.1,0.3,0.2c0,0,0,0,0,0c0.1,0.1,0.2,0.1,0.2,0.2c0,0,0,0,0.1,0.1c0.1,0.1,0.1,0.1,0.2,0.2
		c0,0,0,0,0.1,0.1c0.1,0.1,0.1,0.2,0.2,0.3c0.1,0.2,0.3,0.4,0.3,0.7c0.1,0.2,0.1,0.5,0.2,0.7c0.1,0,0.1,0,0.2,0c0,0,0,0,0,0
		c0,0,0,0,0,0c0,0,0.1,0,0.1,0c0.1,0,0.1,0,0.2,0c0,0,0.1,0,0.1,0c0.1,0,0.1,0,0.2,0.1c0,0,0.1,0,0.1,0c0.1,0,0.1,0,0.2,0.1
		c0,0,0.1,0,0.1,0.1c0,0,0.1,0,0.1,0c0,0,0,0,0,0c-0.2,0.1-0.5,0.2-0.7,0.3c-0.8,0.5-1.1,1.5-1,2.4c-0.6-0.2-1.2-0.4-1.8-0.4
		c-0.5,0-0.9,0.1-1.3,0.2c-0.5-0.6-1.2-0.9-2-0.9c-1.4,0-2.5,1.1-2.6,2.4c-0.3-0.1-0.6-0.3-0.8-0.6c-0.5-0.7-0.4-1.7,0.2-2.1
		c0.2-0.1,0.5-0.2,0.7-0.2c0,0,0,0,0.1,0c0.1-0.3,0.1-0.5,0.3-0.7C40.4,22.9,40.3,22.1,40.5,21.5z M69.3,21.2c0,0,0.1,0,0.1,0
		c0.1,0,0.1,0,0.2,0c0,0,0.1,0,0.1,0c0,0,0,0,0,0c0,0,0,0,0,0c0.1,0,0.1,0,0.2,0c0,0,0.1,0,0.1,0c0.1,0,0.2,0,0.3,0c0,0,0,0,0,0
		c0.1,0,0.2,0,0.3,0.1c0,0,0.1,0,0.1,0c0.1,0,0.2,0.1,0.2,0.1c0,0,0,0,0.1,0c0.1,0,0.2,0.1,0.3,0.1c0,0,0,0,0.1,0
		c0.1,0,0.1,0.1,0.2,0.1c0,0,0,0,0.1,0c0.1,0.1,0.2,0.1,0.2,0.2c0,0,0,0,0,0c0.1,0.1,0.1,0.1,0.2,0.2c0,0,0,0,0.1,0.1
		c0.1,0.1,0.1,0.2,0.2,0.3c0.1-0.1,0.1-0.1,0.2-0.2c0.2-0.2,0.5-0.4,0.8-0.5c0.1,0,0.2-0.1,0.3-0.1c0,0,0.1,0,0.1,0
		c0.1,0,0.1,0,0.2-0.1c0,0,0.1,0,0.1,0c0.1,0,0.1,0,0.2,0c0,0,0.1,0,0.1,0c0.1,0,0.1,0,0.2,0c0,0,0,0,0,0c0.1,0,0.2,0,0.2,0
		c0,0,0,0,0,0c0.1,0,0.2,0,0.2,0c0,0,0.1,0,0.1,0c0.1,0,0.1,0,0.2,0c0,0,0,0,0.1,0c0.1,0,0.2,0.1,0.3,0.1c0,0,0,0,0.1,0
		c0.1,0,0.1,0.1,0.2,0.1c0,0,0.1,0,0.1,0c0.1,0,0.1,0.1,0.2,0.1c0,0,0,0,0.1,0c0.1,0,0.2,0.1,0.2,0.2c0,0,0,0,0.1,0
		c0.1,0,0.1,0.1,0.2,0.1c0,0,0,0,0.1,0.1c0.1,0.1,0.1,0.1,0.2,0.2c0,0,0,0,0,0c0.1,0.1,0.1,0.1,0.2,0.2c0,0,0,0,0,0.1
		c0,0.1,0.1,0.1,0.1,0.2c0,0,0,0,0,0.1c0,0.1,0.1,0.2,0.1,0.3c0.1,0.2,0.1,0.3,0.2,0.5c0,0.1,0.1,0.2,0.1,0.4c0,0,0,0,0,0.1
		c0,0.3,0,0.6,0,0.9c0.2,0,0.5,0.1,0.7,0.1c0.1,0,0.3,0.1,0.4,0.1c0.3,0.1,0.5,0.3,0.8,0.4c0.4,0.3,0.8,0.7,1,1.3
		c0.1,0.2,0.2,0.4,0.2,0.6s0.1,0.4,0.1,0.6c0,0,0,0,0,0c-0.4-0.1-0.7-0.1-1.1-0.1c-0.4,0-0.7,0-1.1,0.1c0.1-0.2,0.1-0.5,0.1-0.7
		c-0.1-1.1-0.9-2-2-2c0,0-0.1,0-0.1,0c-0.4,0-0.8,0.2-1.1,0.4c-0.4-0.1-0.8-0.2-1.2-0.2c-0.4,0-0.9,0.1-1.3,0.2
		c-0.3-0.6-0.9-1-1.6-1c0,0,0,0,0,0c0,0-0.1,0-0.1,0c-0.5,0-1,0.3-1.3,0.7c-0.3,0.4-0.5,0.9-0.5,1.4c0,0.1,0,0.2,0,0.3
		c-0.1,0-0.1,0-0.2,0.1c-0.3-0.1-0.6-0.2-0.9-0.3c0-0.5-0.1-1-0.3-1.5c-0.2-0.5-0.6-1-1.1-1.4c0-0.1,0-0.2-0.1-0.3
		c-0.1-1.1,0.5-2.2,1.6-2.7c0.1,0,0.2-0.1,0.3-0.1c0,0,0.1,0,0.1,0C69.2,21.2,69.3,21.2,69.3,21.2z M61.4,20.2c0.4,0,0.7,0.1,1,0.3
		c0.2,0.1,0.3,0.3,0.4,0.5c0.1,0,0.2-0.1,0.3-0.1c0,0,0.1,0,0.1,0c0.1,0,0.2,0,0.2,0c0,0,0.1,0,0.1,0c0.1,0,0.1,0,0.2,0
		c0,0,0.1,0,0.1,0c0,0,0,0,0.1,0c0,0,0.1,0,0.1,0c0.1,0,0.2,0,0.3,0c0,0,0.1,0,0.1,0c0.1,0,0.2,0,0.2,0.1c0,0,0.1,0,0.1,0
		c0.1,0,0.2,0.1,0.2,0.1c0,0,0.1,0,0.1,0c0.1,0.1,0.2,0.1,0.3,0.2c0.5-0.6,1.3-1,2.1-1c0.2,0,0.4,0,0.6,0.1c0.3,0.1,0.7,0.2,0.9,0.4
		c-0.2,0-0.4,0.1-0.6,0.2c-1.3,0.6-2,1.8-1.9,3.1c-0.5-0.3-1.1-0.4-1.7-0.4c-0.5,0-1,0.1-1.5,0.3c-0.3,0.1-0.5,0.3-0.7,0.4
		c-0.3-0.4-0.7-0.6-1.1-0.8c0.3-0.6,0.4-1.4,0.2-2.1c-0.1-0.4-0.3-0.8-0.6-1.2C61.3,20.2,61.3,20.2,61.4,20.2z M55.9,21
		C55.9,21,55.9,21,55.9,21c0.1,0,0.1,0,0.2,0.1c0.2-0.4,0.4-0.7,0.7-0.9c0.2-0.1,0.3-0.2,0.5-0.3s0.4-0.2,0.6-0.2
		c0.1,0,0.2,0,0.3-0.1c0,0,0.1,0,0.1,0c0.1,0,0.1,0,0.2,0c0,0,0,0,0,0c0,0,0.1,0,0.1,0c0,0,0.1,0,0.1,0c0.1,0,0.1,0,0.2,0
		c0,0,0,0,0.1,0c0.1,0,0.2,0,0.2,0.1c0,0,0,0,0.1,0c0.1,0,0.1,0,0.2,0.1c0,0,0.1,0,0.1,0c0,0,0.1,0,0.1,0.1c0,0,0.1,0,0.1,0
		c0,0,0.1,0,0.1,0.1c0,0,0.1,0,0.1,0c0,0,0.1,0.1,0.1,0.1c0,0,0,0,0.1,0.1c0.1,0,0.1,0.1,0.2,0.1c0,0,0,0,0,0
		c0.1,0.1,0.1,0.1,0.2,0.2c0.3,0.3,0.5,0.7,0.6,1.2c0,0.1,0,0.2,0.1,0.3c0.1,0.5,0,1-0.2,1.5c-0.3-0.1-0.6-0.1-0.8-0.1
		c-0.5,0-0.9,0.1-1.3,0.3c-0.9,0.4-1.6,1.2-1.8,2.1c0,0-0.1,0-0.1,0c-0.1-0.4-0.3-0.8-0.5-1.1c-0.6-0.9-1.6-1.5-2.6-1.5
		c-0.5,0-1,0.2-1.5,0.4c-0.1,0.1-0.2,0.2-0.4,0.3c-0.4-0.3-0.9-0.5-1.4-0.6c0,0,0-0.1,0-0.1c-0.2-0.9,0.3-1.8,1.2-2
		c0.1,0,0.1,0,0.2,0c0,0,0,0,0.1,0c0,0,0.1,0,0.1,0c0,0,0,0,0,0c0,0,0,0,0.1,0c0,0,0.1,0,0.1,0c0,0,0,0,0.1,0c0,0,0.1,0,0.1,0
		c0,0,0,0,0,0c0.1,0,0.1,0,0.2,0.1c0,0,0,0,0,0c0,0,0.1,0,0.1,0.1c0,0,0,0,0.1,0c0,0,0.1,0.1,0.1,0.1c0,0,0,0,0,0
		c0,0,0.1,0.1,0.1,0.1c0.1-0.1,0.2-0.1,0.3-0.2c0,0,0,0,0.1,0c0.2-0.1,0.4-0.2,0.6-0.2c0,0,0.1,0,0.1,0c0.2-0.1,0.4-0.1,0.6-0.1
		c0,0,0.1,0,0.1,0c0,0,0.1,0,0.1,0c0.2,0,0.4,0,0.5,0.1c0,0,0.1,0,0.1,0C55.9,21,55.9,21,55.9,21z M49.5,19.7
		c-0.1-0.3-0.2-0.6-0.2-0.9c0-0.1,0-0.1,0-0.2c0-0.1,0-0.2,0.1-0.4c0.1-0.5,0.4-0.9,0.8-1.2c0.1-0.1,0.2-0.1,0.2-0.1c0,0,0,0,0.1,0
		c0.1,0,0.2-0.1,0.3-0.1c0,0,0,0,0,0c0.1,0,0.2,0,0.2-0.1c0,0,0,0,0.1,0c0.1,0,0.2,0,0.3,0c0,0,0,0,0,0c0,0,0,0,0,0
		c0.1,0,0.1,0,0.2,0c0,0,0.1,0,0.1,0c0,0,0.1,0,0.1,0c0,0,0.1,0,0.1,0c0.1,0,0.1,0,0.2,0c0,0,0,0,0.1,0c0.1,0,0.1,0.1,0.2,0.1
		c0,0,0,0,0,0c0.1,0,0.1,0.1,0.2,0.1c0,0,0,0,0.1,0c0,0,0.1,0.1,0.1,0.1c0,0,0,0,0.1,0.1c0,0,0.1,0.1,0.1,0.1c0,0,0,0,0.1,0.1
		c0.1,0.1,0.1,0.1,0.1,0.2c0,0,0,0,0,0c0,0,0,0,0,0c0.1-0.1,0.2-0.1,0.2-0.1c0,0,0.1,0,0.1,0c0.1,0,0.1,0,0.2-0.1c0,0,0.1,0,0.1,0
		c0.1,0,0.1,0,0.2,0c0,0,0,0,0.1,0c0,0,0,0,0,0c0.1,0,0.2,0,0.2,0c0,0,0,0,0.1,0c0.1,0,0.2,0,0.2,0.1c0,0,0,0,0,0
		c0.1,0,0.1,0.1,0.2,0.1c0,0,0,0,0,0c0.1,0,0.1,0.1,0.2,0.2c0,0,0,0,0,0c0.1,0.1,0.1,0.1,0.2,0.2c0.1,0.1,0.1,0.2,0.2,0.4
		c0,0.1,0,0.1,0.1,0.2c0,0.1,0,0.3,0,0.4c0,0.1,0,0.1,0,0.2c0,0.1-0.1,0.3-0.1,0.4c0.1,0.1,0.1,0.2,0.2,0.3c0.1,0.1,0.1,0.2,0.2,0.3
		c0.1,0.1,0.1,0.3,0.2,0.4c-0.2,0-0.4-0.1-0.6-0.1c-0.6,0-1.2,0.2-1.8,0.5c-0.4-0.2-0.8-0.4-1.2-0.4c-0.2,0-0.3,0-0.5,0.1
		c-1,0.3-1.7,1.2-1.6,2.2c-0.4-0.2-0.8-0.4-1.3-0.4c-0.1-0.4-0.3-0.8-0.5-1.1c0,0,0,0,0,0c0-0.2,0.1-0.4,0.2-0.6
		c0.2-0.3,0.4-0.5,0.7-0.7C49.3,19.8,49.4,19.7,49.5,19.7z M43.2,17.9c0.1-0.2,0.2-0.4,0.3-0.6c0.1-0.1,0.1-0.2,0.2-0.3
		c0,0,0,0,0-0.1c0.1-0.1,0.1-0.2,0.2-0.2c0,0,0,0,0,0c0.1-0.1,0.2-0.1,0.2-0.2c0,0,0,0,0,0c0.1-0.1,0.2-0.1,0.3-0.2c0,0,0,0,0.1,0
		c0.1-0.1,0.2-0.1,0.3-0.1c0,0,0,0,0,0c0.1,0,0.2-0.1,0.3-0.1c0,0,0,0,0.1,0c0.1,0,0.2,0,0.3-0.1c0,0,0,0,0.1,0c0.1,0,0.2,0,0.3,0
		c0,0,0,0,0,0c0,0,0,0,0,0c0.1,0,0.2,0,0.3,0c0,0,0.1,0,0.1,0c0.1,0,0.2,0,0.3,0.1c0.2,0.1,0.4,0.1,0.6,0.2c0.2,0.1,0.4,0.2,0.5,0.4
		c0.1,0.1,0.2,0.1,0.2,0.2c0.2,0.2,0.4,0.5,0.5,0.8c0.1,0,0.2,0,0.2-0.1c0,0,0,0,0,0c-0.3,0.6-0.4,1.2-0.2,1.9
		c-0.5,0.3-0.8,0.7-1,1.2c-0.6-0.6-1.4-1-2.2-1c-0.1,0-0.1,0-0.2,0c-0.1-0.2-0.2-0.3-0.4-0.5c-0.7-0.7-1.7-1-2.7-0.8
		c0,0,0-0.1,0-0.1C42.6,18.1,42.9,18,43.2,17.9z M34.5,18.6c0.7-0.7,1.8-0.8,2.6-0.1c0.1,0.1,0.2,0.1,0.2,0.1c0.1,0,0.1-0.1,0.2-0.2
		c0.1-0.3,0.3-0.5,0.5-0.8c0.9-0.9,2.4-0.9,3.3,0c0.3,0.3,0.5,0.7,0.6,1.1c0,0.1,0.1,0.1,0.1,0.2c0.1,0,0.1,0,0.2,0
		c0.9-0.3,1.8-0.1,2.4,0.6c0.1,0.1,0.1,0.1,0.2,0.2c-0.3,0.1-0.5,0.2-0.7,0.3c-0.1,0.1-0.2,0.2-0.4,0.3c-0.5-0.4-1.1-0.6-1.7-0.6
		c-0.5,0-0.9,0.1-1.3,0.4c-1,0.7-1.3,2.1-0.6,3.3c0,0.1-0.1,0.1-0.1,0.2c-0.2,0-0.4,0.1-0.6,0.3c-0.2,0.1-0.3,0.3-0.5,0.5
		c0,0-0.1-0.1-0.1-0.1c0,0,0,0-0.1,0c-0.1,0-0.1,0-0.2,0.1c-0.1,0.1-0.2,0.1-0.2,0.2c-0.1-0.4-0.3-0.8-0.6-1.2
		c-0.8-1.1-1.9-1.8-3.2-1.8c-0.1,0-0.1,0-0.2,0c0,0,0,0,0-0.1c0-0.1,0-0.2-0.1-0.3C33.8,20.5,33.8,19.4,34.5,18.6z M28.3,24.5
		c0-0.2,0-0.3,0.1-0.5s0.1-0.3,0.1-0.5c0.1-0.1,0.1-0.3,0.2-0.4c0,0,0,0,0,0c0.1-0.1,0.2-0.3,0.3-0.4c0.1-0.1,0.1-0.1,0.2-0.1
		c0.1-0.1,0.2-0.1,0.3-0.1c0,0,0,0,0.1,0c0.1,0,0.1-0.1,0.2-0.1c0,0,0,0,0,0c0.1,0,0.2,0,0.3-0.1c0,0,0,0,0.1,0c0.1,0,0.2,0,0.2,0
		c0,0,0,0,0,0c0,0,0,0,0,0c0.1,0,0.2,0,0.3,0c0,0,0,0,0,0c0.1,0,0.2,0,0.3,0c0,0,0.1,0,0.1,0c0.1,0,0.1,0,0.2,0.1c0,0,0.1,0,0.1,0
		c0.1,0,0.1,0.1,0.2,0.1c0,0,0,0,0.1,0c0.1,0,0.2,0.1,0.2,0.1c0,0,0,0,0.1,0c0.1,0,0.1,0.1,0.2,0.1c0,0,0.1,0,0.1,0.1
		c0.1,0,0.1,0.1,0.2,0.1c0,0,0,0,0.1,0.1c0.1,0.1,0.1,0.1,0.2,0.2c0,0,0,0,0-0.1c0.1-0.1,0.1-0.2,0.2-0.2v0c0-0.1,0.1-0.1,0.1-0.1
		c0.1-0.1,0.3-0.3,0.4-0.4c0.1-0.1,0.2-0.1,0.3-0.2c0,0,0.1,0,0.1,0c0.1,0,0.2-0.1,0.2-0.1c0,0,0.1,0,0.1,0c0.1,0,0.2-0.1,0.3-0.1
		c0,0,0,0,0,0c0.1,0,0.2,0,0.3,0c1,0,2,0.5,2.7,1.5c0.4,0.5,0.6,1.1,0.6,1.7c0.1,0,0.1,0,0.2,0c0,0,0,0,0,0c0.1,0,0.2,0,0.4,0
		c0,0,0,0,0,0c0,0,0,0,0.1,0c0,0.5,0.1,1,0.4,1.4c0.3,0.5,0.8,0.8,1.3,0.9c0.1,0.4,0.2,0.7,0.4,1c-0.7-0.3-1.4-0.5-2.2-0.5
		c-1.3,0-2.6,0.6-3.6,1.6c-0.2,0.2-0.3,0.4-0.5,0.6c-1.1-1.3-2.6-2.1-4.2-2.1c-1.3,0-2.4,0.5-3.4,1.4c-0.1-0.1-0.1-0.2-0.1-0.3
		c-0.2-0.7,0-1.5,0.6-1.9c0.1,0,0.1-0.1,0.2-0.1c0,0,0,0,0.1,0c0,0,0.1,0,0.1-0.1c0,0,0.1,0,0.1,0c0,0,0.1,0,0.1,0c0,0,0.1,0,0.1,0
		c0,0,0.1,0,0.1,0c0,0,0,0,0.1,0c0.1-0.3,0.2-0.6,0.3-0.9C28.4,25.7,28.3,25.1,28.3,24.5z M23,28.2c0.1-0.3,0.3-0.6,0.5-0.8
		c0.1-0.1,0.3-0.2,0.4-0.3c0-0.3,0-0.6,0-0.9c0.1-0.6,0.4-1.2,0.8-1.8c0.2-0.2,0.4-0.4,0.6-0.6c0.5-0.4,1-0.6,1.6-0.7
		c0.1,0,0.2,0,0.4,0c0,0,0.1,0,0.1,0c0,0,0.1,0,0.1,0c0,0,0.1,0,0.1,0c0,0,0.1,0,0.1,0c0.1,0,0.2,0,0.3,0c0,0,0.1,0,0.1,0
		c0,0,0,0,0,0c0,0,0,0,0,0c-0.6,0.9-0.6,2.1,0,3.2c-0.1,0.1-0.1,0.3-0.1,0.4c-0.3,0-0.6,0.2-0.8,0.3c-0.9,0.6-1.2,2-0.6,3.1
		c-0.1,0.1-0.2,0.2-0.2,0.3c-0.9-1.1-2.2-1.9-3.5-2.1C22.9,28.3,22.9,28.2,23,28.2z M78.8,79.3L78.8,79.3h-6.9h0h-6.9h0h-6.9h0H51
		h-6.9h0h-6.9h0h-6.9h0h-6.9h0h0l-1.3-12.5L21,58.1l-2.4-23.7c0-0.1,0-0.2,0-0.3c0-0.5,0-1,0.1-1.5c0-0.2,0.1-0.3,0.1-0.5
		c0.2-0.5,0.5-1,0.8-1.4c0,0,0,0,0,0c0,0,0,0,0-0.1c0,0,0,0,0,0c0,0,0,0,0.1,0c0.2-0.2,0.4-0.4,0.7-0.5c0.2-0.1,0.3-0.2,0.5-0.2
		c0,0,0.1,0,0.1,0c0,0,0,0,0,0c0.4-0.1,0.8-0.2,1.2-0.2c0.4,0,0.8,0.1,1.2,0.2c0.3,0.1,0.5,0.2,0.8,0.4c0,0,0,0,0,0
		c0.1,0.1,0.2,0.2,0.4,0.2c0,0,0,0,0.1,0c0,0,0,0,0.1,0c0,0,0,0,0.1,0.1c0,0,0,0,0,0c0.4,0.3,0.7,0.7,1,1.1c0.1,0.1,0.2,0.3,0.3,0.4
		c0.1,0.1,0.1,0.3,0.2,0.4c0,0.1,0.1,0.2,0.1,0.3c0.1,0.2,0.1,0.4,0.2,0.6c0.1,0.3,0.1,0.6,0.2,1c0,0,0,0,0,0c0-0.1,0-0.3,0-0.4
		c0-0.2,0-0.4,0-0.5c0-0.1,0-0.2,0-0.3c0,0,0-0.1,0-0.1c0,0,0-0.1,0-0.1c0-0.1,0-0.2,0.1-0.3c0-0.1,0.1-0.2,0.1-0.3c0,0,0-0.1,0-0.1
		c0-0.1,0.1-0.2,0.1-0.3c0.1-0.3,0.3-0.5,0.5-0.8c0-0.1,0.1-0.1,0.1-0.2c0.1-0.1,0.1-0.2,0.2-0.2c0.1-0.1,0.2-0.2,0.3-0.2
		c0.1-0.1,0.2-0.2,0.3-0.2c0,0,0,0,0,0c0.2-0.1,0.4-0.3,0.7-0.4c0.4-0.1,0.8-0.2,1.2-0.2c0.4,0,0.8,0.1,1.2,0.2c0,0,0,0,0,0
		c0,0,0,0,0,0c0.2,0.1,0.5,0.2,0.7,0.3c0,0,0,0,0,0c0.1,0.1,0.2,0.2,0.4,0.2c0.2,0.1,0.3,0.3,0.5,0.5c0.4,0.4,0.7,0.8,0.9,1.2
		c0.1,0.1,0.1,0.3,0.2,0.4c0,0,0,0,0,0c0.1,0.2,0.1,0.3,0.2,0.5c0,0.1,0,0.1,0,0.2c0,0.1,0,0.1,0,0.2c0.1,0.2,0.1,0.5,0.1,0.7
		c0,0.1,0,0.2,0,0.3c0,0,0,0,0,0c0-0.3,0-0.7,0-1c0-0.1,0-0.1,0-0.2c0-0.1,0-0.1,0-0.2c0-0.1,0-0.2,0.1-0.3c0-0.1,0-0.1,0-0.2
		c0-0.1,0-0.1,0.1-0.2c0-0.1,0.1-0.2,0.1-0.2c0.2-0.5,0.6-1,0.9-1.4c0.1-0.1,0.2-0.2,0.3-0.3c0.1-0.1,0.2-0.2,0.3-0.2c0,0,0,0,0.1,0
		c0.2-0.1,0.4-0.2,0.7-0.3c0.4-0.1,0.8-0.2,1.2-0.2c0.4,0,0.8,0.1,1.2,0.2c0.2,0.1,0.5,0.2,0.7,0.3c0,0,0,0,0.1,0
		c0.1,0.1,0.2,0.2,0.3,0.2s0.2,0.2,0.3,0.3c0,0,0,0,0,0c0,0,0,0,0,0c0.2,0.2,0.4,0.5,0.6,0.7c0,0,0,0,0,0.1c0,0,0,0,0,0
		c0.2,0.4,0.4,0.8,0.6,1.3c0,0.1,0,0.1,0.1,0.2c0.1,0.2,0.1,0.4,0.1,0.6c0,0,0,0,0,0.1c0,0.2,0,0.4,0.1,0.6c0,0,0,0,0,0c0,0,0,0,0,0
		c0,0,0,0,0,0c0-0.2,0-0.3,0-0.5c0,0,0,0,0,0c0,0,0,0,0,0c0.1-0.9,0.4-1.8,0.9-2.5c0.2-0.4,0.5-0.7,0.8-0.9c0.3-0.3,0.7-0.5,1.1-0.6
		c0,0,0,0,0,0c0.4-0.1,0.8-0.2,1.2-0.2c0.4,0,0.8,0.1,1.2,0.2c0.3,0.1,0.5,0.2,0.7,0.4c0,0,0,0,0,0c0.1,0,0.1,0.1,0.2,0.1
		c0.1,0,0.1,0.1,0.2,0.1c0.5,0.4,0.9,0.9,1.2,1.5c0,0.1,0.1,0.1,0.1,0.2c0,0,0,0.1,0,0.1c0,0.1,0.1,0.2,0.1,0.3
		c0.1,0.3,0.2,0.6,0.2,0.9C51,33.7,51,34,51,34.3c0,0,0,0.1,0,0.1c0,0,0-0.1,0-0.1c0-0.3,0-0.6,0.1-0.9c0-0.2,0.1-0.3,0.1-0.5
		c0-0.1,0-0.1,0-0.2c0,0,0,0,0-0.1c0-0.1,0-0.1,0-0.2c0-0.1,0.1-0.2,0.1-0.3c0,0,0-0.1,0-0.1c0-0.1,0.1-0.2,0.1-0.2
		c0.3-0.6,0.7-1.1,1.2-1.5c0.1,0,0.1-0.1,0.2-0.1c0.1,0,0.1-0.1,0.2-0.1c0,0,0,0,0,0c0.2-0.1,0.5-0.3,0.7-0.4
		c0.4-0.1,0.8-0.2,1.2-0.2c0.4,0,0.8,0.1,1.2,0.2c0,0,0,0,0,0c0,0,0,0,0,0c0.2,0.1,0.5,0.2,0.7,0.3c0,0,0,0,0,0
		c0.1,0.1,0.2,0.2,0.3,0.2c0.1,0.1,0.2,0.2,0.3,0.3c0,0,0.1,0,0.1,0.1c0.1,0.1,0.2,0.3,0.3,0.4c0,0,0,0,0,0c0,0,0,0,0,0
		c0.1,0.1,0.2,0.3,0.3,0.4c0,0,0,0,0,0.1c0.1,0.1,0.2,0.3,0.2,0.4c0.1,0.1,0.1,0.3,0.2,0.4c0.1,0.2,0.1,0.3,0.1,0.5
		c0,0.1,0.1,0.3,0.1,0.4c0,0.1,0,0.3,0,0.4c0,0.2,0,0.3,0,0.5c0,0,0,0,0,0c0-0.3,0-0.7,0.1-1c0,0,0-0.1,0-0.1c0-0.1,0-0.1,0-0.2
		c0.1-0.2,0.1-0.4,0.2-0.6c0-0.1,0.1-0.1,0.1-0.2c0-0.1,0.1-0.1,0.1-0.2c0.3-0.7,0.8-1.2,1.3-1.7c0,0,0,0,0,0
		c0.1-0.1,0.2-0.2,0.3-0.2c0,0,0,0,0.1,0c0.2-0.1,0.4-0.3,0.7-0.3c0.4-0.1,0.8-0.2,1.2-0.2c0.4,0,0.8,0.1,1.2,0.2
		c0.2,0.1,0.4,0.2,0.5,0.2c0.2,0.1,0.4,0.2,0.5,0.4c0.5,0.4,0.9,1,1.2,1.7c0.1,0.2,0.1,0.3,0.2,0.5c0.1,0.4,0.2,0.7,0.2,1.1
		c0,0.2,0,0.4,0,0.6c0,0,0,0.1,0,0.1c0,0,0,0,0,0c0,0,0,0,0,0c0,0,0,0,0,0c0.1-1.2,0.5-2.3,1.1-3.1c0.1-0.2,0.3-0.3,0.4-0.5
		c0,0,0,0,0,0c0.1-0.1,0.3-0.3,0.4-0.4c0.1-0.1,0.2-0.2,0.4-0.2c0,0,0,0,0,0c0.2-0.1,0.5-0.3,0.7-0.3c0,0,0,0,0,0c0,0,0,0,0,0
		c0.4-0.1,0.8-0.2,1.2-0.2c0.4,0,0.8,0.1,1.2,0.2c0.2,0.1,0.4,0.2,0.6,0.3c0.1,0,0.1,0.1,0.2,0.1c0.1,0.1,0.2,0.1,0.3,0.2
		c0.1,0.1,0.2,0.2,0.3,0.3c0,0,0,0,0,0c0.1,0.2,0.3,0.3,0.4,0.5c0.1,0.1,0.1,0.2,0.2,0.3c0.3,0.6,0.5,1.2,0.6,2c0,0.3,0,0.6,0,0.8
		c0,0,0,0,0,0c0,0,0,0,0,0c0-0.1,0-0.1,0-0.2c0-0.1,0-0.2,0-0.2c0,0,0,0,0,0c0-0.2,0.1-0.4,0.1-0.6h0c0.2-0.6,0.4-1.2,0.8-1.7
		s0.7-0.9,1.2-1.3c0.1-0.1,0.2-0.2,0.4-0.2c0,0,0.1,0,0.1-0.1c0.1-0.1,0.3-0.1,0.4-0.2c0.1,0,0.2-0.1,0.3-0.1
		c0.4-0.1,0.8-0.2,1.2-0.2c0.4,0,0.8,0.1,1.2,0.2c0,0,0,0,0,0c0,0,0,0,0,0c0,0,0.1,0,0.1,0.1c0.1,0,0.1,0.1,0.2,0.1
		c0.1,0.1,0.3,0.1,0.4,0.2c0.1,0.1,0.2,0.1,0.3,0.2c0,0,0,0,0.1,0c0.5,0.4,0.9,1,1.1,1.7c0,0.1,0.1,0.3,0.1,0.4c0,0.1,0,0.2,0.1,0.4
		c0,0.2,0.1,0.4,0.1,0.5c0,0,0,0.1,0,0.1c0,0.3,0,0.6,0,0.9l-2.1,20.4L78.8,79.3z"/>
	<path class="st4" d="M27.7,52.4c0.1-0.3,0.2-0.6,0.3-0.9C27.9,51.8,27.8,52.1,27.7,52.4z"/>
	
		<radialGradient id="SVGID_1_" cx="50.8417" cy="56.3279" r="30.2039" gradientTransform="matrix(1 4.994693e-03 -3.733387e-03 0.7475 0.2109 13.971)" gradientUnits="userSpaceOnUse">
		<stop  offset="0" style="stop-color:#A80028"/>
		<stop  offset="0.404" style="stop-color:#A60028"/>
		<stop  offset="0.5496" style="stop-color:#9F0026"/>
		<stop  offset="0.6533" style="stop-color:#940024"/>
		<stop  offset="0.7372" style="stop-color:#830020"/>
		<stop  offset="0.8091" style="stop-color:#6D001C"/>
		<stop  offset="0.8715" style="stop-color:#520016"/>
		<stop  offset="0.9072" style="stop-color:#3F0012"/>
	</radialGradient>
	<path class="st7" d="M27.7,52.4c0.1-0.3,0.2-0.6,0.3-0.9C27.9,51.8,27.8,52.1,27.7,52.4z"/>
	<path class="st4" d="M27.4,53.7c0.1-0.3,0.1-0.7,0.2-1C27.5,53,27.4,53.3,27.4,53.7z"/>
	
		<radialGradient id="SVGID_2_" cx="50.8417" cy="56.3279" r="30.2039" gradientTransform="matrix(1 4.994693e-03 -3.733387e-03 0.7475 0.2109 13.971)" gradientUnits="userSpaceOnUse">
		<stop  offset="0" style="stop-color:#A80028"/>
		<stop  offset="0.404" style="stop-color:#A60028"/>
		<stop  offset="0.5496" style="stop-color:#9F0026"/>
		<stop  offset="0.6533" style="stop-color:#940024"/>
		<stop  offset="0.7372" style="stop-color:#830020"/>
		<stop  offset="0.8091" style="stop-color:#6D001C"/>
		<stop  offset="0.8715" style="stop-color:#520016"/>
		<stop  offset="0.9072" style="stop-color:#3F0012"/>
	</radialGradient>
	<path class="st8" d="M27.4,53.7c0.1-0.3,0.1-0.7,0.2-1C27.5,53,27.4,53.3,27.4,53.7z"/>
	<path class="st4" d="M27.2,54.8c0-0.2,0-0.4,0.1-0.6C27.3,54.4,27.2,54.6,27.2,54.8z"/>
	
		<radialGradient id="SVGID_3_" cx="50.8417" cy="56.3279" r="30.2039" gradientTransform="matrix(1 4.994693e-03 -3.733387e-03 0.7475 0.2109 13.971)" gradientUnits="userSpaceOnUse">
		<stop  offset="0" style="stop-color:#A80028"/>
		<stop  offset="0.404" style="stop-color:#A60028"/>
		<stop  offset="0.5496" style="stop-color:#9F0026"/>
		<stop  offset="0.6533" style="stop-color:#940024"/>
		<stop  offset="0.7372" style="stop-color:#830020"/>
		<stop  offset="0.8091" style="stop-color:#6D001C"/>
		<stop  offset="0.8715" style="stop-color:#520016"/>
		<stop  offset="0.9072" style="stop-color:#3F0012"/>
	</radialGradient>
	<path class="st9" d="M27.2,54.8c0-0.2,0-0.4,0.1-0.6C27.3,54.4,27.2,54.6,27.2,54.8z"/>
	<path class="st4" d="M27.9,61c0-0.1-0.1-0.2-0.1-0.3C27.9,60.9,27.9,61,27.9,61z"/>
	
		<radialGradient id="SVGID_4_" cx="50.8417" cy="56.3279" r="30.2039" gradientTransform="matrix(1 4.994693e-03 -3.733387e-03 0.7475 0.2109 13.971)" gradientUnits="userSpaceOnUse">
		<stop  offset="0" style="stop-color:#A80028"/>
		<stop  offset="0.404" style="stop-color:#A60028"/>
		<stop  offset="0.5496" style="stop-color:#9F0026"/>
		<stop  offset="0.6533" style="stop-color:#940024"/>
		<stop  offset="0.7372" style="stop-color:#830020"/>
		<stop  offset="0.8091" style="stop-color:#6D001C"/>
		<stop  offset="0.8715" style="stop-color:#520016"/>
		<stop  offset="0.9072" style="stop-color:#3F0012"/>
	</radialGradient>
	<path class="st10" d="M27.9,61c0-0.1-0.1-0.2-0.1-0.3C27.9,60.9,27.9,61,27.9,61z"/>
	<path class="st4" d="M27.1,56c0-0.2,0-0.5,0-0.7C27.1,55.5,27.1,55.7,27.1,56z"/>
	
		<radialGradient id="SVGID_5_" cx="50.8417" cy="56.3279" r="30.2039" gradientTransform="matrix(1 4.994693e-03 -3.733387e-03 0.7475 0.2109 13.971)" gradientUnits="userSpaceOnUse">
		<stop  offset="0" style="stop-color:#A80028"/>
		<stop  offset="0.404" style="stop-color:#A60028"/>
		<stop  offset="0.5496" style="stop-color:#9F0026"/>
		<stop  offset="0.6533" style="stop-color:#940024"/>
		<stop  offset="0.7372" style="stop-color:#830020"/>
		<stop  offset="0.8091" style="stop-color:#6D001C"/>
		<stop  offset="0.8715" style="stop-color:#520016"/>
		<stop  offset="0.9072" style="stop-color:#3F0012"/>
	</radialGradient>
	<path class="st11" d="M27.1,56c0-0.2,0-0.5,0-0.7C27.1,55.5,27.1,55.7,27.1,56z"/>
	<path class="st4" d="M28.7,62.8c-0.1-0.1-0.1-0.2-0.2-0.3C28.6,62.6,28.6,62.7,28.7,62.8z"/>
	
		<radialGradient id="SVGID_6_" cx="50.8417" cy="56.3279" r="30.2039" gradientTransform="matrix(1 4.994693e-03 -3.733387e-03 0.7475 0.2109 13.971)" gradientUnits="userSpaceOnUse">
		<stop  offset="0" style="stop-color:#A80028"/>
		<stop  offset="0.404" style="stop-color:#A60028"/>
		<stop  offset="0.5496" style="stop-color:#9F0026"/>
		<stop  offset="0.6533" style="stop-color:#940024"/>
		<stop  offset="0.7372" style="stop-color:#830020"/>
		<stop  offset="0.8091" style="stop-color:#6D001C"/>
		<stop  offset="0.8715" style="stop-color:#520016"/>
		<stop  offset="0.9072" style="stop-color:#3F0012"/>
	</radialGradient>
	<path class="st12" d="M28.7,62.8c-0.1-0.1-0.1-0.2-0.2-0.3C28.6,62.6,28.6,62.7,28.7,62.8z"/>
	<path class="st4" d="M28.3,62c-0.1-0.1-0.1-0.2-0.2-0.4C28.2,61.7,28.3,61.9,28.3,62z"/>
	
		<radialGradient id="SVGID_7_" cx="50.8417" cy="56.3279" r="30.2039" gradientTransform="matrix(1 4.994693e-03 -3.733387e-03 0.7475 0.2109 13.971)" gradientUnits="userSpaceOnUse">
		<stop  offset="0" style="stop-color:#A80028"/>
		<stop  offset="0.404" style="stop-color:#A60028"/>
		<stop  offset="0.5496" style="stop-color:#9F0026"/>
		<stop  offset="0.6533" style="stop-color:#940024"/>
		<stop  offset="0.7372" style="stop-color:#830020"/>
		<stop  offset="0.8091" style="stop-color:#6D001C"/>
		<stop  offset="0.8715" style="stop-color:#520016"/>
		<stop  offset="0.9072" style="stop-color:#3F0012"/>
	</radialGradient>
	<path class="st13" d="M28.3,62c-0.1-0.1-0.1-0.2-0.2-0.4C28.2,61.7,28.3,61.9,28.3,62z"/>
	<path class="st5" d="M51.1,49.5c-1,0-1.3,2.1-1.2,7.6c0.1,6,0.4,7.4,1.3,7.4c0.8,0,1.2-1.2,1.2-7.4C52.4,51.2,52,49.5,51.1,49.5z"
		/>
	
		<radialGradient id="SVGID_8_" cx="50.8417" cy="56.3279" r="30.2039" gradientTransform="matrix(1 4.994693e-03 -3.733387e-03 0.7475 0.2109 13.971)" gradientUnits="userSpaceOnUse">
		<stop  offset="0" style="stop-color:#A80028"/>
		<stop  offset="0.404" style="stop-color:#A60028"/>
		<stop  offset="0.5496" style="stop-color:#9F0026"/>
		<stop  offset="0.6533" style="stop-color:#940024"/>
		<stop  offset="0.7372" style="stop-color:#830020"/>
		<stop  offset="0.8091" style="stop-color:#6D001C"/>
		<stop  offset="0.8715" style="stop-color:#520016"/>
		<stop  offset="0.9072" style="stop-color:#3F0012"/>
	</radialGradient>
	<path class="st14" d="M51.1,49.5c-1,0-1.3,2.1-1.2,7.6c0.1,6,0.4,7.4,1.3,7.4c0.8,0,1.2-1.2,1.2-7.4C52.4,51.2,52,49.5,51.1,49.5z"
		/>
	<path class="st5" d="M38.4,50.3c0.2,2.9,0.3,4.6,0.7,9c1.3-0.1,2.1-1.1,1.9-4.4C40.9,51.8,40,50.2,38.4,50.3z"/>
	
		<radialGradient id="SVGID_9_" cx="50.8417" cy="56.3279" r="30.2039" gradientTransform="matrix(1 4.994693e-03 -3.733387e-03 0.7475 0.2109 13.971)" gradientUnits="userSpaceOnUse">
		<stop  offset="0" style="stop-color:#A80028"/>
		<stop  offset="0.404" style="stop-color:#A60028"/>
		<stop  offset="0.5496" style="stop-color:#9F0026"/>
		<stop  offset="0.6533" style="stop-color:#940024"/>
		<stop  offset="0.7372" style="stop-color:#830020"/>
		<stop  offset="0.8091" style="stop-color:#6D001C"/>
		<stop  offset="0.8715" style="stop-color:#520016"/>
		<stop  offset="0.9072" style="stop-color:#3F0012"/>
	</radialGradient>
	<path class="st15" d="M38.4,50.3c0.2,2.9,0.3,4.6,0.7,9c1.3-0.1,2.1-1.1,1.9-4.4C40.9,51.8,40,50.2,38.4,50.3z"/>
	<path class="st5" d="M61.7,50.8c-0.2,2.7-0.3,4.3-0.5,8.3c1.5-0.2,2.4-1.1,2.6-4.1C64,52.3,63.4,50.7,61.7,50.8z"/>
	
		<radialGradient id="SVGID_10_" cx="50.8417" cy="56.3279" r="30.2039" gradientTransform="matrix(1 4.994693e-03 -3.733387e-03 0.7475 0.2109 13.971)" gradientUnits="userSpaceOnUse">
		<stop  offset="0" style="stop-color:#A80028"/>
		<stop  offset="0.404" style="stop-color:#A60028"/>
		<stop  offset="0.5496" style="stop-color:#9F0026"/>
		<stop  offset="0.6533" style="stop-color:#940024"/>
		<stop  offset="0.7372" style="stop-color:#830020"/>
		<stop  offset="0.8091" style="stop-color:#6D001C"/>
		<stop  offset="0.8715" style="stop-color:#520016"/>
		<stop  offset="0.9072" style="stop-color:#3F0012"/>
	</radialGradient>
	<path class="st16" d="M61.7,50.8c-0.2,2.7-0.3,4.3-0.5,8.3c1.5-0.2,2.4-1.1,2.6-4.1C64,52.3,63.4,50.7,61.7,50.8z"/>
	
		<radialGradient id="SVGID_11_" cx="50.8417" cy="56.3279" r="30.2039" gradientTransform="matrix(1 4.994693e-03 -3.733387e-03 0.7475 0.2109 13.971)" gradientUnits="userSpaceOnUse">
		<stop  offset="0" style="stop-color:#A80028"/>
		<stop  offset="0.404" style="stop-color:#A60028"/>
		<stop  offset="0.5496" style="stop-color:#9F0026"/>
		<stop  offset="0.6533" style="stop-color:#940024"/>
		<stop  offset="0.7372" style="stop-color:#830020"/>
		<stop  offset="0.8091" style="stop-color:#6D001C"/>
		<stop  offset="0.8715" style="stop-color:#520016"/>
		<stop  offset="0.9072" style="stop-color:#3F0012"/>
	</radialGradient>
	<path class="st17" d="M73.4,50.9C73.4,50.9,73.4,50.9,73.4,50.9c-0.2-0.4-0.4-0.8-0.6-1.2c0,0,0-0.1-0.1-0.1
		c-0.2-0.4-0.4-0.7-0.7-1.1c0-0.1-0.1-0.1-0.1-0.2c-0.2-0.3-0.4-0.6-0.7-1c0,0-0.1-0.1-0.1-0.1c-0.3-0.3-0.6-0.7-0.9-1
		c-0.1-0.1-0.1-0.1-0.2-0.2c-0.6-0.7-1.4-1.3-2.1-1.9c0,0,0,0-0.1-0.1c-0.4-0.3-0.8-0.6-1.2-0.9l0,0c-2.3-1.6-5-2.8-7.9-3.6
		c-0.5-0.1-1-0.3-1.5-0.4c-0.1,0-0.2,0-0.3-0.1c-0.6-0.1-1.1-0.2-1.7-0.3c-0.1,0-0.2,0-0.3,0c-0.6-0.1-1.2-0.1-1.8-0.2
		c0,0-0.1,0-0.1,0c-0.7,0-1.3-0.1-2-0.1v0c-0.1,0-0.1,0-0.2,0c-2.7,0-5.4,0.4-7.8,1c-0.7,0.2-1.4,0.4-2,0.6c0,0-0.1,0-0.1,0
		c-0.6,0.2-1.3,0.5-1.9,0.7c-0.1,0-0.1,0-0.2,0.1c-0.6,0.3-1.2,0.5-1.7,0.9c-0.1,0-0.1,0.1-0.2,0.1c-0.6,0.3-1.1,0.6-1.6,1
		c-3.5,2.3-6,5.3-7.3,8.7c-0.1,0.3-0.2,0.6-0.3,0.9c0,0.1-0.1,0.2-0.1,0.3c-0.1,0.3-0.2,0.7-0.2,1c0,0.2-0.1,0.3-0.1,0.5
		c0,0.2-0.1,0.4-0.1,0.6c0,0.2,0,0.4-0.1,0.5c0,0.2,0,0.5,0,0.7c0,0.1,0,0.2,0,0.4c0,1.5,0.3,3,0.7,4.5c0,0.1,0.1,0.2,0.1,0.3
		c0.1,0.2,0.1,0.4,0.2,0.6c0,0.1,0.1,0.2,0.2,0.4c0.1,0.2,0.1,0.3,0.2,0.5c0.1,0.1,0.1,0.2,0.2,0.3c1.7,3.2,4.5,6,8.2,8
		c0.4,0.2,0.8,0.4,1.2,0.6c0.1,0.1,0.3,0.1,0.4,0.2c0.5,0.2,0.9,0.4,1.4,0.6c0.1,0.1,0.3,0.1,0.4,0.2c0.5,0.2,1,0.4,1.5,0.5
		c0.1,0,0.3,0.1,0.4,0.1c0.5,0.1,1,0.3,1.5,0.4c2.2,0.5,4.6,0.8,7.1,0.8c0.1,0,0.2,0,0.4,0c0.5,0,0.9,0,1.4,0c0.2,0,0.3,0,0.5,0
		c0.5,0,1-0.1,1.5-0.1c0.1,0,0.2,0,0.3,0c0.4-0.1,0.9-0.1,1.3-0.2c0.1,0,0.2,0,0.4-0.1c0.5-0.1,1-0.2,1.5-0.3
		c2.7-0.6,5.1-1.6,7.3-2.9l0,0c0.4-0.3,0.9-0.5,1.3-0.8c0,0,0,0,0,0c0.4-0.3,0.8-0.5,1.1-0.8c0,0,0.1-0.1,0.1-0.1
		c0.3-0.2,0.6-0.5,0.9-0.7c0.1-0.1,0.1-0.1,0.2-0.2c0.3-0.3,0.6-0.6,0.9-0.9c0,0,0.1-0.1,0.1-0.1c0.3-0.3,0.5-0.5,0.7-0.8
		c0.1-0.1,0.1-0.1,0.2-0.2c0.3-0.3,0.5-0.6,0.8-1c0,0,0,0,0-0.1c0.2-0.3,0.4-0.6,0.6-0.9c0.1-0.1,0.1-0.2,0.2-0.3
		c0.2-0.3,0.3-0.6,0.5-0.8c1-2,1.5-4.1,1.5-6.4c0-1.4-0.2-2.8-0.6-4.1v0C73.8,51.7,73.6,51.3,73.4,50.9z M39.8,66.7
		c0,0-1.5-0.1-3.6,0c0,0-0.6-7.2-2-20.2c0.8-0.1,1.7-0.2,2.4-0.2c5.7,0,8.1,3,8.3,8.5c0.2,4.8-1.9,7.4-5.5,7.5L39.8,66.7z
		 M56.4,57.2c-0.3,7.7-2,10-5.3,10c-3.7,0-5.1-3.2-5.3-10c-0.2-6.1,0.7-11.3,5.3-11.3C55.7,45.9,56.7,50.7,56.4,57.2z M67.7,54.9
		c-0.5,4.8-3.1,7-6.6,7.2l-0.2,4.9c0,0-1.5-0.1-3.6,0c0,0,0.4-6.9,0.8-19.9c0.9-0.1,1.8-0.1,2.6-0.1C66.2,46.9,68.2,49.7,67.7,54.9z
		"/>
	<path class="st4" d="M37.1,41.8c0.6-0.3,1.1-0.6,1.7-0.9C38.2,41.2,37.6,41.5,37.1,41.8z"/>
	
		<radialGradient id="SVGID_12_" cx="50.8417" cy="56.3279" r="30.2039" gradientTransform="matrix(1 4.994693e-03 -3.733387e-03 0.7475 0.2109 13.971)" gradientUnits="userSpaceOnUse">
		<stop  offset="0" style="stop-color:#A80028"/>
		<stop  offset="0.404" style="stop-color:#A60028"/>
		<stop  offset="0.5496" style="stop-color:#9F0026"/>
		<stop  offset="0.6533" style="stop-color:#940024"/>
		<stop  offset="0.7372" style="stop-color:#830020"/>
		<stop  offset="0.8091" style="stop-color:#6D001C"/>
		<stop  offset="0.8715" style="stop-color:#520016"/>
		<stop  offset="0.9072" style="stop-color:#3F0012"/>
	</radialGradient>
	<path class="st18" d="M37.1,41.8c0.6-0.3,1.1-0.6,1.7-0.9C38.2,41.2,37.6,41.5,37.1,41.8z"/>
	<path class="st4" d="M41,40.1c0.7-0.2,1.3-0.4,2-0.6C42.3,39.6,41.6,39.8,41,40.1z"/>
	
		<radialGradient id="SVGID_13_" cx="50.8417" cy="56.3279" r="30.2039" gradientTransform="matrix(1 4.994693e-03 -3.733387e-03 0.7475 0.2109 13.971)" gradientUnits="userSpaceOnUse">
		<stop  offset="0" style="stop-color:#A80028"/>
		<stop  offset="0.404" style="stop-color:#A60028"/>
		<stop  offset="0.5496" style="stop-color:#9F0026"/>
		<stop  offset="0.6533" style="stop-color:#940024"/>
		<stop  offset="0.7372" style="stop-color:#830020"/>
		<stop  offset="0.8091" style="stop-color:#6D001C"/>
		<stop  offset="0.8715" style="stop-color:#520016"/>
		<stop  offset="0.9072" style="stop-color:#3F0012"/>
	</radialGradient>
	<path class="st19" d="M41,40.1c0.7-0.2,1.3-0.4,2-0.6C42.3,39.6,41.6,39.8,41,40.1z"/>
	<path class="st4" d="M39,40.8c0.6-0.3,1.2-0.5,1.9-0.7C40.2,40.3,39.6,40.6,39,40.8z"/>
	
		<radialGradient id="SVGID_14_" cx="50.8417" cy="56.3279" r="30.2039" gradientTransform="matrix(1 4.994693e-03 -3.733387e-03 0.7475 0.2109 13.971)" gradientUnits="userSpaceOnUse">
		<stop  offset="0" style="stop-color:#A80028"/>
		<stop  offset="0.404" style="stop-color:#A60028"/>
		<stop  offset="0.5496" style="stop-color:#9F0026"/>
		<stop  offset="0.6533" style="stop-color:#940024"/>
		<stop  offset="0.7372" style="stop-color:#830020"/>
		<stop  offset="0.8091" style="stop-color:#6D001C"/>
		<stop  offset="0.8715" style="stop-color:#520016"/>
		<stop  offset="0.9072" style="stop-color:#3F0012"/>
	</radialGradient>
	<path class="st20" d="M39,40.8c0.6-0.3,1.2-0.5,1.9-0.7C40.2,40.3,39.6,40.6,39,40.8z"/>
	<path class="st4" d="M35.3,42.8c0.5-0.3,1.1-0.7,1.6-1C36.4,42.2,35.8,42.5,35.3,42.8z"/>
	
		<radialGradient id="SVGID_15_" cx="50.8417" cy="56.3279" r="30.2039" gradientTransform="matrix(1 4.994693e-03 -3.733387e-03 0.7475 0.2109 13.971)" gradientUnits="userSpaceOnUse">
		<stop  offset="0" style="stop-color:#A80028"/>
		<stop  offset="0.404" style="stop-color:#A60028"/>
		<stop  offset="0.5496" style="stop-color:#9F0026"/>
		<stop  offset="0.6533" style="stop-color:#940024"/>
		<stop  offset="0.7372" style="stop-color:#830020"/>
		<stop  offset="0.8091" style="stop-color:#6D001C"/>
		<stop  offset="0.8715" style="stop-color:#520016"/>
		<stop  offset="0.9072" style="stop-color:#3F0012"/>
	</radialGradient>
	<path class="st21" d="M35.3,42.8c0.5-0.3,1.1-0.7,1.6-1C36.4,42.2,35.8,42.5,35.3,42.8z"/>
	<path class="st4" d="M41.8,72.9c-0.5-0.2-1-0.3-1.5-0.5C40.8,72.5,41.3,72.7,41.8,72.9z"/>
	
		<radialGradient id="SVGID_16_" cx="50.8417" cy="56.3279" r="30.2039" gradientTransform="matrix(1 4.994693e-03 -3.733387e-03 0.7475 0.2109 13.971)" gradientUnits="userSpaceOnUse">
		<stop  offset="0" style="stop-color:#A80028"/>
		<stop  offset="0.404" style="stop-color:#A60028"/>
		<stop  offset="0.5496" style="stop-color:#9F0026"/>
		<stop  offset="0.6533" style="stop-color:#940024"/>
		<stop  offset="0.7372" style="stop-color:#830020"/>
		<stop  offset="0.8091" style="stop-color:#6D001C"/>
		<stop  offset="0.8715" style="stop-color:#520016"/>
		<stop  offset="0.9072" style="stop-color:#3F0012"/>
	</radialGradient>
	<path class="st22" d="M41.8,72.9c-0.5-0.2-1-0.3-1.5-0.5C40.8,72.5,41.3,72.7,41.8,72.9z"/>
	<path class="st4" d="M43.8,73.4c-0.5-0.1-1-0.3-1.5-0.4C42.7,73.1,43.3,73.3,43.8,73.4z"/>
	
		<radialGradient id="SVGID_17_" cx="50.8417" cy="56.3279" r="30.2039" gradientTransform="matrix(1 4.994693e-03 -3.733387e-03 0.7475 0.2109 13.971)" gradientUnits="userSpaceOnUse">
		<stop  offset="0" style="stop-color:#A80028"/>
		<stop  offset="0.404" style="stop-color:#A60028"/>
		<stop  offset="0.5496" style="stop-color:#9F0026"/>
		<stop  offset="0.6533" style="stop-color:#940024"/>
		<stop  offset="0.7372" style="stop-color:#830020"/>
		<stop  offset="0.8091" style="stop-color:#6D001C"/>
		<stop  offset="0.8715" style="stop-color:#520016"/>
		<stop  offset="0.9072" style="stop-color:#3F0012"/>
	</radialGradient>
	<path class="st23" d="M43.8,73.4c-0.5-0.1-1-0.3-1.5-0.4C42.7,73.1,43.3,73.3,43.8,73.4z"/>
	<path class="st4" d="M39.9,72.2c-0.5-0.2-1-0.4-1.4-0.6C38.9,71.8,39.4,72,39.9,72.2z"/>
	
		<radialGradient id="SVGID_18_" cx="50.8417" cy="56.3279" r="30.2039" gradientTransform="matrix(1 4.994693e-03 -3.733387e-03 0.7475 0.2109 13.971)" gradientUnits="userSpaceOnUse">
		<stop  offset="0" style="stop-color:#A80028"/>
		<stop  offset="0.404" style="stop-color:#A60028"/>
		<stop  offset="0.5496" style="stop-color:#9F0026"/>
		<stop  offset="0.6533" style="stop-color:#940024"/>
		<stop  offset="0.7372" style="stop-color:#830020"/>
		<stop  offset="0.8091" style="stop-color:#6D001C"/>
		<stop  offset="0.8715" style="stop-color:#520016"/>
		<stop  offset="0.9072" style="stop-color:#3F0012"/>
	</radialGradient>
	<path class="st24" d="M39.9,72.2c-0.5-0.2-1-0.4-1.4-0.6C38.9,71.8,39.4,72,39.9,72.2z"/>
	<path class="st4" d="M38.1,71.4c-0.4-0.2-0.8-0.4-1.2-0.6C37.3,71,37.7,71.2,38.1,71.4z"/>
	
		<radialGradient id="SVGID_19_" cx="50.8417" cy="56.3279" r="30.2039" gradientTransform="matrix(1 4.994693e-03 -3.733387e-03 0.7475 0.2109 13.971)" gradientUnits="userSpaceOnUse">
		<stop  offset="0" style="stop-color:#A80028"/>
		<stop  offset="0.404" style="stop-color:#A60028"/>
		<stop  offset="0.5496" style="stop-color:#9F0026"/>
		<stop  offset="0.6533" style="stop-color:#940024"/>
		<stop  offset="0.7372" style="stop-color:#830020"/>
		<stop  offset="0.8091" style="stop-color:#6D001C"/>
		<stop  offset="0.8715" style="stop-color:#520016"/>
		<stop  offset="0.9072" style="stop-color:#3F0012"/>
	</radialGradient>
	<path class="st25" d="M38.1,71.4c-0.4-0.2-0.8-0.4-1.2-0.6C37.3,71,37.7,71.2,38.1,71.4z"/>
	<path class="st4" d="M52.6,74.2c-0.4,0-0.9,0-1.4,0C51.7,74.2,52.1,74.2,52.6,74.2z"/>
	
		<radialGradient id="SVGID_20_" cx="50.8417" cy="56.3279" r="30.2039" gradientTransform="matrix(1 4.994693e-03 -3.733387e-03 0.7475 0.2109 13.971)" gradientUnits="userSpaceOnUse">
		<stop  offset="0" style="stop-color:#A80028"/>
		<stop  offset="0.404" style="stop-color:#A60028"/>
		<stop  offset="0.5496" style="stop-color:#9F0026"/>
		<stop  offset="0.6533" style="stop-color:#940024"/>
		<stop  offset="0.7372" style="stop-color:#830020"/>
		<stop  offset="0.8091" style="stop-color:#6D001C"/>
		<stop  offset="0.8715" style="stop-color:#520016"/>
		<stop  offset="0.9072" style="stop-color:#3F0012"/>
	</radialGradient>
	<path class="st26" d="M52.6,74.2c-0.4,0-0.9,0-1.4,0C51.7,74.2,52.1,74.2,52.6,74.2z"/>
	<path class="st4" d="M56.2,73.8c-0.4,0.1-0.9,0.1-1.3,0.2C55.3,73.9,55.7,73.8,56.2,73.8z"/>
	
		<radialGradient id="SVGID_21_" cx="50.8417" cy="56.3279" r="30.2039" gradientTransform="matrix(1 4.994693e-03 -3.733387e-03 0.7475 0.2109 13.971)" gradientUnits="userSpaceOnUse">
		<stop  offset="0" style="stop-color:#A80028"/>
		<stop  offset="0.404" style="stop-color:#A60028"/>
		<stop  offset="0.5496" style="stop-color:#9F0026"/>
		<stop  offset="0.6533" style="stop-color:#940024"/>
		<stop  offset="0.7372" style="stop-color:#830020"/>
		<stop  offset="0.8091" style="stop-color:#6D001C"/>
		<stop  offset="0.8715" style="stop-color:#520016"/>
		<stop  offset="0.9072" style="stop-color:#3F0012"/>
	</radialGradient>
	<path class="st27" d="M56.2,73.8c-0.4,0.1-0.9,0.1-1.3,0.2C55.3,73.9,55.7,73.8,56.2,73.8z"/>
	<path class="st4" d="M54.5,74c-0.5,0.1-1,0.1-1.5,0.1C53.5,74.1,54,74.1,54.5,74z"/>
	
		<radialGradient id="SVGID_22_" cx="50.8417" cy="56.3279" r="30.2039" gradientTransform="matrix(1 4.994693e-03 -3.733387e-03 0.7475 0.2109 13.971)" gradientUnits="userSpaceOnUse">
		<stop  offset="0" style="stop-color:#A80028"/>
		<stop  offset="0.404" style="stop-color:#A60028"/>
		<stop  offset="0.5496" style="stop-color:#9F0026"/>
		<stop  offset="0.6533" style="stop-color:#940024"/>
		<stop  offset="0.7372" style="stop-color:#830020"/>
		<stop  offset="0.8091" style="stop-color:#6D001C"/>
		<stop  offset="0.8715" style="stop-color:#520016"/>
		<stop  offset="0.9072" style="stop-color:#3F0012"/>
	</radialGradient>
	<path class="st28" d="M54.5,74c-0.5,0.1-1,0.1-1.5,0.1C53.5,74.1,54,74.1,54.5,74z"/>
	<path class="st4" d="M58,73.4c-0.5,0.1-1,0.2-1.5,0.3C57,73.6,57.5,73.5,58,73.4z"/>
	
		<radialGradient id="SVGID_23_" cx="50.8417" cy="56.3279" r="30.2039" gradientTransform="matrix(1 4.994693e-03 -3.733387e-03 0.7475 0.2109 13.971)" gradientUnits="userSpaceOnUse">
		<stop  offset="0" style="stop-color:#A80028"/>
		<stop  offset="0.404" style="stop-color:#A60028"/>
		<stop  offset="0.5496" style="stop-color:#9F0026"/>
		<stop  offset="0.6533" style="stop-color:#940024"/>
		<stop  offset="0.7372" style="stop-color:#830020"/>
		<stop  offset="0.8091" style="stop-color:#6D001C"/>
		<stop  offset="0.8715" style="stop-color:#520016"/>
		<stop  offset="0.9072" style="stop-color:#3F0012"/>
	</radialGradient>
	<path class="st29" d="M58,73.4c-0.5,0.1-1,0.2-1.5,0.3C57,73.6,57.5,73.5,58,73.4z"/>
	<path class="st4" d="M57.3,39.1c0.5,0.1,1,0.2,1.5,0.4C58.3,39.3,57.8,39.2,57.3,39.1z"/>
	
		<radialGradient id="SVGID_24_" cx="50.8417" cy="56.3279" r="30.2039" gradientTransform="matrix(1 4.994693e-03 -3.733387e-03 0.7475 0.2109 13.971)" gradientUnits="userSpaceOnUse">
		<stop  offset="0" style="stop-color:#A80028"/>
		<stop  offset="0.404" style="stop-color:#A60028"/>
		<stop  offset="0.5496" style="stop-color:#9F0026"/>
		<stop  offset="0.6533" style="stop-color:#940024"/>
		<stop  offset="0.7372" style="stop-color:#830020"/>
		<stop  offset="0.8091" style="stop-color:#6D001C"/>
		<stop  offset="0.8715" style="stop-color:#520016"/>
		<stop  offset="0.9072" style="stop-color:#3F0012"/>
	</radialGradient>
	<path class="st30" d="M57.3,39.1c0.5,0.1,1,0.2,1.5,0.4C58.3,39.3,57.8,39.2,57.3,39.1z"/>
	<path class="st4" d="M53,38.5c-0.7,0-1.3-0.1-2-0.1v0C51.7,38.5,52.3,38.5,53,38.5z"/>
	
		<radialGradient id="SVGID_25_" cx="50.8417" cy="56.3279" r="30.2039" gradientTransform="matrix(1 4.994693e-03 -3.733387e-03 0.7475 0.2109 13.971)" gradientUnits="userSpaceOnUse">
		<stop  offset="0" style="stop-color:#A80028"/>
		<stop  offset="0.404" style="stop-color:#A60028"/>
		<stop  offset="0.5496" style="stop-color:#9F0026"/>
		<stop  offset="0.6533" style="stop-color:#940024"/>
		<stop  offset="0.7372" style="stop-color:#830020"/>
		<stop  offset="0.8091" style="stop-color:#6D001C"/>
		<stop  offset="0.8715" style="stop-color:#520016"/>
		<stop  offset="0.9072" style="stop-color:#3F0012"/>
	</radialGradient>
	<path class="st31" d="M53,38.5c-0.7,0-1.3-0.1-2-0.1v0C51.7,38.5,52.3,38.5,53,38.5z"/>
	<path class="st4" d="M53.1,38.5c0.6,0,1.2,0.1,1.8,0.2C54.3,38.6,53.7,38.6,53.1,38.5z"/>
	
		<radialGradient id="SVGID_26_" cx="50.8417" cy="56.3279" r="30.2039" gradientTransform="matrix(1 4.994693e-03 -3.733387e-03 0.7475 0.2109 13.971)" gradientUnits="userSpaceOnUse">
		<stop  offset="0" style="stop-color:#A80028"/>
		<stop  offset="0.404" style="stop-color:#A60028"/>
		<stop  offset="0.5496" style="stop-color:#9F0026"/>
		<stop  offset="0.6533" style="stop-color:#940024"/>
		<stop  offset="0.7372" style="stop-color:#830020"/>
		<stop  offset="0.8091" style="stop-color:#6D001C"/>
		<stop  offset="0.8715" style="stop-color:#520016"/>
		<stop  offset="0.9072" style="stop-color:#3F0012"/>
	</radialGradient>
	<path class="st32" d="M53.1,38.5c0.6,0,1.2,0.1,1.8,0.2C54.3,38.6,53.7,38.6,53.1,38.5z"/>
	<path class="st4" d="M55.3,38.8c0.6,0.1,1.1,0.2,1.7,0.3C56.4,38.9,55.8,38.8,55.3,38.8z"/>
	
		<radialGradient id="SVGID_27_" cx="50.8417" cy="56.3279" r="30.2039" gradientTransform="matrix(1 4.994693e-03 -3.733387e-03 0.7475 0.2109 13.971)" gradientUnits="userSpaceOnUse">
		<stop  offset="0" style="stop-color:#A80028"/>
		<stop  offset="0.404" style="stop-color:#A60028"/>
		<stop  offset="0.5496" style="stop-color:#9F0026"/>
		<stop  offset="0.6533" style="stop-color:#940024"/>
		<stop  offset="0.7372" style="stop-color:#830020"/>
		<stop  offset="0.8091" style="stop-color:#6D001C"/>
		<stop  offset="0.8715" style="stop-color:#520016"/>
		<stop  offset="0.9072" style="stop-color:#3F0012"/>
	</radialGradient>
	<path class="st33" d="M55.3,38.8c0.6,0.1,1.1,0.2,1.7,0.3C56.4,38.9,55.8,38.8,55.3,38.8z"/>
	<path class="st4" d="M65.3,70.5c0.4-0.3,0.9-0.5,1.3-0.8C66.2,70,65.8,70.2,65.3,70.5L65.3,70.5z"/>
	
		<radialGradient id="SVGID_28_" cx="50.8417" cy="56.3279" r="30.2039" gradientTransform="matrix(1 4.994693e-03 -3.733387e-03 0.7475 0.2109 13.971)" gradientUnits="userSpaceOnUse">
		<stop  offset="0" style="stop-color:#A80028"/>
		<stop  offset="0.404" style="stop-color:#A60028"/>
		<stop  offset="0.5496" style="stop-color:#9F0026"/>
		<stop  offset="0.6533" style="stop-color:#940024"/>
		<stop  offset="0.7372" style="stop-color:#830020"/>
		<stop  offset="0.8091" style="stop-color:#6D001C"/>
		<stop  offset="0.8715" style="stop-color:#520016"/>
		<stop  offset="0.9072" style="stop-color:#3F0012"/>
	</radialGradient>
	<path class="st34" d="M65.3,70.5c0.4-0.3,0.9-0.5,1.3-0.8C66.2,70,65.8,70.2,65.3,70.5L65.3,70.5z"/>
	<path class="st4" d="M72.4,63.8c-0.2,0.3-0.4,0.6-0.6,0.9C72,64.4,72.2,64.1,72.4,63.8z"/>
	
		<radialGradient id="SVGID_29_" cx="50.8417" cy="56.3279" r="30.2039" gradientTransform="matrix(1 4.994693e-03 -3.733387e-03 0.7475 0.2109 13.971)" gradientUnits="userSpaceOnUse">
		<stop  offset="0" style="stop-color:#A80028"/>
		<stop  offset="0.404" style="stop-color:#A60028"/>
		<stop  offset="0.5496" style="stop-color:#9F0026"/>
		<stop  offset="0.6533" style="stop-color:#940024"/>
		<stop  offset="0.7372" style="stop-color:#830020"/>
		<stop  offset="0.8091" style="stop-color:#6D001C"/>
		<stop  offset="0.8715" style="stop-color:#520016"/>
		<stop  offset="0.9072" style="stop-color:#3F0012"/>
	</radialGradient>
	<path class="st35" d="M72.4,63.8c-0.2,0.3-0.4,0.6-0.6,0.9C72,64.4,72.2,64.1,72.4,63.8z"/>
	<path class="st4" d="M67.8,68.9c-0.4,0.3-0.8,0.6-1.1,0.8C67,69.4,67.4,69.1,67.8,68.9z"/>
	
		<radialGradient id="SVGID_30_" cx="50.8417" cy="56.3279" r="30.2039" gradientTransform="matrix(1 4.994693e-03 -3.733387e-03 0.7475 0.2109 13.971)" gradientUnits="userSpaceOnUse">
		<stop  offset="0" style="stop-color:#A80028"/>
		<stop  offset="0.404" style="stop-color:#A60028"/>
		<stop  offset="0.5496" style="stop-color:#9F0026"/>
		<stop  offset="0.6533" style="stop-color:#940024"/>
		<stop  offset="0.7372" style="stop-color:#830020"/>
		<stop  offset="0.8091" style="stop-color:#6D001C"/>
		<stop  offset="0.8715" style="stop-color:#520016"/>
		<stop  offset="0.9072" style="stop-color:#3F0012"/>
	</radialGradient>
	<path class="st36" d="M67.8,68.9c-0.4,0.3-0.8,0.6-1.1,0.8C67,69.4,67.4,69.1,67.8,68.9z"/>
	<path class="st4" d="M69.9,67c-0.3,0.3-0.6,0.6-0.9,0.9C69.3,67.6,69.6,67.3,69.9,67z"/>
	
		<radialGradient id="SVGID_31_" cx="50.8417" cy="56.3279" r="30.2039" gradientTransform="matrix(1 4.994693e-03 -3.733387e-03 0.7475 0.2109 13.971)" gradientUnits="userSpaceOnUse">
		<stop  offset="0" style="stop-color:#A80028"/>
		<stop  offset="0.404" style="stop-color:#A60028"/>
		<stop  offset="0.5496" style="stop-color:#9F0026"/>
		<stop  offset="0.6533" style="stop-color:#940024"/>
		<stop  offset="0.7372" style="stop-color:#830020"/>
		<stop  offset="0.8091" style="stop-color:#6D001C"/>
		<stop  offset="0.8715" style="stop-color:#520016"/>
		<stop  offset="0.9072" style="stop-color:#3F0012"/>
	</radialGradient>
	<path class="st37" d="M69.9,67c-0.3,0.3-0.6,0.6-0.9,0.9C69.3,67.6,69.6,67.3,69.9,67z"/>
	<path class="st4" d="M68.8,68c-0.3,0.3-0.6,0.5-0.9,0.7C68.2,68.5,68.5,68.3,68.8,68z"/>
	
		<radialGradient id="SVGID_32_" cx="50.8417" cy="56.3279" r="30.2039" gradientTransform="matrix(1 4.994693e-03 -3.733387e-03 0.7475 0.2109 13.971)" gradientUnits="userSpaceOnUse">
		<stop  offset="0" style="stop-color:#A80028"/>
		<stop  offset="0.404" style="stop-color:#A60028"/>
		<stop  offset="0.5496" style="stop-color:#9F0026"/>
		<stop  offset="0.6533" style="stop-color:#940024"/>
		<stop  offset="0.7372" style="stop-color:#830020"/>
		<stop  offset="0.8091" style="stop-color:#6D001C"/>
		<stop  offset="0.8715" style="stop-color:#520016"/>
		<stop  offset="0.9072" style="stop-color:#3F0012"/>
	</radialGradient>
	<path class="st38" d="M68.8,68c-0.3,0.3-0.6,0.5-0.9,0.7C68.2,68.5,68.5,68.3,68.8,68z"/>
	<path class="st4" d="M71.7,64.8c-0.2,0.3-0.5,0.7-0.8,1C71.2,65.5,71.5,65.1,71.7,64.8z"/>
	
		<radialGradient id="SVGID_33_" cx="50.8417" cy="56.3279" r="30.2039" gradientTransform="matrix(1 4.994693e-03 -3.733387e-03 0.7475 0.2109 13.971)" gradientUnits="userSpaceOnUse">
		<stop  offset="0" style="stop-color:#A80028"/>
		<stop  offset="0.404" style="stop-color:#A60028"/>
		<stop  offset="0.5496" style="stop-color:#9F0026"/>
		<stop  offset="0.6533" style="stop-color:#940024"/>
		<stop  offset="0.7372" style="stop-color:#830020"/>
		<stop  offset="0.8091" style="stop-color:#6D001C"/>
		<stop  offset="0.8715" style="stop-color:#520016"/>
		<stop  offset="0.9072" style="stop-color:#3F0012"/>
	</radialGradient>
	<path class="st39" d="M71.7,64.8c-0.2,0.3-0.5,0.7-0.8,1C71.2,65.5,71.5,65.1,71.7,64.8z"/>
	<path class="st4" d="M73,62.7c-0.1,0.3-0.3,0.6-0.5,0.8C72.7,63.2,72.9,63,73,62.7z"/>
	
		<radialGradient id="SVGID_34_" cx="50.8417" cy="56.3279" r="30.2039" gradientTransform="matrix(1 4.994693e-03 -3.733387e-03 0.7475 0.2109 13.971)" gradientUnits="userSpaceOnUse">
		<stop  offset="0" style="stop-color:#A80028"/>
		<stop  offset="0.404" style="stop-color:#A60028"/>
		<stop  offset="0.5496" style="stop-color:#9F0026"/>
		<stop  offset="0.6533" style="stop-color:#940024"/>
		<stop  offset="0.7372" style="stop-color:#830020"/>
		<stop  offset="0.8091" style="stop-color:#6D001C"/>
		<stop  offset="0.8715" style="stop-color:#520016"/>
		<stop  offset="0.9072" style="stop-color:#3F0012"/>
	</radialGradient>
	<path class="st40" d="M73,62.7c-0.1,0.3-0.3,0.6-0.5,0.8C72.7,63.2,72.9,63,73,62.7z"/>
	<path class="st4" d="M70.8,66c-0.2,0.3-0.5,0.6-0.7,0.8C70.3,66.6,70.6,66.3,70.8,66z"/>
	
		<radialGradient id="SVGID_35_" cx="50.8417" cy="56.3279" r="30.2039" gradientTransform="matrix(1 4.994693e-03 -3.733387e-03 0.7475 0.2109 13.971)" gradientUnits="userSpaceOnUse">
		<stop  offset="0" style="stop-color:#A80028"/>
		<stop  offset="0.404" style="stop-color:#A60028"/>
		<stop  offset="0.5496" style="stop-color:#9F0026"/>
		<stop  offset="0.6533" style="stop-color:#940024"/>
		<stop  offset="0.7372" style="stop-color:#830020"/>
		<stop  offset="0.8091" style="stop-color:#6D001C"/>
		<stop  offset="0.8715" style="stop-color:#520016"/>
		<stop  offset="0.9072" style="stop-color:#3F0012"/>
	</radialGradient>
	<path class="st41" d="M70.8,66c-0.2,0.3-0.5,0.6-0.7,0.8C70.3,66.6,70.6,66.3,70.8,66z"/>
	<path class="st4" d="M70.3,46.1c0.3,0.3,0.6,0.7,0.9,1C70.9,46.8,70.6,46.5,70.3,46.1z"/>
	
		<radialGradient id="SVGID_36_" cx="50.8417" cy="56.3279" r="30.2039" gradientTransform="matrix(1 4.994693e-03 -3.733387e-03 0.7475 0.2109 13.971)" gradientUnits="userSpaceOnUse">
		<stop  offset="0" style="stop-color:#A80028"/>
		<stop  offset="0.404" style="stop-color:#A60028"/>
		<stop  offset="0.5496" style="stop-color:#9F0026"/>
		<stop  offset="0.6533" style="stop-color:#940024"/>
		<stop  offset="0.7372" style="stop-color:#830020"/>
		<stop  offset="0.8091" style="stop-color:#6D001C"/>
		<stop  offset="0.8715" style="stop-color:#520016"/>
		<stop  offset="0.9072" style="stop-color:#3F0012"/>
	</radialGradient>
	<path class="st42" d="M70.3,46.1c0.3,0.3,0.6,0.7,0.9,1C70.9,46.8,70.6,46.5,70.3,46.1z"/>
	<path class="st4" d="M72.1,48.4c0.2,0.4,0.5,0.7,0.7,1.1C72.6,49.2,72.4,48.8,72.1,48.4z"/>
	
		<radialGradient id="SVGID_37_" cx="50.8417" cy="56.3279" r="30.2039" gradientTransform="matrix(1 4.994693e-03 -3.733387e-03 0.7475 0.2109 13.971)" gradientUnits="userSpaceOnUse">
		<stop  offset="0" style="stop-color:#A80028"/>
		<stop  offset="0.404" style="stop-color:#A60028"/>
		<stop  offset="0.5496" style="stop-color:#9F0026"/>
		<stop  offset="0.6533" style="stop-color:#940024"/>
		<stop  offset="0.7372" style="stop-color:#830020"/>
		<stop  offset="0.8091" style="stop-color:#6D001C"/>
		<stop  offset="0.8715" style="stop-color:#520016"/>
		<stop  offset="0.9072" style="stop-color:#3F0012"/>
	</radialGradient>
	<path class="st43" d="M72.1,48.4c0.2,0.4,0.5,0.7,0.7,1.1C72.6,49.2,72.4,48.8,72.1,48.4z"/>
	<path class="st4" d="M73.9,52.2L73.9,52.2c-0.1-0.4-0.3-0.9-0.5-1.3C73.6,51.3,73.8,51.7,73.9,52.2z"/>
	
		<radialGradient id="SVGID_38_" cx="50.8417" cy="56.3279" r="30.2039" gradientTransform="matrix(1 4.994693e-03 -3.733387e-03 0.7475 0.2109 13.971)" gradientUnits="userSpaceOnUse">
		<stop  offset="0" style="stop-color:#A80028"/>
		<stop  offset="0.404" style="stop-color:#A60028"/>
		<stop  offset="0.5496" style="stop-color:#9F0026"/>
		<stop  offset="0.6533" style="stop-color:#940024"/>
		<stop  offset="0.7372" style="stop-color:#830020"/>
		<stop  offset="0.8091" style="stop-color:#6D001C"/>
		<stop  offset="0.8715" style="stop-color:#520016"/>
		<stop  offset="0.9072" style="stop-color:#3F0012"/>
	</radialGradient>
	<path class="st44" d="M73.9,52.2L73.9,52.2c-0.1-0.4-0.3-0.9-0.5-1.3C73.6,51.3,73.8,51.7,73.9,52.2z"/>
	<path class="st4" d="M71.3,47.3c0.2,0.3,0.5,0.6,0.7,1C71.8,47.9,71.6,47.6,71.3,47.3z"/>
	
		<radialGradient id="SVGID_39_" cx="50.8417" cy="56.3279" r="30.2039" gradientTransform="matrix(1 4.994693e-03 -3.733387e-03 0.7475 0.2109 13.971)" gradientUnits="userSpaceOnUse">
		<stop  offset="0" style="stop-color:#A80028"/>
		<stop  offset="0.404" style="stop-color:#A60028"/>
		<stop  offset="0.5496" style="stop-color:#9F0026"/>
		<stop  offset="0.6533" style="stop-color:#940024"/>
		<stop  offset="0.7372" style="stop-color:#830020"/>
		<stop  offset="0.8091" style="stop-color:#6D001C"/>
		<stop  offset="0.8715" style="stop-color:#520016"/>
		<stop  offset="0.9072" style="stop-color:#3F0012"/>
	</radialGradient>
	<path class="st45" d="M71.3,47.3c0.2,0.3,0.5,0.6,0.7,1C71.8,47.9,71.6,47.6,71.3,47.3z"/>
	<path class="st4" d="M68.1,44c0.8,0.6,1.5,1.3,2.1,1.9C69.5,45.3,68.8,44.6,68.1,44z"/>
	
		<radialGradient id="SVGID_40_" cx="50.8417" cy="56.3279" r="30.2039" gradientTransform="matrix(1 4.994693e-03 -3.733387e-03 0.7475 0.2109 13.971)" gradientUnits="userSpaceOnUse">
		<stop  offset="0" style="stop-color:#A80028"/>
		<stop  offset="0.404" style="stop-color:#A60028"/>
		<stop  offset="0.5496" style="stop-color:#9F0026"/>
		<stop  offset="0.6533" style="stop-color:#940024"/>
		<stop  offset="0.7372" style="stop-color:#830020"/>
		<stop  offset="0.8091" style="stop-color:#6D001C"/>
		<stop  offset="0.8715" style="stop-color:#520016"/>
		<stop  offset="0.9072" style="stop-color:#3F0012"/>
	</radialGradient>
	<path class="st46" d="M68.1,44c0.8,0.6,1.5,1.3,2.1,1.9C69.5,45.3,68.8,44.6,68.1,44z"/>
	<path class="st4" d="M72.9,49.7c0.2,0.4,0.4,0.8,0.6,1.2C73.3,50.4,73.1,50.1,72.9,49.7z"/>
	
		<radialGradient id="SVGID_41_" cx="50.8417" cy="56.3279" r="30.2039" gradientTransform="matrix(1 4.994693e-03 -3.733387e-03 0.7475 0.2109 13.971)" gradientUnits="userSpaceOnUse">
		<stop  offset="0" style="stop-color:#A80028"/>
		<stop  offset="0.404" style="stop-color:#A60028"/>
		<stop  offset="0.5496" style="stop-color:#9F0026"/>
		<stop  offset="0.6533" style="stop-color:#940024"/>
		<stop  offset="0.7372" style="stop-color:#830020"/>
		<stop  offset="0.8091" style="stop-color:#6D001C"/>
		<stop  offset="0.8715" style="stop-color:#520016"/>
		<stop  offset="0.9072" style="stop-color:#3F0012"/>
	</radialGradient>
	<path class="st47" d="M72.9,49.7c0.2,0.4,0.4,0.8,0.6,1.2C73.3,50.4,73.1,50.1,72.9,49.7z"/>
	<path class="st4" d="M68,44c-0.4-0.3-0.8-0.6-1.2-0.9l0,0C67.2,43.4,67.6,43.7,68,44z"/>
	
		<radialGradient id="SVGID_42_" cx="50.8417" cy="56.3279" r="30.2039" gradientTransform="matrix(1 4.994693e-03 -3.733387e-03 0.7475 0.2109 13.971)" gradientUnits="userSpaceOnUse">
		<stop  offset="0" style="stop-color:#A80028"/>
		<stop  offset="0.404" style="stop-color:#A60028"/>
		<stop  offset="0.5496" style="stop-color:#9F0026"/>
		<stop  offset="0.6533" style="stop-color:#940024"/>
		<stop  offset="0.7372" style="stop-color:#830020"/>
		<stop  offset="0.8091" style="stop-color:#6D001C"/>
		<stop  offset="0.8715" style="stop-color:#520016"/>
		<stop  offset="0.9072" style="stop-color:#3F0012"/>
	</radialGradient>
	<path class="st48" d="M68,44c-0.4-0.3-0.8-0.6-1.2-0.9l0,0C67.2,43.4,67.6,43.7,68,44z"/>
	<g>
		<g>
			<defs>
				<path id="SVGID_43_" d="M44.9,54.8c-0.2-5.5-2.6-8.5-8.3-8.5c-0.7,0-1.6,0.1-2.4,0.2c1.4,13,2,20.2,2,20.2c2.1-0.1,3.6,0,3.6,0
					l-0.4-4.3C43,62.2,45.1,59.6,44.9,54.8z M39.1,59.3c-0.4-4.4-0.5-6.1-0.7-9c1.6-0.1,2.5,1.6,2.6,4.6
					C41.3,58.2,40.5,59.1,39.1,59.3z"/>
			</defs>
			<clipPath id="SVGID_44_">
				<use xlink:href="#SVGID_43_"  style="overflow:visible;"/>
			</clipPath>
			<g class="st49">
				<g>
					<defs>
						<rect id="SVGID_45_" x="29.2" y="41.3" width="20.7" height="30.4"/>
					</defs>
					<clipPath id="SVGID_46_">
						<use xlink:href="#SVGID_45_"  style="overflow:visible;"/>
					</clipPath>
					<g style="clip-path:url(#SVGID_46_);">
						
							<image style="overflow:visible;" width="45" height="64" xlink:href="6551FDFE.jpg"  transform="matrix(0.48 0 0 0.48 28.8 41.28)">
						</image>
					</g>
				</g>
			</g>
		</g>
	</g>
	<g>
		<g>
			<defs>
				<path id="SVGID_47_" d="M51.1,45.9c-4.6,0-5.5,5.2-5.3,11.3c0.3,6.8,1.6,10,5.3,10c3.4,0,5-2.3,5.3-10
					C56.7,50.7,55.7,45.9,51.1,45.9z M52.4,57.1c0,6.2-0.4,7.4-1.2,7.4c-0.9,0-1.2-1.4-1.3-7.4c-0.1-5.5,0.2-7.6,1.2-7.6
					C52,49.5,52.4,51.2,52.4,57.1z"/>
			</defs>
			<clipPath id="SVGID_48_">
				<use xlink:href="#SVGID_47_"  style="overflow:visible;"/>
			</clipPath>
			<g class="st50">
				<g>
					<defs>
						<rect id="SVGID_49_" x="40.8" y="40.9" width="20.7" height="31.3"/>
					</defs>
					<clipPath id="SVGID_50_">
						<use xlink:href="#SVGID_49_"  style="overflow:visible;"/>
					</clipPath>
					<g style="clip-path:url(#SVGID_50_);">
						
							<image style="overflow:visible;" width="45" height="66" xlink:href="6551FE02.jpg"  transform="matrix(0.48 0 0 0.48 40.32 40.8)">
						</image>
					</g>
				</g>
			</g>
		</g>
	</g>
	<g>
		<g>
			<defs>
				<path id="SVGID_51_" d="M60.6,46.9c-0.8,0-1.6,0-2.6,0.1c-0.4,12.9-0.8,19.9-0.8,19.9c2.1-0.1,3.6,0,3.6,0L61,62
					c3.6-0.2,6.2-2.4,6.6-7.2C68.2,49.7,66.2,46.9,60.6,46.9z M63.8,55c-0.2,3-1.1,3.9-2.6,4.1c0.2-3.9,0.3-5.6,0.5-8.3
					C63.4,50.7,64,52.3,63.8,55z"/>
			</defs>
			<clipPath id="SVGID_52_">
				<use xlink:href="#SVGID_51_"  style="overflow:visible;"/>
			</clipPath>
			<g class="st51">
				<g>
					<defs>
						<rect id="SVGID_53_" x="52.2" y="41.9" width="20.5" height="30"/>
					</defs>
					<clipPath id="SVGID_54_">
						<use xlink:href="#SVGID_53_"  style="overflow:visible;"/>
					</clipPath>
					<g style="clip-path:url(#SVGID_54_);">
						
							<image style="overflow:visible;" width="44" height="63" xlink:href="6551FE05.jpg"  transform="matrix(0.48 0 0 0.48 51.84 41.76)">
						</image>
					</g>
				</g>
			</g>
		</g>
	</g>
</g>
<defs>
<script>

let icon = document.querySelector("#popcorn");

function logMyId() {
	console.log(this.id);
}

icon.addEventListener("click", () => { console.log(this); });

</script>
</defs>
</svg>
