<?xml version="1.0" encoding="utf-8"?>
<!-- Generator: Adobe Illustrator 25.0.0, SVG Export Plug-In . SVG Version: 6.00 Build 0)  -->
<svg version="1.1" id="sucker2" xmlns="http://www.w3.org/2000/svg" xmlns:xlink="http://www.w3.org/1999/xlink" x="0px" y="0px"
	 viewBox="0 0 100 100" style="enable-background:new 0 0 100 100;" xml:space="preserve">
<style type="text/css">
	.st0{fill:#AF5DDB;}
	.st1{fill:none;}
	.st2{fill:#C4B03B;}
	.st3{fill:#231F20;}
	.st4{fill:#5AB0E0;}
	.st5{fill:#DD715B;}
	.st6{fill:#FF00FF;}
	.st7{fill:#3DE24D;}
</style>
<circle class="st0" cx="50" cy="50" r="48.2"/>
<g>
	<g>
		<path class="st1" d="M64.3,77.2c0,0-0.1,0.1-0.1,0.1C64.2,77.3,64.3,77.2,64.3,77.2z"/>
		<path class="st1" d="M64.6,77c-0.1,0.1-0.1,0.1-0.2,0.1C64.5,77.1,64.5,77.1,64.6,77z"/>
		<path class="st1" d="M64,77.4c0.1,0,0.1,0,0.2-0.1C64.1,77.3,64,77.4,64,77.4C64,77.4,64,77.4,64,77.4z"/>
		<path class="st1" d="M63.9,77.4c0,0-0.1,0-0.1,0.1C63.8,77.4,63.9,77.4,63.9,77.4z"/>
		<path class="st1" d="M63.6,77.5c0,0-0.1,0-0.1,0C63.5,77.5,63.5,77.5,63.6,77.5z"/>
		<path class="st1" d="M63.5,77.5c0,0-0.1,0-0.1,0C63.4,77.5,63.4,77.5,63.5,77.5z"/>
		<path class="st1" d="M63.8,77.5c-0.1,0-0.1,0-0.1,0C63.7,77.5,63.7,77.5,63.8,77.5z"/>
		<path class="st1" d="M63.3,77.5C63.3,77.6,63.3,77.6,63.3,77.5C63.3,77.6,63.3,77.6,63.3,77.5z"/>
		<path class="st2" d="M42.2,54.6l21,23c0,0,0,0,0.1,0c0,0,0,0,0,0c0,0,0.1,0,0.1,0c0,0,0,0,0,0c0,0,0.1,0,0.1,0c0,0,0,0,0,0
			c0,0,0.1,0,0.1,0c0,0,0,0,0,0c0,0,0.1,0,0.1-0.1c0,0,0,0,0,0c0.1,0,0.1-0.1,0.2-0.1c0,0,0,0,0,0c0,0,0.1-0.1,0.1-0.1
			c0,0,0,0,0.1,0c0.1,0,0.1-0.1,0.2-0.1c0.5-0.4,0.7-1,0.7-1.2c-7.2-7.7-14.3-15.3-21.5-23C43.3,53.5,42.8,54.1,42.2,54.6z"/>
		<path class="st3" d="M65.8,75.4L51.1,59.7l-6.9-7.3c2.1-2.6,3.5-5.5,4.3-8.6c1.1-4.7,0.3-9.3-2.2-13.1c-2.6-3.9-6.5-6.8-11.1-8.2
			c-4.7-1.3-9.6-0.8-13.8,1.5c-4.3,2.4-7.4,6.4-8.8,11.3c-1.3,4.9-0.7,10.2,1.8,14.4c2.7,4.6,7.4,7.8,12.9,8.9
			c3.5,0.7,7.1,0.3,10.1-0.9c1.3-0.5,2.5-1.2,3.5-2c0,0,0,0,0,0c0.2-0.2,0.5-0.4,0.7-0.6l21,23l0.2,0.2l0.3,0c0.3,0,0.7-0.1,1-0.2
			c0.3-0.1,0.5-0.3,0.8-0.5c0.6-0.5,0.8-1.2,0.9-1.5l0.1-0.3L65.8,75.4z M27.6,57.5c-5.1-1-9.6-4-12.1-8.4c-2.4-4-3-8.9-1.7-13.5
			C15,31,17.9,27.2,22,24.9c0.5-0.3,1.1-0.6,1.6-0.8c7.6-3.1,17-0.2,21.8,7.1c2,3,2.7,6.6,2.4,10.1c-0.1-3.1-1-6.1-2.7-8.6
			c-2.2-3.2-5.5-5.6-9.4-6.7c-4-1.1-8.2-0.7-11.7,1.2c-3.4,1.8-6.1,5-7.5,8.7c-1.5,3.9-1.4,8,0.3,11.5c1.8,3.9,5.5,6.9,9.8,8.2
			c4,1.2,7.9,0.7,11.2-1.3c1.3-0.8,2.5-1.9,3.5-3.1c1.4-1.8,2.5-4,3-6.3c0.8-3.7,0.1-7.3-1.9-10.2C38.8,29.8,31.1,27,25,30.6
			c-4.7,2.8-8.1,9.4-5.3,15.2c1.4,2.9,4.2,5.1,7.5,6.1c3,0.8,6.1,0.4,8.4-1.1c3.7-2.4,6-7.8,4-12.3c-0.1-0.3-0.3-0.5-0.4-0.8
			c-2.4-4.2-7.9-5.9-12-3.8c-3.6,1.9-6.2,6.7-4.3,10.7c1,2,3,3.5,5.3,4.1c1.9,0.5,3.9,0.2,5.3-0.7c1.5-1,2.6-3,2.8-5
			c0.2-1.7-0.3-3.2-1.2-4.2c-0.1-0.1-0.2-0.2-0.3-0.3c-1.1-1-2.8-1.4-4.5-1.2c-1.3,0.1-2.3,0.7-2.7,1.5c-0.6,1-0.4,2.5,0.1,3.5
			c0.5,1,1.2,1.6,2,1.7c1.4,0.2,2.5-1.2,2.8-1.6c0.2-0.2,0.1-0.6-0.1-0.8c-0.1,0-0.1-0.1-0.2-0.1c-0.2-0.1-0.4,0-0.6,0.2
			c-0.3,0.5-1.1,1.3-1.7,1.2c-0.4-0.1-0.8-0.4-1.1-1.1c-0.4-0.9-0.5-1.9-0.2-2.4c0.3-0.5,1-0.8,1.9-0.9c0.1,0,0.1,0,0.2,0
			c1.2-0.1,2.8,0.2,3.7,1.2c0.7,0.8,1.1,1.9,0.9,3.3c-0.2,1.7-1.1,3.4-2.3,4.2c-1.1,0.8-2.7,1-4.4,0.6c-2-0.5-3.7-1.9-4.5-3.6
			c-1.7-3.4,0.6-7.6,3.8-9.2c0.3-0.1,0.5-0.2,0.8-0.3c3.8-1.4,8,0.6,9.8,3.7c2.4,4,0.2,9.4-3.2,11.6c-2.1,1.4-4.8,1.7-7.5,1
			c-3-0.8-5.5-2.9-6.8-5.5C18.2,40,21.2,34,25.5,31.5c1.5-0.9,3-1.3,4.6-1.4c4.4-0.3,8.9,2,11.2,5.3c1.8,2.6,2.4,5.9,1.7,9.3
			c-0.8,3.6-3,6.9-6,8.7c-3,1.8-6.6,2.2-10.3,1.1c-4-1.2-7.4-4-9.1-7.6c-3.1-6.7-0.1-15.1,6.7-18.8c4.4-2.4,9.7-2.2,14,0.1
			c2.2,1.2,4.2,2.9,5.7,5.1c4.1,6.1,2.8,13.8-1.2,18.8c-0.8,0.9-1.7,1.8-2.6,2.6C36.9,57.4,32.3,58.4,27.6,57.5z M64.6,77
			c-0.1,0.1-0.1,0.1-0.2,0.1c0,0,0,0-0.1,0c0,0-0.1,0.1-0.1,0.1c0,0,0,0,0,0c-0.1,0-0.1,0.1-0.2,0.1c0,0,0,0,0,0c0,0,0,0,0,0
			c0,0-0.1,0-0.1,0.1c0,0,0,0,0,0c-0.1,0-0.1,0-0.1,0c0,0,0,0,0,0c0,0-0.1,0-0.1,0c0,0,0,0,0,0c0,0-0.1,0-0.1,0c0,0,0,0,0,0
			c0,0-0.1,0-0.1,0l-21-23c0.5-0.5,1.1-1.1,1.5-1.7c7.2,7.7,14.3,15.3,21.5,23C65.2,76.1,65.1,76.6,64.6,77z"/>
		<path class="st4" d="M43,52.1c3.9-5,5.3-12.7,1.2-18.8c-1.5-2.2-3.5-3.9-5.7-5.1c2.6,1.6,4.7,3.9,5.9,6.9c2.3,5.7,0.9,12-3.2,16
			c-1,1.3-2.2,2.3-3.5,3.1c-3.2,2-7.2,2.4-11.2,1.3c-4.3-1.3-7.9-4.3-9.8-8.2c-1.7-3.6-1.8-7.7-0.3-11.5c1.4-3.7,4.1-6.9,7.5-8.7
			c3.5-1.9,7.7-2.3,11.7-1.2c3.9,1.1,7.2,3.5,9.4,6.7c1.7,2.5,2.6,5.5,2.7,8.6c0.3-3.5-0.4-7.1-2.4-10.1C40.7,24,31.2,21,23.6,24.1
			c-0.6,0.2-1.1,0.5-1.6,0.8c-4.1,2.2-7,6-8.2,10.7c-1.3,4.6-0.6,9.6,1.7,13.5c2.6,4.3,7,7.4,12.1,8.4c4.7,0.9,9.3-0.1,12.8-2.7
			C41.3,53.9,42.2,53.1,43,52.1z"/>
		<path class="st0" d="M44.3,35.2c-1.2-3-3.3-5.4-5.9-6.9c-4.3-2.3-9.6-2.4-14-0.1c-6.9,3.7-9.9,12.1-6.7,18.8
			c1.7,3.6,5.1,6.4,9.1,7.6c3.7,1.1,7.3,0.7,10.3-1.1c3-1.8,5.2-5.1,6-8.7c0.7-3.4,0.1-6.7-1.7-9.3c-2.3-3.4-6.8-5.7-11.2-5.3
			c3.6,0.5,7,3,8.6,6.3c0.3,0.7,0.6,1.3,0.8,2.1c2,4.5-0.3,9.9-4,12.3c-2.3,1.5-5.4,1.9-8.4,1.1c-3.3-0.9-6.1-3.2-7.5-6.1
			C16.9,40,20.3,33.4,25,30.6c6.1-3.6,13.8-0.7,17.2,4.2c2,2.9,2.6,6.5,1.9,10.2c-0.5,2.3-1.5,4.5-3,6.3
			C45.2,47.2,46.7,40.9,44.3,35.2z"/>
		<path class="st5" d="M38.8,36.3c-1.6-3.3-5-5.8-8.6-6.3c-1.6,0.1-3.1,0.6-4.6,1.4c-4.3,2.5-7.4,8.5-4.9,13.8
			c1.3,2.6,3.8,4.6,6.8,5.5c2.7,0.8,5.5,0.4,7.5-1c3.4-2.3,5.6-7.6,3.2-11.6c-1.8-3.1-6-5.1-9.8-3.7c2.5-0.3,4.9,1.6,6.2,4
			c0.1,0.1,0.2,0.2,0.3,0.3c1,1,1.4,2.5,1.2,4.2c-0.2,2.1-1.3,4-2.8,5c-1.4,1-3.3,1.3-5.3,0.7c-2.3-0.6-4.3-2.2-5.3-4.1
			c-2-4,0.7-8.8,4.3-10.7c4.1-2.1,9.6-0.4,12,3.8c0.2,0.3,0.3,0.5,0.4,0.8C39.4,37.7,39.1,37,38.8,36.3z"/>
		<path class="st6" d="M28.4,34.5c-0.3,0.1-0.5,0.2-0.8,0.3c-3.1,1.6-5.5,5.8-3.8,9.2c0.8,1.7,2.6,3,4.5,3.6
			c1.6,0.4,3.2,0.2,4.4-0.6c1.2-0.9,2.1-2.5,2.3-4.2c0.1-1.4-0.2-2.5-0.9-3.3c-0.9-1-2.5-1.3-3.7-1.2c0.7,0.4,1.2,1.3,1.4,2
			c0.1,0.2,0.2,0.6,0.1,1.1c0.1,0,0.1,0,0.2,0.1c0.2,0.2,0.3,0.5,0.1,0.8c-0.3,0.4-1.4,1.8-2.8,1.6c-0.8-0.1-1.5-0.7-2-1.7
			c-0.5-1-0.7-2.5-0.1-3.5c0.5-0.8,1.4-1.3,2.7-1.5c1.7-0.2,3.4,0.3,4.5,1.2C33.3,36,30.9,34.2,28.4,34.5z"/>
		<path class="st7" d="M30.4,38.3c-0.1,0-0.1,0-0.2,0c-0.9,0.1-1.6,0.5-1.9,0.9c-0.3,0.6-0.3,1.6,0.2,2.4c0.3,0.6,0.7,1,1.1,1.1
			c0.6,0.1,1.4-0.7,1.7-1.2c0.1-0.2,0.4-0.3,0.6-0.2c0.1-0.5,0-0.8-0.1-1.1C31.7,39.5,31.1,38.7,30.4,38.3z"/>
	</g>
	<g>
		<path class="st1" d="M35.7,77.2c0,0,0.1,0.1,0.1,0.1C35.8,77.3,35.7,77.2,35.7,77.2z"/>
		<path class="st1" d="M35.4,77c0.1,0.1,0.1,0.1,0.2,0.1C35.5,77.1,35.5,77.1,35.4,77z"/>
		<path class="st1" d="M36,77.4c-0.1,0-0.1,0-0.2-0.1C35.9,77.3,36,77.4,36,77.4C36,77.4,36,77.4,36,77.4z"/>
		<path class="st1" d="M36.1,77.4c0,0,0.1,0,0.1,0.1C36.2,77.4,36.1,77.4,36.1,77.4z"/>
		<path class="st1" d="M36.4,77.5c0,0,0.1,0,0.1,0C36.5,77.5,36.5,77.5,36.4,77.5z"/>
		<path class="st1" d="M36.5,77.5c0,0,0.1,0,0.1,0C36.6,77.5,36.6,77.5,36.5,77.5z"/>
		<path class="st1" d="M36.2,77.5c0.1,0,0.1,0,0.1,0C36.3,77.5,36.3,77.5,36.2,77.5z"/>
		<path class="st1" d="M36.7,77.5C36.7,77.6,36.7,77.6,36.7,77.5C36.7,77.6,36.7,77.6,36.7,77.5z"/>
		<path class="st2" d="M57.8,54.6l-21,23c0,0,0,0-0.1,0c0,0,0,0,0,0c0,0-0.1,0-0.1,0c0,0,0,0,0,0c0,0-0.1,0-0.1,0c0,0,0,0,0,0
			c0,0-0.1,0-0.1,0c0,0,0,0,0,0c0,0-0.1,0-0.1-0.1c0,0,0,0,0,0c-0.1,0-0.1-0.1-0.2-0.1c0,0,0,0,0,0c0,0-0.1-0.1-0.1-0.1
			c0,0,0,0-0.1,0c-0.1,0-0.1-0.1-0.2-0.1c-0.5-0.4-0.7-1-0.7-1.2c7.2-7.7,14.3-15.3,21.5-23C56.7,53.5,57.2,54.1,57.8,54.6z"/>
		<path class="st3" d="M34,75.7l0.1,0.3c0.1,0.3,0.3,1,0.9,1.5c0.2,0.2,0.5,0.4,0.8,0.5c0.3,0.1,0.6,0.2,1,0.2l0.3,0l0.2-0.2l21-23
			c0.2,0.2,0.5,0.4,0.7,0.6c0,0,0,0,0,0c1.1,0.8,2.3,1.5,3.5,2c3.1,1.3,6.6,1.6,10.1,0.9c5.4-1,10.1-4.3,12.9-8.9
			c2.5-4.2,3.2-9.5,1.8-14.4c-1.3-4.9-4.4-9-8.8-11.3c-4.1-2.3-9-2.8-13.8-1.5c-4.6,1.3-8.5,4.2-11.1,8.2c-2.5,3.8-3.2,8.5-2.2,13.1
			c0.7,3.1,2.2,6,4.3,8.6l-6.9,7.3L34.2,75.4L34,75.7z M59.6,54.8c-1-0.8-1.9-1.7-2.6-2.6c-3.9-5-5.3-12.7-1.2-18.8
			c1.5-2.2,3.5-3.9,5.7-5.1c4.3-2.3,9.6-2.4,14-0.1c6.9,3.7,9.9,12.1,6.7,18.8c-1.7,3.6-5.1,6.4-9.1,7.6c-3.7,1.1-7.3,0.7-10.3-1.1
			c-3-1.8-5.2-5.1-6-8.7c-0.7-3.4-0.1-6.7,1.7-9.3c2.3-3.4,6.8-5.7,11.2-5.3c1.6,0.1,3.1,0.6,4.6,1.4c4.3,2.5,7.4,8.5,4.9,13.8
			c-1.3,2.6-3.8,4.6-6.8,5.5c-2.7,0.8-5.5,0.4-7.5-1c-3.4-2.3-5.6-7.6-3.2-11.6c1.8-3.1,6-5.1,9.8-3.7c0.3,0.1,0.5,0.2,0.8,0.3
			c3.1,1.6,5.5,5.8,3.8,9.2c-0.8,1.7-2.6,3-4.5,3.6C70,48,68.4,47.8,67.2,47c-1.2-0.9-2.1-2.5-2.3-4.2c-0.1-1.4,0.2-2.5,0.9-3.3
			c0.9-1,2.5-1.3,3.7-1.2c0.1,0,0.1,0,0.2,0c0.9,0.1,1.6,0.5,1.9,0.9c0.3,0.6,0.3,1.6-0.2,2.4c-0.3,0.6-0.7,1-1.1,1.1
			c-0.6,0.1-1.4-0.7-1.7-1.2c-0.1-0.2-0.4-0.3-0.6-0.2c-0.1,0-0.1,0-0.2,0.1c-0.2,0.2-0.3,0.5-0.1,0.8c0.3,0.4,1.4,1.8,2.8,1.6
			c0.8-0.1,1.5-0.7,2-1.7c0.5-1,0.7-2.5,0.1-3.5c-0.5-0.8-1.4-1.3-2.7-1.5c-1.7-0.2-3.4,0.3-4.5,1.2c-0.1,0.1-0.2,0.2-0.3,0.3
			c-1,1-1.4,2.5-1.2,4.2c0.2,2.1,1.3,4,2.8,5c1.4,1,3.3,1.3,5.3,0.7c2.3-0.6,4.3-2.2,5.3-4.1c2-4-0.7-8.8-4.3-10.7
			c-4.1-2.1-9.6-0.4-12,3.8c-0.2,0.3-0.3,0.5-0.4,0.8c-2,4.5,0.3,9.9,4,12.3c2.3,1.5,5.4,1.9,8.4,1.1c3.3-0.9,6.1-3.2,7.5-6.1
			c2.8-5.8-0.6-12.4-5.3-15.2c-6.1-3.6-13.8-0.7-17.2,4.2c-2,2.9-2.6,6.5-1.9,10.2c0.5,2.3,1.5,4.5,3,6.3c1,1.3,2.2,2.3,3.5,3.1
			c3.2,2,7.2,2.4,11.2,1.3c4.3-1.3,7.9-4.3,9.8-8.2c1.7-3.6,1.8-7.7,0.3-11.5c-1.4-3.7-4.1-6.9-7.5-8.7c-3.5-1.9-7.7-2.3-11.7-1.2
			c-3.9,1.1-7.2,3.5-9.4,6.7c-1.7,2.5-2.6,5.5-2.7,8.6c-0.3-3.5,0.4-7.1,2.4-10.1C59.3,24,68.8,21,76.4,24.1
			c0.6,0.2,1.1,0.5,1.6,0.8c4.1,2.2,7,6,8.2,10.7c1.3,4.6,0.6,9.6-1.7,13.5c-2.6,4.3-7,7.4-12.1,8.4C67.7,58.4,63.1,57.4,59.6,54.8z
			 M34.7,75.9c7.2-7.7,14.3-15.3,21.5-23c0.5,0.6,1,1.2,1.5,1.7l-21,23c0,0,0,0-0.1,0c0,0,0,0,0,0c0,0-0.1,0-0.1,0c0,0,0,0,0,0
			c0,0-0.1,0-0.1,0c0,0,0,0,0,0c0,0-0.1,0-0.1,0c0,0,0,0,0,0c0,0-0.1,0-0.1-0.1c0,0,0,0,0,0c0,0,0,0,0,0c-0.1,0-0.1,0-0.2-0.1
			c0,0,0,0,0,0c0,0-0.1-0.1-0.1-0.1c0,0,0,0-0.1,0c-0.1,0-0.1-0.1-0.2-0.1C34.9,76.6,34.8,76.1,34.7,75.9z"/>
		<path class="st4" d="M57,52.1c-3.9-5-5.3-12.7-1.2-18.8c1.5-2.2,3.5-3.9,5.7-5.1c-2.6,1.6-4.7,3.9-5.9,6.9c-2.3,5.7-0.9,12,3.2,16
			c1,1.3,2.2,2.3,3.5,3.1c3.2,2,7.2,2.4,11.2,1.3c4.3-1.3,7.9-4.3,9.8-8.2c1.7-3.6,1.8-7.7,0.3-11.5c-1.4-3.7-4.1-6.9-7.5-8.7
			c-3.5-1.9-7.7-2.3-11.7-1.2c-3.9,1.1-7.2,3.5-9.4,6.7c-1.7,2.5-2.6,5.5-2.7,8.6c-0.3-3.5,0.4-7.1,2.4-10.1
			C59.3,24,68.8,21,76.4,24.1c0.6,0.2,1.1,0.5,1.6,0.8c4.1,2.2,7,6,8.2,10.7c1.3,4.6,0.6,9.6-1.7,13.5c-2.6,4.3-7,7.4-12.1,8.4
			c-4.7,0.9-9.3-0.1-12.8-2.7C58.7,53.9,57.8,53.1,57,52.1z"/>
		<path class="st0" d="M55.7,35.2c1.2-3,3.3-5.4,5.9-6.9c4.3-2.3,9.6-2.4,14-0.1c6.9,3.7,9.9,12.1,6.7,18.8
			c-1.7,3.6-5.1,6.4-9.1,7.6c-3.7,1.1-7.3,0.7-10.3-1.1c-3-1.8-5.2-5.1-6-8.7c-0.7-3.4-0.1-6.7,1.7-9.3c2.3-3.4,6.8-5.7,11.2-5.3
			c-3.6,0.5-7,3-8.6,6.3c-0.3,0.7-0.6,1.3-0.8,2.1c-2,4.5,0.3,9.9,4,12.3c2.3,1.5,5.4,1.9,8.4,1.1c3.3-0.9,6.1-3.2,7.5-6.1
			c2.8-5.8-0.6-12.4-5.3-15.2c-6.1-3.6-13.8-0.7-17.2,4.2c-2,2.9-2.6,6.5-1.9,10.2c0.5,2.3,1.5,4.5,3,6.3
			C54.8,47.2,53.3,40.9,55.7,35.2z"/>
		<path class="st5" d="M61.2,36.3c1.6-3.3,5-5.8,8.6-6.3c1.6,0.1,3.1,0.6,4.6,1.4c4.3,2.5,7.4,8.5,4.9,13.8
			c-1.3,2.6-3.8,4.6-6.8,5.5c-2.7,0.8-5.5,0.4-7.5-1c-3.4-2.3-5.6-7.6-3.2-11.6c1.8-3.1,6-5.1,9.8-3.7c-2.5-0.3-4.9,1.6-6.2,4
			c-0.1,0.1-0.2,0.2-0.3,0.3c-1,1-1.4,2.5-1.2,4.2c0.2,2.1,1.3,4,2.8,5c1.4,1,3.3,1.3,5.3,0.7c2.3-0.6,4.3-2.2,5.3-4.1
			c2-4-0.7-8.8-4.3-10.7c-4.1-2.1-9.6-0.4-12,3.8c-0.2,0.3-0.3,0.5-0.4,0.8C60.6,37.7,60.9,37,61.2,36.3z"/>
		<path class="st6" d="M71.6,34.5c0.3,0.1,0.5,0.2,0.8,0.3c3.1,1.6,5.5,5.8,3.8,9.2c-0.8,1.7-2.6,3-4.5,3.6C70,48,68.4,47.8,67.2,47
			c-1.2-0.9-2.1-2.5-2.3-4.2c-0.1-1.4,0.2-2.5,0.9-3.3c0.9-1,2.5-1.3,3.7-1.2c-0.7,0.4-1.2,1.3-1.4,2c-0.1,0.2-0.2,0.6-0.1,1.1
			c-0.1,0-0.1,0-0.2,0.1c-0.2,0.2-0.3,0.5-0.1,0.8c0.3,0.4,1.4,1.8,2.8,1.6c0.8-0.1,1.5-0.7,2-1.7c0.5-1,0.7-2.5,0.1-3.5
			c-0.5-0.8-1.4-1.3-2.7-1.5c-1.7-0.2-3.4,0.3-4.5,1.2C66.7,36,69.1,34.2,71.6,34.5z"/>
		<path class="st7" d="M69.6,38.3c0.1,0,0.1,0,0.2,0c0.9,0.1,1.6,0.5,1.9,0.9c0.3,0.6,0.3,1.6-0.2,2.4c-0.3,0.6-0.7,1-1.1,1.1
			c-0.6,0.1-1.4-0.7-1.7-1.2c-0.1-0.2-0.4-0.3-0.6-0.2c-0.1-0.5,0-0.8,0.1-1.1C68.3,39.5,68.9,38.7,69.6,38.3z"/>
	</g>
</g>
<defs>
<script>

let icon = document.querySelector("#sucker2");

function logMyId() {
	console.log(this.id);
}

icon.addEventListener("click", () => { console.log(this); });

</script>
</defs>
</svg>
