<?xml version="1.0" encoding="utf-8"?>
<!-- Generator: Adobe Illustrator 25.0.0, SVG Export Plug-In . SVG Version: 6.00 Build 0)  -->
<svg id="suckers" version="1.1" xmlns="http://www.w3.org/2000/svg" xmlns:xlink="http://www.w3.org/1999/xlink" x="0px" y="0px"
	 viewBox="0 0 100 100" style="enable-background:new 0 0 100 100;" xml:space="preserve">
<style type="text/css">
	.st0{fill:#5AB0E0;}
	.st1{fill:#97009B;}
	.st2{fill:#FF00FF;}
	.st3{fill:#FDA6FF;}
	.st4{fill:#E5D16E;}
	.st5{fill:#D8BE50;}
	.st6{fill:#893D1B;}
	.st7{fill:#DD715B;}
	.st8{fill:#FFE9F0;}
	.st9{fill:#1C478C;}
	.st10{fill:#E6FFFE;}
</style>
<g id="backing">
	<circle class="st0" cx="49.8" cy="50" r="48.2"/>
</g>
<g id="pinkSucker">
	<path d="M30.4,57.9c-0.2,0-0.4,0-0.6,0.1l0,0c-1.3,0.1-2.6,0-4-0.3c-0.5-0.1-1-0.2-1.4-0.4c0,0-0.1,0-0.1,0c-0.1,0-0.3-0.1-0.4-0.2
		c-6.4-2.4-10.2-9.1-8.7-16c1.6-7.5,9-12.4,16.6-10.7c7.5,1.6,12.4,9,10.7,16.6C41,53,36.1,57.2,30.4,57.9z"/>
	<path id="shade_6_" class="st1" d="M41.5,46.8C40,53.9,33,58.4,25.9,56.9c-7.1-1.5-11.6-8.5-10.1-15.5s8.5-11.6,15.5-10.1
		C38.5,32.8,43,39.7,41.5,46.8z"/>
	<path id="color_6_" class="st2" d="M38.4,44.9c-1.3,5.9-7.1,9.7-13,8.4c-5.9-1.3-9.7-7.1-8.4-13s7.1-9.7,13-8.4
		C35.9,33.1,39.7,39,38.4,44.9z"/>
	<path id="light_6_" class="st3" d="M28.5,39.2c-0.5,2.4-2.9,3.9-5.3,3.4s-3.9-2.9-3.4-5.3c0.5-2.4,2.9-3.9,5.3-3.4
		C27.5,34.5,29,36.8,28.5,39.2z"/>
	<g id="stick">
		<path d="M24.5,80.7c-0.1,0.1-1.1,0.9-2.4,0.6c-0.5-0.1-0.9-0.3-1.3-0.7c-0.4-0.4-0.5-0.7-0.6-0.8c0-0.1-0.1-0.2,0-0.3l3.5-22.3
			c0.1,0.1,0.3,0.1,0.4,0.2c0,0,0.1,0,0.1,0c-1.6,10-2.7,17-3.5,22.2c0,0,0,0,0,0.1c0,0,0,0,0,0c0,0,0,0,0,0c0,0,0,0,0,0
			c0,0,0,0.1,0.1,0.1c0,0,0,0,0,0c0,0,0,0,0,0c0,0,0,0,0,0c0,0,0,0,0,0c0,0,0,0,0.1,0.1c0,0,0,0,0.1,0.1c0,0,0,0,0.1,0.1
			c0,0,0,0,0,0c0,0,0.1,0.1,0.1,0.1c0,0,0.1,0.1,0.2,0.1c0.2,0.1,0.4,0.2,0.7,0.3c1,0.2,1.8-0.4,1.8-0.5l0-0.1L29.7,58
			c0.2,0,0.4,0,0.6-0.1l-5.7,22.5C24.6,80.5,24.6,80.6,24.5,80.7z"/>
		<path class="st4" d="M24.1,80.1c0.2-0.8-1.1-1.5-1.1-2.6c0-1,1.2-1.1,1.5-2.4c0.3-1.3-0.6-1.8-0.3-3c0.3-1,1.2-1,1.4-1.8
			c0.3-1.3-1.6-1.9-1.6-3.5c0-1.7,2.1-2.1,2.1-3.9c0-1.3-1-2-0.6-2.7c0.3-0.4,0.8-0.4,1.6-0.6c0.7-0.2,1.6-0.7,2.5-1.7L24.1,80.1z"
			/>
		<path class="st5" d="M24.1,80.2c-0.1,0.1-0.8,0.7-1.8,0.5c-0.3-0.1-0.5-0.2-0.7-0.3c-0.1,0-0.1-0.1-0.2-0.1c0,0-0.1-0.1-0.1-0.1
			c0,0-0.1-0.1-0.1-0.1c0,0,0,0-0.1-0.1c0,0,0,0-0.1-0.1c0,0,0,0,0,0c0,0,0,0,0,0c0,0,0,0,0,0c0,0,0,0,0,0c0,0,0,0,0,0
			c0,0-0.1-0.1-0.1-0.1c0,0,0,0,0,0c0,0,0,0,0,0c0,0,0,0,0,0c0,0,0-0.1,0-0.1c0.8-5.2,1.9-12.2,3.5-22.2c0.5,0.2,0.9,0.3,1.4,0.4
			c1.3,0.3,2.7,0.4,4,0.3l0,0c-1,1-1.9,1.5-2.5,1.7c-0.9,0.3-1.4,0.2-1.6,0.6c-0.4,0.7,0.6,1.4,0.6,2.7c0,1.9-2.1,2.3-2.1,3.9
			c0,1.6,1.9,2.2,1.6,3.5c-0.2,0.9-1.1,0.8-1.4,1.8c-0.4,1.2,0.6,1.7,0.3,3c-0.3,1.3-1.5,1.3-1.5,2.4c0,1.1,1.3,1.7,1.1,2.6
			L24.1,80.2z"/>
	</g>
</g>
<g id="redSucker">
	<path d="M41.3,58c-0.3-0.1-0.5-0.1-0.8-0.2l0,0c-1.5-0.5-3-1.2-4.4-2.1c-0.5-0.3-1-0.7-1.5-1.1c0,0-0.1-0.1-0.1-0.1
		c-0.1-0.1-0.3-0.3-0.4-0.4C28,48.5,26.7,39,31.5,31.9c5.3-7.9,16-9.9,23.8-4.6c7.9,5.3,9.9,16,4.6,23.8
		C55.8,57.3,48.2,59.9,41.3,58z"/>
	<path id="shade_3_" class="st6" d="M59.1,50.5c-5,7.4-15,9.3-22.3,4.4s-9.3-15-4.4-22.3s15-9.3,22.3-4.4S64.1,43.1,59.1,50.5z"/>
	<path id="color_3_" class="st7" d="M56.6,46.9c-4.2,6.2-12.5,7.8-18.7,3.6S30,38,34.2,31.8s12.5-7.8,18.7-3.6S60.7,40.7,56.6,46.9z
		"/>
	<path id="light_3_" class="st8" d="M47.8,35.9c-1.7,2.5-5.1,3.2-7.6,1.5c-2.5-1.7-3.2-5.1-1.5-7.6c1.7-2.5,5.1-3.2,7.6-1.5
		C48.8,30,49.5,33.4,47.8,35.9z"/>
	<path d="M24.2,81.3c-0.2,0.1-1.6,0.6-3-0.4c-0.5-0.3-0.9-0.8-1.1-1.4c-0.2-0.6-0.3-1.1-0.3-1.2c0-0.1,0-0.3,0.1-0.4l14.3-23.8
		c0.1,0.1,0.3,0.3,0.4,0.4c0,0,0.1,0.1,0.1,0.1c-6.4,10.7-10.9,18.2-14.2,23.7c0,0,0,0.1,0,0.1c0,0,0,0,0,0.1c0,0,0,0,0,0
		c0,0,0,0,0,0.1c0,0.1,0,0.1,0,0.2c0,0,0,0,0,0c0,0,0,0,0,0c0,0,0,0,0,0c0,0,0,0,0,0.1c0,0,0,0.1,0,0.1c0,0,0,0.1,0,0.1
		c0,0,0,0.1,0,0.1c0,0,0,0,0,0.1c0,0.1,0.1,0.1,0.1,0.2c0,0.1,0.1,0.1,0.1,0.2c0.2,0.2,0.4,0.5,0.6,0.7c1.1,0.7,2.2,0.3,2.3,0.3
		l0.1-0.1l16.6-22.6c0.3,0.1,0.5,0.2,0.8,0.2L24.5,81C24.4,81.1,24.3,81.2,24.2,81.3z"/>
	<path class="st4" d="M24,80.5c0.5-0.9-0.6-2.2-0.1-3.4c0.5-1.2,1.8-0.7,2.8-2c0.9-1.3,0.1-2.3,1.1-3.5c0.9-1,1.8-0.5,2.4-1.4
		c0.9-1.3-0.9-2.9-0.2-4.7c0.7-1.9,3.3-1.4,4.2-3.5c0.6-1.5-0.2-2.8,0.6-3.4c0.5-0.4,1-0.1,2.2,0c0.9,0,2.1-0.1,3.7-0.8L24,80.5z"/>
	<path class="st5" d="M23.9,80.6c-0.1,0-1.3,0.5-2.3-0.3c-0.3-0.2-0.5-0.4-0.6-0.7c0-0.1-0.1-0.1-0.1-0.2c0-0.1-0.1-0.1-0.1-0.2
		c0-0.1,0-0.1-0.1-0.2c0,0,0-0.1,0-0.1c0,0,0-0.1,0-0.1c0,0,0,0,0-0.1c0,0,0,0,0,0c0,0,0,0,0,0c0,0,0,0,0,0c0,0,0,0,0,0
		c0-0.1,0-0.1,0-0.2c0,0,0,0,0-0.1c0,0,0,0,0,0c0,0,0,0,0-0.1c0-0.1,0-0.1,0-0.1c3.3-5.5,7.8-13,14.2-23.7c0.5,0.4,0.9,0.8,1.5,1.1
		c1.4,0.9,2.9,1.6,4.4,2.1l0,0c-1.6,0.7-2.8,0.8-3.7,0.8c-1.1-0.1-1.7-0.4-2.2,0c-0.8,0.6,0,1.9-0.6,3.4c-0.9,2.1-3.5,1.6-4.2,3.5
		c-0.7,1.8,1.2,3.3,0.2,4.7c-0.6,0.9-1.6,0.4-2.4,1.4c-1,1.2-0.1,2.2-1.1,3.5c-1,1.3-2.3,0.8-2.8,2c-0.5,1.2,0.6,2.6,0.1,3.4
		L23.9,80.6z"/>
</g>
<g id="blueSucker">
	<path d="M55,59.7c-0.3-0.2-0.6-0.4-0.9-0.6l0,0c-1.7-1.2-3.3-2.7-4.7-4.4c-0.5-0.6-1-1.3-1.4-2c0-0.1-0.1-0.1-0.1-0.2
		c-0.1-0.2-0.3-0.4-0.4-0.6c-5.5-9.5-3.3-21.9,5.6-28.9c9.8-7.7,24-6.1,31.7,3.7c7.7,9.8,6.1,24-3.7,31.7
		C73.4,64.5,62.8,64.7,55,59.7z"/>
	<path id="shade_2_" class="st9" d="M80.3,57.3c-9.2,7.3-22.5,5.7-29.8-3.5S44.8,31.3,54,24s22.5-5.7,29.8,3.5S89.5,50,80.3,57.3z"
		/>
	<path id="color_2_" class="st0" d="M78.5,51.8c-7.7,6.1-18.9,4.8-24.9-2.9S48.8,30,56.5,23.9s18.9-4.8,24.9,2.9
		S86.2,45.7,78.5,51.8z"/>
	<path id="light_2_" class="st10" d="M72,34.4c-3.1,2.5-7.6,1.9-10.1-1.2c-2.5-3.1-1.9-7.6,1.2-10.1s7.6-1.9,10.1,1.2
		C75.6,27.5,75.1,32,72,34.4z"/>
	<path d="M24.1,81.9c-0.2,0-2.3,0.1-3.6-1.6c-0.5-0.6-0.8-1.4-0.9-2.2c-0.1-0.8,0.1-1.5,0.1-1.6c0.1-0.2,0.2-0.3,0.3-0.5l27.4-24.1
		c0.1,0.2,0.3,0.4,0.4,0.6c0,0.1,0.1,0.1,0.1,0.2c-12.3,10.8-20.9,18.4-27.3,24c0,0,0,0.1,0,0.1c0,0,0,0.1,0,0.1c0,0,0,0,0,0.1
		c0,0,0,0.1,0,0.1c0,0.1,0,0.1,0,0.2c0,0,0,0,0,0.1c0,0,0,0,0,0.1c0,0,0,0,0,0c0,0,0,0.1,0,0.1c0,0,0,0.1,0,0.1c0,0,0,0.1,0,0.1
		c0,0,0,0.1,0,0.1c0,0,0,0,0,0.1c0,0.1,0,0.2,0,0.2c0,0.1,0,0.2,0.1,0.3c0.1,0.4,0.3,0.7,0.5,1.1c1,1.3,2.7,1.3,2.8,1.3l0.1-0.1
		l29.9-21.7c0.3,0.2,0.6,0.4,0.9,0.6L24.7,81.7C24.5,81.8,24.3,81.9,24.1,81.9z"/>
	<path class="st4" d="M24.2,80.8c1-0.9,0.1-3,1.3-4.3c1.1-1.2,2.6-0.1,4.3-1.4c1.7-1.3,1-2.9,2.8-4c1.5-0.9,2.5,0,3.6-0.8
		c1.7-1.3,0-4,1.6-5.9c1.7-2.1,4.7-0.4,6.7-2.7c1.3-1.6,0.8-3.6,2.1-4c0.8-0.3,1.3,0.4,2.7,0.9c1.1,0.4,2.7,0.8,4.9,0.5L24.2,80.8z"
		/>
	<path class="st5" d="M24.1,81c-0.1,0-1.8,0.1-2.8-1.3c-0.3-0.4-0.4-0.7-0.5-1.1c0-0.1-0.1-0.2-0.1-0.3c0-0.1,0-0.2,0-0.2
		c0-0.1,0-0.2,0-0.2c0,0,0-0.1,0-0.1c0,0,0-0.1,0-0.1c0,0,0-0.1,0-0.1c0,0,0,0,0,0c0,0,0,0,0-0.1c0,0,0,0,0-0.1c0,0,0,0,0,0
		c0-0.1,0-0.2,0-0.2c0,0,0-0.1,0-0.1c0,0,0,0,0-0.1c0,0,0-0.1,0-0.1c0-0.1,0-0.1,0-0.1c6.4-5.6,15-13.2,27.3-24
		c0.4,0.7,0.9,1.3,1.4,2c1.4,1.7,3,3.2,4.7,4.4l0,0c-2.2,0.3-3.8-0.1-4.9-0.5c-1.4-0.5-1.9-1.1-2.7-0.9c-1.3,0.4-0.7,2.4-2.1,4
		c-1.9,2.3-5,0.6-6.7,2.7c-1.6,2,0.1,4.6-1.6,5.9c-1.1,0.9-2.1-0.1-3.6,0.8c-1.7,1.1-1.1,2.7-2.8,4c-1.7,1.3-3.2,0.1-4.3,1.4
		c-1.2,1.3-0.2,3.5-1.3,4.3L24.1,81z"/>
</g>
<defs>
<script>

let icon = document.querySelector("#suckers");

function logMyId() {
	console.log(this.id);
}

icon.addEventListener("click", () => { console.log(this); });

</script>
</defs>
</svg>
