<?xml version="1.0" encoding="utf-8"?>
<!-- Generator: Adobe Illustrator 25.0.0, SVG Export Plug-In . SVG Version: 6.00 Build 0)  -->
<svg version="1.1" id="candyBox" xmlns="http://www.w3.org/2000/svg" xmlns:xlink="http://www.w3.org/1999/xlink" x="0px" y="0px"
	 viewBox="0 0 100 100" style="enable-background:new 0 0 100 100;" xml:space="preserve">
<style type="text/css">
	
	.st0{fill:#FF26EA;}
	.st1{fill:none;}
	.st2{fill:url(#SVGID_1_);}
	.st3{fill:url(#SVGID_2_);}
	.st4{fill:#27AAE1;}
	.st5{fill:#C63900;}
	.st6{fill:#00984E;}
	.st7{fill:#7FADFF;}
	.st8{fill:#F09300;}
	.st9{fill:#7F3F98;}
	.st10{fill:#FFFFFF;}
	.st11{fill:#76DCFF;}
	.st12{fill:#231F20;}

#letters{
	animation:blinky 1s infinite;
}

@keyframes blinky{
    0%{
		opacity:0%;
    }

    50%{
		opacity:100%;

    }

    100%{
        		opacity:0%;

    }
}
</style>
<circle class="st0" cx="50" cy="50" r="48.2"/>
<g id="box">
	<path class="st1" d="M12.4,65.1l66.8,9.9L12.4,65.1l0-30.4l66.8-9.9l-66.8,9.9V65.1z"/>
	<linearGradient id="SVGID_1_" gradientUnits="userSpaceOnUse" x1="12.3686" y1="49.8378" x2="79.1618" y2="49.8378">
		<stop  offset="0" style="stop-color:#9B00ED"/>
		<stop  offset="9.739427e-02" style="stop-color:#8506CA"/>
		<stop  offset="0.2009" style="stop-color:#740BAD"/>
		<stop  offset="0.3115" style="stop-color:#660E97"/>
		<stop  offset="0.4308" style="stop-color:#5C1186"/>
		<stop  offset="0.5652" style="stop-color:#56137D"/>
		<stop  offset="0.746" style="stop-color:#54137A"/>
	</linearGradient>
	<path class="st2" d="M79.2,24.8l-66.8,9.9v30.4l66.8,9.9l0,0L79.2,24.8L79.2,24.8z M77.2,69.5c0,1.8-1.6,3.2-3.4,2.9l-58-8.2
		c-1.5-0.2-2.5-1.5-2.5-2.9V38.4c0-1.5,1.1-2.7,2.5-2.9l58-8.2c1.8-0.3,3.4,1.1,3.4,2.9V69.5z"/>
	<linearGradient id="SVGID_2_" gradientUnits="userSpaceOnUse" x1="79.1618" y1="49.8378" x2="93.8065" y2="49.8378">
		<stop  offset="0" style="stop-color:#9B00ED"/>
		<stop  offset="9.739427e-02" style="stop-color:#8506CA"/>
		<stop  offset="0.2009" style="stop-color:#740BAD"/>
		<stop  offset="0.3115" style="stop-color:#660E97"/>
		<stop  offset="0.4308" style="stop-color:#5C1186"/>
		<stop  offset="0.5652" style="stop-color:#56137D"/>
		<stop  offset="0.746" style="stop-color:#54137A"/>
	</linearGradient>
	<path class="st3" d="M79.2,24.8l6.7,2.8v43.5l-6.7,3.7V24.8z"/>
	<path class="st4" d="M73.9,27.3l-58,8.2c-1.5,0.2-2.5,1.5-2.5,2.9v22.9c0,1.5,1.1,2.7,2.5,2.9l58,8.2c1.8,0.3,3.4-1.1,3.4-2.9V30.2
		C77.2,28.4,75.6,27,73.9,27.3z M68.6,49.3c-0.6,2.7-1.4,5.8-2.1,9.2c0,0.4,0,1.9,0.1,6.1c0,0.7-0.3,1.3-0.8,1.7
		c-0.4,0.3-0.9,0.5-1.4,0.5c-0.1,0-0.3,0-0.4,0c0,0-1.2-0.2-4.9-0.6c-1.2-0.1-2.1-1.2-2-2.3c0,0,0.1-1.3,0-5.8
		c-0.1-0.4-0.3-1.3-0.6-2.8c-0.2,1.2-0.4,2.4-0.8,3.6c-0.2,0.5-0.4,0.9-0.6,1.4c0.8,0.9,1.3,2.2,1.3,3.5c0,2.6-1.8,4.4-4,4.1
		c-1.6-0.2-2.9-1.5-3.4-3.2c-0.4,0-0.7,0.1-1.1,0.1c-0.5,0-1,0-1.5-0.1c-1-0.1-2.1-0.4-3.3-0.7c-0.1,0-0.1,0-0.2-0.1
		c-0.1,0-0.2,0-0.3,0c0,0-0.6,0-1.6,0c-0.6,0-1.2,0-1.8,0c-0.9,0-1.7-0.6-2-1.4c-0.2,0.1-0.5,0.1-0.7,0.1c-0.1,0-0.2,0-0.4,0
		c0,0-0.6-0.1-1.5-0.2c0,0-0.1,0.1-0.1,0.1c-0.4,0.4-0.9,0.6-1.5,0.6c-0.1,0-0.2,0-0.4,0c-0.1,0-1.2-0.2-2.7-0.3
		c-0.2,0-0.5-0.1-0.7-0.2c-0.1,0-0.3,0-0.4,0c-0.6-0.1-1.1-0.4-1.5-1c-0.1,0-0.8-0.1-2.3-0.3c-0.2,0-0.4-0.1-0.5-0.1
		c-0.6,0.4-1.4,0.6-2.2,0.6c-0.2,0-0.4,0-0.6,0c-0.4,0-0.7-0.1-1-0.2c-0.6,0.6-1.4,1-2.3,1.1c-1.9,0.1-3.4-1.7-3.4-4
		c0-1.7,0.8-3.3,2-4.1C17,53.1,17,51.6,17,50.1c0-1.9,0.1-3.7,0.3-5.3c-0.7-0.7-1.1-1.7-1.1-2.8c0-2.2,1.6-4.1,3.8-4.4
		c1-0.1,1.8,0.2,2.6,0.7c0,0,0,0,0,0c1,0,1.9,0.4,2.7,1.1c0.3-0.6,0.9-1.1,1.5-1.2c2.1-0.4,3.8-0.6,3.9-0.6c0.1,0,0.1,0,0.2,0
		c0.1,0,0.2,0,0.2,0c0.9-1.9,2.5-3.3,4.3-3.5c1.7-0.2,3.3,0.6,4.3,2.2c0.5,0,1.2-0.1,2.1-0.2c0.1,0,0.2,0,0.3,0
		c0.4,0,0.9,0.1,1.2,0.4c1-0.3,2-0.6,3-0.7c0.3,0,0.7-0.1,1-0.1c0.4-2.4,2.1-4.3,4.2-4.6c2.4-0.3,4.4,1.6,4.6,4.5
		c0.7-0.1,1.8-0.3,3.2-0.5c0.1,0,0.2,0,0.3,0c0.5,0,0.9,0.2,1.3,0.4c0.4,0.3,0.6,0.7,0.8,1.1c0-0.3,0.1-0.6,0.1-1
		c0.2-1,1-1.8,2.1-1.8c0.1,0,1.6-0.1,5.5-0.5c0.1,0,0.2,0,0.3,0c0.6,0,1.2,0.3,1.6,0.7c0.2,0.2,0.3,0.5,0.4,0.8
		c2.4,1.1,4.1,3.6,4.1,6.7C75.9,45.6,72.6,49.1,68.6,49.3z"/>
	<path class="st5" d="M29.3,62.6c-0.1,0-0.3,0-0.4,0c-0.6-0.1-1.1-0.4-1.5-1c0,0,0,0,0,0c0.1,0,0.3,0,0.4,0c0.1,0,0.3,0,0.4,0
		C28.5,62,28.9,62.4,29.3,62.6z"/>
	<path class="st6" d="M32.2,38.1c-0.3-0.3-0.7-0.4-1.1-0.5c0.9-1.9,2.5-3.3,4.3-3.5c1.7-0.2,3.3,0.6,4.3,2.2c-0.5,0-0.8,0.1-0.8,0.1
		c-0.6,0-1.1,0.3-1.5,0.7c-0.2,0.2-0.3,0.4-0.4,0.7c-0.1,0-0.3,0-0.4,0c-0.1,0-0.2,0-0.3,0c-1.8,0.3-3,0.5-3.1,0.5
		c-0.2,0-0.4,0.1-0.6,0.3C32.5,38.3,32.4,38.2,32.2,38.1z"/>
	<path class="st0" d="M75.9,41.3c0,4.3-3.3,7.8-7.3,8c2-8.4,3.2-13.4,3.2-13.5c0.1-0.4,0.1-0.8,0-1.2C74.2,35.7,75.9,38.2,75.9,41.3
		z"/>
	<path class="st0" d="M17.3,44.8c-0.7-0.7-1.1-1.7-1.1-2.8c0-2.2,1.6-4.1,3.8-4.4c1-0.1,1.8,0.2,2.6,0.7c-0.2,0-0.4,0-0.5,0
		C19,38.7,17.7,41.3,17.3,44.8z"/>
	<path class="st7" d="M55.2,60.2c0.8,0.9,1.3,2.2,1.3,3.5c0,2.6-1.8,4.4-4,4.1c-1.6-0.2-2.9-1.5-3.4-3.2
		C51.8,64.4,53.9,62.8,55.2,60.2z"/>
	<path class="st8" d="M47.8,35.6c-0.1,0-0.3,0-0.4,0c0.4-2.4,2.1-4.3,4.2-4.6c2.4-0.3,4.4,1.6,4.6,4.5c-1.3,0.2-1.7,0.2-1.7,0.2
		c-0.6,0.1-1.2,0.4-1.5,0.9c-0.1,0.2-0.2,0.3-0.3,0.5C51.4,36.1,49.8,35.6,47.8,35.6z"/>
	<path class="st8" d="M20.8,61.5c-0.6,0.6-1.4,1-2.3,1.1c-1.9,0.1-3.4-1.7-3.4-4c0-1.7,0.8-3.3,2-4.1c0.1,1.1,0.3,2.1,0.5,3.1
		C18.2,59.7,19.3,61,20.8,61.5z"/>
	<path class="st9" d="M24,60.8c-0.5,0.2-1,0.4-1.6,0.4c-0.2,0-0.4,0-0.5,0c-4-0.5-4.3-5.7-4.3-11c0-5.5,0.5-10.7,4.5-11.2
		c0.2,0,0.3,0,0.5,0c0.9,0,1.7,0.3,2.4,1c0,0,0.1,0.1,0.1,0.1c0,0,0,0,0,0.1c-0.3,3.6-0.6,6.7-0.8,9.4c-0.5,0-0.9,0-1.2,0
		c0,0.2,0,0.4,0,0.6c0.4,0,0.8,0,1.1,0C24,50.6,24,51.1,24,51.6c-0.4,0-1.3,0-2.1,0c0.1,4.2-0.2,5.1-0.6,5c-0.5,0-0.7-1.5-0.7-6.5
		c0-4.8,0.1-6.5,0.7-6.6c0.5,0,0.6,1.1,0.6,4.4c0,0,0.9,0.1,2.5,0c0.1-4.6-0.7-7.8-2.9-7.5c-2.3,0.3-3.1,3.4-3.1,9.6
		c0,6.6,0.8,9.2,3,9.5c0.8,0.1,1.5-0.2,2.1-1.1c0,0.2,0,0.4,0,0.4C23.2,59.7,23.5,60.4,24,60.8z"/>
	<path class="st9" d="M33.5,62.2c0.1,0,0.2,0,0.4,0c-0.2,0.1-0.5,0.2-0.8,0.2c-0.1,0-0.2,0-0.3,0c0,0-1.1-0.2-2.8-0.3
		c-0.7-0.1-1.3-0.6-1.4-1.3c-0.2,0.2-0.5,0.2-0.8,0.2c-0.1,0-0.2,0-0.3,0c0,0-0.8-0.1-2.3-0.3c-0.8-0.1-1.5-0.9-1.4-1.7
		c0-0.1,0.8-7.3,1.8-18.8c0.1-0.7,0.6-1.3,1.3-1.4c2.1-0.4,3.8-0.6,3.8-0.6c0.1,0,0.1,0,0.2,0c0.4,0,0.7,0.1,1,0.4
		c0.1,0.1,0.2,0.2,0.3,0.3c-0.4,0.4-0.6,0.9-0.6,1.5c0.1,6.7,0.1,12,0.1,15.4c-1-8.8-1.7-16-1.7-16s-1.7,0.2-3.7,0.6
		c-1,11.7-1.8,18.8-1.8,18.8c1.7,0.2,2.4,0.3,2.4,0.3l0.2-3c0.8,0.1,1.5,0.1,1.9,0.2c0.2,2.7,0.3,4,0.3,4c1.1,0.1,2,0.2,2.5,0.3
		C32,61.6,32.7,62.1,33.5,62.2z"/>
	<path class="st9" d="M28,43.3c0.3,4.2,0.6,7.5,0.8,10.1c-1,0-1.5-0.1-1.5-0.1C27.6,48.6,27.9,44.9,28,43.3z"/>
	<path class="st9" d="M42.7,36.7c-0.2-0.1-0.3-0.1-0.5-0.1c-0.1,0-0.1,0-0.2,0c-1.8,0.3-2.9,0.3-2.9,0.3c-0.4,0-0.8,0.2-1.1,0.5
		c-0.3,0.3-0.4,0.7-0.4,1.1c0,0,0,0,0,0c-0.3-0.2-0.6-0.3-0.9-0.3c-0.1,0-0.1,0-0.2,0c-1.8,0.3-3,0.5-3,0.5
		c-0.7,0.2-1.2,0.8-1.2,1.5C32.3,52.4,32.2,60,32.2,60c0,0.8,0.6,1.5,1.4,1.5c1.6,0.2,2.8,0.4,2.8,0.4c0.1,0,0.2,0,0.2,0
		c0.4,0,0.7-0.1,1-0.4c0,0,0.1-0.1,0.1-0.1c0.1,0.4,0.1,0.6,0.1,0.6c0.2,0.7,0.8,1.2,1.5,1.2c0.6,0,1.2,0,1.8,0c0.5,0,0.9,0,1.2,0
		c-0.3-0.4-0.6-0.9-0.6-1.4c0.1-11.7,0-23.2,0-23.4C41.7,37.7,42.1,37.1,42.7,36.7z M38.4,61.7c0,0-1.2-5.3-3.1-13.5
		c0,2.8,0.1,7.2,0.3,12.2c0,0-1.2-0.2-2.9-0.4c0,0,0.1-7.5-0.1-19.7c0,0,1.1-0.2,2.9-0.5c0,0,1.2,5.8,3,13.4
		c-0.1-3.2-0.2-8.4-0.5-14.7c0,0,1.1,0,3.1-0.3c0,0,0.1,8.9,0.4,23.6C41.6,61.7,40.5,61.8,38.4,61.7z"/>
	<path class="st9" d="M49.1,50.3c0,8-0.9,8.7-2.4,8.5c0,0-0.1-8.6-0.2-17C48.4,41.3,49.1,43.6,49.1,50.3z"/>
	<path class="st9" d="M52.6,37.8c-1.2-1-2.7-1.6-4.8-1.6c-0.4,0-0.9,0-1.4,0.1c-1,0.1-2,0.4-3.1,0.7c-0.6,0.2-1,0.8-1,1.5
		c0,0.1,0.1,11.6,0,23.4c0,0.7,0.4,1.3,1.1,1.5c1.1,0.4,2.2,0.6,3.2,0.7c0.5,0.1,1,0.1,1.4,0.1c6.6,0,7.9-6.5,8.2-10.8
		c-0.7-3.2-1.8-8.1-3.5-15C52.6,38.2,52.6,38,52.6,37.8z M45.8,62.5c-0.9-0.1-1.9-0.3-2.9-0.7c0.1-11.9,0-23.4,0-23.4
		c1-0.4,2-0.6,2.8-0.7c5.7-0.7,8,3.4,8,12.8C53.7,60.1,50.9,63.1,45.8,62.5z"/>
	<path class="st9" d="M69.8,33.7c-0.1,0-0.1,0-0.2,0c-4,0.5-5.5,0.5-5.5,0.5c-0.7,0-1.4,0.6-1.5,1.3c-0.3,1.8-0.5,3.5-0.8,5
		c-0.3-2.3-0.5-3.7-0.5-3.7c-0.1-0.4-0.3-0.8-0.6-1c-0.3-0.2-0.6-0.3-0.9-0.3c-0.1,0-0.2,0-0.2,0c-4,0.6-4.9,0.7-5,0.7
		c-0.4,0-0.8,0.3-1.1,0.6c-0.3,0.4-0.3,0.8-0.2,1.2c3.2,13.1,4.4,19,4.5,19.9c0.1,4.6,0,5.9,0,5.9c-0.1,0.8,0.6,1.6,1.4,1.7
		c3.8,0.3,4.9,0.6,5,0.6c0.1,0,0.2,0,0.3,0c0.4,0,0.7-0.1,1-0.4c0.4-0.3,0.6-0.8,0.5-1.2c-0.2-4.5-0.1-5.9-0.1-6.2
		c3.1-13.7,5.4-22.7,5.4-22.8c0.1-0.5,0-1-0.3-1.4C70.7,33.9,70.2,33.7,69.8,33.7z M63.4,58.2c0,0-0.1,0.8,0.1,6.5
		c0,0-1.1-0.2-5.1-0.6c0,0,0.1-1.3,0-6.2c0,0-1.1-5.6-4.6-20c0,0,0.9-0.1,5-0.8c0,0,0.8,5.6,2.1,13.3c0,0,1-6.3,2.3-14.6
		c0,0,1.5-0.1,5.7-0.5C68.9,35.2,66.6,44.2,63.4,58.2z"/>
	<path class="st10" d="M71.8,34.6c-0.1-0.3-0.2-0.5-0.4-0.8c-0.4-0.5-1-0.7-1.6-0.7c-0.1,0-0.2,0-0.3,0c-3.9,0.5-5.4,0.5-5.5,0.5
		c-1,0-1.9,0.8-2.1,1.8c0,0.3-0.1,0.6-0.1,1c-0.1-0.4-0.4-0.8-0.8-1.1c-0.4-0.3-0.8-0.4-1.3-0.4c-0.1,0-0.2,0-0.3,0
		c-1.4,0.2-2.5,0.4-3.2,0.5c-1.3,0.2-1.7,0.2-1.7,0.2c-0.6,0.1-1.2,0.4-1.5,0.9c-0.1,0.2-0.2,0.3-0.3,0.5c-1.3-1-2.9-1.5-4.9-1.5
		c-0.1,0-0.3,0-0.4,0c-0.3,0-0.7,0-1,0.1c-1,0.1-2,0.3-3,0.7C43,36.1,42.6,36,42.2,36c-0.1,0-0.2,0-0.3,0c-0.9,0.1-1.6,0.2-2.1,0.2
		c-0.5,0-0.8,0.1-0.8,0.1c-0.6,0-1.1,0.3-1.5,0.7c-0.2,0.2-0.3,0.4-0.4,0.7c-0.1,0-0.3,0-0.4,0c-0.1,0-0.2,0-0.3,0
		c-1.8,0.3-3,0.5-3.1,0.5c-0.2,0-0.4,0.1-0.6,0.3c-0.1-0.1-0.2-0.3-0.4-0.4c-0.3-0.3-0.7-0.4-1.1-0.5c-0.1,0-0.2,0-0.2,0
		c-0.1,0-0.1,0-0.2,0c-0.1,0-1.8,0.2-3.9,0.6c-0.7,0.1-1.3,0.6-1.5,1.2c-0.7-0.7-1.7-1.1-2.7-1.1c0,0,0,0,0,0c-0.2,0-0.4,0-0.5,0
		c-3,0.4-4.2,3-4.7,6.5C17,46.4,17,48.2,17,50.1c0,1.5,0,3,0.2,4.4c0.1,1.1,0.3,2.1,0.5,3.1c0.6,2.1,1.6,3.4,3.1,3.9
		c0.3,0.1,0.7,0.2,1,0.2c0.2,0,0.4,0,0.6,0c0.8,0,1.5-0.2,2.2-0.6c0.2,0.1,0.3,0.1,0.5,0.1c1.4,0.2,2.2,0.3,2.3,0.3c0,0,0,0,0,0
		c0.1,0,0.3,0,0.4,0c0.1,0,0.3,0,0.4,0c0.2,0.4,0.6,0.8,1.1,1c0.2,0.1,0.4,0.2,0.7,0.2c1.5,0.1,2.6,0.3,2.7,0.3c0.1,0,0.2,0,0.4,0
		c0.6,0,1.1-0.2,1.5-0.6c0,0,0.1-0.1,0.1-0.1c0.9,0.1,1.5,0.2,1.5,0.2c0.1,0,0.2,0,0.4,0c0.2,0,0.5,0,0.7-0.1c0.3,0.8,1.1,1.4,2,1.4
		c0.6,0,1.2,0,1.8,0c1,0,1.6,0,1.6,0c0.1,0,0.2,0,0.3,0c0.1,0,0.1,0.1,0.2,0.1c1.1,0.4,2.3,0.6,3.3,0.7c0.5,0.1,1,0.1,1.5,0.1
		c0.4,0,0.8,0,1.1-0.1c2.7-0.3,4.8-1.9,6.1-4.5c0.2-0.4,0.4-0.9,0.6-1.4c0.4-1.2,0.7-2.4,0.8-3.6c0.3,1.5,0.5,2.4,0.6,2.8
		c0.1,4.4,0,5.7,0,5.8c-0.1,1.2,0.8,2.2,2,2.3c3.7,0.3,4.9,0.6,4.9,0.6c0.1,0,0.3,0,0.4,0c0.5,0,1-0.2,1.4-0.5
		c0.5-0.4,0.8-1.1,0.8-1.7c-0.1-4.3-0.1-5.7-0.1-6.1c0.8-3.4,1.5-6.5,2.1-9.2c2-8.4,3.2-13.4,3.2-13.5C72,35.4,72,35,71.8,34.6z
		 M22.4,61.2c-0.2,0-0.4,0-0.5,0c-4-0.5-4.3-5.7-4.3-11c0-5.5,0.5-10.7,4.5-11.2c0.2,0,0.3,0,0.5,0c0.9,0,1.7,0.3,2.4,1
		c0,0,0.1,0.1,0.1,0.1c0,0,0,0,0,0.1c-0.3,3.6-0.6,6.7-0.8,9.4c-0.5,0-0.9,0-1.2,0c0,0.2,0,0.4,0,0.6c0.4,0,0.8,0,1.1,0
		C24,50.6,24,51.1,24,51.6c-0.3,3.6-0.6,6-0.7,6.9c0,0.2,0,0.4,0,0.4c-0.1,0.7,0.2,1.4,0.8,1.9C23.5,61.1,23,61.2,22.4,61.2z
		 M33.1,62.5c-0.1,0-0.2,0-0.3,0c0,0-1.1-0.2-2.8-0.3c-0.7-0.1-1.3-0.6-1.4-1.3c-0.2,0.2-0.5,0.2-0.8,0.2c-0.1,0-0.2,0-0.3,0
		c0,0-0.8-0.1-2.3-0.3c-0.8-0.1-1.5-0.9-1.4-1.7c0-0.1,0.8-7.3,1.8-18.8c0.1-0.7,0.6-1.3,1.3-1.4c2.1-0.4,3.8-0.6,3.8-0.6
		c0.1,0,0.1,0,0.2,0c0.4,0,0.7,0.1,1,0.4c0.1,0.1,0.2,0.2,0.3,0.3c-0.4,0.4-0.6,0.9-0.6,1.5c0.1,6.7,0.1,12,0.1,15.4
		c0,2.7,0,4.3,0,4.3c0,0.3,0.1,0.6,0.1,0.8c0.3,0.7,1,1.3,1.8,1.4c0.1,0,0.2,0,0.4,0C33.6,62.4,33.4,62.5,33.1,62.5z M41.7,61.9
		c0,0.6,0.2,1.1,0.6,1.4c-0.3,0-0.7,0-1.2,0c-0.5,0-1.1,0-1.8,0c-0.7,0-1.3-0.5-1.5-1.2c0,0,0-0.2-0.1-0.6c0,0-0.1,0.1-0.1,0.1
		c-0.3,0.3-0.7,0.4-1,0.4c-0.1,0-0.2,0-0.2,0c0,0-1.2-0.2-2.8-0.4c-0.8-0.1-1.4-0.8-1.4-1.5c0-0.1,0.1-7.7-0.1-19.7
		c0-0.7,0.5-1.4,1.2-1.5c0,0,1.2-0.3,3-0.5c0.1,0,0.2,0,0.2,0c0.3,0,0.7,0.1,0.9,0.3c0,0,0,0,0,0c0-0.4,0.1-0.8,0.4-1.1
		c0.3-0.3,0.7-0.5,1.1-0.5c0,0,1.1,0,2.9-0.3c0.1,0,0.1,0,0.2,0c0.2,0,0.3,0,0.5,0.1c-0.6,0.4-1,1.1-1,1.8
		C41.7,38.6,41.7,50.1,41.7,61.9z M48,64.1c-0.5,0-0.9,0-1.4-0.1c-1-0.1-2.1-0.4-3.2-0.7c-0.6-0.2-1.1-0.8-1.1-1.5
		c0.1-11.8,0-23.2,0-23.4c0-0.7,0.4-1.2,1-1.5c1.1-0.4,2.1-0.6,3.1-0.7c0.5-0.1,0.9-0.1,1.4-0.1c2,0,3.6,0.6,4.8,1.6
		c0,0.2,0,0.4,0.1,0.5c1.7,6.9,2.8,11.8,3.5,15C55.9,57.6,54.5,64.1,48,64.1z M71.3,35.6c0,0.1-2.3,9-5.4,22.8c0,0.3,0,1.7,0.1,6.2
		c0,0.5-0.2,0.9-0.5,1.2c-0.3,0.2-0.6,0.4-1,0.4c-0.1,0-0.2,0-0.3,0c0,0-1.2-0.2-5-0.6c-0.8-0.1-1.5-0.8-1.4-1.7c0,0,0.1-1.3,0-5.9
		c-0.2-0.9-1.4-6.7-4.5-19.9c-0.1-0.4,0-0.9,0.2-1.2c0.3-0.4,0.7-0.6,1.1-0.6c0,0,0.9-0.1,5-0.7c0.1,0,0.2,0,0.2,0
		c0.3,0,0.7,0.1,0.9,0.3c0.3,0.2,0.6,0.6,0.6,1c0,0,0.2,1.4,0.5,3.7c0.2-1.6,0.5-3.2,0.8-5c0.1-0.7,0.7-1.3,1.5-1.3
		c0,0,1.5-0.1,5.5-0.5c0.1,0,0.1,0,0.2,0c0.4,0,0.9,0.2,1.2,0.5C71.3,34.6,71.4,35.1,71.3,35.6z"/>
	<g id="letters">
		<path class="st11" d="M24,51.6c-0.3,3.6-0.6,6-0.7,6.9c-0.5,0.9-1.3,1.2-2.1,1.1c-2.1-0.3-3-2.9-3-9.5c0-6.2,0.8-9.3,3.1-9.6
			c2.3-0.3,3,2.9,2.9,7.5c-1.5,0-2.5,0-2.5,0c0-3.3-0.1-4.5-0.6-4.4c-0.6,0-0.7,1.8-0.7,6.6c0,5,0.2,6.5,0.7,6.5
			c0.4,0,0.7-0.8,0.6-5C22.7,51.6,23.5,51.6,24,51.6z"/>
		<path class="st11" d="M26.2,40.3c-1,11.7-1.8,18.8-1.8,18.8c1.7,0.2,2.4,0.3,2.4,0.3l0.2-3c0.8,0.1,1.5,0.1,1.9,0.2
			c0.2,2.7,0.3,4,0.3,4c1.1,0.1,2,0.2,2.5,0.3c-0.1-0.2-0.1-0.5-0.1-0.8c0,0,0-1.6,0-4.3c-1-8.8-1.7-16-1.7-16S28.3,39.9,26.2,40.3z
			 M27.3,53.3c0.3-4.7,0.6-8.4,0.7-10.1c0.3,4.2,0.6,7.5,0.8,10.1C27.8,53.4,27.3,53.3,27.3,53.3z"/>
		<path class="st11" d="M41.2,38.1c0,0,0.1,8.9,0.4,23.6c0,0-1,0.1-3.2,0c0,0-1.2-5.3-3.1-13.5c0,2.8,0.1,7.2,0.3,12.2
			c0,0-1.2-0.2-2.9-0.4c0,0,0.1-7.5-0.1-19.7c0,0,1.1-0.2,2.9-0.5c0,0,1.2,5.8,3,13.4c-0.1-3.2-0.2-8.4-0.5-14.7
			C38.1,38.4,39.3,38.4,41.2,38.1z"/>
		<path class="st11" d="M45.7,37.8c-0.9,0.1-1.8,0.3-2.8,0.7c0,0,0.1,11.4,0,23.4c1,0.3,2,0.5,2.9,0.7c5.1,0.6,7.9-2.4,7.9-11.9
			C53.7,41.2,51.4,37.1,45.7,37.8z M46.8,58.8c0,0-0.1-8.6-0.2-17c1.8-0.5,2.5,1.9,2.5,8.5C49.1,58.3,48.2,59,46.8,58.8z"/>
		<path class="st11" d="M63.2,35.8c0,0,1.5-0.1,5.7-0.5c0,0-2.2,9-5.4,22.9c0,0-0.1,0.8,0.1,6.5c0,0-1.1-0.2-5.1-0.6
			c0,0,0.1-1.3,0-6.2c0,0-1.1-5.6-4.6-20c0,0,0.9-0.1,5-0.8c0,0,0.8,5.6,2.1,13.3C60.9,50.4,62,44.1,63.2,35.8z"/>
	</g>
	<path class="st12" d="M86.5,26.2l-6.7-2.8l-0.4-0.2l-0.4,0.1l-66.8,9.9l-1.3,0.2v1.3v30.4v1.3l1.3,0.2l66.8,9.9l0.5,0.1l0.5-0.3
		l6.7-3.7l0.8-0.4v-0.9V27.6v-1L86.5,26.2z M85.9,71.2l-6.7,3.7l0,0l-66.8-9.9V34.6l66.8-9.9h0l6.7,2.8V71.2z"/>
</g>
<defs>
<script>

let icon = document.querySelector("#candyBox");

function logMyId() {
	console.log(this.id);
}

icon.addEventListener("click", () => { console.log(this); });

</script>
</defs>
</svg>
