<?xml version="1.0" encoding="utf-8"?>
<!-- Generator: Adobe Illustrator 25.0.0, SVG Export Plug-In . SVG Version: 6.00 Build 0)  -->
<svg version="1.1" id="iceCream" xmlns="http://www.w3.org/2000/svg" xmlns:xlink="http://www.w3.org/1999/xlink" x="0px" y="0px"
	 viewBox="0 0 100 100" style="enable-background:new 0 0 100 100;" xml:space="preserve">
<style type="text/css">
	.st0{fill:#3DE24D;}
	.st1{fill:#DDC45B;}
	.st2{fill:#231F20;}
	.st3{fill:#1B8E29;}
	.st4{fill:#E3FFE9;}
</style>
<circle class="st0" cx="50" cy="50" r="48.2"/>
<g id="cone">
	<path class="st1" d="M59.4,41.3c0.5-0.2,1-0.5,1.5-0.9l0.2,1c-0.8,0.8-1.2,2.1-0.8,3.3c0.2,0.6,0.2,1.3-0.1,1.8
		c-0.3,0.6-0.8,1-1.4,1.2c-0.4,0.1-0.8,0.1-1.1,0.1C58.9,45.8,59.5,43.6,59.4,41.3z"/>
	<path class="st1" d="M40.9,51.4c1.5,1,3.1,1.7,4.9,1.9c0,0.3,0,0.6-0.1,0.9c-0.2,0.6-0.6,1.1-1.2,1.4c-1.2,0.6-2.6,0.2-3.3-1
		c-0.4-0.8-1.1-1.3-1.9-1.5c-0.1,0-0.3-0.1-0.4-0.1c0.3-0.2,0.5-0.4,0.8-0.6C40.2,52.1,40.6,51.8,40.9,51.4z"/>
	<path class="st1" d="M69,84.4c0.2,0.9-0.3,1.5-0.9,1.7c-0.5,0.3-1.3,0.3-1.9-0.4L64.7,84c0.9-1,1.1-2.4,0.5-3.6
		c-0.3-0.6-0.4-1.3-0.2-1.8c0.2-0.6,0.6-1.1,1.2-1.4c0.5-0.3,1-0.3,1.5-0.2L69,84.4z"/>
	<path class="st1" d="M47.7,65.2l-1.4-1.5c1.4-0.9,2-2.7,1.2-4.2c-0.6-1.2-0.2-2.6,1-3.3c1.2-0.6,2.6-0.2,3.3,1
		c0.4,0.8,1.1,1.3,1.9,1.6c0.8,0.2,1.6,0.2,2.4-0.2c1.6-0.8,2.1-2.8,1.3-4.3c-0.3-0.6-0.4-1.3-0.2-1.8c0.2-0.6,0.6-1.1,1.2-1.4
		c1.2-0.6,2.6-0.2,3.3,1c0.4,0.7,1,1.2,1.7,1.5l1.6,8.9c-0.1,0.1-0.2,0.1-0.3,0.2c-1.2,0.6-2.6,0.2-3.3-1c-0.8-1.6-2.8-2.1-4.3-1.3
		c-1.6,0.8-2.1,2.8-1.3,4.3c0.3,0.6,0.4,1.3,0.2,1.8c-0.2,0.6-0.6,1.1-1.2,1.4c-1.2,0.6-2.6,0.2-3.3-1c-0.4-0.8-1.1-1.3-1.9-1.5
		C49,64.9,48.3,64.9,47.7,65.2z"/>
	<path class="st1" d="M46.6,53.4c0.4,0,0.7,0.1,1.1,0.1c2.7,0,5.2-0.9,7.3-2.5c0,0,0,0,0.1,0c0.2-0.1,0.4-0.2,0.5-0.4l0-0.1
		c0.7-0.6,1.2-1.3,1.7-2c0.6,0.2,1.2,0.2,1.8-0.1c1.7-0.6,2.6-2.4,2-4c-0.2-0.6-0.2-1.3,0.1-1.8c0-0.1,0.1-0.1,0.1-0.2l1.8,10
		c-0.3-0.2-0.6-0.5-0.8-0.9c-0.8-1.6-2.8-2.1-4.3-1.3c-1.6,0.8-2.1,2.8-1.3,4.3c0.3,0.6,0.4,1.3,0.2,1.8c-0.2,0.6-0.6,1.1-1.2,1.4
		c-1.2,0.6-2.6,0.2-3.3-1c-0.4-0.8-1.1-1.3-1.9-1.5c-0.8-0.2-1.6-0.2-2.4,0.2c-1.6,0.8-2.1,2.8-1.3,4.3c0.6,1.2,0.2,2.6-1,3.3
		c0,0,0,0,0,0l-8.2-9.1c1.1-0.5,2.5,0,3,1.1c0.4,0.8,1.1,1.3,1.9,1.6c0.8,0.2,1.6,0.2,2.4-0.2C46,55.7,46.6,54.6,46.6,53.4z"/>
	<path class="st1" d="M38.1,51.8c0.2-0.2,0.5-0.3,0.7-0.5C38.6,51.5,38.4,51.6,38.1,51.8z"/>
	<path class="st1" d="M64.5,80.7c0.3,0.6,0.4,1.3,0.2,1.8c-0.1,0.3-0.3,0.6-0.5,0.9l-8.3-9.2c0.1-0.7,0.5-1.4,1.3-1.8
		c1.2-0.6,2.6-0.2,3.3,1c0.4,0.8,1.1,1.3,1.9,1.6c0.8,0.2,1.6,0.2,2.4-0.2c1.6-0.8,2.1-2.8,1.3-4.3c-0.3-0.6-0.4-1.3-0.2-1.8
		c0-0.1,0.1-0.3,0.2-0.4l1.4,7.8c-0.6,0-1.2,0.1-1.7,0.4C64.2,77.2,63.7,79.2,64.5,80.7z"/>
	<path class="st1" d="M55.3,73.6l-7-7.8c1-0.2,2.1,0.3,2.6,1.2c0.4,0.8,1.1,1.3,1.9,1.6c0.8,0.2,1.6,0.2,2.4-0.2
		c1.6-0.8,2.1-2.8,1.3-4.3c-0.3-0.6-0.4-1.3-0.2-1.8c0.2-0.6,0.6-1.1,1.2-1.4c1.2-0.6,2.6-0.2,3.3,1c0.8,1.6,2.8,2.1,4.3,1.3
		c0,0,0,0,0.1,0l0.8,4.1c-0.9,1-1.1,2.4-0.5,3.6c0.3,0.6,0.4,1.3,0.2,1.8c-0.2,0.6-0.6,1.1-1.2,1.4c-1.2,0.6-2.6,0.2-3.3-1
		c-0.4-0.8-1.1-1.3-1.9-1.5c-0.8-0.2-1.6-0.2-2.4,0.2C56.1,72.2,55.5,72.8,55.3,73.6z"/>
	<path class="st2" d="M70.5,84.1l-8.3-44.8c1.6-1.6,2.7-3.7,2.9-6c0.3-2.6-0.4-5.3-2.1-7.3c-0.6-0.8-1.4-1.5-2.2-2.1
		c0.1-1.6-0.4-3.1-1.4-4.3c-1.3-1.6-3.2-2.5-5.2-2.5c-0.2,0-0.5,0-0.7,0c-3.4-3.3-8-5.1-12.8-5.1v1.5l0-1.5c-4.2,0-8.1,1.4-11.4,4
		c-2.8,2.2-4.9,5.1-6,8.4c-1,2.8-1.3,5.8-0.8,8.7c-0.5,0.2-1,0.5-1.4,0.8c-2.8,2.2-3.3,6.4-1.1,9.2c0.6,0.8,1.4,1.4,2.4,1.9
		c0.2,2,1,3.9,2.3,5.6c2.1,2.6,5.2,4.1,8.5,4.1c1,0,1.9-0.1,2.9-0.4l29.2,32.4c0.6,0.7,1.4,1,2.3,1c0.5,0,0.9-0.1,1.4-0.3
		C70.1,86.8,70.8,85.5,70.5,84.1z M68.2,86.1c-0.5,0.3-1.3,0.3-1.9-0.4L64.7,84c0.9-1,1.1-2.4,0.5-3.6c-0.3-0.6-0.4-1.3-0.2-1.8
		c0.2-0.6,0.6-1.1,1.2-1.4c0.5-0.3,1-0.3,1.5-0.2l1.4,7.6C69.2,85.3,68.7,85.9,68.2,86.1z M47.6,53.5c2.7,0,5.2-0.9,7.3-2.5
		c0,0,0,0,0.1,0c0.2-0.1,0.4-0.2,0.5-0.4l0-0.1c0.7-0.6,1.2-1.3,1.7-2c0.6,0.2,1.2,0.2,1.8-0.1c1.7-0.6,2.6-2.4,2-4
		c-0.2-0.6-0.2-1.3,0.1-1.8c0-0.1,0.1-0.1,0.1-0.2l1.8,10c-0.3-0.2-0.6-0.5-0.8-0.9c-0.8-1.6-2.8-2.1-4.3-1.3
		c-1.6,0.8-2.1,2.8-1.3,4.3c0.3,0.6,0.4,1.3,0.2,1.8c-0.2,0.6-0.6,1.1-1.2,1.4c-1.2,0.6-2.6,0.2-3.3-1c-0.4-0.8-1.1-1.3-1.9-1.5
		c-0.8-0.2-1.6-0.2-2.4,0.2c-1.6,0.8-2.1,2.8-1.3,4.3c0.6,1.2,0.2,2.6-1,3.3c0,0,0,0,0,0l-8.2-9.1c1.1-0.5,2.5,0,3,1.1
		c0.4,0.8,1.1,1.3,1.9,1.6c0.8,0.2,1.6,0.2,2.4-0.2c1.1-0.6,1.7-1.7,1.7-2.9C46.9,53.5,47.3,53.5,47.6,53.5z M64.5,80.7
		c0.3,0.6,0.4,1.3,0.2,1.8c-0.1,0.3-0.3,0.6-0.5,0.9l-8.3-9.2c0.1-0.7,0.5-1.4,1.3-1.8c1.2-0.6,2.6-0.2,3.3,1
		c0.4,0.8,1.1,1.3,1.9,1.6c0.8,0.2,1.6,0.2,2.4-0.2c1.6-0.8,2.1-2.8,1.3-4.3c-0.3-0.6-0.4-1.3-0.2-1.8c0-0.1,0.1-0.3,0.2-0.4
		l1.4,7.8c-0.6,0-1.2,0.1-1.7,0.4C64.2,77.2,63.7,79.2,64.5,80.7z M48.3,65.8c1-0.2,2.1,0.3,2.6,1.2c0.4,0.8,1.1,1.3,1.9,1.6
		c0.8,0.2,1.6,0.2,2.4-0.2c1.6-0.8,2.1-2.8,1.3-4.3c-0.3-0.6-0.4-1.3-0.2-1.8c0.2-0.6,0.6-1.1,1.2-1.4c1.2-0.6,2.6-0.2,3.3,1
		c0.8,1.6,2.8,2.1,4.3,1.3c0,0,0,0,0.1,0l0.8,4.1c-0.9,1-1.1,2.4-0.5,3.6c0.3,0.6,0.4,1.3,0.2,1.8c-0.2,0.6-0.6,1.1-1.2,1.4
		c-1.2,0.6-2.6,0.2-3.3-1c-0.4-0.8-1.1-1.3-1.9-1.5c-0.8-0.2-1.6-0.2-2.4,0.2c-0.8,0.4-1.3,1.1-1.5,1.8L48.3,65.8z M46.3,63.6
		c1.4-0.9,2-2.7,1.2-4.2c-0.6-1.2-0.2-2.6,1-3.3c1.2-0.6,2.6-0.2,3.3,1c0.4,0.8,1.1,1.3,1.9,1.6c0.8,0.2,1.6,0.2,2.4-0.2
		c1.6-0.8,2.1-2.8,1.3-4.3c-0.3-0.6-0.4-1.3-0.2-1.8c0.2-0.6,0.6-1.1,1.2-1.4c1.2-0.6,2.6-0.2,3.3,1c0.4,0.7,1,1.2,1.7,1.5l1.6,8.9
		c-0.1,0.1-0.2,0.1-0.3,0.2c-1.2,0.6-2.6,0.2-3.3-1c-0.8-1.6-2.8-2.1-4.3-1.3c-1.6,0.8-2.1,2.8-1.3,4.3c0.3,0.6,0.4,1.3,0.2,1.8
		c-0.2,0.6-0.6,1.1-1.2,1.4c-1.2,0.6-2.6,0.2-3.3-1c-0.4-0.8-1.1-1.3-1.9-1.5c-0.6-0.2-1.3-0.2-1.9,0L46.3,63.6z M61.1,41.4
		c-0.8,0.8-1.2,2.1-0.8,3.3c0.2,0.6,0.2,1.3-0.1,1.8c-0.3,0.6-0.8,1-1.4,1.2c-0.4,0.1-0.8,0.1-1.1,0.1c1.2-1.9,1.8-4.2,1.7-6.5
		c0.5-0.2,1-0.5,1.5-0.9L61.1,41.4z M45.8,53.4c0,0.3,0,0.6-0.1,0.9c-0.2,0.6-0.6,1.1-1.2,1.4c-1.2,0.6-2.6,0.2-3.3-1
		c-0.4-0.8-1.1-1.3-1.9-1.5c-0.1,0-0.3-0.1-0.4-0.1c0.3-0.2,0.5-0.4,0.8-0.6c0.4-0.3,0.8-0.7,1.2-1.1C42.4,52.4,44.1,53.1,45.8,53.4
		z M33,53.3c-0.2,0-0.5,0-0.7,0c-0.1,0-0.2,0-0.2,0c-0.3,0-0.6-0.1-1-0.2c-0.1,0-0.1,0-0.2-0.1c-0.2-0.1-0.5-0.1-0.7-0.2
		c-0.1,0-0.2-0.1-0.3-0.1c-0.2-0.1-0.4-0.1-0.6-0.2c-0.1-0.1-0.2-0.1-0.3-0.2c-0.2-0.1-0.4-0.2-0.5-0.3c-0.1-0.1-0.2-0.1-0.3-0.2
		c-0.2-0.1-0.3-0.2-0.5-0.4c-0.1-0.1-0.2-0.2-0.3-0.2c-0.2-0.1-0.3-0.3-0.5-0.5c-0.1-0.1-0.2-0.1-0.2-0.2c-0.2-0.2-0.5-0.5-0.7-0.8
		c-1.3-1.7-2-3.7-2-5.7c-1-0.3-1.9-0.9-2.6-1.7c-1.7-2.2-1.4-5.4,0.8-7.1c0.3-0.3,0.7-0.5,1.1-0.6c0.4-0.2,0.7-0.3,1.1-0.4
		c-1.4-6.2,0.8-12.9,6.1-17c0.4-0.3,0.8-0.6,1.3-0.9c0.1-0.1,0.3-0.2,0.4-0.3c0.3-0.2,0.6-0.4,0.9-0.5c0.2-0.1,0.4-0.2,0.5-0.3
		c0.3-0.1,0.6-0.3,0.8-0.4c0.2-0.1,0.4-0.2,0.6-0.2c0.3-0.1,0.5-0.2,0.8-0.3c0.2-0.1,0.4-0.1,0.6-0.2c0.3-0.1,0.6-0.1,0.8-0.2
		c0.2,0,0.4-0.1,0.6-0.1c0.3-0.1,0.6-0.1,0.9-0.1c0.2,0,0.4-0.1,0.6-0.1c0.3,0,0.6,0,0.9-0.1c0.2,0,0.4,0,0.6,0c0,0,0.1,0,0.1,0
		c0.2,0,0.3,0,0.5,0c0.3,0,0.7,0,1,0c0.2,0,0.4,0.1,0.7,0.1c0.3,0,0.6,0.1,0.9,0.1c0.2,0,0.5,0.1,0.7,0.1c0.3,0.1,0.6,0.1,0.9,0.2
		c0.2,0.1,0.4,0.1,0.7,0.2c0.3,0.1,0.6,0.2,0.9,0.3c0.2,0.1,0.4,0.2,0.7,0.3c0.3,0.1,0.6,0.3,0.9,0.4c0.2,0.1,0.4,0.2,0.6,0.3
		c0.3,0.2,0.6,0.3,0.8,0.5c0.2,0.1,0.4,0.2,0.6,0.4c0.3,0.2,0.6,0.4,0.9,0.7c0.1,0.1,0.3,0.2,0.4,0.3c0.4,0.4,0.8,0.8,1.2,1.2
		c0.2-0.1,0.4-0.1,0.7-0.1c0.1,0,0.2,0,0.2,0c0.1,0,0.2,0,0.4,0c0,0,0,0,0.1,0c0.3,0,0.7,0,1,0.1c0.1,0,0.1,0,0.2,0.1
		c0.3,0.1,0.6,0.2,0.9,0.3c0,0,0.1,0,0.1,0.1c0.3,0.1,0.6,0.3,0.9,0.5c0.1,0,0.1,0.1,0.2,0.1c0.3,0.2,0.5,0.5,0.8,0.8
		c1,1.2,1.3,2.8,1,4.2c1,0.5,1.9,1.3,2.6,2.2c2.9,3.7,2.3,9-1.4,11.9c-0.8,0.7-1.8,1.1-2.7,1.4c0.5,3.5-0.8,7.2-3.8,9.5
		c-0.2,0.2-0.5,0.4-0.7,0.5c-0.1,0.1-0.2,0.1-0.3,0.2c-0.1,0-0.1,0.1-0.2,0.1c0,0,0,0,0,0c-0.1,0.1-0.2,0.1-0.3,0.2
		c-0.1,0.1-0.2,0.1-0.3,0.2c-0.1,0-0.2,0.1-0.3,0.1c0,0,0,0,0,0c-0.1,0-0.1,0.1-0.2,0.1c-0.1,0-0.2,0.1-0.4,0.1
		c-0.2,0.1-0.3,0.1-0.5,0.2c-0.1,0-0.2,0.1-0.4,0.1c-0.2,0-0.3,0.1-0.5,0.1c-0.1,0-0.3,0.1-0.4,0.1c-0.2,0-0.3,0.1-0.5,0.1
		c-0.1,0-0.3,0-0.4,0c-0.2,0-0.3,0-0.5,0c-0.1,0-0.3,0-0.4,0c-0.1,0-0.2,0-0.3,0c-0.1,0-0.1,0-0.2,0c-0.2,0-0.3,0-0.5,0
		c-0.1,0-0.3,0-0.4,0c-0.2,0-0.3,0-0.5-0.1c-0.1,0-0.3,0-0.4-0.1c-0.2,0-0.3-0.1-0.5-0.1c-0.1,0-0.3-0.1-0.4-0.1
		c-0.2,0-0.3-0.1-0.5-0.2c-0.1,0-0.3-0.1-0.4-0.1c-0.2-0.1-0.3-0.1-0.5-0.2C43.3,51,43.1,51,43,50.9c-0.2-0.1-0.3-0.2-0.5-0.3
		c-0.1-0.1-0.2-0.1-0.3-0.2c-0.2-0.1-0.3-0.2-0.5-0.3c-0.1-0.1-0.2-0.1-0.3-0.2c-0.3-0.2-0.5-0.4-0.7-0.6c-0.5,0.7-1.1,1.4-1.9,2
		c-0.2,0.2-0.5,0.4-0.7,0.5C38,51.9,38,51.9,37.9,52c-0.2,0.1-0.3,0.2-0.5,0.3c-0.1,0.1-0.2,0.1-0.3,0.1c-0.2,0.1-0.3,0.2-0.5,0.2
		c-0.1,0-0.2,0.1-0.3,0.1c-0.2,0.1-0.3,0.1-0.5,0.2c-0.1,0-0.2,0.1-0.3,0.1c-0.2,0.1-0.4,0.1-0.6,0.1c-0.1,0-0.1,0-0.2,0
		c-0.3,0-0.6,0.1-0.8,0.1c-0.1,0-0.1,0-0.2,0C33.4,53.3,33.3,53.3,33,53.3C33.1,53.3,33,53.3,33,53.3z"/>
	<path class="st0" d="M33.8,53.3c0.3,0,0.6-0.1,0.8-0.1c0.1,0,0.1,0,0.2,0c0.2,0,0.4-0.1,0.6-0.1c0.1,0,0.2-0.1,0.3-0.1
		c0.2-0.1,0.3-0.1,0.5-0.2c0.1,0,0.2-0.1,0.3-0.1c0.2-0.1,0.3-0.1,0.5-0.2c0.1,0,0.2-0.1,0.3-0.1c0.2-0.1,0.3-0.2,0.5-0.3
		c0.1,0,0.2-0.1,0.2-0.1c0.2-0.2,0.5-0.3,0.7-0.5c0.7-0.6,1.4-1.2,1.9-2c0.2,0.2,0.5,0.4,0.7,0.6c0.1,0.1,0.2,0.1,0.3,0.2
		c0.2,0.1,0.3,0.2,0.5,0.3c0.1,0.1,0.2,0.1,0.3,0.2c0.2,0.1,0.3,0.2,0.5,0.3c0.1,0.1,0.2,0.1,0.4,0.2c0.2,0.1,0.3,0.1,0.5,0.2
		c0.1,0,0.3,0.1,0.4,0.1c0.2,0.1,0.3,0.1,0.5,0.2c0.1,0,0.3,0.1,0.4,0.1c0.2,0,0.3,0.1,0.5,0.1c0.1,0,0.3,0,0.4,0.1
		c0.2,0,0.3,0,0.5,0.1c0.1,0,0.3,0,0.4,0c0.2,0,0.3,0,0.5,0c0.1,0,0.3,0,0.5,0c0.1,0,0.3,0,0.4,0c0.2,0,0.3,0,0.5,0
		c0.1,0,0.3,0,0.4,0c0.2,0,0.3-0.1,0.5-0.1c0.1,0,0.3,0,0.4-0.1c0.2,0,0.3-0.1,0.5-0.1c0.1,0,0.2-0.1,0.4-0.1
		c0.2-0.1,0.3-0.1,0.5-0.2c0.1,0,0.2-0.1,0.4-0.1c0.1,0,0.1-0.1,0.2-0.1c0.1,0,0.2-0.1,0.3-0.1c0.1-0.1,0.2-0.1,0.3-0.2
		c0.1-0.1,0.2-0.1,0.3-0.2c0.1,0,0.1-0.1,0.2-0.1c0.1-0.1,0.2-0.1,0.3-0.2c0.3-0.2,0.5-0.3,0.7-0.5c3-2.3,4.3-6,3.8-9.5
		c1-0.3,1.9-0.8,2.7-1.4c3.7-2.9,4.3-8.2,1.4-11.9c-0.7-0.9-1.6-1.7-2.6-2.2c0.3-1.4,0-3-1-4.2c-0.2-0.3-0.5-0.5-0.8-0.8
		c-0.1-0.1-0.1-0.1-0.2-0.1c-0.3-0.2-0.6-0.4-0.9-0.5c0,0-0.1,0-0.1-0.1c-0.3-0.1-0.6-0.2-0.9-0.3c-0.1,0-0.1,0-0.2-0.1
		c-0.3-0.1-0.7-0.1-1-0.1c-0.1,0-0.3,0-0.4,0c-0.1,0-0.2,0-0.2,0c-0.2,0-0.5,0.1-0.7,0.1c-0.4-0.4-0.8-0.8-1.2-1.2
		c-0.1-0.1-0.3-0.2-0.4-0.3c-0.3-0.2-0.6-0.5-0.9-0.7c-0.2-0.1-0.4-0.2-0.6-0.4c-0.3-0.2-0.6-0.4-0.8-0.5c-0.2-0.1-0.4-0.2-0.6-0.3
		c-0.3-0.1-0.6-0.3-0.9-0.4c-0.2-0.1-0.4-0.2-0.7-0.3c-0.3-0.1-0.6-0.2-0.9-0.3c-0.2-0.1-0.4-0.1-0.7-0.2c-0.3-0.1-0.6-0.2-0.9-0.2
		c-0.2-0.1-0.5-0.1-0.7-0.1c-0.3-0.1-0.6-0.1-0.9-0.1c-0.2,0-0.4-0.1-0.7-0.1c-0.3,0-0.7,0-1,0c-0.2,0-0.4,0-0.6,0
		c-0.2,0-0.4,0-0.6,0c-0.3,0-0.6,0-0.9,0.1c-0.2,0-0.4,0-0.6,0.1c-0.3,0-0.6,0.1-0.9,0.1c-0.2,0-0.4,0.1-0.6,0.1
		c-0.3,0.1-0.6,0.1-0.8,0.2c-0.2,0.1-0.4,0.1-0.6,0.2c-0.3,0.1-0.5,0.2-0.8,0.3c-0.2,0.1-0.4,0.1-0.6,0.2c-0.3,0.1-0.6,0.2-0.8,0.4
		c-0.2,0.1-0.4,0.2-0.5,0.3c-0.3,0.2-0.6,0.3-0.9,0.5c-0.1,0.1-0.3,0.2-0.4,0.3c-0.4,0.3-0.9,0.6-1.3,0.9c-5.3,4.2-7.4,10.9-6.1,17
		c-0.4,0.1-0.8,0.2-1.1,0.4c-0.4,0.2-0.7,0.4-1.1,0.6c-2.2,1.7-2.6,4.9-0.8,7.1c0.7,0.9,1.6,1.5,2.6,1.7c0,2,0.7,4,2,5.7
		c0.2,0.3,0.4,0.5,0.7,0.8c0.1,0.1,0.2,0.1,0.2,0.2c0.2,0.2,0.3,0.3,0.5,0.5c0.1,0.1,0.2,0.2,0.3,0.2c0.2,0.1,0.3,0.2,0.5,0.4
		c0.1,0.1,0.2,0.1,0.3,0.2c0.2,0.1,0.4,0.2,0.5,0.3c0.1,0.1,0.2,0.1,0.3,0.2c0.2,0.1,0.4,0.2,0.6,0.2c0.1,0,0.2,0.1,0.3,0.1
		c0.2,0.1,0.5,0.1,0.7,0.2c0.1,0,0.1,0,0.2,0.1c0.3,0.1,0.6,0.1,1,0.2c0.1,0,0.2,0,0.2,0c0.2,0,0.5,0,0.7,0c0.2,0,0.4,0,0.6,0
		C33.7,53.3,33.7,53.3,33.8,53.3z M43.4,20.1c3.7,0,6.6,3,6.6,6.6s-3,6.6-6.6,6.6s-6.6-3-6.6-6.6S39.7,20.1,43.4,20.1z M25.8,42.9
		c-0.9-0.2-1.7-0.8-2.3-1.5c-1.5-1.9-1.2-4.8,0.7-6.3c0.6-0.5,1.2-0.7,1.9-0.9C27.7,40.9,33.7,46,40.9,46c8.3,0,15-6.7,15-15
		c0-4.1-1.6-7.7-4.2-10.4c1.7-0.4,3.5,0.2,4.6,1.6c0.9,1.1,1.1,2.4,0.9,3.7c0.9,0.5,1.7,1.1,2.3,1.9c2.6,3.2,2,7.9-1.2,10.5
		c-0.7,0.6-1.6,1-2.4,1.3c0.4,3.1-0.7,6.3-3.4,8.4c-3.5,2.8-8.5,2.5-11.7-0.4c-0.4,0.6-1,1.2-1.6,1.7c-3.6,2.8-8.7,2.2-11.5-1.4
		C26.4,46.4,25.9,44.6,25.8,42.9z"/>
	<path class="st3" d="M27.6,47.9c-1.2-1.5-1.7-3.3-1.8-5c-0.9-0.2-1.7-0.8-2.3-1.5c-1.5-1.9-1.2-4.8,0.7-6.3
		c0.6-0.5,1.2-0.7,1.9-0.9C27.7,40.9,33.7,46,40.9,46c8.3,0,15-6.7,15-15c0-4.1-1.6-7.7-4.2-10.4c1.7-0.4,3.5,0.2,4.6,1.6
		c0.9,1.1,1.1,2.4,0.9,3.7c0.9,0.5,1.7,1.1,2.3,1.9c2.6,3.2,2,7.9-1.2,10.5c-0.7,0.6-1.6,1-2.4,1.3c0.4,3.1-0.7,6.3-3.4,8.4
		c-3.5,2.8-8.5,2.5-11.7-0.4c-0.4,0.6-1,1.2-1.6,1.7C35.6,52.1,30.4,51.5,27.6,47.9z"/>
	<path class="st4" d="M36.7,26.7c0-3.7,3-6.6,6.6-6.6s6.6,3,6.6,6.6s-3,6.6-6.6,6.6S36.7,30.4,36.7,26.7z"/>
</g>
<defs>
<script>

let icon = document.querySelector("#iceCream");

function logMyId() {
	console.log(this.id);
}

icon.addEventListener("click", () => { console.log(this); });

</script>
</defs>
</svg>
