<?xml version="1.0" encoding="utf-8"?>
<!-- Generator: Adobe Illustrator 25.0.0, SVG Export Plug-In . SVG Version: 6.00 Build 0)  -->
<svg version="1.1" id="jelly" xmlns="http://www.w3.org/2000/svg" xmlns:xlink="http://www.w3.org/1999/xlink" x="0px" y="0px"
	 viewBox="0 0 100 100" style="enable-background:new 0 0 100 100;" xml:space="preserve">
<style type="text/css">
	.st0{fill:#DDC45B;}
	.st1{fill:#3DE24D;}
	.st2{fill:#DD715B;}
	.st3{fill:#1B8E29;}
	.st4{fill:#AF5DDB;}
	.st5{fill:#231F20;}
	.st6{fill:#F4A698;}
	.st7{fill:#FF00FF;}
	.st8{fill:#5AB0E0;}
	.st9{fill:#EACAFF;}
	.st10{fill:#BEF4C2;}
	.st11{fill:#C3EAFC;}
	.st12{fill:#FAA4FC;}
</style>
<circle class="st0" cx="50" cy="50" r="48.2"/>
<path class="st1" d="M36.8,37.6c0.5,2.8-0.2,4.7-2,10.3l0,0c-0.1,0.3-0.4,1.2-0.8,2.2c0.6,0.3,1.1,0.7,1.6,1.1
	c0.3,0.3,0.6,0.7,0.9,1c0.8-0.3,1.6-0.6,2.4-0.7c0.6-1.6,1.6-3,3-3.9c1.3-0.9,2.8-1.3,4.3-1.3c1.8,0,3.5,0.6,4.9,1.7
	c0.5,0.4,1.1,0.7,1.7,1c-1.3-3.5-2.1-7-2.7-9.9c-0.2-1-0.4-2-0.5-3l0-0.1v-0.1c0-5.6,4.6-10.2,10.2-10.2c1.2,0,2.4,0.2,3.5,0.6
	c-0.3-1.9-1.1-3.7-2.3-5.1c-0.4-0.5-0.9-1-1.5-1.5c-1.1-0.9-2.3-1.6-3.7-2c-1-0.3-2.1-0.5-3.3-0.5c-4.9,0-9,3.2-10.5,7.6
	c-0.5,1.4-1.4,3.1-2.7,4.9c-1.3,1.7-2.7,3-4,4C36.4,35.1,36.7,36.6,36.8,37.6z M52,18.7c3.3,0.2,6.2,3.4,5.7,5.1
	c-0.4,1.2-2.8,1.4-6,1.8c-3.3,0.3-6.4,0.6-6.9-0.6C44,23.3,47.8,18.4,52,18.7z"/>
<path class="st2" d="M64.4,66.5c-0.2,0.2-0.4,0.3-0.7,0.5c-0.1,0.1-0.2,0.1-0.2,0.2c-0.2,0.1-0.3,0.2-0.5,0.3
	c-0.1,0-0.2,0.1-0.2,0.1c-0.1,0-0.1,0.1-0.2,0.1c-0.1,0-0.1,0-0.2,0.1c0,0,0,0-0.1,0c0,0-0.1,0-0.1,0.1c0,0,0,0-0.1,0
	c-0.1,0-0.1,0-0.2,0.1c-0.1,0-0.1,0-0.2,0.1c-0.2,0.1-0.5,0.2-0.7,0.2c-0.1,0-0.2,0-0.2,0.1c-0.2,0-0.3,0.1-0.5,0.1
	c-0.1,0-0.2,0-0.3,0c-0.1,0-0.3,0-0.4,0.1c-0.1,0-0.2,0-0.3,0c-0.1,0-0.3,0-0.4,0c-0.1,0-0.2,0-0.2,0c-0.4,0-0.7,0-1.1-0.1
	c0,0-0.1,0-0.1,0c-0.4,0-0.7-0.1-1.1-0.2c0,0-0.1,0-0.1,0c-0.4-0.1-0.7-0.2-1.1-0.3c-0.1,0-0.1,0-0.2-0.1c-0.3-0.1-0.7-0.2-1-0.4
	c-0.1,0-0.1,0-0.2-0.1c-0.7-0.3-1.4-0.6-2.1-1c-0.1,0-0.1-0.1-0.2-0.1c-0.3-0.2-0.7-0.4-1-0.6c-0.1,0-0.1-0.1-0.2-0.1
	c-0.3-0.2-0.7-0.4-1-0.6c0,0-0.1-0.1-0.1-0.1c-0.2-0.1-0.4-0.3-0.6-0.4c0.6-3.6,0-9.2-3.9-11.8c0-0.3-0.1-0.8,0.1-1.3
	c0.1-0.3,0.3-0.6,0.5-1.1c0.5-0.8,0.7-1,0.6-1.3c-0.1-0.3-0.7-0.5-1.1-0.5c-1.5,0-3.1,1.8-3.4,2.9c-0.3,0-0.6-0.1-1-0.1
	c0-0.1,0.1-0.1,0.1-0.2c0.2-0.4,0.4-0.7,0.7-1c0.4-0.5,0.9-0.9,1.4-1.3c0.3-0.2,0.6-0.3,0.9-0.5c0.1,0,0.2-0.1,0.3-0.1
	c0.2-0.1,0.4-0.2,0.6-0.2c0.1,0,0.2-0.1,0.4-0.1c0.2,0,0.4-0.1,0.6-0.1c0.1,0,0.3,0,0.4,0c0.2,0,0.4,0,0.6,0c0,0,0.1,0,0.1,0
	c0.3,0,0.6,0.1,0.8,0.1c0,0,0.1,0,0.1,0c0.3,0.1,0.5,0.1,0.8,0.2c0,0,0.1,0,0.1,0c0.3,0.1,0.5,0.2,0.8,0.4c0,0,0.1,0,0.1,0
	c0.3,0.2,0.5,0.3,0.8,0.5c0.7,0.5,1.6,1,2.8,1.5c0.2,0.1,0.4,0.1,0.5,0.2c1.9,4.8,4.7,9.3,8.6,12c0.3,1.2,0.9,2.3,1.7,3.2l0.1,0.1
	l0.1,0.1C64.3,66.4,64.4,66.4,64.4,66.5z"/>
<path class="st3" d="M59.9,27.2c-4.8,0-8.7,3.9-8.7,8.7c0.1,0.5,0.2,1.5,0.5,2.9c1.1,5.5,4,16.6,10.4,22c0.1-1.8,0.9-3.5,2.3-4.8
	c1.3-1.2,3-1.9,4.9-1.9c1.2,0,2.4,0.3,3.5,0.9c0.7,0.3,1.5,0.6,2.3,0.7c0.5,0.1,1,0.1,1.5,0.1c0.7,0,1.5-0.1,2.2-0.3
	c0.1,0,0.1,0,0.2,0l0.2-0.1l0,0c0.7-0.1,1.3-0.2,2-0.2c0.1,0,0.2,0,0.3,0c0.3-1,0.4-2.1,0.4-3.2c0-4.5-2.5-8.4-6.2-10.4l0,0
	c-0.1-0.1-0.2-0.1-0.3-0.2c-1.4-0.8-3.4-2.1-5.2-4.5c-1.1-1.4-1.7-2.8-2.1-3.9C67,29.7,63.7,27.2,59.9,27.2z M52.7,36.8
	c-0.5-0.2-0.6-3,0.8-5c1.5-2.2,4.4-3,4.8-2.5c0.2,0.3-0.7,1-2.8,3.9C53.5,35.9,53.1,36.9,52.7,36.8z"/>
<path class="st4" d="M20.8,50.7L20.8,50.7l0.3,0.1c0.1,0,0.1,0,0.2,0c0.7,0.2,1.5,0.3,2.2,0.3c0.5,0,1,0,1.5-0.1
	c0.8-0.1,1.5-0.4,2.3-0.7c1.1-0.6,2.2-0.9,3.5-0.9h0c0.6,0,1.2,0.1,1.8,0.2c0.5-1.3,0.8-2.2,0.8-2.2c1.8-5.6,2.3-7.2,1.9-9.6
	c-0.1-0.7-0.2-1.4-0.5-2.2c-0.1-0.3-0.3-0.6-0.5-0.9c0-0.1-0.1-0.1-0.1-0.2c-0.1-0.1-0.1-0.2-0.2-0.3c0,0,0,0,0,0
	c-0.2-0.2-0.3-0.4-0.5-0.6c-0.1-0.1-0.1-0.1-0.2-0.2c-0.1-0.1-0.3-0.3-0.5-0.4c-0.1,0-0.1-0.1-0.2-0.1c-0.2-0.2-0.4-0.3-0.7-0.5
	c0,0-0.1,0-0.1,0c-0.2-0.1-0.4-0.2-0.7-0.3c-0.1,0-0.2-0.1-0.2-0.1c-0.2-0.1-0.4-0.2-0.6-0.2c-0.1,0-0.1-0.1-0.2-0.1
	c-0.3-0.1-0.5-0.2-0.8-0.2c-0.1,0-0.1,0-0.2,0c-0.2,0-0.5-0.1-0.7-0.1c-0.1,0-0.2,0-0.3,0c-0.2,0-0.4,0-0.7,0c-0.1,0-0.1,0-0.2,0
	c-0.3,0-0.5,0-0.8,0c-0.1,0-0.1,0-0.2,0c-0.2,0-0.4,0.1-0.6,0.1c-0.1,0-0.2,0-0.3,0.1c-0.2,0-0.4,0.1-0.6,0.2c-0.1,0-0.2,0-0.2,0.1
	c-0.2,0.1-0.5,0.2-0.7,0.3c-0.3,0.2-2.5,1.3-3.6,3.6c-0.7,1.4-0.1,1.5-0.9,3.4c-0.9,2.2-2.2,3.6-3.1,4.5c-0.1,0.1-0.2,0.1-0.2,0.2
	l0,0c-0.2,0.1-0.3,0.3-0.4,0.4c-0.3,0.3-0.5,0.6-0.8,1c-0.4,0.5-0.7,1-0.9,1.6c-0.2,0.4-0.3,0.8-0.4,1.2c-0.1,0.2-0.1,0.4-0.2,0.6
	c-0.1,0.4-0.2,0.8-0.2,1.2c-0.1,0.8,0,1.7,0.1,2.5c1.6-1.1,3.4-1.7,5.4-1.7C19.5,50.4,20.1,50.5,20.8,50.7z M27.4,32.5
	c2.3,0.1,4.4,2.4,4,3.5c-0.3,0.9-1.9,1-4.2,1.2c-2.3,0.2-4.5,0.4-4.8-0.4C21.8,35.7,24.4,32.4,27.4,32.5z"/>
<path class="st0" d="M86.8,59.2c-0.2-0.2-0.5-0.5-0.7-0.7c-0.1-0.1-0.2-0.1-0.2-0.2c-0.2-0.1-0.4-0.3-0.6-0.4
	c-0.1-0.1-0.2-0.1-0.3-0.2c-0.2-0.1-0.5-0.3-0.7-0.4c0,0-0.1,0-0.1-0.1c-0.3-0.1-0.6-0.2-0.9-0.3c-0.1,0-0.2,0-0.2-0.1
	c-0.2,0-0.4-0.1-0.5-0.1c0,0-0.1,0-0.1,0c-0.1,0-0.2,0-0.3,0c-0.2,0-0.5,0-0.7-0.1c-0.1,0-0.1,0-0.2,0c-0.1,0-0.2,0-0.3,0
	c-0.1,0-0.3,0-0.4,0c-0.1,0-0.2,0-0.3,0c-0.3,0-0.6,0.1-1,0.2l0,0c-0.1,0-0.2,0-0.2,0.1c-0.1,0-0.3,0.1-0.5,0.1c-0.1,0-0.1,0-0.2,0
	c-0.1,0-0.3,0-0.4,0.1c-0.1,0-0.1,0-0.2,0c-0.2,0-0.4,0-0.5,0.1c0,0-0.1,0-0.1,0c-0.2,0-0.5,0-0.7,0c0,0,0,0-0.1,0c0,0-0.1,0-0.1,0
	c-0.2,0-0.4,0-0.6,0c-0.1,0-0.2,0-0.2,0c-0.3,0-0.6-0.1-0.8-0.1c-1.1-0.2-2-0.6-2.7-0.9c-0.2-0.1-0.5-0.2-0.7-0.3
	c-0.1,0-0.2-0.1-0.2-0.1c-0.2-0.1-0.4-0.1-0.5-0.2c-0.1,0-0.2,0-0.3-0.1c-0.2,0-0.3-0.1-0.5-0.1c-0.1,0-0.2,0-0.3,0
	c-0.2,0-0.5,0-0.7,0c0,0-0.1,0-0.1,0c-0.2,0-0.5,0.1-0.7,0.1c0,0,0,0-0.1,0c-0.2,0.1-0.5,0.2-0.7,0.3c0,0-0.1,0-0.1,0.1
	c-0.2,0.1-0.5,0.2-0.7,0.4c0,0-0.1,0.1-0.1,0.1c-0.2,0.2-0.4,0.3-0.7,0.5c0,0,0,0,0,0c-0.9,0.8-1.4,1.8-1.7,2.8
	c0,0.2-0.1,0.4-0.1,0.5c0,0.4-0.1,0.7,0,1.1c0.1,1.3,0.6,2.5,1.5,3.5c0.3,0.3,0.9,0.7,1.5,1.2c1.9,1.6,3,2.7,3.7,3.5
	c0.2,0.2,0.4,0.5,0.6,0.7c0.3,0.3,0.5,0.6,0.7,0.8c0.3,0.3,0.7,0.6,1.2,0.9c0,0,0,0,0,0c0.3,0.2,0.6,0.3,0.9,0.4c0,0,0.1,0,0.1,0
	c0.3,0.1,0.6,0.2,0.9,0.3c0,0,0.1,0,0.1,0c0.3,0.1,0.6,0.1,0.9,0.2c0.1,0,0.1,0,0.2,0c0.3,0,0.6,0.1,0.9,0.1c0,0,0.1,0,0.1,0
	c0.3,0,0.5,0,0.8,0c0,0,0.1,0,0.1,0c0.3,0,0.6,0,0.9-0.1c0.1,0,0.2,0,0.2,0c0.2,0,0.4-0.1,0.7-0.1c0.1,0,0.2,0,0.2,0
	c0.3-0.1,0.6-0.1,0.8-0.2c0,0,0,0,0,0c0.3-0.1,0.5-0.1,0.8-0.2c0.1,0,0.1,0,0.2-0.1c0.2-0.1,0.4-0.1,0.6-0.2c0.1,0,0.1,0,0.2-0.1
	c0.2-0.1,0.4-0.2,0.6-0.2c0,0,0.1,0,0.1,0c0.2-0.1,0.3-0.1,0.5-0.2c0,0,0.1,0,0.1-0.1c0.1-0.1,0.3-0.1,0.4-0.2c0,0,0,0,0.1,0
	c0.1-0.1,0.2-0.1,0.3-0.2c0,0,0,0,0.1,0c0.1,0,0.1-0.1,0.2-0.1c0,0,0,0,0,0c0,0,0.1,0,0.1,0c0,0,0.1,0,0.2-0.1c0,0,0.1,0,0.1-0.1
	c0,0,0,0,0.1,0c0,0,0.1,0,0.1-0.1c0,0,0,0,0,0c0,0,0.1-0.1,0.1-0.1c0.1,0,0.1-0.1,0.2-0.1c0.1,0,0.1-0.1,0.2-0.1
	c0.1-0.1,0.3-0.2,0.4-0.3c0.1-0.1,0.1-0.1,0.2-0.2c0.8-0.7,1.4-1.6,1.8-2.5c0.1-0.2,0.2-0.5,0.3-0.7c0.2-0.5,0.3-0.9,0.3-1.4
	C89.1,63.3,88.4,61,86.8,59.2z M64.7,59.5c0.9-2.3,3.9-3.7,4.8-3c0.6,0.5,0.3,2.1-0.3,3.1c-0.6,0.9-1.1,0.8-2.5,2.2
	c-1,1-1.1,1.5-1.5,1.5C64.6,63.2,64.1,61.1,64.7,59.5z"/>
<path class="st5" d="M87.9,58.2c-1.3-1.4-3-2.4-4.9-2.7c0.3-1.1,0.4-2.2,0.4-3.4c0-4.8-2.6-9.2-6.8-11.6l0,0l-0.2-0.1
	c-0.1,0-0.2-0.1-0.3-0.1c-1.9-1-3.5-2.4-4.7-4c-0.8-1-1.4-2.2-1.9-3.4c-0.8-2.4-2.4-4.4-4.5-5.6c-0.5-6.4-5.9-11.5-12.5-11.5
	c-5.4,0-10.2,3.5-11.9,8.6c-0.6,1.6-1.5,3.1-2.5,4.5c-1.1,1.4-2.3,2.7-3.8,3.7c-1.7-1.7-4.3-2.8-7-2.8h0c-1.5,0-2.9,0.3-4.1,0.9
	c-0.7,0.3-3.1,1.7-4.3,4.4c-0.4,0.9-0.5,1.5-0.5,2c0,0.4-0.1,0.7-0.4,1.5c-0.6,1.5-1.5,2.8-2.7,4c-0.1,0.1-0.1,0.1-0.2,0.2L15,42.7
	l0,0c-2.8,2.8-3.9,6.8-2.9,10.6c0,0,0,0,0,0.1c0,0,0,0-0.1,0.1c-3.4,3.7-3.2,9.5,0.5,13c0.1,0.1,0.2,0.1,0.2,0.2
	c0.2,0.1,0.3,0.3,0.4,0.4c0.1,0.1,0.1,0.1,0.2,0.2l0.1,0c0.1,0,0.1,0.1,0.2,0.1c0,0,0.1,0.1,0.1,0.1l0,0l0,0c0,0,0.1,0.1,0.1,0.1
	c0,0,0.1,0,0.1,0.1l0.1,0.1c0.1,0,0.1,0.1,0.2,0.1c1.4,0.8,3.1,1.2,4.9,1.2c3,0,6.1-1.1,8.8-2.4c0.1,0.3,0.1,0.6,0.2,0.9
	c1.2,3.9,4.9,7.8,9.8,7.8c5.6,0,9-5.1,10.2-9.1c3.2,2.1,6.9,3.9,10.5,3.9c1.2,0,2.4-0.2,3.5-0.6c0.1,0,0.2-0.1,0.2-0.1l0.1-0.1
	c0,0,0.1,0,0.1,0c0.1,0,0.1,0,0.2-0.1l0,0c0.1,0,0.1-0.1,0.2-0.1c0,0,0.1,0,0.2-0.1l0.1,0c0.1-0.1,0.2-0.1,0.3-0.1
	c0.2-0.1,0.4-0.2,0.6-0.3c0.1-0.1,0.2-0.1,0.3-0.2c0.4-0.3,0.7-0.5,1.1-0.8c2.2,1.8,3.2,2.9,3.9,3.8c0.7,0.8,1.3,1.5,2.5,2.2
	c1.5,0.8,3.2,1.2,5.1,1.2c4.4,0,8.4-2.2,8.5-2.2l0.2-0.1l0.1-0.1c0,0,0.1,0,0.1-0.1c0.1,0,0.1-0.1,0.1-0.1l0,0
	c0.1,0,0.1-0.1,0.2-0.1c0,0,0.1-0.1,0.1-0.1l0,0c0.1-0.1,0.2-0.1,0.2-0.2c0.1-0.1,0.3-0.2,0.4-0.4c0.1-0.1,0.2-0.1,0.2-0.2
	c1.8-1.7,2.8-3.9,2.9-6.4C90.5,62.3,89.6,60,87.9,58.2z M68.1,33.2c0.4,1.1,1.1,2.4,2.1,3.9c1.8,2.3,3.8,3.7,5.2,4.5
	c0.1,0.1,0.2,0.1,0.3,0.2l0,0c3.7,2,6.2,5.9,6.2,10.4c0,1.1-0.2,2.2-0.4,3.2c-0.1,0-0.2,0-0.3,0c-0.7,0-1.4,0.1-2,0.2l0,0l-0.2,0.1
	c-0.1,0-0.1,0-0.2,0c-0.7,0.2-1.5,0.3-2.2,0.3c-0.5,0-1,0-1.5-0.1c-0.8-0.1-1.5-0.4-2.3-0.7c-1.1-0.6-2.2-0.9-3.5-0.9
	c-1.8,0-3.5,0.7-4.9,1.9c-1.4,1.3-2.2,3-2.3,4.8c-6.4-5.4-9.3-16.5-10.4-22c-0.3-1.4-0.4-2.4-0.5-2.9c0-4.8,3.9-8.7,8.7-8.7
	C63.7,27.2,67,29.7,68.1,33.2z M39.4,29.6c1.3-1.8,2.2-3.5,2.7-4.9c1.4-4.4,5.6-7.6,10.5-7.6c1.1,0,2.2,0.2,3.3,0.5
	c1.4,0.4,2.6,1.1,3.7,2c0.5,0.4,1,0.9,1.5,1.5c1.2,1.4,2,3.2,2.3,5.1c-1.1-0.4-2.3-0.6-3.5-0.6c-5.6,0-10.2,4.6-10.2,10.2V36l0,0.1
	c0.1,1,0.3,2,0.5,3c0.6,2.8,1.4,6.3,2.7,9.9c-0.6-0.3-1.2-0.6-1.7-1c-1.4-1.1-3.1-1.7-4.9-1.7c-1.5,0-3,0.4-4.3,1.3
	c-1.4,0.9-2.5,2.3-3,3.9c-0.8,0.1-1.6,0.4-2.4,0.7c-0.3-0.4-0.6-0.7-0.9-1c-0.5-0.4-1-0.8-1.6-1.1c0.4-1.1,0.7-1.9,0.8-2.2l0,0
	c1.8-5.6,2.4-7.5,2-10.3c-0.2-1-0.4-2.5-1.4-4C36.7,32.6,38.1,31.3,39.4,29.6z M13.3,49.7c0-0.4,0.1-0.8,0.2-1.2
	c0-0.2,0.1-0.4,0.2-0.6c0.1-0.4,0.3-0.8,0.4-1.2c0.3-0.6,0.6-1.1,0.9-1.6c0.2-0.3,0.5-0.7,0.8-1c0.1-0.2,0.3-0.3,0.4-0.4l0,0
	c0.1-0.1,0.1-0.1,0.2-0.2c0.9-0.9,2.2-2.3,3.1-4.5c0.8-1.9,0.2-2,0.9-3.4c1.1-2.4,3.3-3.5,3.6-3.6c0.2-0.1,0.5-0.2,0.7-0.3
	c0.1,0,0.2,0,0.2-0.1c0.2-0.1,0.4-0.1,0.6-0.2c0.1,0,0.2,0,0.3-0.1c0.2,0,0.4-0.1,0.6-0.1c0.1,0,0.1,0,0.2,0c0.3,0,0.5,0,0.8,0
	c0,0,0,0,0.1,0c0,0,0.1,0,0.1,0c0.2,0,0.4,0,0.7,0c0.1,0,0.2,0,0.3,0c0.2,0,0.5,0.1,0.7,0.1c0.1,0,0.1,0,0.2,0
	c0.3,0.1,0.5,0.1,0.8,0.2c0.1,0,0.1,0,0.2,0.1c0.2,0.1,0.4,0.1,0.6,0.2c0.1,0,0.2,0.1,0.2,0.1c0.2,0.1,0.4,0.2,0.7,0.3
	c0,0,0.1,0,0.1,0c0.2,0.1,0.5,0.3,0.7,0.5c0.1,0,0.1,0.1,0.2,0.1c0.2,0.1,0.3,0.3,0.5,0.4c0.1,0.1,0.1,0.1,0.2,0.2
	c0.2,0.2,0.4,0.4,0.5,0.6c0,0,0,0,0,0c0.1,0.1,0.1,0.2,0.2,0.3h0c0,0.1,0.1,0.1,0.1,0.2c0.2,0.3,0.4,0.6,0.5,0.9
	c0.3,0.8,0.4,1.5,0.5,2.2c0.4,2.4-0.1,3.9-1.9,9.6c0,0-0.3,0.9-0.8,2.2c-0.6-0.2-1.2-0.2-1.8-0.2h0c-1.2,0-2.4,0.3-3.5,0.9
	c-0.7,0.3-1.5,0.6-2.3,0.7c-0.5,0.1-1,0.1-1.5,0.1c-0.7,0-1.5-0.1-2.2-0.3c-0.1,0-0.1,0-0.2,0l-0.2-0.1l0,0c-0.7-0.1-1.3-0.2-2-0.2
	c-1.9,0-3.8,0.6-5.4,1.7C13.3,51.3,13.2,50.5,13.3,49.7z M19.2,67.3c-0.3,0-0.6,0-0.9,0c0,0-0.1,0-0.1,0c-0.3,0-0.6-0.1-0.9-0.2
	c-0.1,0-0.1,0-0.2,0c-0.3-0.1-0.6-0.2-0.9-0.3c0,0-0.1,0-0.1-0.1c-0.3-0.1-0.6-0.3-0.9-0.4c-0.1,0-0.1-0.1-0.2-0.1
	c0,0-0.1,0-0.1-0.1c0,0,0,0-0.1,0c0,0-0.1,0-0.1-0.1c0,0,0,0,0,0c0,0-0.1-0.1-0.1-0.1c-0.1,0-0.1-0.1-0.2-0.1
	c-0.1,0-0.1-0.1-0.2-0.1c-0.1-0.1-0.3-0.2-0.4-0.3c-0.1-0.1-0.1-0.1-0.2-0.2c-3.1-2.9-3.3-7.7-0.4-10.8c0.2-0.2,0.5-0.4,0.7-0.7
	c0,0,0,0,0,0c0,0,0,0,0,0c0.1-0.1,0.2-0.1,0.2-0.2c0.2-0.1,0.4-0.3,0.6-0.4c0.1-0.1,0.2-0.1,0.3-0.2c0.2-0.1,0.5-0.2,0.7-0.4
	c0,0,0.1,0,0.1-0.1c0.3-0.1,0.6-0.2,0.9-0.3c0.1,0,0.2,0,0.2-0.1c0.2-0.1,0.4-0.1,0.7-0.1c0.1,0,0.2,0,0.3,0c0.2,0,0.5,0,0.7-0.1
	c0.1,0,0.1,0,0.2,0c0,0,0.1,0,0.1,0c0.2,0,0.4,0,0.6,0c0.1,0,0.2,0,0.3,0c0.3,0,0.6,0.1,1,0.2l0,0c0.1,0,0.2,0,0.2,0.1
	c0.1,0,0.3,0.1,0.5,0.1c0.1,0,0.1,0,0.2,0c0.1,0,0.3,0,0.4,0.1c0.1,0,0.1,0,0.2,0c0.2,0,0.4,0,0.5,0.1c0,0,0.1,0,0.1,0
	c0.2,0,0.5,0,0.7,0c0,0,0,0,0.1,0c0,0,0.1,0,0.1,0c0.2,0,0.4,0,0.6,0c0.1,0,0.2,0,0.2,0c0.3,0,0.6-0.1,0.8-0.1
	c0.8-0.2,1.6-0.4,2.2-0.6c0.2-0.1,0.4-0.2,0.6-0.3c0,0,0,0,0,0c0.2-0.1,0.5-0.2,0.7-0.3c0.1,0,0.2-0.1,0.2-0.1
	c0.2-0.1,0.4-0.1,0.5-0.2c0.1,0,0.2,0,0.3-0.1c0.2,0,0.3-0.1,0.5-0.1c0.1,0,0.2,0,0.3,0c0,0,0.1,0,0.1,0c0.2,0,0.4,0,0.6,0
	c0,0,0.1,0,0.1,0c0.2,0,0.4,0.1,0.6,0.1c0,0,0,0,0,0c0.1,0,0.1,0,0.2,0c0,0,0,0,0.1,0c0.2,0.1,0.5,0.2,0.7,0.3c0,0,0.1,0,0.1,0.1
	c0.1,0.1,0.2,0.1,0.3,0.2c0,0,0,0,0,0c0.1,0.1,0.2,0.1,0.3,0.2c0,0,0.1,0.1,0.1,0.1c0.2,0.2,0.4,0.3,0.7,0.5
	c0.2,0.2,0.4,0.4,0.5,0.6c-2.2,1.2-4,3.1-5.2,4.8c-1.5,2.3-2.2,4.7-2.1,7.1c-0.2,0.1-0.4,0.2-0.5,0.3c-0.1,0-0.1,0.1-0.2,0.1
	c-0.3,0.1-0.6,0.3-0.8,0.4c0,0-0.1,0-0.1,0c-0.3,0.1-0.5,0.2-0.8,0.3c-0.1,0-0.1,0-0.2,0.1c-0.3,0.1-0.6,0.2-0.9,0.3
	c-0.1,0-0.1,0-0.2,0.1c-0.3,0.1-0.5,0.2-0.8,0.3c0,0-0.1,0-0.1,0c-0.3,0.1-0.6,0.2-0.9,0.2c-0.1,0-0.1,0-0.2,0
	c-0.3,0.1-0.6,0.1-0.9,0.2c0,0,0,0-0.1,0c-0.3,0-0.6,0.1-0.9,0.1c-0.1,0-0.1,0-0.2,0C19.9,67.3,19.6,67.3,19.2,67.3
	C19.3,67.3,19.3,67.3,19.2,67.3C19.3,67.3,19.3,67.3,19.2,67.3z M47,65.5c-0.1,0.2-0.1,0.4-0.2,0.6c0,0.1-0.1,0.3-0.2,0.4
	c0,0.1-0.1,0.2-0.1,0.4c-0.1,0.2-0.2,0.4-0.3,0.6c0,0.1-0.1,0.1-0.1,0.2c-0.1,0.2-0.2,0.4-0.3,0.6c0,0.1-0.1,0.1-0.1,0.2
	c-0.1,0.2-0.2,0.3-0.3,0.5c0,0.1-0.1,0.2-0.1,0.2c-0.1,0.2-0.2,0.3-0.3,0.5c0,0.1-0.1,0.1-0.1,0.2c-0.1,0.2-0.3,0.3-0.4,0.5
	c-0.1,0.1-0.1,0.1-0.2,0.2c-0.1,0.1-0.3,0.3-0.4,0.4c-0.1,0.1-0.1,0.2-0.2,0.2c-0.1,0.1-0.3,0.2-0.4,0.4c-0.1,0.1-0.2,0.2-0.3,0.2
	c-0.1,0.1-0.3,0.2-0.4,0.3c-0.1,0.1-0.2,0.2-0.3,0.2c-0.1,0.1-0.3,0.2-0.4,0.2c-0.1,0.1-0.2,0.1-0.3,0.2c-0.1,0.1-0.3,0.1-0.4,0.2
	c-0.1,0.1-0.3,0.1-0.4,0.2c-0.1,0.1-0.3,0.1-0.4,0.1c-0.1,0-0.3,0.1-0.4,0.1c-0.1,0-0.3,0.1-0.4,0.1c-0.2,0-0.3,0.1-0.5,0.1
	c-0.1,0-0.3,0-0.4,0c-0.2,0-0.3,0-0.5,0c0,0,0,0,0,0c-0.5,0-1-0.1-1.4-0.1c-1.2-0.2-2.3-0.7-3.2-1.4c-0.4-0.3-0.8-0.6-1.1-0.9
	c-0.3-0.3-0.7-0.7-1-1.1c-0.7-0.9-1.3-2-1.6-3.1c-0.6-2.1-0.4-4,0.1-5.5c0.5-1.5,1.1-2.5,1.4-2.9c0.1-0.2,0.3-0.4,0.4-0.6
	c0-0.1,0.1-0.1,0.1-0.2c0.1-0.1,0.2-0.3,0.3-0.4c0.1-0.1,0.1-0.1,0.2-0.2c0.1-0.1,0.3-0.3,0.4-0.4c0.1-0.1,0.1-0.1,0.2-0.2
	c0.2-0.2,0.4-0.4,0.6-0.6c0,0,0.1,0,0.1-0.1c0.2-0.2,0.4-0.3,0.6-0.5c0.1-0.1,0.1-0.1,0.2-0.2c0.2-0.1,0.3-0.2,0.5-0.3
	c0.1-0.1,0.2-0.1,0.2-0.2c0.2-0.1,0.3-0.2,0.5-0.3c0.1,0,0.1-0.1,0.2-0.1c0.1,0,0.1-0.1,0.2-0.1c0,0,0,0,0,0
	c0.2-0.1,0.4-0.2,0.5-0.3c0,0,0.1,0,0.1-0.1c0.2-0.1,0.4-0.2,0.6-0.3c0.1,0,0.2-0.1,0.3-0.1c0.2-0.1,0.3-0.1,0.5-0.2
	c0.1,0,0.2-0.1,0.3-0.1c0.1,0,0.2-0.1,0.3-0.1c0,0,0,0,0,0c0.1,0,0.2-0.1,0.3-0.1c0.1,0,0.1,0,0.2,0c0.3,0,0.5-0.1,0.8-0.1
	c0.1,0,0.1,0,0.2,0c0,0,0.1,0,0.1,0c0,0,0,0,0,0c0.1,0,0.2,0,0.3,0c0,0,0.1,0,0.1,0c0.1,0,0.2,0,0.3,0c0.2,0,0.3,0,0.5,0.1
	c0.1,0,0.2,0,0.3,0c0.2,0,0.4,0.1,0.5,0.1c0.1,0,0.2,0,0.2,0.1c0.3,0.1,0.5,0.2,0.8,0.3c4,1.9,4.7,7.5,4,11.1c0,0.2-0.1,0.3-0.1,0.5
	h0c0,0.1,0,0.1,0,0.2C47,65.4,47,65.5,47,65.5z M63.8,67c-0.1,0.1-0.2,0.1-0.2,0.2c-0.2,0.1-0.3,0.2-0.5,0.3c-0.1,0-0.2,0.1-0.2,0.1
	c-0.1,0-0.1,0.1-0.2,0.1c-0.1,0-0.1,0-0.2,0.1c0,0,0,0-0.1,0c0,0-0.1,0-0.1,0.1c0,0,0,0-0.1,0c-0.1,0-0.1,0-0.2,0.1
	c-0.1,0-0.1,0-0.2,0.1c-0.2,0.1-0.5,0.2-0.7,0.2c-0.1,0-0.2,0-0.2,0.1c-0.2,0-0.3,0.1-0.5,0.1c-0.1,0-0.2,0-0.3,0
	c-0.1,0-0.3,0-0.4,0.1c-0.1,0-0.2,0-0.3,0c-0.1,0-0.3,0-0.4,0c0,0-0.1,0-0.1,0c0,0-0.1,0-0.1,0c-0.4,0-0.7,0-1.1-0.1
	c0,0-0.1,0-0.1,0c-0.4,0-0.7-0.1-1.1-0.2c0,0-0.1,0-0.1,0c-0.4-0.1-0.7-0.2-1.1-0.3c-0.1,0-0.1,0-0.2-0.1c-0.3-0.1-0.7-0.2-1-0.4
	c-0.1,0-0.1,0-0.2-0.1c-0.7-0.3-1.4-0.6-2.1-1c-0.1,0-0.1-0.1-0.2-0.1c-0.3-0.2-0.7-0.4-1-0.6c-0.1,0-0.1-0.1-0.2-0.1
	c-0.3-0.2-0.7-0.4-1-0.6c0,0-0.1-0.1-0.1-0.1c-0.2-0.1-0.4-0.3-0.6-0.4c0.6-3.6,0-9.2-3.9-11.8c-0.3-0.2-0.6-0.4-0.9-0.5
	c-0.7-0.3-1.5-0.6-2.3-0.7c-0.3,0-0.6-0.1-1-0.1c0-0.1,0.1-0.1,0.1-0.2c0.2-0.4,0.4-0.7,0.7-1c0.4-0.5,0.9-0.9,1.4-1.3
	c0.3-0.2,0.6-0.3,0.9-0.5c0.1,0,0.2-0.1,0.3-0.1c0.2-0.1,0.4-0.2,0.6-0.2c0.1,0,0.2-0.1,0.4-0.1c0.2,0,0.4-0.1,0.6-0.1
	c0.1,0,0.3,0,0.4,0c0.1,0,0.2,0,0.4,0c0.1,0,0.2,0,0.3,0c0,0,0.1,0,0.1,0c0.3,0,0.6,0.1,0.8,0.1c0,0,0.1,0,0.1,0
	c0.3,0.1,0.5,0.1,0.8,0.2c0,0,0.1,0,0.1,0c0.3,0.1,0.5,0.2,0.8,0.4c0,0,0.1,0,0.1,0c0.3,0.2,0.5,0.3,0.8,0.5c0.7,0.5,1.6,1,2.8,1.5
	c0.2,0.1,0.4,0.1,0.5,0.2c0,0,0,0,0,0c1.9,4.8,4.7,9.3,8.6,12c0.3,1.2,0.9,2.3,1.7,3.2l0.1,0.1l0.1,0.1c0.1,0.1,0.2,0.1,0.3,0.2
	C64.2,66.7,64,66.8,63.8,67z M88.4,66.9c-0.1,0.2-0.2,0.5-0.3,0.7c-0.4,0.9-1,1.7-1.8,2.5c-0.1,0.1-0.1,0.1-0.2,0.2
	c-0.1,0.1-0.2,0.2-0.4,0.3c-0.1,0-0.1,0.1-0.2,0.1c-0.1,0-0.1,0.1-0.2,0.1c0,0-0.1,0.1-0.1,0.1c0,0,0,0,0,0c0,0-0.1,0.1-0.1,0.1
	c0,0,0,0-0.1,0c0,0-0.1,0.1-0.1,0.1c-0.1,0-0.1,0.1-0.2,0.1c0,0,0,0-0.1,0c0,0,0,0,0,0c0,0-0.1,0-0.2,0.1c0,0,0,0-0.1,0
	c-0.1,0-0.2,0.1-0.3,0.2c0,0,0,0-0.1,0c-0.1,0.1-0.2,0.1-0.4,0.2c0,0-0.1,0-0.1,0.1c-0.1,0.1-0.3,0.1-0.5,0.2c0,0-0.1,0-0.1,0
	c-0.2,0.1-0.4,0.2-0.6,0.2c-0.1,0-0.1,0-0.2,0.1c-0.2,0.1-0.4,0.1-0.6,0.2c-0.1,0-0.1,0-0.2,0.1c-0.2,0.1-0.5,0.1-0.8,0.2
	c0,0,0,0,0,0c-0.3,0.1-0.5,0.1-0.8,0.2c-0.1,0-0.2,0-0.2,0c-0.2,0-0.4,0.1-0.7,0.1c-0.1,0-0.2,0-0.2,0c-0.3,0-0.6,0.1-0.9,0.1
	c0,0-0.1,0-0.1,0c-0.2,0-0.4,0-0.6,0c-0.1,0-0.2,0-0.3,0c0,0-0.1,0-0.1,0c-0.3,0-0.6,0-0.9-0.1c-0.1,0-0.1,0-0.2,0
	c-0.3,0-0.6-0.1-0.9-0.2c0,0-0.1,0-0.1,0c-0.3-0.1-0.6-0.2-0.9-0.3c0,0-0.1,0-0.1,0c-0.3-0.1-0.6-0.3-0.9-0.4c0,0,0,0,0,0
	c-0.5-0.3-0.9-0.6-1.2-0.9c-0.2-0.2-0.5-0.5-0.7-0.8c-0.2-0.2-0.3-0.4-0.6-0.7c-0.7-0.8-1.8-1.9-3.7-3.5c-0.6-0.5-1.2-0.9-1.5-1.2
	c-0.9-1-1.4-2.2-1.5-3.5c0-0.4,0-0.7,0-1.1c0-0.2,0.1-0.4,0.1-0.5c0.2-1.1,0.8-2,1.7-2.8c0,0,0,0,0,0c0.2-0.2,0.4-0.4,0.7-0.5
	c0,0,0.1-0.1,0.1-0.1c0.2-0.1,0.4-0.3,0.7-0.4c0,0,0.1,0,0.1-0.1c0.2-0.1,0.5-0.2,0.7-0.3c0,0,0,0,0.1,0c0.2-0.1,0.5-0.1,0.7-0.1
	c0,0,0.1,0,0.1,0c0.2,0,0.4,0,0.6,0c0,0,0.1,0,0.1,0c0.1,0,0.2,0,0.3,0c0.2,0,0.4,0,0.5,0.1c0.1,0,0.2,0,0.3,0.1
	c0.2,0,0.4,0.1,0.5,0.2c0.1,0,0.2,0,0.2,0.1c0.3,0.1,0.5,0.2,0.7,0.3c0.7,0.3,1.6,0.7,2.7,0.9c0.3,0.1,0.6,0.1,0.8,0.1
	c0.1,0,0.2,0,0.2,0c0.2,0,0.4,0,0.6,0c0,0,0.1,0,0.1,0c0,0,0,0,0.1,0c0.2,0,0.5,0,0.7,0c0,0,0.1,0,0.1,0c0.2,0,0.4,0,0.5-0.1
	c0.1,0,0.1,0,0.2,0c0.1,0,0.3,0,0.4-0.1c0.1,0,0.1,0,0.2,0c0.2,0,0.3-0.1,0.5-0.1c0.1,0,0.2,0,0.2-0.1l0,0c0.3-0.1,0.6-0.1,1-0.2
	c0.1,0,0.2,0,0.3,0c0.1,0,0.3,0,0.4,0c0,0,0,0,0,0c0.1,0,0.2,0,0.3,0c0.1,0,0.1,0,0.2,0c0.2,0,0.5,0,0.7,0.1c0.1,0,0.2,0,0.3,0
	c0,0,0.1,0,0.1,0c0,0,0,0,0,0c0.2,0,0.4,0.1,0.5,0.1c0.1,0,0.2,0,0.2,0.1c0.3,0.1,0.6,0.2,0.9,0.3c0,0,0.1,0,0.1,0.1
	c0.2,0.1,0.5,0.2,0.7,0.4c0.1,0.1,0.2,0.1,0.3,0.2c0.2,0.1,0.4,0.3,0.6,0.4c0.1,0.1,0.2,0.1,0.2,0.2c0.2,0.2,0.5,0.4,0.7,0.7
	c1.6,1.7,2.3,4,2,6.2C88.7,65.9,88.6,66.4,88.4,66.9z"/>
<path class="st6" d="M44.8,52.7c-0.3-0.2-0.6-0.4-0.9-0.5c-0.7-0.3-1.5-0.6-2.3-0.7c0.3-1.1,1.8-2.9,3.4-2.9c0.4,0,1,0.1,1.1,0.5
	c0.1,0.3-0.2,0.5-0.6,1.3c-0.3,0.5-0.4,0.8-0.5,1.1C44.8,51.9,44.8,52.3,44.8,52.7z"/>
<path class="st7" d="M20.2,67.3c0.1,0,0.1,0,0.2,0c0.3,0,0.6-0.1,0.9-0.1c0,0,0,0,0.1,0c0.3,0,0.6-0.1,0.9-0.2c0.1,0,0.1,0,0.2,0
	c0.3-0.1,0.6-0.1,0.9-0.2c0,0,0.1,0,0.1,0c0.3-0.1,0.5-0.2,0.8-0.3c0.1,0,0.1,0,0.2-0.1c0.3-0.1,0.6-0.2,0.9-0.3
	c0.1,0,0.1,0,0.2-0.1c0.3-0.1,0.5-0.2,0.8-0.3c0,0,0.1,0,0.1,0c0.3-0.1,0.6-0.3,0.8-0.4c0.1,0,0.1-0.1,0.2-0.1
	c0.2-0.1,0.4-0.2,0.5-0.3c-0.1-2.4,0.6-4.8,2.1-7.1c1.1-1.8,3-3.6,5.2-4.8c-0.2-0.2-0.3-0.4-0.5-0.6c-0.2-0.2-0.4-0.4-0.7-0.5
	c0,0-0.1-0.1-0.1-0.1c-0.1-0.1-0.2-0.1-0.3-0.2c-0.1-0.1-0.2-0.1-0.3-0.2c0,0-0.1,0-0.1-0.1c-0.2-0.1-0.5-0.2-0.7-0.3c0,0,0,0-0.1,0
	c-0.1,0-0.1,0-0.2,0c-0.2,0-0.4-0.1-0.6-0.1c0,0-0.1,0-0.1,0c-0.2,0-0.5,0-0.7,0c-0.1,0-0.2,0-0.3,0c-0.2,0-0.4,0-0.5,0.1
	c-0.1,0-0.2,0-0.3,0.1c-0.2,0-0.4,0.1-0.5,0.2c-0.1,0-0.2,0-0.2,0.1c-0.3,0.1-0.5,0.2-0.7,0.3c0,0,0,0,0,0c-0.2,0.1-0.4,0.2-0.6,0.3
	c-0.6,0.2-1.3,0.5-2.2,0.6c-0.3,0.1-0.6,0.1-0.8,0.1c-0.1,0-0.2,0-0.2,0c-0.2,0-0.4,0-0.6,0c0,0-0.1,0-0.1,0c0,0,0,0-0.1,0
	c-0.2,0-0.5,0-0.7,0c0,0-0.1,0-0.1,0c-0.2,0-0.4,0-0.5-0.1c-0.1,0-0.1,0-0.2,0c-0.1,0-0.3,0-0.4-0.1c-0.1,0-0.1,0-0.2,0
	c-0.2,0-0.3-0.1-0.5-0.1c-0.1,0-0.2,0-0.2-0.1l0,0c-0.3-0.1-0.6-0.1-1-0.2c-0.1,0-0.2,0-0.3,0c-0.2,0-0.4,0-0.7,0
	c-0.1,0-0.1,0-0.2,0c-0.2,0-0.5,0-0.7,0.1c-0.1,0-0.2,0-0.3,0c-0.2,0-0.4,0.1-0.7,0.1c-0.1,0-0.2,0-0.2,0.1
	c-0.3,0.1-0.6,0.2-0.9,0.3c0,0-0.1,0-0.1,0.1c-0.2,0.1-0.5,0.2-0.7,0.4c-0.1,0.1-0.2,0.1-0.3,0.2c-0.2,0.1-0.4,0.3-0.6,0.4
	c-0.1,0.1-0.2,0.1-0.2,0.2c0,0,0,0,0,0c-0.2,0.2-0.5,0.4-0.7,0.7c-2.9,3.1-2.7,7.9,0.4,10.8c0.1,0.1,0.1,0.1,0.2,0.2
	c0.1,0.1,0.2,0.2,0.4,0.3c0.1,0,0.1,0.1,0.2,0.1c0.1,0,0.1,0.1,0.2,0.1c0,0,0.1,0.1,0.1,0.1c0,0,0,0,0,0c0,0,0.1,0.1,0.1,0.1
	c0,0,0,0,0.1,0c0,0,0.1,0.1,0.1,0.1c0,0,0.1,0.1,0.2,0.1c0.3,0.2,0.6,0.3,0.9,0.4c0,0,0.1,0,0.1,0.1c0.3,0.1,0.6,0.2,0.9,0.3
	c0.1,0,0.1,0,0.2,0c0.3,0.1,0.6,0.1,0.9,0.2c0,0,0.1,0,0.1,0c0.3,0,0.6,0,0.9,0c0,0,0,0,0.1,0C19.6,67.3,19.9,67.3,20.2,67.3z
	 M12.1,58.6c-0.3-0.2,0.9-4.1,3.9-4.9c0.1,0,1.9-0.5,2.4,0.2c0.5,0.7-0.4,2.6-1.7,3.1c-0.7,0.2-1-0.1-1.9,0
	C13,57.3,12.3,58.8,12.1,58.6z"/>
<path class="st8" d="M47.2,64.6c0.7-3.6,0-9.2-4-11.1c-0.2-0.1-0.5-0.2-0.8-0.3c-0.1,0-0.2,0-0.2-0.1c-0.2-0.1-0.4-0.1-0.5-0.1
	c-0.1,0-0.2,0-0.3,0c-0.2,0-0.3,0-0.5-0.1c-0.1,0-0.2,0-0.3,0c-0.2,0-0.3,0-0.5,0c0,0-0.1,0-0.1,0c-0.1,0-0.1,0-0.2,0
	c-0.3,0-0.5,0.1-0.8,0.1c-0.1,0-0.1,0-0.2,0c-0.1,0-0.2,0-0.3,0.1c-0.1,0-0.2,0-0.3,0.1c-0.1,0-0.2,0.1-0.3,0.1
	c-0.2,0.1-0.3,0.1-0.5,0.2c-0.1,0-0.2,0.1-0.3,0.1c-0.2,0.1-0.4,0.2-0.6,0.3c0,0-0.1,0-0.1,0.1c-0.2,0.1-0.4,0.2-0.5,0.3
	c-0.1,0-0.1,0.1-0.2,0.1c-0.1,0-0.1,0.1-0.2,0.1c-0.2,0.1-0.3,0.2-0.5,0.3c-0.1,0.1-0.2,0.1-0.2,0.2c-0.2,0.1-0.3,0.2-0.5,0.3
	c-0.1,0.1-0.1,0.1-0.2,0.2c-0.2,0.2-0.4,0.3-0.6,0.5c0,0-0.1,0-0.1,0.1c-0.2,0.2-0.4,0.4-0.6,0.6c-0.1,0.1-0.1,0.1-0.2,0.2
	c-0.1,0.1-0.3,0.3-0.4,0.4c-0.1,0.1-0.1,0.1-0.2,0.2c-0.1,0.1-0.2,0.3-0.3,0.4c0,0.1-0.1,0.1-0.1,0.2c-0.2,0.2-0.3,0.4-0.4,0.6
	C31,59,30.3,60,29.9,61.5c-0.5,1.5-0.7,3.4-0.1,5.5c0.3,1.1,0.9,2.2,1.6,3.1c0.3,0.4,0.6,0.7,1,1.1c0.3,0.3,0.7,0.6,1.1,0.9
	c1,0.7,2.1,1.2,3.2,1.4c0.5,0.1,1,0.1,1.4,0.1c0.2,0,0.3,0,0.5,0c0.1,0,0.3,0,0.4,0c0.2,0,0.3-0.1,0.5-0.1c0.1,0,0.3,0,0.4-0.1
	c0.1,0,0.3-0.1,0.4-0.1c0.1,0,0.3-0.1,0.4-0.1c0.1-0.1,0.3-0.1,0.4-0.2c0.1-0.1,0.3-0.1,0.4-0.2c0.1-0.1,0.2-0.1,0.3-0.2
	c0.1-0.1,0.3-0.2,0.4-0.2c0.1-0.1,0.2-0.1,0.3-0.2c0.1-0.1,0.3-0.2,0.4-0.3c0.1-0.1,0.2-0.2,0.3-0.2c0.1-0.1,0.3-0.2,0.4-0.4
	c0.1-0.1,0.1-0.2,0.2-0.2c0.1-0.1,0.3-0.3,0.4-0.4c0.1-0.1,0.1-0.1,0.2-0.2c0.1-0.2,0.3-0.3,0.4-0.5c0.1-0.1,0.1-0.1,0.1-0.2
	c0.1-0.2,0.2-0.3,0.3-0.5c0-0.1,0.1-0.2,0.1-0.2c0.1-0.2,0.2-0.3,0.3-0.5c0-0.1,0.1-0.1,0.1-0.2c0.1-0.2,0.2-0.4,0.3-0.6
	c0-0.1,0.1-0.1,0.1-0.2c0.1-0.2,0.2-0.4,0.3-0.6c0-0.1,0.1-0.2,0.1-0.4c0.1-0.1,0.1-0.3,0.2-0.4c0.1-0.2,0.1-0.4,0.2-0.6
	c0,0,0-0.1,0-0.1c0-0.1,0-0.1,0-0.2C47.1,65,47.1,64.8,47.2,64.6z M40.6,53.7c0.2,0.3-0.6,0.8-1.7,3.1c-1.1,2.2-1,3.1-1.8,3.4
	c-1.2,0.5-3.4-0.7-3.5-2C33.4,55.8,40,52.9,40.6,53.7z"/>
<path class="st9" d="M22.3,36.9c-0.5-1.1,2.1-4.5,5.1-4.3c2.3,0.1,4.4,2.4,4,3.5c-0.3,0.9-1.9,1-4.2,1.2
	C24.8,37.5,22.7,37.7,22.3,36.9z"/>
<path class="st10" d="M44.7,24.9c-0.7-1.6,3-6.5,7.3-6.2c3.3,0.2,6.2,3.4,5.7,5.1c-0.4,1.2-2.8,1.4-6,1.8
	C48.3,25.8,45.3,26.1,44.7,24.9z"/>
<path class="st10" d="M55.5,33.2c-2,2.7-2.4,3.7-2.7,3.6c-0.5-0.2-0.6-3,0.8-5c1.5-2.2,4.4-3,4.8-2.5C58.5,29.6,57.6,30.3,55.5,33.2
	z"/>
<path class="st10" d="M64.7,59.5c0.9-2.3,3.9-3.7,4.8-3c0.6,0.5,0.3,2.1-0.3,3.1c-0.6,0.9-1.1,0.8-2.5,2.2c-1,1-1.1,1.5-1.5,1.5
	C64.6,63.2,64.1,61.1,64.7,59.5z"/>
<path class="st11" d="M33.6,58.1c-0.2-2.3,6.4-5.2,7-4.5c0.2,0.3-0.6,0.8-1.7,3.1c-1.1,2.2-1,3.1-1.8,3.4
	C35.9,60.6,33.7,59.4,33.6,58.1z"/>
<path class="st12" d="M12.1,58.6c-0.3-0.2,0.9-4.1,3.9-4.9c0.1,0,1.9-0.5,2.4,0.2c0.5,0.7-0.4,2.6-1.7,3.1c-0.7,0.2-1-0.1-1.9,0
	C13,57.3,12.3,58.8,12.1,58.6z"/>
<defs>
<script>

let icon = document.querySelector("#jelly");

function logMyId() {
	console.log(this.id);
}

icon.addEventListener("click", () => { console.log(this); });

</script>
</defs>
</svg>