<?xml version="1.0" encoding="utf-8"?>
<!-- Generator: Adobe Illustrator 25.0.0, SVG Export Plug-In . SVG Version: 6.00 Build 0)  -->
<svg version="1.1" id="drink" xmlns="http://www.w3.org/2000/svg" xmlns:xlink="http://www.w3.org/1999/xlink" x="0px" y="0px"
	 viewBox="0 0 100 100" style="enable-background:new 0 0 100 100;" xml:space="preserve">
<style type="text/css">
	.st0{fill:#FFB361;}
	.st1{fill:#F7941D;}
	.st2{fill:#30D8C8;}
	.st3{opacity:0.5;}
	.st4{fill:#00A79D;}
	.st5{fill:#231F20;}
</style>
<g>
	<circle class="st0" cx="50" cy="50" r="48.2"/>
</g>
<g id="drinkCup">
	<g>
		<g>
			<path class="st1" d="M50.3,17c0-0.1,0.1-0.2,0.2-0.3c0.1-0.1,0.2-0.2,0.2-0.2c0.2-0.1,0.4-0.2,0.6-0.2c0.5,0,0.9,0.4,1.1,0.9
				c-0.1,0.3-0.1,0.9,0.1,1.7c0.2,0.7,0.5,1.1,0.8,1.4C52.3,19.1,51.3,18,50.3,17z"/>
		</g>
	</g>
	<g>
		<g>
			<path class="st1" d="M48.9,19.9c-0.2-0.5-0.1-1.1,0.4-1.6c1.5,0.9,2.9,1.9,4.1,2.1c0,0,0,0,0,0c0,0,0,0,0,0
				c-0.5,0.1-1.2,0.1-2,0.2c-0.7,0.1-1.1,0.1-1.5,0c-0.1,0-0.1,0-0.2-0.1C49.5,20.4,49.1,20.3,48.9,19.9z"/>
		</g>
	</g>
	<g>
		<g>
			<path class="st2" d="M52.4,17.1c2.7-1.8,5.5-3.5,8.2-5.3c-0.9,0.9-1.1,3.3-0.3,5c0.6,1.2,1.8,2.5,2.8,2.6
				c-3.2,0.4-6.5,0.7-9.7,1.1l0.5,8.9h-4.4l0.5-8.7c0.4,0.1,0.8,0.1,1.5,0c0.8-0.1,1.5-0.2,2-0.2h0c0,0,0,0,0,0c0,0,0,0,0,0
				c0,0,0,0,0,0c-0.1-0.1-0.1-0.1-0.2-0.2c-0.3-0.3-0.6-0.8-0.8-1.4C52.3,18,52.3,17.4,52.4,17.1z"/>
		</g>
	</g>
	<path class="st1" d="M53.2,50.6l0.3-3.7c0.2-0.1,0.3-0.2,0.5-0.3l-0.3,4l-0.1,1.2c-0.1,0.1-0.3,0.2-0.5,0.3L53.2,50.6z"/>
	<path class="st1" d="M51,75.5l0-0.3c0.1,0.1,0.3,0.1,0.4,0.2l0,0.1l-0.4,4.6c-0.2-0.1-0.3-0.2-0.4-0.4L51,75.5z"/>
	<path class="st1" d="M55,45.8l0.2-1.9c0.1-0.3,0.3-0.6,0.5-0.8c0.4-0.4,0.9-0.6,1.5-0.6c0.1,0,0.1,0,0.2,0l0,0.3l-0.3,3l-0.1,1.7
		c-0.9,0.1-1.7,0.6-2.1,1.4L55,45.8z"/>
	<path class="st1" d="M62,69.9c0.1,0,0.3,0,0.4,0l-0.4,5c-1.1,0-2.1-1-2.1-2.1c0-1-0.6-1.9-1.4-2.4l0-0.5l0.1-0.7l0.3-3.2
		c0.2,0.3,0.3,0.7,0.3,1.2C59.2,68.6,60.4,69.9,62,69.9z"/>
	<path class="st1" d="M55.8,36.5l0.1-0.9h2l-0.1,0.6c-0.2-0.1-0.5-0.1-0.7-0.1C56.6,36.1,56.2,36.3,55.8,36.5z"/>
	<path class="st1" d="M37.7,47.4c-0.5,0-0.9,0.1-1.3,0.3L36,43.3c0.1-0.1,0.1-0.2,0.2-0.2c0.4-0.4,0.9-0.6,1.5-0.6
		c1.2,0,2.1,0.9,2.1,2.1c0,1.5,1.2,2.8,2.8,2.8c1.5,0,2.8-1.2,2.8-2.8c0-1.2,0.9-2.1,2.1-2.1c1.2,0,2.1,0.9,2.1,2.1
		c0,0.8,0.3,1.5,0.8,2c0.2,0.2,0.5,0.4,0.7,0.5l-0.3,3.6l-0.1,0.9c-0.3-0.4-0.5-0.8-0.5-1.3c0-0.8-0.3-1.5-0.8-2
		c-0.5-0.5-1.2-0.8-1.9-0.8c-1.5,0-2.8,1.2-2.8,2.8c0,1.2-0.9,2.1-2.1,2.1c-1.2,0-2.1-0.9-2.1-2.1C40.4,48.7,39.2,47.4,37.7,47.4z"
		/>
	<path class="st1" d="M52.4,75.5L52.4,75.5c0.9-0.1,1.7-0.5,2.1-1.2l0,0.6l-0.1,0.7l-0.3,3.9c-0.1,0.2-0.2,0.3-0.4,0.5
		c-0.4,0.4-0.9,0.6-1.5,0.6c-0.1,0-0.2,0-0.3,0l0,0L52.4,75.5z"/>
	<path class="st1" d="M52.6,57.3l0.4-4.5c0.2,0,0.3-0.1,0.5-0.2l-0.4,4.7l0,0.5c-0.1,0.1-0.3,0.1-0.5,0.1L52.6,57.3z"/>
	<path class="st1" d="M54.4,52.2l0-0.3c0.4-0.5,0.6-1,0.6-1.7c0-0.6,0.2-1.1,0.6-1.5c0.3-0.3,0.7-0.5,1.2-0.6l-0.2,2.5l-0.1,1.5
		l-0.1,1c-1.2,0.3-2,1.4-2,2.7c0,0.4-0.1,0.8-0.4,1.2L54.4,52.2z"/>
	<path class="st1" d="M62,52.9c0.7,0,1.4-0.3,1.9-0.8l-0.4,5.2c-0.4,0.4-0.9,0.6-1.5,0.6c-1.2,0-2.1-0.9-2.1-2.1
		c0-0.2,0-0.4-0.1-0.6l0.3-3C60.5,52.6,61.2,52.9,62,52.9z"/>
	<path class="st1" d="M54.4,36.6l0.1-1h0.5l-0.1,1l-0.1,0.8c-0.3,0.4-0.4,0.9-0.4,1.5c0,0.3-0.1,0.7-0.2,0.9l0.2-2.2L54.4,36.6z"/>
	<path class="st1" d="M37.7,41.8c-0.7,0-1.3,0.2-1.8,0.6l-0.3-3.5c0-0.6,0.2-1.1,0.6-1.5c0.4-0.4,0.9-0.6,1.5-0.6
		c1.2,0,2.1,0.9,2.1,2.1c0,1.5,1.2,2.8,2.8,2.8c1.5,0,2.8-1.2,2.8-2.8c0-1.2,0.9-2.1,2.1-2.1c1.2,0,2.1,0.9,2.1,2.1
		c0,0.8,0.3,1.5,0.8,2c0.3,0.3,0.7,0.6,1.2,0.7l-0.1,1.3l-0.3,3l0,0.5c-0.6-0.4-0.9-1-0.9-1.7c0-0.8-0.3-1.5-0.8-2
		c-0.5-0.5-1.2-0.8-1.9-0.8c-1.5,0-2.8,1.2-2.8,2.8c0,1.2-0.9,2.1-2.1,2.1c-1.2,0-2.1-0.9-2.1-2.1C40.4,43,39.2,41.8,37.7,41.8z"/>
	<path class="st1" d="M35.4,37.3l-0.2-1.7H52l-0.1,1l-0.1,1l-0.3,3.2c-0.8-0.3-1.4-1.1-1.4-2c0-0.8-0.3-1.5-0.8-2
		c-0.5-0.5-1.2-0.8-1.9-0.8c-1.5,0-2.8,1.2-2.8,2.8c0,1.2-0.9,2.1-2.1,2.1c-1.2,0-2.1-0.9-2.1-2.1c0-1.5-1.2-2.8-2.8-2.8
		C36.8,36.1,35.9,36.6,35.4,37.3z"/>
	<path class="st1" d="M39.5,82l-0.5-5.2c0.4,0.4,0.7,0.9,0.7,1.6c0,1.5,1.2,2.8,2.8,2.8c1.5,0,2.8-1.2,2.8-2.8
		c0-1.2,0.9-2.1,2.1-2.1c0.4,0,0.8,0.1,1.1,0.3l-0.3,3.8l-0.1,0.7l0,0.3c-0.2-0.1-0.4-0.1-0.7-0.1c-1.5,0-2.8,1.2-2.8,2.8
		c0,1.2-0.9,2.1-2.1,2.1c-1.2,0-2.1-0.9-2.1-2.1C40.4,83.3,40.1,82.5,39.5,82z"/>
	<path class="st1" d="M60.9,86.6l-0.1,1.5H40.1l-0.4-4.3l0-0.4c0.1,0.2,0.1,0.5,0.1,0.7c0,1.5,1.2,2.8,2.8,2.8
		c1.5,0,2.8-1.2,2.8-2.8c0-1.2,0.9-2.1,2.1-2.1c0.2,0,0.4,0,0.6,0.1l-0.3,3.9l-0.1,0.7l-0.1,1.5H50l0.1-1.5l0.1-0.7l0-0.1
		c0,0.1,0.1,0.1,0.1,0.2c0.1,0.1,0.2,0.2,0.3,0.2l0,0.4l-0.1,1.5h0.9l0.1-1.4c0.3,0.1,0.5,0.1,0.8,0.1c0.4,0,0.9-0.1,1.2-0.3l0,0.1
		l-0.1,1.5h1.1h1.4H57l0.1-1.5l0.1-0.7l0.3-3.9c1,0.2,1.7,1,1.7,2.1C59.2,85.2,59.9,86.2,60.9,86.6z"/>
	<path class="st1" d="M64.4,45.8L64,50.6c-0.1,0.4-0.3,0.7-0.6,1c-0.4,0.4-0.9,0.6-1.5,0.6c-0.8,0-1.5-0.4-1.8-1.1l0-0.6l0.3-3.8
		c0.4,0.3,0.9,0.4,1.5,0.4C63,47.3,64,46.7,64.4,45.8z"/>
	<path class="st1" d="M61.4,81.1L61,85.9c-0.7-0.4-1.1-1-1.1-1.8c0-1.4-1-2.5-2.3-2.7l0-0.2l0.1-0.7l0.3-4c0.7,0.3,1.3,1.1,1.3,1.9
		C59.2,79.7,60.1,80.8,61.4,81.1z"/>
	<path class="st1" d="M61.9,75.5l-0.4,4.9c-0.9-0.2-1.6-1.1-1.6-2c0-1.2-0.8-2.2-1.9-2.6l0-0.3l0.1-0.7l0.3-3.7
		c0.5,0.4,0.8,1,0.8,1.6C59.2,74.3,60.4,75.5,61.9,75.5z"/>
	<path class="st1" d="M53.9,42.8L54,41c0.2-0.2,0.4-0.3,0.5-0.5l-0.2,2.3l-0.2,2.8c-0.1,0.2-0.2,0.3-0.3,0.5c0,0-0.1,0.1-0.2,0.1
		l0-0.4L53.9,42.8z"/>
	<path class="st1" d="M39,76L39,76l-0.5-5.1c0.7,0.3,1.3,1.1,1.3,1.9c0,1.5,1.2,2.8,2.8,2.8c1.5,0,2.8-1.2,2.8-2.8
		c0-1.2,0.9-2.1,2.1-2.1c0.6,0,1.2,0.3,1.5,0.7l-0.3,3.5l-0.1,0.7l0,0.4c-0.3-0.2-0.7-0.3-1.1-0.3c-1.5,0-2.8,1.2-2.8,2.8
		c0,1.2-0.9,2.1-2.1,2.1c-1.2,0-2.1-0.9-2.1-2.1C40.4,77.4,39.8,76.4,39,76z"/>
	<path class="st1" d="M55.7,37.6l0-0.3c0.4-0.3,0.9-0.6,1.4-0.6c0.2,0,0.4,0,0.7,0.1l-0.1,0.8l-0.4,4.1c-0.1,0-0.2,0-0.2,0
		c-0.7,0-1.4,0.3-1.9,0.7L55.7,37.6z"/>
	<path class="st1" d="M62,58.6c0.5,0,1-0.1,1.4-0.4l-0.4,5.1c-0.3,0.1-0.6,0.2-1,0.2c-1.2,0-2.1-0.9-2.1-2.1c0-0.6-0.2-1.1-0.5-1.6
		l0.1-1.7l0.1-0.9l0-0.1C60.1,58,61,58.6,62,58.6z"/>
	<path class="st1" d="M51.6,69.1l0.4-4.9c0.1,0,0.2,0,0.2,0c0.1,0,0.1,0,0.2,0L52,69.2l0,0C51.9,69.2,51.7,69.2,51.6,69.1z"/>
	<path class="st1" d="M38.4,70.1L38,65c1,0.1,1.8,1,1.8,2.1c0,1.5,1.2,2.8,2.8,2.8c1.5,0,2.8-1.2,2.8-2.8c0-1.2,0.9-2.1,2.1-2.1
		c0.9,0,1.7,0.6,2,1.4l-0.2,2.8l-0.1,0.7L49,70.5c-0.5-0.3-1-0.5-1.6-0.5c-1.5,0-2.8,1.2-2.8,2.8c0,1.2-0.9,2.1-2.1,2.1
		c-1.2,0-2.1-0.9-2.1-2.1C40.4,71.5,39.6,70.4,38.4,70.1z"/>
	<path class="st1" d="M53.4,64.1l0-0.1c1-0.4,1.6-1.4,1.6-2.5c0-0.6,0.2-1.1,0.6-1.5c0,0,0.1-0.1,0.2-0.1l-0.3,3.5l-0.1,0.7L55.3,65
		c-0.6,0.5-1,1.3-1,2.1c0,0.6-0.2,1.1-0.6,1.5c-0.2,0.2-0.5,0.4-0.8,0.5L53.4,64.1z"/>
	<path class="st1" d="M52.9,69.8L52.9,69.8c1.2-0.3,2.1-1.4,2.1-2.7c0-0.3,0.1-0.7,0.2-0.9l-0.3,3l-0.1,0.7l-0.1,1.4
		c-0.3,0.4-0.4,0.9-0.4,1.5c0,0.6-0.2,1.1-0.6,1.5c-0.3,0.3-0.8,0.6-1.3,0.6L52.9,69.8z"/>
	<path class="st1" d="M61.5,35.6h3.8l-0.1,1c-0.7,0.5-1.2,1.3-1.2,2.2c0,0.6-0.2,1.1-0.6,1.5C63.1,40.7,62.5,41,62,41
		c-0.3,0-0.7-0.1-0.9-0.2l0.3-3.1l0.1-1L61.5,35.6z"/>
	<path class="st1" d="M37.9,64.4L37.9,64.4l-0.5-5c0.1,0,0.1,0,0.2,0c1.2,0,2.1,0.9,2.1,2.1c0,1.5,1.2,2.8,2.8,2.8
		c1.5,0,2.8-1.2,2.8-2.8c0-1.2,0.9-2.1,2.1-2.1c1.2,0,2.1,0.9,2.1,2.1c0,0.4,0.1,0.7,0.2,1l-0.1,0.8l-0.1,0.7l-0.1,1.2
		c0,0-0.1-0.1-0.1-0.1c-0.5-0.5-1.2-0.8-1.9-0.8c-1.5,0-2.8,1.2-2.8,2.8c0,1.2-0.9,2.1-2.1,2.1c-1.2,0-2.1-0.9-2.1-2.1
		C40.4,65.7,39.3,64.5,37.9,64.4z"/>
	<path class="st1" d="M65.1,37.6l-0.4,4.7l0,0.4v0c-0.4,0.5-0.6,1.1-0.6,1.7c0,0.6-0.2,1.1-0.6,1.5c-0.4,0.4-0.9,0.6-1.5,0.6
		c-0.5,0-1-0.2-1.4-0.5l0-0.3l0.3-3l0.1-1.3c0.3,0.1,0.6,0.2,1,0.2c1.5,0,2.8-1.2,2.8-2.8C64.7,38.4,64.9,38,65.1,37.6z"/>
	<path class="st1" d="M53.9,58.2l0-0.2c0.7-0.5,1.1-1.3,1.1-2.2c0-0.6,0.2-1.1,0.6-1.5c0.2-0.2,0.4-0.3,0.7-0.5L56,57.3l-0.1,0.9
		L55.9,59c-0.9,0.5-1.5,1.4-1.5,2.5c0,0.6-0.2,1.1-0.6,1.5c-0.1,0.1-0.2,0.2-0.3,0.2L53.9,58.2z"/>
	<path class="st1" d="M51.5,69.8L51.5,69.8c0.1,0,0.3,0,0.4,0l-0.4,4.9c-0.2-0.1-0.3-0.1-0.4-0.2L51.5,69.8z"/>
	<path class="st1" d="M59.1,63.3l0.1-1.6c0.1,1.4,1.3,2.5,2.7,2.5c0.3,0,0.6-0.1,0.9-0.1l-0.4,5.1c-0.1,0-0.3,0-0.4,0
		c-1.2,0-2.1-0.9-2.1-2.1c0-0.8-0.4-1.6-0.9-2.1l0.1-1L59.1,63.3z"/>
	<path class="st1" d="M37.7,53.1c-0.3,0-0.5,0-0.8,0.1l-0.4-4.7c0.3-0.2,0.8-0.4,1.2-0.4c1.2,0,2.1,0.9,2.1,2.1
		c0,1.5,1.2,2.8,2.8,2.8c1.5,0,2.8-1.2,2.8-2.8c0-1.2,0.9-2.1,2.1-2.1c1.2,0,2.1,0.9,2.1,2.1c0,0.8,0.3,1.5,0.8,2
		c0.1,0.1,0.2,0.2,0.3,0.2l-0.3,4c0-0.2-0.1-0.3-0.1-0.5c0-0.8-0.3-1.5-0.8-2c-0.5-0.5-1.2-0.8-1.9-0.8c-1.5,0-2.8,1.2-2.8,2.8
		c0,1.2-0.9,2.1-2.1,2.1c-1.2,0-2.1-0.9-2.1-2.1C40.4,54.3,39.2,53.1,37.7,53.1z"/>
	<path class="st1" d="M53.9,81.1l-0.4,4.6c-0.4,0.3-0.8,0.5-1.3,0.5c-0.3,0-0.5-0.1-0.8-0.1l0-0.1l0.4-4.8c0.1,0,0.2,0,0.3,0
		c0.7,0,1.3-0.2,1.7-0.6L53.9,81.1z"/>
	<path class="st1" d="M37.7,58.7c-0.1,0-0.2,0-0.3,0L37,53.9c0.2-0.1,0.5-0.1,0.7-0.1c1.2,0,2.1,0.9,2.1,2.1c0,1.5,1.2,2.8,2.8,2.8
		c1.5,0,2.8-1.2,2.8-2.8c0-1.2,0.9-2.1,2.1-2.1c1.2,0,2.1,0.9,2.1,2.1c0,0.7,0.2,1.3,0.6,1.7l-0.1,0.6l-0.2,2.1
		c-0.1-0.3-0.3-0.5-0.5-0.8c-0.5-0.5-1.2-0.8-1.9-0.8c-1.5,0-2.8,1.2-2.8,2.8c0,1.2-0.9,2.1-2.1,2.1c-1.2,0-2.1-0.9-2.1-2.1
		C40.4,59.9,39.2,58.7,37.7,58.7z"/>
	<path class="st1" d="M51,81.1l-0.4,4.3c-0.2-0.2-0.3-0.4-0.4-0.7l0.3-3.6l0-0.5c0.1,0.1,0.3,0.2,0.4,0.3L51,81.1z"/>
	<path class="st1" d="M52.1,63.3l0.4-4.8c0.2,0,0.3,0,0.5-0.1l-0.4,4.9l0,0.2c-0.1,0-0.2,0-0.3,0c-0.1,0-0.1,0-0.2,0L52.1,63.3z"/>
	<g class="st3">
		<g>
			<path class="st2" d="M50.2,56.3l0.3-4c0.5,0.4,1.1,0.6,1.7,0.6c0.3,0,0.5,0,0.8-0.1l-0.4,4.5l0,0.6c-0.1,0-0.2,0-0.3,0
				C51.3,57.9,50.5,57.3,50.2,56.3z"/>
		</g>
	</g>
	<g class="st3">
		<g>
			<path class="st2" d="M48.6,74.9l0.3-3.5c0.3,0.4,0.6,0.9,0.6,1.4c0,0.8,0.3,1.5,0.8,2c0.2,0.2,0.5,0.4,0.8,0.5l0,0.3l-0.4,4.3
				c-0.3-0.4-0.5-0.9-0.5-1.4c0-0.8-0.3-1.5-0.8-2c-0.2-0.2-0.5-0.4-0.8-0.6l0-0.4L48.6,74.9z"/>
		</g>
	</g>
	<g class="st3">
		<g>
			<path class="st2" d="M50.7,50.6L51,47c0.4,0.2,0.8,0.3,1.2,0.3c0.5,0,0.9-0.1,1.3-0.3l-0.3,3.7l-0.1,1.5
				c-0.3,0.1-0.5,0.2-0.8,0.2c-0.6,0-1.2-0.3-1.6-0.8L50.7,50.6z"/>
		</g>
	</g>
	<g class="st3">
		<g>
			<path class="st2" d="M50.6,81.1l-0.3,3.6c-0.1-0.2-0.1-0.4-0.1-0.7c0-0.8-0.3-1.5-0.8-2c-0.3-0.3-0.8-0.6-1.3-0.7l0-0.3l0.1-0.7
				l0.3-3.8c0.6,0.4,1,1,1,1.8c0,0.8,0.3,1.5,0.8,2c0.1,0.1,0.2,0.2,0.3,0.3L50.6,81.1z"/>
		</g>
	</g>
	<g class="st3">
		<g>
			<path class="st2" d="M50.1,58.2l0.1-0.6c0.1,0.1,0.1,0.1,0.2,0.2c0.5,0.5,1.2,0.8,2,0.8c0.1,0,0.2,0,0.3,0l-0.4,4.8l0,0.2
				c-1.1-0.1-1.9-1-1.9-2.1c0-0.4-0.1-0.8-0.3-1.2L50.1,58.2z"/>
		</g>
	</g>
	<g class="st3">
		<g>
			<path class="st2" d="M49.1,69.2l0.2-2.8c0.1,0.2,0.1,0.5,0.1,0.7c0,0.8,0.3,1.5,0.8,2c0.3,0.3,0.8,0.6,1.2,0.7l0,0.1l-0.4,4.7
				c-0.6-0.4-1-1-1-1.8c0-0.8-0.3-1.5-0.8-2c-0.1-0.1-0.2-0.2-0.3-0.3l0.1-0.7L49.1,69.2z"/>
		</g>
	</g>
	<g class="st3">
		<g>
			<path class="st2" d="M49.6,63.3l0.1-0.8c0.1,0.3,0.3,0.7,0.6,0.9c0.4,0.4,1.1,0.7,1.7,0.8l-0.4,4.9c-0.8-0.3-1.4-1.1-1.4-2
				c0-0.7-0.3-1.3-0.7-1.8l0.1-1.2L49.6,63.3z"/>
		</g>
	</g>
	<g class="st3">
		<g>
			<path class="st2" d="M47.7,85.9l0.3-3.9c0.9,0.3,1.5,1.1,1.5,2c0,0.7,0.3,1.3,0.7,1.8l0,0.1l-0.1,0.7L50,88.1h-2.5l0.1-1.5
				L47.7,85.9z"/>
		</g>
	</g>
	<g class="st3">
		<g>
			<path class="st2" d="M51.9,36.6l0.1-1h2.5l-0.1,1l-0.1,1l-0.2,2.2c-0.1,0.2-0.2,0.4-0.4,0.5c-0.4,0.4-0.9,0.6-1.5,0.6
				c-0.2,0-0.5,0-0.7-0.1l0.3-3.2L51.9,36.6z"/>
		</g>
	</g>
	<g class="st3">
		<g>
			<path class="st2" d="M51.4,42.8l0.1-1.3c0.2,0.1,0.5,0.1,0.8,0.1c0.7,0,1.3-0.2,1.8-0.6l-0.2,1.8l-0.3,3l0,0.4
				c-0.4,0.3-0.8,0.5-1.3,0.5c-0.4,0-0.8-0.1-1.2-0.4l0-0.5L51.4,42.8z"/>
		</g>
	</g>
	<g class="st3">
		<g>
			<path class="st2" d="M57.2,42.8l0-0.3c1.1,0.1,1.9,1,1.9,2.1c0,1,0.5,1.8,1.3,2.3l-0.3,3.8l0,0.6c-0.2-0.3-0.3-0.6-0.3-1
				c0-1.5-1.2-2.8-2.8-2.8c-0.1,0-0.2,0-0.3,0l0.1-1.7L57.2,42.8z"/>
		</g>
	</g>
	<g class="st3">
		<g>
			<path class="st2" d="M57.7,37.6l0.1-0.8c0.8,0.3,1.4,1.1,1.4,2c0,1.2,0.7,2.2,1.8,2.6l-0.1,1.3l-0.3,3l0,0.3
				c-0.4-0.4-0.7-0.9-0.7-1.6c0-1.4-1.1-2.6-2.5-2.7L57.7,37.6z"/>
		</g>
	</g>
	<g class="st3">
		<g>
			<path class="st2" d="M57.8,36.2l0.1-0.6h3.6l-0.1,1l-0.1,1L61,40.8c-0.7-0.3-1.2-1.1-1.2-1.9C59.9,37.6,59,36.5,57.8,36.2z"/>
		</g>
	</g>
	<g class="st3">
		<g>
			<path class="st2" d="M53.5,86.6L53.5,86.6c0.9-0.5,1.5-1.5,1.5-2.6c0-0.6,0.2-1.1,0.6-1.5c0.4-0.4,0.9-0.6,1.5-0.6
				c0.1,0,0.3,0,0.4,0l-0.3,3.9l-0.1,0.7L57,88.1h-1.1h-1.4h-1.1L53.5,86.6z"/>
		</g>
	</g>
	<g class="st3">
		<g>
			<path class="st2" d="M55.5,63.3l0.3-3.5c0.4-0.3,0.8-0.5,1.3-0.5c1.2,0,2.1,0.9,2.1,2.1c0,0.1,0,0.2,0,0.3l-0.1,1.6L59,64.1
				l-0.1,1c-0.5-0.4-1.1-0.7-1.8-0.7c-0.7,0-1.3,0.2-1.8,0.6l0.1-0.9L55.5,63.3z"/>
		</g>
	</g>
	<g class="st3">
		<g>
			<path class="st2" d="M57.1,76.3c0.3,0,0.6,0.1,0.8,0.2l-0.3,4l-0.1,0.7l0,0.2c-0.1,0-0.3,0-0.4,0c-1.5,0-2.8,1.2-2.8,2.8
				c0,0.6-0.2,1.1-0.6,1.5c-0.1,0.1-0.1,0.1-0.2,0.2l0.4-4.6l0-0.6c0.6-0.5,1-1.3,1-2.1c0-0.6,0.2-1.1,0.6-1.5
				C56,76.5,56.5,76.3,57.1,76.3z"/>
		</g>
	</g>
	<g class="st3">
		<g>
			<path class="st2" d="M56,57.3l0.3-3.4c0.3-0.1,0.5-0.2,0.8-0.2c1.2,0,2.1,0.9,2.1,2.1c0,0.5,0.1,1,0.4,1.4l0,0.1l-0.1,0.9
				l-0.1,1.7c-0.5-0.7-1.3-1.2-2.3-1.2c-0.5,0-0.9,0.1-1.3,0.3l0.1-0.8L56,57.3z"/>
		</g>
	</g>
	<g class="st3">
		<g>
			<path class="st2" d="M55,69.2l0.3-3c0.1-0.2,0.2-0.4,0.4-0.5c0.4-0.4,0.9-0.6,1.5-0.6c0.7,0,1.4,0.4,1.8,0.9l-0.3,3.2l-0.1,0.7
				l0,0.5c-0.4-0.2-0.9-0.4-1.4-0.4c-1,0-1.8,0.5-2.3,1.3l0.1-1.4L55,69.2z"/>
		</g>
	</g>
	<g class="st3">
		<g>
			<path class="st2" d="M56.6,50.6l0.2-2.5c0.1,0,0.2,0,0.3,0c1.2,0,2.1,0.9,2.1,2.1c0,0.8,0.3,1.5,0.8,2l-0.3,3
				c-0.3-1.2-1.4-2.1-2.7-2.1c-0.3,0-0.5,0-0.8,0.1l0.1-1L56.6,50.6z"/>
		</g>
	</g>
	<g class="st3">
		<g>
			<path class="st2" d="M54.5,74.9l0-0.6c0.3-0.4,0.5-1,0.5-1.5c0-0.6,0.2-1.1,0.6-1.5c0.4-0.4,0.9-0.6,1.5-0.6
				c0.5,0,0.9,0.2,1.3,0.5l-0.3,3.7L58,75.5l0,0.3c-0.3-0.1-0.6-0.2-0.9-0.2c-1.5,0-2.8,1.2-2.8,2.8c0,0.4-0.1,0.7-0.3,1l0.3-3.9
				L54.5,74.9z"/>
		</g>
	</g>
	<g class="st3">
		<g>
			<path class="st2" d="M51.5,85.9l0,0.1c-0.3-0.1-0.6-0.3-0.8-0.6l0.4-4.3l0-0.2c0.3,0.1,0.6,0.2,0.9,0.3L51.5,85.9z"/>
		</g>
	</g>
	<g class="st3">
		<g>
			<path class="st2" d="M50.5,86.6l0-0.4c0.3,0.2,0.5,0.4,0.9,0.4l-0.1,1.4h-0.9L50.5,86.6z"/>
		</g>
	</g>
	<g class="st3">
		<g>
			<path class="st2" d="M51.6,74.7l0.4-4.9c0.1,0,0.2,0,0.3,0c0.2,0,0.4,0,0.6-0.1l0,0.1l-0.4,5c-0.1,0-0.1,0-0.2,0
				C52,74.9,51.8,74.8,51.6,74.7z"/>
		</g>
	</g>
	<g class="st3">
		<g>
			<path class="st2" d="M51.5,75.5l0-0.1c0.2,0.1,0.5,0.1,0.7,0.1c0.1,0,0.1,0,0.2,0l0,0L52,80.4l0,0c-0.3,0-0.6-0.2-0.9-0.3
				L51.5,75.5z"/>
		</g>
	</g>
	<g class="st3">
		<g>
			<path class="st2" d="M53.1,57.3l0.4-4.7c0.4-0.2,0.7-0.5,1-0.8l0,0.3L54,57c-0.1,0.1-0.2,0.2-0.3,0.3c-0.2,0.2-0.4,0.4-0.7,0.5
				L53.1,57.3z"/>
		</g>
	</g>
	<g class="st3">
		<g>
			<path class="st2" d="M52,69.2l0.4-4.9c0.3,0,0.6-0.1,0.9-0.2l0,0.1l-0.4,5c-0.2,0.1-0.5,0.1-0.7,0.1C52.2,69.2,52.1,69.2,52,69.2
				L52,69.2z"/>
		</g>
	</g>
	<g class="st3">
		<g>
			<path class="st2" d="M53.6,50.6l0.3-4c0.6-0.5,1-1.3,1-2.1c0-0.2,0-0.5,0.1-0.7L55,45.8l-0.3,3.1c-0.2,0.4-0.4,0.9-0.4,1.3
				c0,0.6-0.2,1.1-0.6,1.5c-0.1,0.1-0.1,0.1-0.2,0.2L53.6,50.6z"/>
		</g>
	</g>
	<g class="st3">
		<g>
			<path class="st2" d="M54.8,36.6l0.1-1h0.9l-0.1,0.9c-0.4,0.2-0.7,0.5-1,0.9L54.8,36.6z"/>
		</g>
	</g>
	<g class="st3">
		<g>
			<path class="st2" d="M54.3,42.8l0.2-2.3c0.3-0.4,0.5-1,0.5-1.6c0-0.6,0.2-1.1,0.6-1.5c0,0,0,0,0.1-0.1l0,0.3l-0.4,4.9
				c-0.6,0.5-0.9,1.2-0.9,2c0,0.4-0.1,0.7-0.3,1L54.3,42.8z"/>
		</g>
	</g>
	<g class="st3">
		<g>
			<path class="st2" d="M52.5,63.3l0.4-4.9c0.3-0.1,0.7-0.3,0.9-0.5l0,0.2l-0.4,5c-0.3,0.2-0.6,0.3-0.9,0.4L52.5,63.3z"/>
		</g>
	</g>
	<path class="st4" d="M52,34.5H35.3H34h-1.1v-4.1H52V34.5z"/>
	<path class="st5" d="M67.1,29.3H54.5L54,20.9l9.1-1c0.2,0,0.4,0,0.6-0.1c0.5-0.2,1-0.6,1.3-1.2c0.6-1.3,0.6-3.2,0-4.6
		c-0.7-1.6-2.5-3.6-4.1-3.1c-0.2,0.1-0.5,0.2-0.7,0.4l-7.6,5c-0.3-0.4-0.8-0.6-1.3-0.6c0,0,0,0,0,0c-0.5,0-0.9,0.2-1.2,0.6
		c-0.2-0.1-0.4-0.1-0.7-0.1c-0.4,0-0.7,0.2-0.9,0.4c-0.2,0.3-0.3,0.7-0.3,1.1c0,0.3,0.2,0.5,0.3,0.8c-0.3,0.6-0.4,1.3-0.1,1.8
		c0.2,0.5,0.7,0.7,1,0.9l-0.4,8.3h-16h-1.1v1.1v4.1v1.1h1.1h1.2l0,0.1l0.2,1.7l0.1,1.6l0.3,3.5l0.1,0.9l0.4,4.4l0.1,0.7l0.4,4.7
		l0.1,0.7l0.4,4.9l0.1,0.7l0.5,5l0.1,0.7l0.5,5.1l0.1,0.7l0.5,5.1l0.1,0.9l0.5,5.2l0.1,1.3l0.4,4.7l0.1,1h1h20.7h1l0.1-1l0.1-1.5
		l0.1-0.7l0.4-4.8l0.1-0.7l0.4-4.9L63,75l0.4-5l0.1-0.7l0.4-5.1l0.1-0.7l0.4-5.1l0.1-0.9l0.4-5.2l0.1-1.5l0.4-4.9l0.3-3l0.4-5.1
		l0.1-1l0.1-1l0-0.1h0.6h1.1v-1.1v-4.1v-1.1H67.1z M61.1,11.4L61.1,11.4C61.1,11.4,61.1,11.4,61.1,11.4
		C61.1,11.4,61.1,11.4,61.1,11.4L61.1,11.4z M49.3,18.2c-0.6-0.4-0.7-1.1-0.4-1.4c0.3-0.3,0.9-0.4,1.4,0.1c0,0,0,0,0,0
		c0-0.1,0.1-0.2,0.2-0.3c0.1-0.1,0.2-0.2,0.2-0.2c0.2-0.1,0.4-0.2,0.6-0.2c0.5,0,0.9,0.4,1.1,0.9c2.7-1.8,5.5-3.5,8.2-5.3
		c-0.9,0.9-1.1,3.3-0.3,5c0.6,1.2,1.8,2.5,2.8,2.6c-3.2,0.4-6.5,0.7-9.7,1.1l0.5,8.9h-4.4l0.5-8.7c-0.1,0-0.1,0-0.2-0.1
		c-0.2-0.1-0.6-0.3-0.8-0.6C48.7,19.4,48.9,18.8,49.3,18.2z M65.2,36.6l-0.1,1l-0.4,4.7l0,0.4v0l0,0l-0.3,3L64,50.6l-0.1,1.5
		l-0.4,5.2l-0.1,0.9l-0.4,5.1l-0.1,0.7l-0.4,5.1l-0.1,0.7l-0.4,5l-0.1,0.7l-0.4,4.9l-0.1,0.7L61,85.9l-0.1,0.7l-0.1,1.5H40.1
		l-0.4-4.3l0-0.4L39.5,82l-0.5-5.2L39,76l0,0v0l-0.5-5.1l-0.1-0.7L38,65l-0.1-0.7h0l0,0l-0.5-5l-0.1-0.7L37,53.9l-0.1-0.7h0
		l-0.4-4.7l0,0l-0.1-0.7h0L36,43.3l-0.1-0.9l-0.3-3.5l-0.1-1.6l-0.2-1.7H52h2.5h0.5h0.9h2h3.6h3.8L65.2,36.6z M67.1,34.5h-0.5h-1.2
		H52H35.3H34h-1.1v-4.1H52h15V34.5z"/>
	<g>
		<path class="st2" d="M63.4,51.7c0.3-0.3,0.5-0.6,0.6-1l-0.1,1.5c-0.5,0.5-1.2,0.8-1.9,0.8c-0.7,0-1.4-0.3-1.9-0.8
			c-0.5-0.5-0.8-1.2-0.8-2c0-1.2-0.9-2.1-2.1-2.1c-0.1,0-0.2,0-0.3,0c-0.5,0.1-0.9,0.3-1.2,0.6c-0.4,0.4-0.6,0.9-0.6,1.5
			c0,0.6-0.2,1.2-0.6,1.7c-0.3,0.3-0.6,0.6-1,0.8c-0.1,0.1-0.3,0.1-0.5,0.2c-0.2,0.1-0.5,0.1-0.8,0.1c-0.6,0-1.2-0.2-1.7-0.6
			c-0.1-0.1-0.2-0.1-0.3-0.2c-0.5-0.5-0.8-1.2-0.8-2c0-1.2-0.9-2.1-2.1-2.1c-1.2,0-2.1,0.9-2.1,2.1c0,1.5-1.2,2.8-2.8,2.8
			c-1.5,0-2.8-1.2-2.8-2.8c0-1.2-0.9-2.1-2.1-2.1c-0.5,0-0.9,0.1-1.2,0.4l0,0l-0.1-0.7h0c0.4-0.2,0.8-0.3,1.3-0.3
			c1.5,0,2.8,1.2,2.8,2.8c0,1.2,0.9,2.1,2.1,2.1c1.2,0,2.1-0.9,2.1-2.1c0-1.5,1.2-2.8,2.8-2.8c0.8,0,1.5,0.3,1.9,0.8
			c0.5,0.5,0.8,1.2,0.8,2c0,0.5,0.2,1,0.5,1.3c0.4,0.5,1,0.8,1.6,0.8c0.3,0,0.6-0.1,0.8-0.2c0.2-0.1,0.3-0.2,0.5-0.3
			c0.1-0.1,0.1-0.1,0.2-0.2c0.4-0.4,0.6-0.9,0.6-1.5c0-0.5,0.1-0.9,0.4-1.3c0.4-0.8,1.2-1.3,2.1-1.4c0.1,0,0.2,0,0.3,0
			c1.5,0,2.8,1.2,2.8,2.8c0,0.4,0.1,0.7,0.3,1c0.4,0.6,1,1.1,1.8,1.1C62.5,52.3,63.1,52,63.4,51.7z"/>
	</g>
	<g>
		<path class="st0" d="M64.1,44.5c0-0.7,0.2-1.3,0.6-1.7l0,0l-0.3,3C64,46.7,63,47.3,62,47.3c-0.5,0-1-0.2-1.5-0.4
			c-0.8-0.5-1.3-1.4-1.3-2.3c0-1.1-0.8-2-1.9-2.1c-0.1,0-0.1,0-0.2,0c-0.6,0-1.1,0.2-1.5,0.6c-0.2,0.2-0.4,0.5-0.5,0.8
			C55.1,44,55,44.3,55,44.5c0,0.9-0.4,1.6-1,2.1c-0.1,0.1-0.3,0.2-0.5,0.3c-0.4,0.2-0.8,0.3-1.3,0.3c-0.4,0-0.9-0.1-1.2-0.3
			c-0.3-0.1-0.5-0.3-0.7-0.5c-0.5-0.5-0.8-1.2-0.8-2c0-1.2-0.9-2.1-2.1-2.1c-1.2,0-2.1,0.9-2.1,2.1c0,1.5-1.2,2.8-2.8,2.8
			c-1.5,0-2.8-1.2-2.8-2.8c0-1.2-0.9-2.1-2.1-2.1c-0.6,0-1.1,0.2-1.5,0.6c-0.1,0.1-0.1,0.2-0.2,0.2l-0.1-0.9
			c0.5-0.4,1.1-0.6,1.8-0.6c1.5,0,2.8,1.2,2.8,2.8c0,1.2,0.9,2.1,2.1,2.1c1.2,0,2.1-0.9,2.1-2.1c0-1.5,1.2-2.8,2.8-2.8
			c0.8,0,1.5,0.3,1.9,0.8c0.5,0.5,0.8,1.2,0.8,2c0,0.7,0.4,1.4,0.9,1.7c0.3,0.2,0.7,0.4,1.2,0.4c0.5,0,1-0.2,1.3-0.5
			c0.1,0,0.1-0.1,0.2-0.1c0.1-0.1,0.3-0.3,0.3-0.5c0.2-0.3,0.3-0.7,0.3-1c0-0.8,0.3-1.5,0.9-2c0.5-0.4,1.1-0.7,1.9-0.7
			c0.1,0,0.2,0,0.2,0c1.4,0.1,2.5,1.3,2.5,2.7c0,0.6,0.3,1.2,0.7,1.6c0.4,0.3,0.9,0.5,1.4,0.5c0.6,0,1.1-0.2,1.5-0.6
			C63.8,45.6,64.1,45.1,64.1,44.5z"/>
	</g>
	<g>
		<path class="st2" d="M65.2,36.6l-0.1,1c-0.3,0.3-0.4,0.8-0.4,1.2c0,1.5-1.2,2.8-2.8,2.8c-0.4,0-0.7-0.1-1-0.2
			c-1-0.4-1.8-1.4-1.8-2.6c0-0.9-0.6-1.7-1.4-2c-0.2-0.1-0.4-0.1-0.7-0.1c-0.5,0-1,0.2-1.4,0.6c0,0,0,0-0.1,0.1
			c-0.4,0.4-0.6,0.9-0.6,1.5c0,0.6-0.2,1.1-0.5,1.6c-0.1,0.2-0.3,0.4-0.5,0.5c-0.5,0.4-1.1,0.6-1.8,0.6c-0.3,0-0.5,0-0.8-0.1
			c-0.5-0.1-0.9-0.4-1.2-0.7c-0.5-0.5-0.8-1.2-0.8-2c0-1.2-0.9-2.1-2.1-2.1c-1.2,0-2.1,0.9-2.1,2.1c0,1.5-1.2,2.8-2.8,2.8
			c-1.5,0-2.8-1.2-2.8-2.8c0-1.2-0.9-2.1-2.1-2.1c-0.6,0-1.1,0.2-1.5,0.6c-0.4,0.4-0.6,0.9-0.6,1.5l-0.1-1.6
			c0.5-0.7,1.3-1.2,2.2-1.2c1.5,0,2.8,1.2,2.8,2.8c0,1.2,0.9,2.1,2.1,2.1c1.2,0,2.1-0.9,2.1-2.1c0-1.5,1.2-2.8,2.8-2.8
			c0.8,0,1.5,0.3,1.9,0.8c0.5,0.5,0.8,1.2,0.8,2c0,0.9,0.6,1.7,1.4,2c0.2,0.1,0.5,0.1,0.7,0.1c0.6,0,1.1-0.2,1.5-0.6
			c0.2-0.2,0.3-0.3,0.4-0.5c0.1-0.3,0.2-0.6,0.2-0.9c0-0.5,0.2-1.1,0.4-1.5c0.2-0.4,0.6-0.7,1-0.9c0.4-0.2,0.9-0.3,1.3-0.3
			c0.2,0,0.5,0,0.7,0.1c1.2,0.3,2,1.4,2,2.7c0,0.8,0.5,1.5,1.2,1.9c0.3,0.1,0.6,0.2,0.9,0.2c0.6,0,1.1-0.2,1.5-0.6
			c0.4-0.4,0.6-0.9,0.6-1.5C64.1,38,64.5,37.1,65.2,36.6z"/>
	</g>
	<g>
		<path class="st0" d="M63.4,57.3l-0.1,0.9c-0.4,0.2-0.9,0.4-1.4,0.4c-1,0-1.9-0.5-2.4-1.3c-0.3-0.4-0.4-0.9-0.4-1.4
			c0-1.2-0.9-2.1-2.1-2.1c-0.3,0-0.6,0.1-0.8,0.2c-0.3,0.1-0.5,0.3-0.7,0.5c-0.4,0.4-0.6,0.9-0.6,1.5c0,0.9-0.4,1.7-1.1,2.2
			c-0.3,0.2-0.6,0.4-0.9,0.5c-0.1,0-0.3,0.1-0.5,0.1c-0.1,0-0.2,0-0.3,0c-0.8,0-1.5-0.3-2-0.8c-0.1-0.1-0.1-0.1-0.2-0.2
			c-0.4-0.5-0.6-1.1-0.6-1.7c0-1.2-0.9-2.1-2.1-2.1c-1.2,0-2.1,0.9-2.1,2.1c0,1.5-1.2,2.8-2.8,2.8c-1.5,0-2.8-1.2-2.8-2.8
			c0-1.2-0.9-2.1-2.1-2.1c-0.3,0-0.5,0-0.7,0.1l-0.1-0.7h0c0.2-0.1,0.5-0.1,0.8-0.1c1.5,0,2.8,1.2,2.8,2.8c0,1.2,0.9,2.1,2.1,2.1
			c1.2,0,2.1-0.9,2.1-2.1c0-1.5,1.2-2.8,2.8-2.8c0.8,0,1.5,0.3,1.9,0.8c0.5,0.5,0.8,1.2,0.8,2c0,0.2,0,0.4,0.1,0.5
			c0.2,0.9,1.1,1.6,2,1.6c0.1,0,0.2,0,0.3,0c0.2,0,0.3-0.1,0.5-0.1c0.3-0.1,0.5-0.3,0.7-0.5c0.1-0.1,0.2-0.2,0.3-0.3
			c0.2-0.3,0.4-0.7,0.4-1.2c0-1.3,0.8-2.3,2-2.7c0.2-0.1,0.5-0.1,0.8-0.1c1.3,0,2.4,0.9,2.7,2.1c0,0.2,0.1,0.4,0.1,0.6
			c0,1.2,0.9,2.1,2.1,2.1C62.5,57.9,63.1,57.7,63.4,57.3z"/>
	</g>
	<g>
		<path class="st2" d="M62,63.6c0.3,0,0.7-0.1,1-0.2l-0.1,0.7c-0.3,0.1-0.6,0.1-0.9,0.1c-1.4,0-2.6-1.1-2.7-2.5c0-0.1,0-0.2,0-0.3
			c0-1.2-0.9-2.1-2.1-2.1c-0.5,0-1,0.2-1.3,0.5c-0.1,0-0.1,0.1-0.2,0.1c-0.4,0.4-0.6,0.9-0.6,1.5c0,1.1-0.7,2.1-1.6,2.5
			c-0.3,0.1-0.6,0.2-0.9,0.2c-0.1,0-0.1,0-0.2,0c-0.1,0-0.2,0-0.2,0c-0.7-0.1-1.3-0.3-1.7-0.8c-0.3-0.3-0.5-0.6-0.6-0.9
			c-0.1-0.3-0.2-0.7-0.2-1c0-1.2-0.9-2.1-2.1-2.1c-1.2,0-2.1,0.9-2.1,2.1c0,1.5-1.2,2.8-2.8,2.8c-1.5,0-2.8-1.2-2.8-2.8
			c0-1.2-0.9-2.1-2.1-2.1c-0.1,0-0.1,0-0.2,0l-0.1-0.7c0.1,0,0.2,0,0.3,0c1.5,0,2.8,1.2,2.8,2.8c0,1.2,0.9,2.1,2.1,2.1
			c1.2,0,2.1-0.9,2.1-2.1c0-1.5,1.2-2.8,2.8-2.8c0.8,0,1.5,0.3,1.9,0.8c0.2,0.2,0.4,0.5,0.5,0.8c0.2,0.4,0.3,0.8,0.3,1.2
			c0,1.1,0.8,2,1.9,2.1c0.1,0,0.1,0,0.2,0c0.1,0,0.2,0,0.3,0c0.3,0,0.7-0.2,0.9-0.4c0.1-0.1,0.2-0.1,0.3-0.2
			c0.4-0.4,0.6-0.9,0.6-1.5c0-1.1,0.6-2,1.5-2.5c0.4-0.2,0.8-0.3,1.3-0.3c0.9,0,1.8,0.5,2.3,1.2c0.3,0.4,0.5,1,0.5,1.6
			C59.9,62.6,60.8,63.6,62,63.6z"/>
	</g>
	<g>
		<path class="st0" d="M62.4,69.2l-0.1,0.7c-0.1,0-0.3,0-0.4,0c-1.5,0-2.8-1.2-2.8-2.8c0-0.4-0.1-0.8-0.3-1.2
			c-0.4-0.6-1-0.9-1.8-0.9c-0.6,0-1.1,0.2-1.5,0.6c-0.2,0.2-0.3,0.3-0.4,0.5c-0.1,0.3-0.2,0.6-0.2,0.9c0,1.3-0.9,2.4-2.1,2.7
			c-0.2,0-0.4,0.1-0.6,0.1c-0.1,0-0.2,0-0.3,0c-0.2,0-0.3,0-0.4-0.1c-0.5-0.1-0.9-0.4-1.2-0.7c-0.5-0.5-0.8-1.2-0.8-2
			c0-0.3,0-0.5-0.1-0.7c-0.3-0.8-1.1-1.4-2-1.4c-1.2,0-2.1,0.9-2.1,2.1c0,1.5-1.2,2.8-2.8,2.8c-1.5,0-2.8-1.2-2.8-2.8
			c0-1.1-0.8-1.9-1.8-2.1l-0.1-0.7h0c1.4,0.1,2.5,1.3,2.5,2.7c0,1.2,0.9,2.1,2.1,2.1c1.2,0,2.1-0.9,2.1-2.1c0-1.5,1.2-2.8,2.8-2.8
			c0.8,0,1.5,0.3,1.9,0.8c0,0,0.1,0.1,0.1,0.1c0.4,0.5,0.7,1.1,0.7,1.8c0,0.9,0.6,1.7,1.4,2c0.1,0,0.3,0.1,0.4,0.1
			c0.1,0,0.1,0,0.2,0c0.2,0,0.5,0,0.7-0.1c0.3-0.1,0.6-0.3,0.8-0.5c0.4-0.4,0.6-0.9,0.6-1.5c0-0.8,0.4-1.6,1-2.1
			c0.5-0.4,1.1-0.6,1.8-0.6c0.7,0,1.3,0.3,1.8,0.7c0.6,0.5,0.9,1.2,0.9,2.1c0,1.2,0.9,2.1,2.1,2.1C62.1,69.2,62.3,69.2,62.4,69.2z"
			/>
	</g>
	<g>
		<path class="st2" d="M61.9,74.9l-0.1,0.7c-1.5-0.1-2.7-1.3-2.7-2.8c0-0.7-0.3-1.3-0.8-1.6c-0.4-0.3-0.8-0.5-1.3-0.5
			c-0.6,0-1.1,0.2-1.5,0.6c-0.4,0.4-0.6,0.9-0.6,1.5c0,0.6-0.2,1.1-0.5,1.5c-0.5,0.7-1.2,1.2-2.1,1.2c-0.1,0-0.1,0-0.2,0
			c-0.3,0-0.5,0-0.7-0.1c-0.2,0-0.3-0.1-0.4-0.2c-0.3-0.1-0.5-0.3-0.8-0.5c-0.5-0.5-0.8-1.2-0.8-2c0-0.6-0.2-1.1-0.6-1.4
			c-0.4-0.4-0.9-0.7-1.5-0.7c-1.2,0-2.1,0.9-2.1,2.1c0,1.5-1.2,2.8-2.8,2.8c-1.5,0-2.8-1.2-2.8-2.8c0-0.9-0.5-1.6-1.3-1.9l-0.1-0.7
			c1.2,0.3,2,1.4,2,2.6c0,1.2,0.9,2.1,2.1,2.1c1.2,0,2.1-0.9,2.1-2.1c0-1.5,1.2-2.8,2.8-2.8c0.6,0,1.2,0.2,1.6,0.5
			c0.1,0.1,0.2,0.2,0.3,0.3c0.5,0.5,0.8,1.2,0.8,2c0,0.7,0.4,1.4,1,1.8c0.1,0.1,0.3,0.2,0.4,0.2c0.2,0.1,0.4,0.1,0.7,0.1
			c0.1,0,0.1,0,0.2,0c0.5,0,0.9-0.3,1.3-0.6c0.4-0.4,0.6-0.9,0.6-1.5c0-0.6,0.2-1.1,0.4-1.5c0.5-0.8,1.3-1.3,2.3-1.3
			c0.5,0,1,0.1,1.4,0.4c0.8,0.5,1.4,1.4,1.4,2.4C59.9,73.9,60.8,74.8,61.9,74.9z"/>
	</g>
	<g>
		<path class="st0" d="M39.1,76.8L39,76l0,0c0.9,0.5,1.5,1.4,1.5,2.4c0,1.2,0.9,2.1,2.1,2.1c1.2,0,2.1-0.9,2.1-2.1
			c0-1.5,1.2-2.8,2.8-2.8c0.4,0,0.8,0.1,1.1,0.3c0.3,0.1,0.6,0.3,0.8,0.6c0.5,0.5,0.8,1.2,0.8,2c0,0.5,0.2,1,0.5,1.4
			c0.1,0.1,0.3,0.3,0.4,0.4c0.3,0.2,0.6,0.3,0.9,0.3c0.1,0,0.2,0,0.3,0c0.6,0,1.1-0.2,1.5-0.6c0.1-0.1,0.3-0.3,0.4-0.5
			c0.2-0.3,0.3-0.6,0.3-1c0-1.5,1.2-2.8,2.8-2.8c0.3,0,0.6,0.1,0.9,0.2c1.1,0.4,1.9,1.4,1.9,2.6c0,1,0.7,1.8,1.6,2l-0.1,0.7
			c-1.2-0.3-2.2-1.4-2.2-2.7c0-0.9-0.5-1.6-1.3-1.9c-0.3-0.1-0.5-0.2-0.8-0.2c-0.6,0-1.1,0.2-1.5,0.6c-0.4,0.4-0.6,0.9-0.6,1.5
			c0,0.9-0.4,1.6-1,2.1c-0.5,0.4-1.1,0.6-1.7,0.6c-0.1,0-0.2,0-0.3,0c-0.3,0-0.6-0.1-0.9-0.3c-0.2-0.1-0.3-0.2-0.4-0.3
			c-0.1-0.1-0.2-0.2-0.3-0.3c-0.5-0.5-0.8-1.2-0.8-2c0-0.8-0.4-1.4-1-1.8c-0.3-0.2-0.7-0.3-1.1-0.3c-1.2,0-2.1,0.9-2.1,2.1
			c0,1.5-1.2,2.8-2.8,2.8c-1.5,0-2.8-1.2-2.8-2.8C39.8,77.8,39.5,77.2,39.1,76.8z"/>
	</g>
	<g>
		<g>
			<path class="st2" d="M61,85.9l-0.1,0.7c-1-0.4-1.7-1.4-1.7-2.6c0-1-0.7-1.9-1.7-2.1c-0.1,0-0.2,0-0.4,0c-0.6,0-1.1,0.2-1.5,0.6
				C55.2,83,55,83.5,55,84.1c0,1.1-0.6,2-1.5,2.5c-0.4,0.2-0.8,0.3-1.2,0.3c-0.3,0-0.6,0-0.8-0.1c-0.3-0.1-0.6-0.3-0.9-0.4
				c-0.1-0.1-0.2-0.2-0.3-0.2c0,0-0.1-0.1-0.1-0.2c-0.4-0.5-0.7-1.1-0.7-1.8c0-0.9-0.6-1.7-1.5-2C47.8,82,47.6,82,47.4,82
				c-1.2,0-2.1,0.9-2.1,2.1c0,1.5-1.2,2.8-2.8,2.8c-1.5,0-2.8-1.2-2.8-2.8c0-0.2,0-0.5-0.1-0.7L39.5,82c0.6,0.5,0.9,1.2,0.9,2
				c0,1.2,0.9,2.1,2.1,2.1c1.2,0,2.1-0.9,2.1-2.1c0-1.5,1.2-2.8,2.8-2.8c0.2,0,0.5,0,0.7,0.1c0.5,0.1,0.9,0.4,1.3,0.7
				c0.5,0.5,0.8,1.2,0.8,2c0,0.2,0,0.4,0.1,0.7c0.1,0.3,0.2,0.5,0.4,0.7c0.2,0.3,0.5,0.5,0.8,0.6c0.2,0.1,0.5,0.1,0.8,0.1
				c0.5,0,0.9-0.2,1.3-0.5c0.1-0.1,0.1-0.1,0.2-0.2c0.4-0.4,0.6-0.9,0.6-1.5c0-1.5,1.2-2.8,2.8-2.8c0.1,0,0.3,0,0.4,0
				c1.3,0.2,2.3,1.3,2.3,2.7C59.9,84.9,60.3,85.6,61,85.9z"/>
		</g>
	</g>
	<g>
		<path class="st2" d="M67.1,30.4v4.1h-0.5h-1.2H52v-4.1H67.1z"/>
	</g>
	<g>
		<path class="st2" d="M49.3,18.2c-0.6-0.4-0.7-1.1-0.4-1.4c0.3-0.3,0.9-0.4,1.4,0.1c0,0,0,0,0,0c1,1.1,2,2.1,3,3.2
			c0.1,0.1,0.1,0.1,0.2,0.2c0,0,0,0,0,0C52.2,20.2,50.8,19.2,49.3,18.2z"/>
	</g>
</g>
<defs>
<script>

let icon = document.querySelector("#drink");

function logMyId() {
	console.log(this.id);
}

icon.addEventListener("click", () => { console.log(this); });

</script>
</defs>
</svg>
