<?xml version="1.0" encoding="utf-8"?>
<!-- Generator: Adobe Illustrator 25.0.0, SVG Export Plug-In . SVG Version: 6.00 Build 0)  -->
<svg version="1.1" id="popcorn" xmlns="http://www.w3.org/2000/svg" xmlns:xlink="http://www.w3.org/1999/xlink" x="0px" y="0px"
	 viewBox="0 0 100 100" style="enable-background:new 0 0 100 100;" xml:space="preserve">
<style type="text/css">
	.st0{fill:#F2D766;}
	.st1{fill:#E5D68C;}
	.st2{fill:#DBD2AD;}
	.st3{fill:#7F0912;}
	.st4{fill:#FFF7D4;}
	.st5{fill:#231F20;}
	.st6{fill:url(#SVGID_1_);}
	.st7{fill:url(#SVGID_2_);}
	.st8{fill:url(#SVGID_3_);}
	.st9{fill:url(#placard_1_);}
	.st10{clip-path:url(#SVGID_5_);}
	.st11{clip-path:url(#SVGID_9_);}
	.st12{clip-path:url(#SVGID_13_);}
	.st13{fill:url(#SVGID_16_);}
</style>
<circle class="st0" cx="50" cy="50" r="48.2"/>
<path class="st1" d="M21.9,29.3c0-0.1,0-0.1,0-0.2c0.1-0.3,0.3-0.6,0.5-0.8c0.1-0.1,0.3-0.2,0.4-0.3c0-0.3,0-0.6,0-0.9
	c0.1-0.6,0.4-1.2,0.8-1.8c0.2-0.2,0.4-0.4,0.6-0.6c0.5-0.4,1-0.6,1.6-0.7c0.1,0,0.2,0,0.4,0c0,0,0.1,0,0.1,0c0.1,0,0.2,0,0.3,0
	c0,0,0.1,0,0.1,0c0.1,0,0.2,0,0.3,0c0,0,0.1,0,0.1,0c0,0,0,0,0,0c-0.6,0.9-0.6,2.1,0,3.2c-0.1,0.1-0.1,0.3-0.1,0.4
	c-0.3,0-0.6,0.2-0.8,0.3c-0.9,0.6-1.2,2-0.6,3.1c-0.1,0.1-0.2,0.2-0.2,0.3C24.5,30.3,23.3,29.5,21.9,29.3z"/>
<path class="st1" d="M41.4,19.4c0,0,0-0.1,0-0.1c0.3-0.2,0.6-0.3,0.9-0.4c0.1-0.2,0.2-0.4,0.3-0.6c0.1-0.1,0.1-0.2,0.2-0.3
	c0,0,0,0,0-0.1c0.1-0.1,0.1-0.2,0.2-0.2c0,0,0,0,0,0c0.1-0.1,0.2-0.1,0.2-0.2c0,0,0,0,0,0c0.1-0.1,0.2-0.1,0.3-0.2c0,0,0,0,0.1,0
	c0.1-0.1,0.2-0.1,0.3-0.1c0,0,0,0,0,0c0.1,0,0.2-0.1,0.3-0.1c0,0,0,0,0.1,0c0.1,0,0.2,0,0.3-0.1c0,0,0,0,0.1,0c0.1,0,0.2,0,0.3,0
	c0,0,0,0,0,0c0.1,0,0.2,0,0.3,0c0,0,0.1,0,0.1,0c0.1,0,0.2,0,0.3,0.1c0.2,0.1,0.4,0.1,0.6,0.2c0.2,0.1,0.4,0.2,0.5,0.4
	c0.1,0.1,0.2,0.1,0.2,0.2c0.2,0.2,0.4,0.5,0.5,0.8c0.1,0,0.2,0,0.2-0.1c0,0,0,0,0,0c-0.3,0.6-0.4,1.2-0.2,1.9
	c-0.5,0.3-0.8,0.7-1,1.2c-0.6-0.6-1.4-1-2.2-1c-0.1,0-0.1,0-0.2,0c-0.1-0.2-0.2-0.3-0.4-0.5C43.4,19.5,42.4,19.2,41.4,19.4z"/>
<path class="st1" d="M48.2,20.8c0.1-0.1,0.2-0.1,0.3-0.2c-0.1-0.3-0.2-0.6-0.2-0.9c0-0.1,0-0.1,0-0.2c0-0.1,0-0.2,0.1-0.4
	c0.1-0.5,0.4-0.9,0.8-1.2c0.1-0.1,0.2-0.1,0.2-0.1c0,0,0,0,0.1,0c0.1,0,0.2-0.1,0.3-0.1c0,0,0,0,0,0c0.1,0,0.2,0,0.2-0.1
	c0,0,0,0,0.1,0c0.1,0,0.2,0,0.3,0c0,0,0,0,0.1,0c0.1,0,0.1,0,0.2,0c0,0,0.1,0,0.1,0c0,0,0.1,0,0.1,0c0,0,0.1,0,0.1,0
	c0.1,0,0.1,0,0.2,0c0,0,0,0,0.1,0c0.1,0,0.1,0.1,0.2,0.1c0,0,0,0,0,0c0.1,0,0.1,0.1,0.2,0.1c0,0,0,0,0.1,0c0,0,0.1,0.1,0.1,0.1
	c0,0,0,0,0.1,0.1c0,0,0.1,0.1,0.1,0.1c0,0,0,0,0.1,0.1c0.1,0.1,0.1,0.1,0.1,0.2c0,0,0,0,0,0c0,0,0,0,0,0c0.1-0.1,0.2-0.1,0.2-0.1
	c0,0,0.1,0,0.1,0c0.1,0,0.1,0,0.2-0.1c0,0,0.1,0,0.1,0c0.1,0,0.1,0,0.2,0c0,0,0,0,0.1,0c0.1,0,0.2,0,0.2,0c0,0,0,0,0.1,0
	c0.1,0,0.2,0,0.2,0.1c0,0,0,0,0,0c0.1,0,0.1,0.1,0.2,0.1c0,0,0,0,0,0c0.1,0,0.1,0.1,0.2,0.2c0,0,0,0,0,0c0.1,0.1,0.1,0.1,0.2,0.2
	c0.1,0.1,0.1,0.2,0.2,0.4c0,0.1,0,0.1,0.1,0.2c0,0.1,0,0.3,0,0.4c0,0.1,0,0.1,0,0.2c0,0.1-0.1,0.3-0.1,0.4c0.1,0.1,0.1,0.2,0.2,0.3
	c0.1,0.1,0.1,0.2,0.2,0.3c0.1,0.1,0.1,0.3,0.2,0.4c-0.2,0-0.4-0.1-0.6-0.1c-0.6,0-1.2,0.2-1.8,0.5c-0.4-0.2-0.8-0.4-1.2-0.4
	c-0.2,0-0.3,0-0.5,0.1c-1,0.3-1.7,1.2-1.6,2.2c-0.4-0.2-0.8-0.4-1.3-0.4c-0.1-0.4-0.3-0.8-0.5-1.1c0,0,0,0,0,0
	c0-0.2,0.1-0.4,0.2-0.6C47.7,21.3,47.9,21,48.2,20.8z"/>
<path class="st0" d="M60.8,22.4c-0.1-0.4-0.3-0.8-0.6-1.2c0,0,0.1,0,0.1,0c0.4,0,0.7,0.1,1,0.3c0.2,0.1,0.3,0.3,0.4,0.5
	c0.1,0,0.2-0.1,0.3-0.1c0,0,0.1,0,0.1,0c0.1,0,0.2,0,0.2,0c0,0,0.1,0,0.1,0c0.1,0,0.1,0,0.2,0c0,0,0.1,0,0.1,0c0.1,0,0.1,0,0.2,0
	c0.1,0,0.2,0,0.3,0c0,0,0.1,0,0.1,0c0.1,0,0.2,0,0.2,0.1c0,0,0.1,0,0.1,0c0.1,0,0.2,0.1,0.2,0.1c0,0,0.1,0,0.1,0
	c0.1,0.1,0.2,0.1,0.3,0.2c0.5-0.6,1.3-1,2.1-1c0.2,0,0.4,0,0.6,0.1c0.3,0.1,0.7,0.2,0.9,0.4c-0.2,0-0.4,0.1-0.6,0.2
	c-1.3,0.6-2,1.8-1.9,3.1c-0.5-0.3-1.1-0.4-1.7-0.4c-0.5,0-1,0.1-1.5,0.3c-0.3,0.1-0.5,0.3-0.7,0.4c-0.3-0.4-0.7-0.6-1.1-0.8
	C60.9,23.8,61,23.1,60.8,22.4z"/>
<path class="st0" d="M54.8,21.9C54.8,21.9,54.8,21.9,54.8,21.9c0.1,0,0.2,0,0.2,0c0.1,0,0.1,0,0.2,0c0.2-0.4,0.4-0.7,0.7-0.9
	c0.2-0.1,0.3-0.2,0.5-0.3s0.4-0.2,0.6-0.2c0.1,0,0.2,0,0.3-0.1c0,0,0.1,0,0.1,0c0.1,0,0.1,0,0.2,0c0,0,0.1,0,0.1,0c0,0,0.1,0,0.1,0
	c0.1,0,0.1,0,0.2,0c0,0,0,0,0.1,0c0.1,0,0.2,0,0.2,0.1c0,0,0,0,0.1,0c0.1,0,0.1,0,0.2,0.1c0,0,0.1,0,0.1,0c0,0,0.1,0,0.1,0.1
	c0,0,0.1,0,0.1,0c0,0,0.1,0,0.1,0.1c0,0,0.1,0,0.1,0c0,0,0.1,0.1,0.1,0.1c0,0,0,0,0.1,0.1c0.1,0,0.1,0.1,0.2,0.1c0,0,0,0,0,0
	c0.1,0.1,0.1,0.1,0.2,0.2c0.3,0.3,0.5,0.7,0.6,1.2c0,0.1,0,0.2,0.1,0.3c0.1,0.5,0,1-0.2,1.5c-0.3-0.1-0.6-0.1-0.8-0.1
	c-0.5,0-0.9,0.1-1.3,0.3c-0.9,0.4-1.6,1.2-1.8,2.1c0,0-0.1,0-0.1,0c-0.1-0.4-0.3-0.8-0.5-1.1c-0.6-0.9-1.6-1.5-2.6-1.5
	c-0.5,0-1,0.2-1.5,0.4c-0.1,0.1-0.2,0.2-0.4,0.3c-0.4-0.3-0.9-0.5-1.4-0.6c0,0,0-0.1,0-0.1c-0.2-0.9,0.3-1.8,1.2-2
	c0.1,0,0.1,0,0.2,0c0,0,0,0,0.1,0c0,0,0.1,0,0.1,0c0,0,0,0,0.1,0c0,0,0.1,0,0.1,0c0,0,0,0,0.1,0c0,0,0.1,0,0.1,0c0,0,0,0,0,0
	c0.1,0,0.1,0,0.2,0.1c0,0,0,0,0,0c0,0,0.1,0,0.1,0.1c0,0,0,0,0.1,0c0,0,0.1,0.1,0.1,0.1c0,0,0,0,0,0c0,0,0.1,0.1,0.1,0.1
	c0.1-0.1,0.2-0.1,0.3-0.2c0,0,0,0,0.1,0c0.2-0.1,0.4-0.2,0.6-0.2c0,0,0.1,0,0.1,0c0.2-0.1,0.4-0.1,0.6-0.1c0,0,0.1,0,0.1,0
	C54.3,21.9,54.5,21.9,54.8,21.9z"/>
<path class="st2" d="M68.1,22.2C68.1,22.2,68.1,22.2,68.1,22.2c0.1,0,0.2-0.1,0.3-0.1c0,0,0.1,0,0.1,0c0.1,0,0.1,0,0.2,0
	c0,0,0.1,0,0.1,0c0,0,0,0,0,0c0.1,0,0.1,0,0.2,0c0,0,0.1,0,0.1,0c0.1,0,0.2,0,0.3,0c0,0,0,0,0,0c0.1,0,0.2,0,0.3,0.1
	c0,0,0.1,0,0.1,0c0.1,0,0.2,0.1,0.2,0.1c0,0,0,0,0.1,0c0.1,0,0.2,0.1,0.3,0.1c0,0,0,0,0.1,0c0.1,0,0.1,0.1,0.2,0.1c0,0,0,0,0.1,0
	c0.1,0.1,0.2,0.1,0.2,0.2c0,0,0,0,0,0c0.1,0.1,0.1,0.1,0.2,0.2c0,0,0,0,0.1,0.1c0.1,0.1,0.1,0.2,0.2,0.3c0.1-0.1,0.1-0.1,0.2-0.2
	c0.2-0.2,0.5-0.4,0.8-0.5c0.1,0,0.2-0.1,0.3-0.1c0,0,0.1,0,0.1,0c0.1,0,0.1,0,0.2-0.1c0,0,0.1,0,0.1,0c0.1,0,0.1,0,0.2,0
	c0,0,0.1,0,0.1,0c0.1,0,0.1,0,0.2,0c0.1,0,0.2,0,0.3,0c0,0,0,0,0,0c0.1,0,0.2,0,0.2,0c0,0,0.1,0,0.1,0c0.1,0,0.1,0,0.2,0
	c0,0,0,0,0.1,0c0.1,0,0.2,0.1,0.3,0.1c0,0,0,0,0.1,0c0.1,0,0.1,0.1,0.2,0.1c0,0,0.1,0,0.1,0c0.1,0,0.1,0.1,0.2,0.1c0,0,0,0,0.1,0
	c0.1,0,0.2,0.1,0.2,0.2c0,0,0,0,0.1,0c0.1,0,0.1,0.1,0.2,0.1c0,0,0,0,0.1,0.1c0.1,0.1,0.1,0.1,0.2,0.2c0,0,0,0,0,0
	c0.1,0.1,0.1,0.1,0.2,0.2c0,0,0,0,0,0.1c0,0.1,0.1,0.1,0.1,0.2c0,0,0,0,0,0.1c0,0.1,0.1,0.2,0.1,0.3c0.1,0.2,0.1,0.3,0.2,0.5
	c0,0.1,0.1,0.2,0.1,0.4c0,0,0,0,0,0.1c0,0.3,0,0.6,0,0.9c0.2,0,0.5,0.1,0.7,0.1c0.1,0,0.3,0.1,0.4,0.1c0.3,0.1,0.5,0.3,0.8,0.4
	c0.4,0.3,0.8,0.7,1,1.3c0.1,0.2,0.2,0.4,0.2,0.6s0.1,0.4,0.1,0.6c0,0,0,0,0,0c-0.4-0.1-0.7-0.1-1.1-0.1c-0.4,0-0.7,0-1.1,0.1
	c0.1-0.2,0.1-0.5,0.1-0.7c-0.1-1.1-0.9-2-2-2c0,0-0.1,0-0.1,0c-0.4,0-0.8,0.2-1.1,0.4c-0.4-0.1-0.8-0.2-1.2-0.2
	c-0.4,0-0.9,0.1-1.3,0.2c-0.3-0.6-0.9-1-1.6-1c0,0,0,0,0,0c0,0-0.1,0-0.1,0c-0.5,0-1,0.3-1.3,0.7c-0.3,0.4-0.5,0.9-0.5,1.4
	c0,0.1,0,0.2,0,0.3c-0.1,0-0.1,0-0.2,0.1c-0.3-0.1-0.6-0.2-0.9-0.3c0-0.5-0.1-1-0.3-1.5c-0.2-0.5-0.6-1-1.1-1.4c0-0.1,0-0.2-0.1-0.3
	c-0.1-1.1,0.5-2.2,1.6-2.7C67.9,22.3,68,22.3,68.1,22.2z"/>
<path class="st2" d="M59.1,30.4c0.1-0.8-0.1-1.6-0.6-2.3c-0.5-0.7-1.1-1.1-1.8-1.4c0-0.2,0.1-0.3,0.2-0.5c0.1-0.2,0.2-0.3,0.3-0.4
	c0.1-0.1,0.2-0.3,0.4-0.4c0.2-0.2,0.4-0.3,0.7-0.4c0,0,0,0,0,0c0.1,0,0.2-0.1,0.3-0.1c0,0,0.1,0,0.1,0c0.1,0,0.1,0,0.2,0
	c0,0,0.1,0,0.1,0c0.1,0,0.1,0,0.2,0c0,0,0.1,0,0.1,0c0.1,0,0.1,0,0.2,0c0,0,0.1,0,0.1,0c0.1,0,0.2,0,0.3,0c0,0,0,0,0,0
	c0.1,0,0.2,0,0.3,0.1c0,0,0.1,0,0.1,0c0.1,0,0.2,0.1,0.2,0.1c0,0,0,0,0.1,0c0.1,0,0.2,0.1,0.3,0.1c0,0,0,0,0.1,0
	c0.1,0,0.1,0.1,0.2,0.1c0,0,0,0,0.1,0c0.1,0.1,0.2,0.1,0.2,0.2c0,0,0,0,0,0c0.1,0.1,0.1,0.1,0.2,0.2c0,0,0,0,0.1,0.1
	c0.1,0.1,0.1,0.2,0.2,0.3c0.3-0.3,0.6-0.5,1-0.7c0.1,0,0.2-0.1,0.3-0.1c0,0,0.1,0,0.1,0c0.1,0,0.1,0,0.2-0.1c0,0,0.1,0,0.1,0
	c0.1,0,0.1,0,0.2,0c0,0,0.1,0,0.1,0c0.1,0,0.1,0,0.2,0c0.1,0,0.2,0,0.3,0c0,0,0,0,0,0c0.1,0,0.2,0,0.2,0c0,0,0.1,0,0.1,0
	c0.1,0,0.1,0,0.2,0c0,0,0,0,0.1,0c0.1,0,0.2,0.1,0.3,0.1c0,0,0,0,0.1,0c0.1,0,0.1,0.1,0.2,0.1c0,0,0.1,0,0.1,0
	c0.1,0,0.1,0.1,0.2,0.1c0,0,0,0,0.1,0c0.1,0,0.1,0.1,0.2,0.1c0,0,0,0,0.1,0c0,0,0,0,0.1,0c0.1,0,0.1,0.1,0.2,0.1c0,0,0,0,0.1,0.1
	c0,0,0.1,0.1,0.1,0.1c0,0,0,0,0,0c0.3,0.3,0.5,0.6,0.6,0.9c0.1,0.2,0.2,0.4,0.2,0.7c0,0.1,0,0.3,0.1,0.4c0,0.2,0,0.4,0,0.7
	c0.1,0,0.1,0,0.2,0c0.1,0,0.3,0,0.4,0.1c0,0,0.1,0,0.1,0c-0.4,0.2-0.7,0.5-0.9,0.8c-0.4,0.4-0.6,0.9-0.8,1.5
	c-0.1-0.1-0.2-0.2-0.3-0.3c-1-1-2.2-1.6-3.6-1.6c-1.2,0-2.4,0.5-3.3,1.2C59.1,30.5,59.1,30.4,59.1,30.4z"/>
<path class="st2" d="M33.5,22.3c-0.7-0.8-0.7-1.9,0-2.7c0.7-0.7,1.8-0.8,2.6-0.1c0.1,0.1,0.2,0.1,0.2,0.1c0.1,0,0.1-0.1,0.2-0.2
	c0.1-0.3,0.3-0.5,0.5-0.8c0.9-0.9,2.4-0.9,3.3,0c0.3,0.3,0.5,0.7,0.6,1.1c0,0.1,0.1,0.1,0.1,0.2c0.1,0,0.1,0,0.2,0
	c0.9-0.3,1.8-0.1,2.4,0.6c0.1,0.1,0.1,0.1,0.2,0.2c-0.3,0.1-0.5,0.2-0.7,0.3c-0.1,0.1-0.2,0.2-0.4,0.3c-0.5-0.4-1.1-0.6-1.7-0.6
	c-0.5,0-0.9,0.1-1.3,0.4c-1,0.7-1.3,2.1-0.6,3.3c0,0.1-0.1,0.1-0.1,0.2c-0.2,0-0.4,0.1-0.6,0.3c-0.2,0.1-0.3,0.3-0.5,0.5
	c0,0-0.1-0.1-0.1-0.1c0,0,0,0-0.1,0c-0.1,0-0.1,0-0.2,0.1c-0.1,0.1-0.2,0.1-0.2,0.2c-0.1-0.4-0.3-0.8-0.6-1.2
	c-0.8-1.1-1.9-1.8-3.2-1.8c-0.1,0-0.1,0-0.2,0c0,0,0,0,0-0.1C33.6,22.5,33.6,22.4,33.5,22.3z"/>
<path class="st2" d="M27.5,28.2c0.1-0.3,0.2-0.6,0.3-0.9c-0.4-0.5-0.5-1.2-0.5-1.7c0-0.2,0-0.3,0.1-0.5s0.1-0.3,0.1-0.5
	c0.1-0.1,0.1-0.3,0.2-0.4c0,0,0,0,0,0c0.1-0.1,0.2-0.3,0.3-0.4c0.1-0.1,0.1-0.1,0.2-0.1c0.1-0.1,0.2-0.1,0.3-0.1c0,0,0,0,0.1,0
	c0.1,0,0.1-0.1,0.2-0.1c0,0,0,0,0,0c0.1,0,0.2,0,0.3-0.1c0,0,0,0,0.1,0c0.1,0,0.2,0,0.2,0c0,0,0,0,0.1,0c0.1,0,0.2,0,0.3,0
	c0,0,0,0,0,0c0.1,0,0.2,0,0.3,0c0,0,0.1,0,0.1,0c0.1,0,0.1,0,0.2,0.1c0,0,0.1,0,0.1,0c0.1,0,0.1,0.1,0.2,0.1c0,0,0,0,0.1,0
	c0.1,0,0.2,0.1,0.2,0.1c0,0,0,0,0.1,0c0.1,0,0.1,0.1,0.2,0.1c0,0,0.1,0,0.1,0.1c0.1,0,0.1,0.1,0.2,0.1c0,0,0,0,0.1,0.1
	c0.1,0.1,0.1,0.1,0.2,0.2c0,0,0,0,0-0.1c0.1-0.1,0.1-0.2,0.2-0.2c0-0.1,0.1-0.1,0.1-0.1c0.1-0.1,0.3-0.3,0.4-0.4
	c0.1-0.1,0.2-0.1,0.3-0.2c0,0,0.1,0,0.1,0c0.1,0,0.2-0.1,0.2-0.1c0,0,0.1,0,0.1,0c0.1,0,0.2-0.1,0.3-0.1c0,0,0,0,0,0
	c0.1,0,0.2,0,0.3,0c1,0,2,0.5,2.7,1.5c0.4,0.5,0.6,1.1,0.6,1.7c0.1,0,0.1,0,0.2,0c0.1,0,0.2,0,0.4,0c0,0,0,0,0,0c0,0,0,0,0.1,0
	c0,0.5,0.1,1,0.4,1.4c0.3,0.5,0.8,0.8,1.3,0.9c0.1,0.4,0.2,0.7,0.4,1c-0.7-0.3-1.4-0.5-2.2-0.5c-1.3,0-2.6,0.6-3.6,1.6
	c-0.2,0.2-0.3,0.4-0.5,0.6c-1.1-1.3-2.6-2.1-4.2-2.1c-1.3,0-2.4,0.5-3.4,1.4c-0.1-0.1-0.1-0.2-0.1-0.3c-0.2-0.7,0-1.5,0.6-1.9
	c0.1,0,0.1-0.1,0.2-0.1c0,0,0,0,0.1,0c0,0,0.1,0,0.1-0.1c0,0,0.1,0,0.1,0c0,0,0.1,0,0.1,0c0,0,0.1,0,0.1,0
	C27.4,28.2,27.4,28.2,27.5,28.2z"/>
<path class="st2" d="M39.6,25.2c0.1-0.3,0.1-0.5,0.3-0.7c-0.4-0.6-0.5-1.4-0.3-2c0-0.1,0.1-0.2,0.2-0.3s0.1-0.2,0.2-0.3
	c0.1-0.1,0.2-0.2,0.3-0.3c0.3-0.2,0.6-0.3,1-0.3c0.6,0,1.3,0.3,1.7,0.9c0-0.1,0.1-0.1,0.1-0.2c0.1-0.2,0.3-0.3,0.5-0.5
	c0.3-0.2,0.5-0.3,0.8-0.3c0,0,0,0,0,0c0.1,0,0.2,0,0.2,0c0,0,0.1,0,0.1,0c0.1,0,0.1,0,0.2,0c0,0,0.1,0,0.1,0c0.1,0,0.2,0,0.3,0.1
	c0,0,0,0,0,0c0.1,0,0.2,0.1,0.2,0.1c0,0,0.1,0,0.1,0c0.1,0,0.1,0.1,0.2,0.1c0,0,0,0,0.1,0c0.1,0,0.2,0.1,0.3,0.2c0,0,0,0,0,0
	c0.1,0.1,0.2,0.1,0.2,0.2c0,0,0,0,0.1,0.1c0.1,0.1,0.1,0.1,0.2,0.2c0,0,0,0,0.1,0.1c0.1,0.1,0.1,0.2,0.2,0.3
	c0.1,0.2,0.3,0.4,0.3,0.7c0.1,0.2,0.1,0.5,0.2,0.7c0.1,0,0.1,0,0.2,0c0,0,0,0,0,0c0,0,0.1,0,0.1,0c0.1,0,0.1,0,0.2,0
	c0,0,0.1,0,0.1,0c0.1,0,0.1,0,0.2,0.1c0,0,0.1,0,0.1,0c0.1,0,0.1,0,0.2,0.1c0,0,0.1,0,0.1,0.1c0,0,0.1,0,0.1,0
	c-0.2,0.1-0.5,0.2-0.7,0.3c-0.8,0.5-1.1,1.5-1,2.4c-0.6-0.2-1.2-0.4-1.8-0.4c-0.5,0-0.9,0.1-1.3,0.2c-0.5-0.6-1.2-0.9-2-0.9
	c-1.4,0-2.5,1.1-2.6,2.4c-0.3-0.1-0.6-0.3-0.8-0.6c-0.5-0.7-0.4-1.7,0.2-2.1C39,25.3,39.3,25.2,39.6,25.2
	C39.6,25.2,39.6,25.2,39.6,25.2z"/>
<path class="st2" d="M54.3,29.3c-0.3-2-2-3.5-4-3.5c-0.9,0-1.8,0.3-2.5,0.9c-0.1-0.7,0.2-1.4,0.7-1.7c0.3-0.2,0.6-0.3,0.9-0.3
	c0,0,0,0,0,0c0,0,0,0,0.1,0c0.1,0,0.1,0,0.2,0c0,0,0,0,0,0c0.1,0,0.1,0,0.2,0c0,0,0,0,0.1,0c0.1,0,0.1,0,0.2,0c0,0,0,0,0.1,0
	c0.1,0,0.1,0,0.2,0.1c0,0,0,0,0,0c0.1,0,0.1,0.1,0.2,0.1c0,0,0,0,0,0c0,0,0.1,0.1,0.1,0.1c0,0,0,0,0.1,0c0,0,0.1,0.1,0.1,0.1
	c0,0,0,0,0.1,0.1c0.1,0.1,0.1,0.1,0.2,0.2c0.1-0.3,0.3-0.5,0.6-0.7c0.1-0.1,0.2-0.1,0.2-0.1c0,0,0,0,0.1,0c0.1,0,0.1-0.1,0.2-0.1
	c0,0,0,0,0.1,0c0.1,0,0.2,0,0.3-0.1c0,0,0,0,0,0c0.1,0,0.2,0,0.2,0c0,0,0.1,0,0.1,0c0.1,0,0.1,0,0.2,0c0,0,0.1,0,0.1,0
	c0.1,0,0.2,0,0.3,0.1c0,0,0,0,0,0c0.1,0,0.2,0.1,0.2,0.1c0,0,0.1,0,0.1,0c0.1,0,0.1,0.1,0.2,0.1c0,0,0.1,0,0.1,0
	c0.1,0,0.2,0.1,0.3,0.2c0,0,0,0,0,0c0.1,0.1,0.2,0.1,0.2,0.2c0,0,0,0,0.1,0.1c0.1,0.1,0.1,0.1,0.2,0.2c0,0,0,0,0.1,0.1
	c0.1,0.1,0.1,0.2,0.2,0.3c0.1,0.2,0.3,0.4,0.3,0.7c0.1,0.2,0.1,0.5,0.2,0.7c0.1,0,0.2,0,0.2,0c0,0,0.1,0,0.1,0c0,0,0,0,0.1,0
	c0,0,0.1,0,0.1,0c0,0,0.1,0,0.1,0c0.1,0,0.1,0,0.2,0.1c0.6,0.2,1.1,0.6,1.5,1.2c0.7,1,0.7,2.2,0.1,3c-0.1-0.2-0.3-0.4-0.5-0.6
	C56.8,29.9,55.5,29.3,54.3,29.3z"/>
<path class="st0" d="M41.5,30.8c0-0.1,0-0.2,0-0.3c-0.9-0.2-1.6-1.1-1.6-2c0-1.2,0.9-2.1,2.1-2.1c0.5,0,0.9,0.2,1.3,0.4
	c0.1,0.1,0.1,0.1,0.2,0.2c0.1,0.1,0.2,0.3,0.3,0.4c0,0,0,0,0,0c0.1,0,0.2-0.1,0.3-0.1c0,0,0,0,0.1,0c0.1,0,0.2-0.1,0.3-0.1
	c0,0,0,0,0.1,0c0.1,0,0.2,0,0.3,0c0,0,0,0,0,0c0.1,0,0.2,0,0.3,0c0,0,0.1,0,0.1,0c0.1,0,0.1,0,0.2,0c0,0,0.1,0,0.1,0
	c0.1,0,0.1,0,0.2,0c0,0,0,0,0,0c0.1,0,0.2,0,0.2,0c0,0,0,0,0.1,0c0.1,0,0.1,0,0.2,0c0,0,0.1,0,0.1,0c0.1,0,0.1,0,0.2,0
	c0,0,0.1,0,0.1,0c0,0,0.1,0,0.1,0.1c0,0,0.1,0,0.1,0c0.1,0,0.1,0,0.2,0.1c0,0,0,0,0.1,0c0.1,0,0.1,0.1,0.2,0.1c0,0,0,0,0,0
	c0.1-0.1,0.2-0.3,0.3-0.4c0.1-0.1,0.3-0.2,0.4-0.3c0.1-0.1,0.3-0.2,0.5-0.3c0.2-0.1,0.5-0.2,0.7-0.3c0.3-0.1,0.5-0.1,0.8-0.1
	c1,0,1.9,0.4,2.5,1c0.3,0.3,0.6,0.7,0.8,1.1c0.1,0.3,0.2,0.6,0.2,0.9c-1.5,0.1-2.8,0.9-3.7,2.1c-1-1.3-2.5-2.1-4.1-2.1
	c-1.3,0-2.6,0.6-3.6,1.6c-0.2,0.2-0.3,0.4-0.5,0.6c-0.1-0.1-0.2-0.2-0.3-0.4C41.5,31,41.5,30.9,41.5,30.8z"/>
<path class="st0" d="M70.6,29.3c-1.4,0-2.7,0.6-3.7,1.6c0.4-1.1,1.4-1.8,2.6-1.9c0,0,0.1,0,0.1,0c-0.1-0.1-0.1-0.2-0.2-0.4
	c0-0.1-0.1-0.3-0.1-0.4c0-0.1,0-0.3,0-0.4c0-0.1,0.1-0.3,0.1-0.4s0.1-0.2,0.2-0.3c0.1-0.1,0.1-0.1,0.2-0.2s0.2-0.1,0.2-0.1
	c0.1,0,0.3-0.1,0.4-0.1c0.1,0,0.1,0,0.2,0c0,0,0.1,0,0.1,0c0,0,0.1,0,0.1,0c0,0,0.1,0,0.1,0c0,0,0.1,0,0.1,0.1c0,0,0.1,0,0.1,0.1
	c0,0,0.1,0.1,0.1,0.1c0,0,0.1,0,0.1,0.1c0,0,0.1,0.1,0.1,0.1c0,0,0,0.1,0.1,0.1c0,0,0.1,0.1,0.1,0.1c0,0,0,0.1,0.1,0.1
	c0,0,0,0.1,0.1,0.2c0,0,0,0.1,0,0.1c0,0.1,0,0.2,0.1,0.3c0.1-0.1,0.2-0.1,0.4-0.2c0,0,0.1,0,0.1,0c0.1,0,0.2-0.1,0.3-0.1
	c0.1,0,0.1,0,0.2,0c0.1,0,0.2,0,0.2,0c0.1,0,0.1,0,0.2,0c0.1,0,0.1,0,0.2,0c0.1,0,0.1,0,0.2,0c0,0,0.1,0,0.1,0c0.1,0,0.1,0,0.2,0
	c0,0,0.1,0,0.1,0c0.1,0,0.2,0,0.2,0.1c0,0,0.1,0,0.1,0c0.1,0,0.2,0.1,0.3,0.1c0.1-0.1,0.2-0.2,0.3-0.3c0.1-0.1,0.2-0.1,0.3-0.1
	c0.1,0,0.2-0.1,0.3-0.1c0,0,0.1,0,0.1,0c0,0,0.1,0,0.1,0c0,0,0,0,0.1,0c0,0,0,0,0.1,0c0,0,0,0,0.1,0c0,0,0,0,0.1,0c0,0,0,0,0.1,0
	c0,0,0,0,0.1,0c0,0,0,0,0.1,0c0,0,0,0,0.1,0c0,0,0,0,0.1,0c0,0,0,0,0.1,0c0,0,0,0,0.1,0c0,0,0,0,0.1,0c0,0,0,0,0.1,0c0,0,0,0,0.1,0
	c0,0,0,0,0,0c0,0,0,0,0.1,0.1c0,0,0,0,0,0c0,0,0,0,0,0.1c0,0,0,0,0,0.1c0,0,0,0,0,0.1c0,0,0,0,0,0.1c0,0,0,0,0,0.1c0,0,0,0,0,0.1
	c0,0,0,0.1,0,0.1c0,0,0,0,0,0.1c0,0,0,0.1,0,0.1c0,0,0,0,0,0.1c0,0,0,0.1,0,0.1c0,0,0,0,0,0.1c0,0.1,0,0.1,0,0.2
	c0,0.2,0,0.4-0.1,0.6c0,0.1-0.1,0.2-0.1,0.3c-0.9,0.4-1.8,1-2.5,1.8c-0.1-0.2-0.3-0.4-0.5-0.6C73.2,29.8,71.9,29.3,70.6,29.3z"/>
<path class="st3" d="M27.9,64.2l1.2,16.1h-6.9l-1.3-12.5L20,59.1l-2.4-23.7c0-0.1,0-0.2,0-0.3c0-0.5,0-1,0.1-1.5
	c0-0.2,0.1-0.3,0.1-0.5c0.2-0.5,0.5-1,0.8-1.4c0,0,0,0,0,0c0,0,0,0,0,0c0,0,0,0,0.1-0.1c0.2-0.2,0.4-0.4,0.7-0.5
	c0.2-0.1,0.3-0.2,0.5-0.2c0,0,0.1,0,0.1,0c0.4-0.1,0.8-0.2,1.2-0.2c0.4,0,0.8,0.1,1.2,0.2c0.3,0.1,0.5,0.2,0.8,0.4c0,0,0,0,0,0
	c0.1,0.1,0.2,0.1,0.3,0.2c0,0,0,0,0.1,0c0,0,0,0,0.1,0c0,0,0,0,0.1,0.1c0,0,0,0,0,0c0.4,0.3,0.7,0.7,1,1.1c0.1,0.1,0.2,0.3,0.3,0.4
	c0.1,0.1,0.1,0.3,0.2,0.4c0,0.1,0.1,0.2,0.1,0.3c0.1,0.2,0.1,0.4,0.2,0.6c0.1,0.3,0.1,0.6,0.2,1c0,0,0,0,0,0c0,0,0,0,0,0l1.3,17
	c0,0,0,0.1,0,0.1c-0.1,0.3-0.2,0.6-0.3,0.9c0,0.1-0.1,0.2-0.1,0.3c-0.1,0.3-0.2,0.7-0.2,1c0,0.2-0.1,0.3-0.1,0.5
	c0,0.2-0.1,0.4-0.1,0.6c0,0.2,0,0.4-0.1,0.5c0,0.2,0,0.5,0,0.7c0,0.1,0,0.2,0,0.4c0,1.5,0.3,3,0.7,4.4c0,0.1,0.1,0.2,0.1,0.3
	c0.1,0.2,0.1,0.4,0.2,0.6c0,0.1,0.1,0.2,0.2,0.4c0.1,0.2,0.1,0.3,0.2,0.5c0.1,0.1,0.1,0.2,0.2,0.3C27.8,63.9,27.8,64.1,27.9,64.2z"
	/>
<path class="st4" d="M50,75.2v5.1h-6.9l-0.1-5.8c0,0-0.1,0-0.1,0c2.2,0.5,4.6,0.8,7.1,0.8c0.1,0,0.2,0,0.4,0
	C50.1,75.2,50.1,75.2,50,75.2z"/>
<path class="st4" d="M35.7,71.7l0.4,8.6h-6.9h0l-1.2-16.1c-0.1-0.1-0.1-0.3-0.2-0.4c1.7,3.2,4.5,6,8.2,8
	C35.8,71.8,35.8,71.7,35.7,71.7z"/>
<path class="st4" d="M25.7,35.4c0-0.1,0-0.3,0-0.4c0-0.2,0-0.4,0-0.5c0-0.1,0-0.2,0-0.3c0,0,0-0.1,0-0.1c0,0,0-0.1,0-0.1
	c0-0.1,0-0.2,0.1-0.3c0-0.1,0.1-0.2,0.1-0.3c0,0,0-0.1,0-0.1c0-0.1,0.1-0.2,0.1-0.3c0.1-0.3,0.3-0.5,0.5-0.8c0-0.1,0.1-0.1,0.1-0.2
	c0.1-0.1,0.1-0.2,0.2-0.2c0.1-0.1,0.2-0.2,0.3-0.2c0.1-0.1,0.2-0.2,0.3-0.2c0,0,0,0,0,0c0.2-0.1,0.4-0.3,0.7-0.4
	c0.4-0.1,0.8-0.2,1.2-0.2c0.4,0,0.8,0.1,1.2,0.2c0,0,0,0,0,0c0.2,0.1,0.5,0.2,0.7,0.3c0,0,0,0,0,0c0.1,0.1,0.2,0.1,0.4,0.2
	c0.2,0.1,0.3,0.3,0.5,0.5c0.4,0.4,0.7,0.8,0.9,1.2c0.1,0.1,0.1,0.3,0.2,0.4c0,0,0,0,0,0c0.1,0.2,0.1,0.3,0.2,0.5
	c0,0.1,0,0.1,0.1,0.2c0,0.1,0,0.1,0,0.2c0.1,0.2,0.1,0.5,0.1,0.7c0,0.1,0,0.2,0,0.3l0.4,8.5c0,0,0,0,0.1,0c-3.5,2.3-6,5.3-7.3,8.7
	c0,0,0-0.1,0-0.1L25.7,35.4z"/>
<path class="st3" d="M33.8,35.4C33.8,35.4,33.8,35.4,33.8,35.4C33.8,35.4,33.8,35.4,33.8,35.4c0-0.3,0-0.7,0-1c0-0.1,0-0.1,0-0.2
	c0-0.1,0-0.1,0-0.2c0-0.1,0-0.2,0.1-0.3c0,0,0-0.1,0-0.2c0-0.1,0-0.1,0.1-0.2c0-0.1,0.1-0.2,0.1-0.2c0.2-0.5,0.6-1,0.9-1.4
	c0.1-0.1,0.2-0.2,0.3-0.3c0.1-0.1,0.2-0.2,0.3-0.2c0,0,0,0,0.1,0c0.2-0.1,0.4-0.2,0.7-0.3c0.4-0.1,0.8-0.2,1.2-0.2
	c0.4,0,0.8,0.1,1.2,0.2c0.2,0.1,0.5,0.2,0.7,0.3c0,0,0,0,0.1,0c0.1,0.1,0.2,0.1,0.3,0.2c0.1,0.1,0.2,0.2,0.3,0.3c0,0,0,0,0,0l0,0
	c0.2,0.2,0.4,0.5,0.6,0.7c0,0,0,0,0.1,0.1c0,0,0,0,0,0c0.2,0.4,0.4,0.8,0.6,1.3c0,0.1,0,0.1,0.1,0.2c0.1,0.2,0.1,0.4,0.1,0.6
	c0,0,0,0,0,0.1c0,0.2,0,0.4,0.1,0.6c0,0,0,0,0,0c0,0,0,0,0,0c0,0,0,0,0,0c0,0,0,0,0,0c0,0,0,0,0,0l0.1,5c0,0,0,0,0,0
	c-0.7,0.2-1.4,0.4-2,0.6c0,0-0.1,0-0.1,0c-0.6,0.2-1.3,0.5-1.9,0.7c-0.1,0-0.1,0-0.2,0.1c-0.6,0.3-1.2,0.5-1.7,0.9
	c-0.1,0-0.1,0.1-0.2,0.1c-0.6,0.3-1.1,0.6-1.6,1c0,0,0,0-0.1,0L33.8,35.4z"/>
<path class="st3" d="M42.9,74.4l0.1,5.8h0h-6.9h0l-0.4-8.6c0.1,0,0.2,0.1,0.3,0.1c0.4,0.2,0.8,0.4,1.2,0.6c0.1,0.1,0.3,0.1,0.4,0.2
	c0.5,0.2,0.9,0.4,1.4,0.6c0.1,0.1,0.3,0.1,0.4,0.2c0.5,0.2,1,0.4,1.5,0.5c0.1,0,0.3,0.1,0.4,0.1c0.5,0.1,1,0.3,1.5,0.4
	C42.8,74.4,42.9,74.4,42.9,74.4z"/>
<path class="st4" d="M41.9,35.4c0-0.2,0-0.3,0-0.5c0,0,0,0,0,0c0.1-1.9,1.2-3.5,2.8-4c0.4-0.1,0.8-0.2,1.2-0.2
	c0.4,0,0.8,0.1,1.2,0.2c0.3,0.1,0.5,0.2,0.7,0.4c0,0,0,0,0,0c0.1,0,0.1,0.1,0.2,0.1c0.1,0,0.1,0.1,0.2,0.1c0.5,0.4,0.9,0.9,1.2,1.5
	c0,0.1,0.1,0.1,0.1,0.2c0,0,0,0.1,0,0.1c0,0.1,0.1,0.2,0.1,0.3c0.1,0.3,0.2,0.6,0.2,0.9C50,34.7,50,35,50,35.3c0,0,0,0.1,0,0.1v4
	c-0.1,0-0.1,0-0.2,0c-2.7,0-5.4,0.4-7.8,1c0,0,0,0,0,0L41.9,35.4C41.9,35.4,41.9,35.4,41.9,35.4z"/>
<path class="st3" d="M57.1,74.4l-0.1,5.9H50v-5.1c0.1,0,0.1,0,0.2,0c0.5,0,0.9,0,1.4,0c0.2,0,0.3,0,0.5,0c0.5,0,1-0.1,1.5-0.1
	c0.1,0,0.2,0,0.3,0c0.4-0.1,0.9-0.1,1.3-0.2c0.1,0,0.2,0,0.4-0.1C56,74.6,56.5,74.5,57.1,74.4C57.1,74.4,57.1,74.4,57.1,74.4z"/>
<path class="st3" d="M50,35.4C50,35.4,50,35.3,50,35.4c0-0.4,0-0.7,0.1-1c0-0.2,0.1-0.3,0.1-0.5c0-0.1,0-0.1,0-0.2c0,0,0,0,0,0
	c0-0.1,0-0.1,0-0.2c0-0.1,0.1-0.2,0.1-0.3c0,0,0-0.1,0-0.1c0-0.1,0.1-0.2,0.1-0.2c0.3-0.6,0.7-1.1,1.2-1.5c0.1,0,0.1-0.1,0.2-0.1
	c0.1,0,0.1-0.1,0.2-0.1c0,0,0,0,0,0c0.2-0.1,0.5-0.3,0.7-0.4c0.4-0.1,0.8-0.2,1.2-0.2c0.4,0,0.8,0.1,1.2,0.2c0,0,0,0,0,0
	c0.2,0.1,0.5,0.2,0.7,0.3c0,0,0,0,0,0c0.1,0.1,0.2,0.1,0.3,0.2c0.1,0.1,0.2,0.2,0.3,0.3c0,0,0.1,0,0.1,0.1c0.1,0.1,0.2,0.3,0.3,0.4
	c0,0,0,0,0,0c0.1,0.1,0.2,0.3,0.3,0.4c0,0,0,0,0,0.1c0.1,0.1,0.2,0.3,0.2,0.4c0.1,0.1,0.1,0.3,0.2,0.4c0.1,0.2,0.1,0.3,0.1,0.5
	c0,0.1,0.1,0.3,0.1,0.4c0,0.1,0,0.3,0,0.4c0,0.2,0,0.3,0,0.5L58,40.5c0,0-0.1,0-0.1,0c-0.5-0.1-1-0.3-1.5-0.4c-0.1,0-0.2,0-0.3-0.1
	c-0.6-0.1-1.1-0.2-1.7-0.3c-0.1,0-0.2,0-0.3,0c-0.6-0.1-1.2-0.1-1.8-0.2c0,0-0.1,0-0.1,0c-0.7,0-1.3-0.1-2-0.1V35.4z"/>
<path class="st4" d="M64.3,71.5l-0.4,8.8h0h-6.9h0l0.1-5.9c0,0,0,0-0.1,0C59.7,73.7,62.2,72.7,64.3,71.5z"/>
<path class="st4" d="M58.1,35.4C58.1,35.4,58.1,35.4,58.1,35.4C58.1,35.4,58.1,35.4,58.1,35.4c0-0.3,0.1-0.7,0.1-1c0,0,0-0.1,0-0.1
	c0-0.1,0-0.1,0-0.2c0.1-0.2,0.1-0.4,0.2-0.6c0-0.1,0.1-0.1,0.1-0.2c0-0.1,0.1-0.1,0.1-0.2c0.3-0.7,0.8-1.2,1.3-1.7c0,0,0,0,0,0
	c0.1-0.1,0.2-0.2,0.3-0.2c0,0,0,0,0.1,0c0.2-0.1,0.4-0.3,0.7-0.3c0.4-0.1,0.8-0.2,1.2-0.2c0.4,0,0.8,0.1,1.2,0.2
	c0.2,0.1,0.4,0.2,0.5,0.2c0.2,0.1,0.4,0.2,0.5,0.4c0.5,0.4,0.9,1,1.2,1.7c0.1,0.2,0.1,0.3,0.2,0.5c0.1,0.4,0.2,0.7,0.2,1.1
	c0,0.2,0,0.4,0,0.6c0,0,0,0.1,0,0.1c0,0,0,0,0,0c0,0,0,0,0,0c0,0,0,0,0,0v0l-0.4,8.7c-2.3-1.6-5-2.8-7.9-3.6c0,0,0.1,0,0.1,0
	L58.1,35.4z"/>
<path class="st3" d="M72.1,63.5l-1.3,16.8h0h-6.9l0.4-8.8c0.4-0.3,0.9-0.5,1.3-0.8c0,0,0,0,0,0c0.4-0.3,0.8-0.5,1.1-0.8
	c0,0,0.1-0.1,0.1-0.1c0.3-0.2,0.6-0.5,0.9-0.7c0.1-0.1,0.1-0.1,0.2-0.2c0.3-0.3,0.6-0.6,0.9-0.9c0,0,0.1-0.1,0.1-0.1
	c0.3-0.3,0.5-0.5,0.7-0.8c0.1-0.1,0.1-0.1,0.2-0.2c0.3-0.3,0.5-0.6,0.8-1c0,0,0,0,0-0.1c0.2-0.3,0.4-0.6,0.6-0.9
	c0.1-0.1,0.1-0.2,0.2-0.3c0.2-0.3,0.3-0.6,0.5-0.8C72.1,63.6,72.1,63.6,72.1,63.5z"/>
<path class="st3" d="M67.8,31.8C67.8,31.8,67.8,31.8,67.8,31.8C67.8,31.8,67.8,31.8,67.8,31.8C67.8,31.8,67.8,31.8,67.8,31.8
	c0.2-0.2,0.3-0.3,0.5-0.4c0.1-0.1,0.2-0.2,0.4-0.2c0,0,0,0,0,0c0.2-0.1,0.5-0.3,0.7-0.3c0,0,0,0,0,0c0.4-0.1,0.8-0.2,1.2-0.2
	c0.4,0,0.8,0.1,1.2,0.2c0.2,0.1,0.4,0.2,0.6,0.3c0.1,0,0.1,0.1,0.2,0.1c0.1,0.1,0.2,0.1,0.3,0.2c0.1,0.1,0.2,0.2,0.3,0.3
	c0,0,0,0,0,0c0.1,0.2,0.3,0.3,0.4,0.5c0.1,0.1,0.1,0.2,0.2,0.3c0.3,0.6,0.5,1.2,0.6,2c0,0.3,0,0.6,0,0.9l-1.4,17.8
	c-0.1-0.4-0.3-0.9-0.5-1.3c0,0,0,0,0,0c-0.2-0.4-0.4-0.8-0.6-1.2c0,0,0-0.1-0.1-0.1c-0.2-0.4-0.4-0.7-0.7-1.1c0-0.1-0.1-0.1-0.1-0.2
	c-0.2-0.3-0.4-0.6-0.7-1c0,0-0.1-0.1-0.1-0.1c-0.3-0.3-0.6-0.7-0.9-1c-0.1-0.1-0.1-0.1-0.2-0.2c-0.6-0.7-1.4-1.3-2.1-1.9
	c0,0,0,0-0.1-0.1c-0.4-0.3-0.8-0.6-1.2-0.9l0.4-8.7c0.1-1.2,0.5-2.3,1.1-3.1C67.5,32.1,67.6,32,67.8,31.8z"/>
<path class="st4" d="M82.4,34.4C82.4,34.5,82.4,34.5,82.4,34.4c0,0.4,0,0.7,0,1l-2.1,20.4l-2.5,24.4h-6.9l1.3-16.8
	c0,0.1-0.1,0.1-0.1,0.2c1-2,1.5-4.1,1.5-6.4c0-1.4-0.2-2.8-0.6-4.1l1.4-17.8c0,0,0,0,0,0c0,0,0,0,0,0c0,0,0,0,0,0c0-0.1,0-0.1,0-0.2
	c0-0.1,0-0.2,0-0.2c0-0.2,0.1-0.4,0.1-0.6c0.3-1.2,1-2.3,2-3c0.1-0.1,0.2-0.2,0.3-0.2c0,0,0.1,0,0.1-0.1c0.1-0.1,0.3-0.1,0.4-0.2
	c0.1,0,0.2-0.1,0.3-0.1c0.4-0.1,0.8-0.2,1.2-0.2c0.4,0,0.8,0.1,1.2,0.2c0,0,0,0,0,0c0,0,0.1,0,0.1,0.1c0.1,0,0.1,0.1,0.2,0.1
	c0.1,0.1,0.3,0.1,0.4,0.2c0.1,0.1,0.2,0.1,0.3,0.2c0,0,0,0,0.1,0c0.5,0.4,0.9,1,1.1,1.7c0,0.1,0.1,0.3,0.1,0.4c0,0.1,0,0.2,0.1,0.4
	C82.4,34.1,82.4,34.2,82.4,34.4z"/>
<path class="st5" d="M82.3,30.9c-0.5-0.6-1.2-1-1.9-1.3c0-0.6-0.1-1.1-0.3-1.7c-0.5-1.2-1.5-2-2.8-2.2c0-0.5-0.1-1-0.3-1.5
	c-0.6-1.3-1.9-2.2-3.4-2.2c-0.5,0-1,0.1-1.5,0.3c-0.3,0.1-0.5,0.3-0.7,0.4c-0.6-0.7-1.5-1.1-2.4-1.1c0,0,0,0,0,0
	c-0.6-0.5-1.4-0.9-2.2-0.9c-0.8,0-1.6,0.3-2.2,0.9c-0.5-0.2-1-0.3-1.5-0.3c-0.3,0-0.7,0-1,0.1c-0.4-0.4-1-0.7-1.6-0.7
	c-0.2,0-0.4,0-0.5,0.1c-0.6-0.5-1.4-0.8-2.2-0.8c-0.3,0-0.5,0-0.8,0.1c-0.6,0.2-1.2,0.5-1.6,1c0-0.1-0.1-0.1-0.1-0.2
	c-0.1-0.2-0.2-0.3-0.3-0.4c0.2-0.6,0.1-1.2-0.3-1.8c-0.4-0.5-1-0.9-1.7-0.9c-0.3,0-0.5,0.1-0.8,0.2c-0.5-0.5-1.1-0.7-1.8-0.7
	c-0.5,0-1,0.2-1.5,0.5c-0.2,0.1-0.3,0.3-0.5,0.4c-0.1,0-0.1,0-0.2,0c-0.1,0-0.1,0-0.2,0c-0.5-0.7-1.2-1.3-2-1.5
	c-0.3-0.1-0.6-0.1-0.9-0.1c-1.2,0-2.3,0.6-3,1.6c-0.1,0.1-0.2,0.3-0.2,0.4c-0.3,0.1-0.5,0.2-0.8,0.4c-0.1-0.2-0.3-0.4-0.4-0.5
	c-1.1-1.1-2.9-1.1-4,0c-0.2,0.2-0.3,0.4-0.5,0.6c-1-0.6-2.2-0.5-3,0.3c-0.9,0.9-1,2.3-0.1,3.3c0,0.1,0,0.1-0.1,0.2
	c-0.3,0.1-0.7,0.2-0.9,0.4c-0.2,0.1-0.4,0.3-0.5,0.4c-0.6-0.5-1.4-0.8-2.1-0.8c-0.6,0-1.1,0.2-1.5,0.5c-0.1,0.1-0.3,0.2-0.4,0.3
	c-0.3-0.1-0.7-0.1-1-0.1c-0.2,0-0.5,0-0.7,0.1c-1.8,0.3-3.2,1.8-3.5,3.6c0,0.2,0,0.4,0,0.7c-0.5,0.4-0.8,0.9-0.9,1.5
	c-0.1,0-0.1,0-0.2,0c-1.4,0-2.6,0.6-3.5,1.6c-1.1,1.2-1.6,2.9-1.4,4.7l4.6,44.9l0.1,1.2h1.2h6.9h6.9h6.9H50h6.9h6.9h6.9h6.9H79
	l0.1-1.2l4.6-44.9C83.9,33.8,83.4,32.1,82.3,30.9z M68.3,22.2c0,0,0.1,0,0.1,0c0.1,0,0.1,0,0.2,0c0,0,0.1,0,0.1,0c0,0,0,0,0,0
	c0,0,0,0,0,0c0.1,0,0.1,0,0.2,0c0,0,0.1,0,0.1,0c0.1,0,0.2,0,0.3,0c0,0,0,0,0,0c0.1,0,0.2,0,0.3,0.1c0,0,0.1,0,0.1,0
	c0.1,0,0.2,0.1,0.2,0.1c0,0,0,0,0.1,0c0.1,0,0.2,0.1,0.3,0.1c0,0,0,0,0.1,0c0.1,0,0.1,0.1,0.2,0.1c0,0,0,0,0.1,0
	c0.1,0.1,0.2,0.1,0.2,0.2c0,0,0,0,0,0c0.1,0.1,0.1,0.1,0.2,0.2c0,0,0,0,0.1,0.1c0.1,0.1,0.1,0.2,0.2,0.3c0.1-0.1,0.1-0.1,0.2-0.2
	c0.2-0.2,0.5-0.4,0.8-0.5c0.1,0,0.2-0.1,0.3-0.1c0,0,0.1,0,0.1,0c0.1,0,0.1,0,0.2-0.1c0,0,0.1,0,0.1,0c0.1,0,0.1,0,0.2,0
	c0,0,0.1,0,0.1,0c0.1,0,0.1,0,0.2,0c0,0,0,0,0,0c0.1,0,0.2,0,0.2,0c0,0,0,0,0,0c0.1,0,0.2,0,0.2,0c0,0,0.1,0,0.1,0
	c0.1,0,0.1,0,0.2,0c0,0,0,0,0.1,0c0.1,0,0.2,0.1,0.3,0.1c0,0,0,0,0.1,0c0.1,0,0.1,0.1,0.2,0.1c0,0,0.1,0,0.1,0
	c0.1,0,0.1,0.1,0.2,0.1c0,0,0,0,0.1,0c0.1,0,0.2,0.1,0.2,0.2c0,0,0,0,0.1,0c0.1,0,0.1,0.1,0.2,0.1c0,0,0,0,0.1,0.1
	c0.1,0.1,0.1,0.1,0.2,0.2c0,0,0,0,0,0c0.1,0.1,0.1,0.1,0.2,0.2c0,0,0,0,0,0.1c0,0.1,0.1,0.1,0.1,0.2c0,0,0,0,0,0.1
	c0,0.1,0.1,0.2,0.1,0.3c0.1,0.2,0.1,0.3,0.2,0.5c0,0.1,0.1,0.2,0.1,0.4c0,0,0,0,0,0.1c0,0.3,0,0.6,0,0.9c0.2,0,0.5,0.1,0.7,0.1
	c0.1,0,0.3,0.1,0.4,0.1c0.3,0.1,0.5,0.3,0.8,0.4c0.4,0.3,0.8,0.7,1,1.3c0.1,0.2,0.2,0.4,0.2,0.6s0.1,0.4,0.1,0.6c0,0,0,0,0,0
	c-0.4-0.1-0.7-0.1-1.1-0.1c-0.4,0-0.7,0-1.1,0.1c0.1-0.2,0.1-0.5,0.1-0.7c-0.1-1.1-0.9-2-2-2c0,0-0.1,0-0.1,0
	c-0.4,0-0.8,0.2-1.1,0.4c-0.4-0.1-0.8-0.2-1.2-0.2c-0.4,0-0.9,0.1-1.3,0.2c-0.3-0.6-0.9-1-1.6-1c0,0,0,0,0,0c0,0-0.1,0-0.1,0
	c-0.5,0-1,0.3-1.3,0.7c-0.3,0.4-0.5,0.9-0.5,1.4c0,0.1,0,0.2,0,0.3c-0.1,0-0.1,0-0.2,0.1c-0.3-0.1-0.6-0.2-0.9-0.3
	c0-0.5-0.1-1-0.3-1.5c-0.2-0.5-0.6-1-1.1-1.4c0-0.1,0-0.2-0.1-0.3c-0.1-1.1,0.5-2.2,1.6-2.7c0.1,0,0.2-0.1,0.3-0.1c0,0,0.1,0,0.1,0
	C68.2,22.2,68.3,22.2,68.3,22.2z M58.5,28c-0.5-0.7-1.1-1.1-1.8-1.4c0-0.2,0.1-0.3,0.2-0.5c0.1-0.2,0.2-0.3,0.3-0.4
	c0.1-0.1,0.2-0.3,0.4-0.4c0.2-0.2,0.4-0.3,0.7-0.4c0,0,0,0,0,0c0.1,0,0.2-0.1,0.3-0.1c0,0,0.1,0,0.1,0c0.1,0,0.1,0,0.2,0
	c0,0,0.1,0,0.1,0c0.1,0,0.1,0,0.2,0c0,0,0.1,0,0.1,0c0.1,0,0.1,0,0.2,0c0,0,0,0,0.1,0c0,0,0,0,0,0c0.1,0,0.2,0,0.3,0c0,0,0,0,0,0
	c0.1,0,0.2,0,0.3,0.1c0,0,0.1,0,0.1,0c0.1,0,0.2,0.1,0.2,0.1c0,0,0,0,0.1,0c0.1,0,0.2,0.1,0.3,0.1c0,0,0,0,0.1,0
	c0.1,0,0.1,0.1,0.2,0.1c0,0,0,0,0.1,0c0.1,0.1,0.2,0.1,0.2,0.2c0,0,0,0,0,0c0.1,0.1,0.1,0.1,0.2,0.2c0,0,0,0,0.1,0.1
	c0.1,0.1,0.1,0.2,0.2,0.3c0.3-0.3,0.6-0.5,1-0.7c0.1,0,0.2-0.1,0.3-0.1c0,0,0.1,0,0.1,0c0.1,0,0.1,0,0.2-0.1c0,0,0.1,0,0.1,0
	c0.1,0,0.1,0,0.2,0c0,0,0.1,0,0.1,0c0.1,0,0.1,0,0.2,0c0,0,0,0,0,0c0.1,0,0.2,0,0.2,0c0,0,0,0,0,0c0.1,0,0.2,0,0.2,0
	c0,0,0.1,0,0.1,0c0.1,0,0.1,0,0.2,0c0,0,0,0,0.1,0c0.1,0,0.2,0.1,0.3,0.1c0,0,0,0,0.1,0c0.1,0,0.1,0.1,0.2,0.1c0,0,0.1,0,0.1,0
	c0.1,0,0.1,0.1,0.2,0.1c0,0,0,0,0.1,0c0.1,0,0.1,0.1,0.2,0.1c0,0,0,0,0,0c0,0,0,0,0.1,0c0,0,0,0,0.1,0c0.1,0,0.1,0.1,0.2,0.1
	c0,0,0,0,0.1,0.1c0,0,0.1,0.1,0.1,0.1c0,0,0,0,0,0c0.3,0.3,0.5,0.6,0.6,0.9c0.1,0.2,0.2,0.4,0.2,0.7c0,0.1,0,0.3,0.1,0.4
	c0,0.2,0,0.4,0,0.7c0.1,0,0.1,0,0.2,0c0.1,0,0.3,0,0.4,0.1c0,0,0.1,0,0.1,0c-0.4,0.2-0.7,0.5-0.9,0.8c-0.4,0.4-0.6,0.9-0.8,1.5
	c-0.1-0.1-0.2-0.2-0.3-0.3c-1-1-2.2-1.6-3.6-1.6c-1.2,0-2.4,0.5-3.3,1.2c0,0,0-0.1,0-0.1C59.2,29.6,58.9,28.7,58.5,28z M40,28.4
	c0-1.2,0.9-2.1,2.1-2.1c0.5,0,0.9,0.2,1.3,0.4c0.1,0.1,0.1,0.1,0.2,0.2c0.1,0.1,0.2,0.3,0.3,0.4c0,0,0,0,0,0c0.1,0,0.2-0.1,0.3-0.1
	c0,0,0,0,0.1,0c0.1,0,0.2-0.1,0.3-0.1c0,0,0,0,0.1,0c0.1,0,0.2,0,0.3,0c0,0,0,0,0,0c0.1,0,0.2,0,0.3,0c0,0,0,0,0,0c0,0,0,0,0,0
	c0.1,0,0.1,0,0.2,0c0,0,0.1,0,0.1,0c0.1,0,0.1,0,0.2,0c0,0,0,0,0,0c0.1,0,0.2,0,0.2,0c0,0,0,0,0.1,0c0.1,0,0.1,0,0.2,0
	c0,0,0.1,0,0.1,0c0.1,0,0.1,0,0.2,0c0,0,0.1,0,0.1,0c0,0,0.1,0,0.1,0.1c0,0,0.1,0,0.1,0c0.1,0,0.1,0,0.2,0.1c0,0,0,0,0.1,0
	c0.1,0,0.1,0.1,0.2,0.1c0,0,0,0,0,0c0.1-0.1,0.2-0.3,0.3-0.4v0c0.1-0.1,0.3-0.2,0.4-0.3c0.1-0.1,0.3-0.2,0.5-0.3
	c0.2-0.1,0.5-0.2,0.7-0.3c0.3-0.1,0.5-0.1,0.8-0.1c1,0,1.9,0.4,2.5,1c0.3,0.3,0.6,0.7,0.8,1.1c0.1,0.3,0.2,0.6,0.2,0.9
	c-1.5,0.1-2.8,0.9-3.7,2.1c-1-1.3-2.5-2.1-4.1-2.1c-1.3,0-2.6,0.6-3.6,1.6c-0.2,0.2-0.3,0.4-0.5,0.6c-0.1-0.1-0.2-0.2-0.3-0.4
	c0-0.1,0-0.2,0-0.3c0-0.1,0-0.2,0-0.3C40.6,30.2,40,29.4,40,28.4z M39.5,22.5c0-0.1,0.1-0.2,0.2-0.3s0.1-0.2,0.2-0.3
	c0.1-0.1,0.2-0.2,0.3-0.3c0.3-0.2,0.6-0.3,1-0.3c0.6,0,1.3,0.3,1.7,0.9c0-0.1,0.1-0.1,0.1-0.2c0.1-0.2,0.3-0.3,0.5-0.5
	c0.3-0.2,0.5-0.3,0.8-0.3c0,0,0,0,0,0c0.1,0,0.2,0,0.2,0c0,0,0.1,0,0.1,0c0.1,0,0.1,0,0.2,0c0,0,0.1,0,0.1,0c0.1,0,0.2,0,0.3,0.1
	c0,0,0,0,0,0c0.1,0,0.2,0.1,0.2,0.1c0,0,0.1,0,0.1,0c0.1,0,0.1,0.1,0.2,0.1c0,0,0,0,0.1,0c0.1,0,0.2,0.1,0.3,0.2c0,0,0,0,0,0
	c0.1,0.1,0.2,0.1,0.2,0.2c0,0,0,0,0.1,0.1c0.1,0.1,0.1,0.1,0.2,0.2c0,0,0,0,0.1,0.1c0.1,0.1,0.1,0.2,0.2,0.3
	c0.1,0.2,0.3,0.4,0.3,0.7c0.1,0.2,0.1,0.5,0.2,0.7c0.1,0,0.1,0,0.2,0c0,0,0,0,0,0c0,0,0,0,0,0c0,0,0.1,0,0.1,0c0.1,0,0.1,0,0.2,0
	c0,0,0.1,0,0.1,0c0.1,0,0.1,0,0.2,0.1c0,0,0.1,0,0.1,0c0.1,0,0.1,0,0.2,0.1c0,0,0.1,0,0.1,0.1c0,0,0.1,0,0.1,0c0,0,0,0,0,0
	c-0.2,0.1-0.5,0.2-0.7,0.3c-0.8,0.5-1.1,1.5-1,2.4c-0.6-0.2-1.2-0.4-1.8-0.4c-0.5,0-0.9,0.1-1.3,0.2c-0.5-0.6-1.2-0.9-2-0.9
	c-1.4,0-2.5,1.1-2.6,2.4c-0.3-0.1-0.6-0.3-0.8-0.6c-0.5-0.7-0.4-1.7,0.2-2.1c0.2-0.1,0.5-0.2,0.7-0.2c0,0,0,0,0.1,0
	c0.1-0.3,0.1-0.5,0.3-0.7C39.4,23.9,39.3,23.1,39.5,22.5z M50.2,25.7c-0.9,0-1.8,0.3-2.5,0.9c-0.1-0.7,0.2-1.4,0.7-1.7
	c0.3-0.2,0.6-0.3,0.9-0.3c0,0,0,0,0,0c0,0,0,0,0.1,0c0.1,0,0.1,0,0.2,0c0,0,0,0,0,0c0.1,0,0.1,0,0.2,0c0,0,0,0,0.1,0
	c0.1,0,0.1,0,0.2,0c0,0,0,0,0.1,0c0.1,0,0.1,0,0.2,0.1c0,0,0,0,0,0c0.1,0,0.1,0.1,0.2,0.1c0,0,0,0,0,0c0,0,0.1,0.1,0.1,0.1
	c0,0,0,0,0.1,0c0,0,0.1,0.1,0.1,0.1c0,0,0,0,0.1,0.1c0.1,0.1,0.1,0.1,0.2,0.2c0.1-0.3,0.3-0.5,0.6-0.7c0.1-0.1,0.2-0.1,0.2-0.1
	c0,0,0,0,0.1,0c0.1,0,0.1-0.1,0.2-0.1c0,0,0,0,0.1,0c0.1,0,0.2,0,0.3-0.1c0,0,0,0,0,0c0.1,0,0.2,0,0.2,0c0,0,0,0,0,0c0,0,0,0,0,0
	c0.1,0,0.1,0,0.2,0c0,0,0.1,0,0.1,0c0.1,0,0.2,0,0.3,0.1c0,0,0,0,0,0c0.1,0,0.2,0.1,0.2,0.1c0,0,0.1,0,0.1,0c0.1,0,0.1,0.1,0.2,0.1
	c0,0,0.1,0,0.1,0c0.1,0,0.2,0.1,0.3,0.2c0,0,0,0,0,0c0.1,0.1,0.2,0.1,0.2,0.2c0,0,0,0,0.1,0.1c0.1,0.1,0.1,0.1,0.2,0.2
	c0,0,0,0,0.1,0.1c0.1,0.1,0.1,0.2,0.2,0.3c0.1,0.2,0.3,0.4,0.3,0.7c0.1,0.2,0.1,0.5,0.2,0.7c0,0,0.1,0,0.1,0c0,0,0.1,0,0.1,0
	c0,0,0.1,0,0.1,0c0,0,0,0,0.1,0c0,0,0,0,0,0c0,0,0.1,0,0.1,0c0,0,0.1,0,0.1,0c0.1,0,0.1,0,0.2,0.1c0.6,0.2,1.1,0.6,1.5,1.2
	c0.7,1,0.7,2.2,0.1,3c-0.1-0.2-0.3-0.4-0.5-0.6c-0.9-1-2.2-1.5-3.4-1.5C54,27.3,52.3,25.7,50.2,25.7z M69.4,29c0,0,0.1,0,0.1,0
	c0,0,0,0,0,0c-0.1-0.1-0.1-0.2-0.2-0.4c0-0.1-0.1-0.3-0.1-0.4c0-0.1,0-0.3,0-0.4c0-0.1,0.1-0.3,0.1-0.4s0.1-0.2,0.2-0.3
	c0.1-0.1,0.1-0.1,0.2-0.2s0.2-0.1,0.2-0.1c0.1,0,0.3-0.1,0.4-0.1c0,0,0,0,0.1,0c0,0,0.1,0,0.1,0c0,0,0.1,0,0.1,0c0,0,0.1,0,0.1,0
	c0,0,0.1,0,0.1,0c0,0,0.1,0,0.1,0.1c0,0,0.1,0,0.1,0.1c0,0,0.1,0.1,0.1,0.1c0,0,0.1,0,0.1,0.1c0,0,0.1,0.1,0.1,0.1
	c0,0,0,0.1,0.1,0.1c0,0,0.1,0.1,0.1,0.1c0,0,0,0.1,0.1,0.1c0,0,0,0.1,0.1,0.2c0,0,0,0.1,0,0.1c0,0.1,0,0.2,0.1,0.3
	c0.1-0.1,0.2-0.1,0.4-0.2c0,0,0.1,0,0.1,0c0.1,0,0.2-0.1,0.3-0.1c0.1,0,0.1,0,0.2,0c0.1,0,0.2,0,0.2,0c0.1,0,0.1,0,0.2,0
	c0.1,0,0.1,0,0.2,0c0,0,0,0,0.1,0c0,0,0.1,0,0.1,0c0,0,0.1,0,0.1,0c0.1,0,0.1,0,0.2,0c0,0,0.1,0,0.1,0c0.1,0,0.2,0,0.2,0.1
	c0,0,0.1,0,0.1,0c0.1,0,0.2,0.1,0.3,0.1c0.1-0.1,0.2-0.2,0.3-0.3c0.1-0.1,0.2-0.1,0.3-0.1c0.1,0,0.2-0.1,0.3-0.1c0,0,0.1,0,0.1,0
	c0,0,0,0,0.1,0c0,0,0,0,0,0c0,0,0,0,0.1,0c0,0,0,0,0.1,0c0,0,0,0,0.1,0c0,0,0,0,0.1,0c0,0,0,0,0.1,0c0,0,0,0,0.1,0c0,0,0,0,0.1,0
	c0,0,0,0,0.1,0c0,0,0,0,0.1,0c0,0,0,0,0.1,0c0,0,0,0,0.1,0c0,0,0,0,0.1,0c0,0,0,0,0.1,0c0,0,0,0,0.1,0c0,0,0,0,0,0c0,0,0,0,0.1,0.1
	c0,0,0,0,0,0c0,0,0,0,0,0.1c0,0,0,0,0,0.1c0,0,0,0,0,0.1c0,0,0,0,0,0.1c0,0,0,0,0,0.1c0,0,0,0,0,0.1c0,0,0,0.1,0,0.1c0,0,0,0,0,0.1
	c0,0,0,0.1,0,0.1c0,0,0,0,0,0.1c0,0,0,0.1,0,0.1c0,0,0,0,0,0.1c0,0.1,0,0.1,0,0.2c0,0.2,0,0.4-0.1,0.6c0,0.1-0.1,0.2-0.1,0.3
	c-0.9,0.4-1.8,1-2.5,1.8c-0.1-0.2-0.3-0.4-0.5-0.6c-0.9-1-2.2-1.6-3.5-1.6c-1.4,0-2.7,0.6-3.7,1.6C67.3,29.8,68.2,29,69.4,29z
	 M60.4,21.2c0.4,0,0.7,0.1,1,0.3c0.2,0.1,0.3,0.3,0.4,0.5c0.1,0,0.2-0.1,0.3-0.1c0,0,0.1,0,0.1,0c0.1,0,0.2,0,0.2,0c0,0,0.1,0,0.1,0
	c0.1,0,0.1,0,0.2,0c0,0,0.1,0,0.1,0c0,0,0,0,0.1,0c0,0,0.1,0,0.1,0c0.1,0,0.2,0,0.3,0c0,0,0.1,0,0.1,0c0.1,0,0.2,0,0.2,0.1
	c0,0,0.1,0,0.1,0c0.1,0,0.2,0.1,0.2,0.1c0,0,0.1,0,0.1,0c0.1,0.1,0.2,0.1,0.3,0.2c0.5-0.6,1.3-1,2.1-1c0.2,0,0.4,0,0.6,0.1
	c0.3,0.1,0.7,0.2,0.9,0.4c-0.2,0-0.4,0.1-0.6,0.2c-1.3,0.6-2,1.8-1.9,3.1c-0.5-0.3-1.1-0.4-1.7-0.4c-0.5,0-1,0.1-1.5,0.3
	c-0.3,0.1-0.5,0.3-0.7,0.4c-0.3-0.4-0.7-0.6-1.1-0.8c0.3-0.6,0.4-1.4,0.2-2.1c-0.1-0.4-0.3-0.8-0.6-1.2
	C60.3,21.2,60.3,21.2,60.4,21.2z M54.9,22C54.9,22,54.9,22,54.9,22c0.1,0,0.1,0,0.2,0.1c0.2-0.4,0.4-0.7,0.7-0.9
	c0.2-0.1,0.3-0.2,0.5-0.3s0.4-0.2,0.6-0.2c0.1,0,0.2,0,0.3-0.1c0,0,0.1,0,0.1,0c0.1,0,0.1,0,0.2,0c0,0,0,0,0,0c0,0,0.1,0,0.1,0
	c0,0,0.1,0,0.1,0c0.1,0,0.1,0,0.2,0c0,0,0,0,0.1,0c0.1,0,0.2,0,0.2,0.1c0,0,0,0,0.1,0c0.1,0,0.1,0,0.2,0.1c0,0,0.1,0,0.1,0
	c0,0,0.1,0,0.1,0.1c0,0,0.1,0,0.1,0c0,0,0.1,0,0.1,0.1c0,0,0.1,0,0.1,0c0,0,0.1,0.1,0.1,0.1c0,0,0,0,0.1,0.1c0.1,0,0.1,0.1,0.2,0.1
	c0,0,0,0,0,0c0.1,0.1,0.1,0.1,0.2,0.2c0.3,0.3,0.5,0.7,0.6,1.2c0,0.1,0,0.2,0.1,0.3c0.1,0.5,0,1-0.2,1.5c-0.3-0.1-0.6-0.1-0.8-0.1
	c-0.5,0-0.9,0.1-1.3,0.3c-0.9,0.4-1.6,1.2-1.8,2.1c0,0-0.1,0-0.1,0c-0.1-0.4-0.3-0.8-0.5-1.1c-0.6-0.9-1.6-1.5-2.6-1.5
	c-0.5,0-1,0.2-1.5,0.4c-0.1,0.1-0.2,0.2-0.4,0.3c-0.4-0.3-0.9-0.5-1.4-0.6c0,0,0-0.1,0-0.1c-0.2-0.9,0.3-1.8,1.2-2
	c0.1,0,0.1,0,0.2,0c0,0,0,0,0.1,0c0,0,0.1,0,0.1,0c0,0,0,0,0,0c0,0,0,0,0.1,0c0,0,0.1,0,0.1,0c0,0,0,0,0.1,0c0,0,0.1,0,0.1,0
	c0,0,0,0,0,0c0.1,0,0.1,0,0.2,0.1c0,0,0,0,0,0c0,0,0.1,0,0.1,0.1c0,0,0,0,0.1,0c0,0,0.1,0.1,0.1,0.1c0,0,0,0,0,0
	c0,0,0.1,0.1,0.1,0.1c0.1-0.1,0.2-0.1,0.3-0.2c0,0,0,0,0.1,0c0.2-0.1,0.4-0.2,0.6-0.2c0,0,0.1,0,0.1,0c0.2-0.1,0.4-0.1,0.6-0.1
	c0,0,0.1,0,0.1,0c0,0,0.1,0,0.1,0c0.2,0,0.4,0,0.5,0.1c0,0,0.1,0,0.1,0C54.9,22,54.9,22,54.9,22z M48.5,20.7
	c-0.1-0.3-0.2-0.6-0.2-0.9c0-0.1,0-0.1,0-0.2c0-0.1,0-0.2,0.1-0.4c0.1-0.5,0.4-0.9,0.8-1.2c0.1-0.1,0.2-0.1,0.2-0.1c0,0,0,0,0.1,0
	c0.1,0,0.2-0.1,0.3-0.1c0,0,0,0,0,0c0.1,0,0.2,0,0.2-0.1c0,0,0,0,0.1,0c0.1,0,0.2,0,0.3,0c0,0,0,0,0,0c0,0,0,0,0,0
	c0.1,0,0.1,0,0.2,0c0,0,0.1,0,0.1,0c0,0,0.1,0,0.1,0c0,0,0.1,0,0.1,0c0.1,0,0.1,0,0.2,0c0,0,0,0,0.1,0c0.1,0,0.1,0.1,0.2,0.1
	c0,0,0,0,0,0c0.1,0,0.1,0.1,0.2,0.1c0,0,0,0,0.1,0c0,0,0.1,0.1,0.1,0.1c0,0,0,0,0.1,0.1c0,0,0.1,0.1,0.1,0.1c0,0,0,0,0.1,0.1
	c0.1,0.1,0.1,0.1,0.1,0.2c0,0,0,0,0,0c0,0,0,0,0,0c0.1-0.1,0.2-0.1,0.2-0.1c0,0,0.1,0,0.1,0c0.1,0,0.1,0,0.2-0.1c0,0,0.1,0,0.1,0
	c0.1,0,0.1,0,0.2,0c0,0,0,0,0.1,0c0,0,0,0,0,0c0.1,0,0.2,0,0.2,0c0,0,0,0,0.1,0c0.1,0,0.2,0,0.2,0.1c0,0,0,0,0,0
	c0.1,0,0.1,0.1,0.2,0.1c0,0,0,0,0,0c0.1,0,0.1,0.1,0.2,0.2c0,0,0,0,0,0c0.1,0.1,0.1,0.1,0.2,0.2c0.1,0.1,0.1,0.2,0.2,0.4
	c0,0.1,0,0.1,0.1,0.2c0,0.1,0,0.3,0,0.4c0,0.1,0,0.1,0,0.2c0,0.1-0.1,0.3-0.1,0.4c0.1,0.1,0.1,0.2,0.2,0.3c0.1,0.1,0.1,0.2,0.2,0.3
	c0.1,0.1,0.1,0.3,0.2,0.4c-0.2,0-0.4-0.1-0.6-0.1c-0.6,0-1.2,0.2-1.8,0.5c-0.4-0.2-0.8-0.4-1.2-0.4c-0.2,0-0.3,0-0.5,0.1
	c-1,0.3-1.7,1.2-1.6,2.2c-0.4-0.2-0.8-0.4-1.3-0.4c-0.1-0.4-0.3-0.8-0.5-1.1c0,0,0,0,0,0c0-0.2,0.1-0.4,0.2-0.6
	c0.2-0.3,0.4-0.5,0.7-0.7C48.3,20.8,48.4,20.7,48.5,20.7z M42.2,18.9c0.1-0.2,0.2-0.4,0.3-0.6c0.1-0.1,0.1-0.2,0.2-0.3
	c0,0,0,0,0-0.1c0.1-0.1,0.1-0.2,0.2-0.2c0,0,0,0,0,0c0.1-0.1,0.2-0.1,0.2-0.2c0,0,0,0,0,0c0.1-0.1,0.2-0.1,0.3-0.2c0,0,0,0,0.1,0
	c0.1-0.1,0.2-0.1,0.3-0.1c0,0,0,0,0,0c0.1,0,0.2-0.1,0.3-0.1c0,0,0,0,0.1,0c0.1,0,0.2,0,0.3-0.1c0,0,0,0,0.1,0c0.1,0,0.2,0,0.3,0
	c0,0,0,0,0,0c0,0,0,0,0,0c0.1,0,0.2,0,0.3,0c0,0,0.1,0,0.1,0c0.1,0,0.2,0,0.3,0.1c0.2,0.1,0.4,0.1,0.6,0.2c0.2,0.1,0.4,0.2,0.5,0.4
	c0.1,0.1,0.2,0.1,0.2,0.2c0.2,0.2,0.4,0.5,0.5,0.8c0.1,0,0.2,0,0.2-0.1c0,0,0,0,0,0c-0.3,0.6-0.4,1.2-0.2,1.9
	c-0.5,0.3-0.8,0.7-1,1.2c-0.6-0.6-1.4-1-2.2-1c-0.1,0-0.1,0-0.2,0c-0.1-0.2-0.2-0.3-0.4-0.5c-0.7-0.7-1.7-1-2.7-0.8c0,0,0-0.1,0-0.1
	C41.6,19.1,41.9,19,42.2,18.9z M33.5,19.6c0.7-0.7,1.8-0.8,2.6-0.1c0.1,0.1,0.2,0.1,0.2,0.1c0.1,0,0.1-0.1,0.2-0.2
	c0.1-0.3,0.3-0.5,0.5-0.8c0.9-0.9,2.4-0.9,3.3,0c0.3,0.3,0.5,0.7,0.6,1.1c0,0.1,0.1,0.1,0.1,0.2c0.1,0,0.1,0,0.2,0
	c0.9-0.3,1.8-0.1,2.4,0.6c0.1,0.1,0.1,0.1,0.2,0.2c-0.3,0.1-0.5,0.2-0.7,0.3c-0.1,0.1-0.2,0.2-0.4,0.3c-0.5-0.4-1.1-0.6-1.7-0.6
	c-0.5,0-0.9,0.1-1.3,0.4c-1,0.7-1.3,2.1-0.6,3.3c0,0.1-0.1,0.1-0.1,0.2c-0.2,0-0.4,0.1-0.6,0.3c-0.2,0.1-0.3,0.3-0.5,0.5
	c0,0-0.1-0.1-0.1-0.1c0,0,0,0-0.1,0c-0.1,0-0.1,0-0.2,0.1c-0.1,0.1-0.2,0.1-0.2,0.2c-0.1-0.4-0.3-0.8-0.6-1.2
	c-0.8-1.1-1.9-1.8-3.2-1.8c-0.1,0-0.1,0-0.2,0c0,0,0,0,0-0.1c0-0.1,0-0.2-0.1-0.3C32.8,21.5,32.8,20.4,33.5,19.6z M27.3,25.5
	c0-0.2,0-0.3,0.1-0.5s0.1-0.3,0.1-0.5c0.1-0.1,0.1-0.3,0.2-0.4c0,0,0,0,0,0c0.1-0.1,0.2-0.3,0.3-0.4c0.1-0.1,0.1-0.1,0.2-0.1
	c0.1-0.1,0.2-0.1,0.3-0.1c0,0,0,0,0.1,0c0.1,0,0.1-0.1,0.2-0.1c0,0,0,0,0,0c0.1,0,0.2,0,0.3-0.1c0,0,0,0,0.1,0c0.1,0,0.2,0,0.2,0
	c0,0,0,0,0,0c0,0,0,0,0,0c0.1,0,0.2,0,0.3,0c0,0,0,0,0,0c0.1,0,0.2,0,0.3,0c0,0,0.1,0,0.1,0c0.1,0,0.1,0,0.2,0.1c0,0,0.1,0,0.1,0
	c0.1,0,0.1,0.1,0.2,0.1c0,0,0,0,0.1,0c0.1,0,0.2,0.1,0.2,0.1c0,0,0,0,0.1,0c0.1,0,0.1,0.1,0.2,0.1c0,0,0.1,0,0.1,0.1
	c0.1,0,0.1,0.1,0.2,0.1c0,0,0,0,0.1,0.1c0.1,0.1,0.1,0.1,0.2,0.2c0,0,0,0,0-0.1c0.1-0.1,0.1-0.2,0.2-0.2v0c0-0.1,0.1-0.1,0.1-0.1
	c0.1-0.1,0.3-0.3,0.4-0.4c0.1-0.1,0.2-0.1,0.3-0.2c0,0,0.1,0,0.1,0c0.1,0,0.2-0.1,0.2-0.1c0,0,0.1,0,0.1,0c0.1,0,0.2-0.1,0.3-0.1
	c0,0,0,0,0,0c0.1,0,0.2,0,0.3,0c1,0,2,0.5,2.7,1.5c0.4,0.5,0.6,1.1,0.6,1.7c0.1,0,0.1,0,0.2,0c0,0,0,0,0,0c0.1,0,0.2,0,0.4,0
	c0,0,0,0,0,0c0,0,0,0,0.1,0c0,0.5,0.1,1,0.4,1.4c0.3,0.5,0.8,0.8,1.3,0.9c0.1,0.4,0.2,0.7,0.4,1c-0.7-0.3-1.4-0.5-2.2-0.5
	c-1.3,0-2.6,0.6-3.6,1.6c-0.2,0.2-0.3,0.4-0.5,0.6c-1.1-1.3-2.6-2.1-4.2-2.1c-1.3,0-2.4,0.5-3.4,1.4c-0.1-0.1-0.1-0.2-0.1-0.3
	c-0.2-0.7,0-1.5,0.6-1.9c0.1,0,0.1-0.1,0.2-0.1c0,0,0,0,0.1,0c0,0,0.1,0,0.1-0.1c0,0,0.1,0,0.1,0c0,0,0.1,0,0.1,0c0,0,0.1,0,0.1,0
	c0,0,0.1,0,0.1,0c0,0,0,0,0.1,0c0.1-0.3,0.2-0.6,0.3-0.9C27.4,26.7,27.3,26.1,27.3,25.5z M22,29.2c0.1-0.3,0.3-0.6,0.5-0.8
	c0.1-0.1,0.3-0.2,0.4-0.3c0-0.3,0-0.6,0-0.9c0.1-0.6,0.4-1.2,0.8-1.8c0.2-0.2,0.4-0.4,0.6-0.6c0.5-0.4,1-0.6,1.6-0.7
	c0.1,0,0.2,0,0.4,0c0,0,0.1,0,0.1,0c0,0,0.1,0,0.1,0c0,0,0.1,0,0.1,0c0,0,0.1,0,0.1,0c0.1,0,0.2,0,0.3,0c0,0,0.1,0,0.1,0
	c0,0,0,0,0,0c0,0,0,0,0,0c-0.6,0.9-0.6,2.1,0,3.2c-0.1,0.1-0.1,0.3-0.1,0.4c-0.3,0-0.6,0.2-0.8,0.3c-0.9,0.6-1.2,2-0.6,3.1
	c-0.1,0.1-0.2,0.2-0.2,0.3c-0.9-1.1-2.2-1.9-3.5-2.1C21.9,29.3,21.9,29.2,22,29.2z M82.4,34.5c0,0.3,0,0.6,0,0.9l-2.1,20.4
	l-2.5,24.4h0h-6.9h0h-6.9h0h-6.9h0H50h-6.9h0h-6.9h0h-6.9h0h-6.9h0h0l-1.3-12.5L20,59.1l-2.4-23.7c0-0.1,0-0.2,0-0.3
	c0-0.5,0-1,0.1-1.5c0-0.2,0.1-0.3,0.1-0.5c0.2-0.5,0.5-1,0.8-1.4c0,0,0,0,0,0c0,0,0,0,0-0.1c0,0,0,0,0,0c0,0,0,0,0.1,0
	c0.2-0.2,0.4-0.4,0.7-0.5c0.2-0.1,0.3-0.2,0.5-0.2c0,0,0.1,0,0.1,0c0,0,0,0,0,0c0.4-0.1,0.8-0.2,1.2-0.2c0.4,0,0.8,0.1,1.2,0.2
	c0.3,0.1,0.5,0.2,0.8,0.4c0,0,0,0,0,0c0.1,0.1,0.2,0.2,0.4,0.2c0,0,0,0,0.1,0c0,0,0,0,0.1,0c0,0,0,0,0.1,0.1c0,0,0,0,0,0
	c0.4,0.3,0.7,0.7,1,1.1c0.1,0.1,0.2,0.3,0.3,0.4c0.1,0.1,0.1,0.3,0.2,0.4c0,0.1,0.1,0.2,0.1,0.3c0.1,0.2,0.1,0.4,0.2,0.6
	c0.1,0.3,0.1,0.6,0.2,1c0,0,0,0,0,0c0-0.1,0-0.3,0-0.4c0-0.2,0-0.4,0-0.5c0-0.1,0-0.2,0-0.3c0,0,0-0.1,0-0.1c0,0,0-0.1,0-0.1
	c0-0.1,0-0.2,0.1-0.3c0-0.1,0.1-0.2,0.1-0.3c0,0,0-0.1,0-0.1c0-0.1,0.1-0.2,0.1-0.3c0.1-0.3,0.3-0.5,0.5-0.8c0-0.1,0.1-0.1,0.1-0.2
	c0.1-0.1,0.1-0.2,0.2-0.2c0.1-0.1,0.2-0.2,0.3-0.2c0.1-0.1,0.2-0.2,0.3-0.2c0,0,0,0,0,0c0.2-0.1,0.4-0.3,0.7-0.4
	c0.4-0.1,0.8-0.2,1.2-0.2c0.4,0,0.8,0.1,1.2,0.2c0,0,0,0,0,0c0,0,0,0,0,0c0.2,0.1,0.5,0.2,0.7,0.3c0,0,0,0,0,0
	c0.1,0.1,0.2,0.2,0.4,0.2c0.2,0.1,0.3,0.3,0.5,0.5c0.4,0.4,0.7,0.8,0.9,1.2c0.1,0.1,0.1,0.3,0.2,0.4c0,0,0,0,0,0
	c0.1,0.2,0.1,0.3,0.2,0.5c0,0.1,0,0.1,0,0.2c0,0.1,0,0.1,0,0.2c0.1,0.2,0.1,0.5,0.1,0.7c0,0.1,0,0.2,0,0.3c0,0,0,0,0,0
	c0-0.3,0-0.7,0-1c0-0.1,0-0.1,0-0.2c0-0.1,0-0.1,0-0.2c0-0.1,0-0.2,0.1-0.3c0-0.1,0-0.1,0-0.2c0-0.1,0-0.1,0.1-0.2
	c0-0.1,0.1-0.2,0.1-0.2c0.2-0.5,0.6-1,0.9-1.4c0.1-0.1,0.2-0.2,0.3-0.3c0.1-0.1,0.2-0.2,0.3-0.2c0,0,0,0,0.1,0
	c0.2-0.1,0.4-0.2,0.7-0.3c0.4-0.1,0.8-0.2,1.2-0.2c0.4,0,0.8,0.1,1.2,0.2c0.2,0.1,0.5,0.2,0.7,0.3c0,0,0,0,0.1,0
	c0.1,0.1,0.2,0.2,0.3,0.2s0.2,0.2,0.3,0.3c0,0,0,0,0,0c0,0,0,0,0,0c0.2,0.2,0.4,0.5,0.6,0.7c0,0,0,0,0,0.1c0,0,0,0,0,0
	c0.2,0.4,0.4,0.8,0.6,1.3c0,0.1,0,0.1,0.1,0.2c0.1,0.2,0.1,0.4,0.1,0.6c0,0,0,0,0,0.1c0,0.2,0,0.4,0.1,0.6c0,0,0,0,0,0c0,0,0,0,0,0
	c0,0,0,0,0,0c0-0.2,0-0.3,0-0.5c0,0,0,0,0,0c0,0,0,0,0,0c0.1-0.9,0.4-1.8,0.9-2.5c0.2-0.4,0.5-0.7,0.8-0.9c0.3-0.3,0.7-0.5,1.1-0.6
	c0,0,0,0,0,0c0.4-0.1,0.8-0.2,1.2-0.2c0.4,0,0.8,0.1,1.2,0.2c0.3,0.1,0.5,0.2,0.7,0.4c0,0,0,0,0,0c0.1,0,0.1,0.1,0.2,0.1
	c0.1,0,0.1,0.1,0.2,0.1c0.5,0.4,0.9,0.9,1.2,1.5c0,0.1,0.1,0.1,0.1,0.2c0,0,0,0.1,0,0.1c0,0.1,0.1,0.2,0.1,0.3
	c0.1,0.3,0.2,0.6,0.2,0.9C50,34.7,50,35,50,35.3c0,0,0,0.1,0,0.1c0,0,0-0.1,0-0.1c0-0.3,0-0.6,0.1-0.9c0-0.2,0.1-0.3,0.1-0.5
	c0-0.1,0-0.1,0-0.2c0,0,0,0,0-0.1c0-0.1,0-0.1,0-0.2c0-0.1,0.1-0.2,0.1-0.3c0,0,0-0.1,0-0.1c0-0.1,0.1-0.2,0.1-0.2
	c0.3-0.6,0.7-1.1,1.2-1.5c0.1,0,0.1-0.1,0.2-0.1c0.1,0,0.1-0.1,0.2-0.1c0,0,0,0,0,0c0.2-0.1,0.5-0.3,0.7-0.4
	c0.4-0.1,0.8-0.2,1.2-0.2c0.4,0,0.8,0.1,1.2,0.2c0,0,0,0,0,0c0,0,0,0,0,0c0.2,0.1,0.5,0.2,0.7,0.3c0,0,0,0,0,0
	c0.1,0.1,0.2,0.2,0.3,0.2c0.1,0.1,0.2,0.2,0.3,0.3c0,0,0.1,0,0.1,0.1c0.1,0.1,0.2,0.3,0.3,0.4c0,0,0,0,0,0c0,0,0,0,0,0
	c0.1,0.1,0.2,0.3,0.3,0.4c0,0,0,0,0,0.1c0.1,0.1,0.2,0.3,0.2,0.4c0.1,0.1,0.1,0.3,0.2,0.4c0.1,0.2,0.1,0.3,0.1,0.5
	c0,0.1,0.1,0.3,0.1,0.4c0,0.1,0,0.3,0,0.4c0,0.2,0,0.3,0,0.5c0,0,0,0,0,0c0-0.3,0-0.7,0.1-1c0,0,0-0.1,0-0.1c0-0.1,0-0.1,0-0.2
	c0.1-0.2,0.1-0.4,0.2-0.6c0-0.1,0.1-0.1,0.1-0.2c0-0.1,0.1-0.1,0.1-0.2c0.3-0.7,0.8-1.2,1.3-1.7c0,0,0,0,0,0
	c0.1-0.1,0.2-0.2,0.3-0.2c0,0,0,0,0.1,0c0.2-0.1,0.4-0.3,0.7-0.3c0.4-0.1,0.8-0.2,1.2-0.2c0.4,0,0.8,0.1,1.2,0.2
	c0.2,0.1,0.4,0.2,0.5,0.2c0.2,0.1,0.4,0.2,0.5,0.4c0.5,0.4,0.9,1,1.2,1.7c0.1,0.2,0.1,0.3,0.2,0.5c0.1,0.4,0.2,0.7,0.2,1.1
	c0,0.2,0,0.4,0,0.6c0,0,0,0.1,0,0.1c0,0,0,0,0,0c0,0,0,0,0,0c0,0,0,0,0,0c0.1-1.2,0.5-2.3,1.1-3.1c0.1-0.2,0.3-0.3,0.4-0.5
	c0,0,0,0,0,0c0.1-0.1,0.3-0.3,0.4-0.4c0.1-0.1,0.2-0.2,0.4-0.2c0,0,0,0,0,0c0.2-0.1,0.5-0.3,0.7-0.3c0,0,0,0,0,0c0,0,0,0,0,0
	c0.4-0.1,0.8-0.2,1.2-0.2c0.4,0,0.8,0.1,1.2,0.2c0.2,0.1,0.4,0.2,0.6,0.3c0.1,0,0.1,0.1,0.2,0.1c0.1,0.1,0.2,0.1,0.3,0.2
	c0.1,0.1,0.2,0.2,0.3,0.3c0,0,0,0,0,0c0.1,0.2,0.3,0.3,0.4,0.5c0.1,0.1,0.1,0.2,0.2,0.3c0.3,0.6,0.5,1.2,0.6,2c0,0.3,0,0.6,0,0.8
	c0,0,0,0,0,0c0,0,0,0,0,0c0-0.1,0-0.1,0-0.2c0-0.1,0-0.2,0-0.2c0,0,0,0,0,0c0-0.2,0.1-0.4,0.1-0.6h0c0.1-0.3,0.2-0.6,0.3-0.9
	c0.1-0.3,0.3-0.5,0.4-0.8c0.3-0.5,0.7-0.9,1.2-1.3c0.1-0.1,0.2-0.2,0.4-0.2c0,0,0.1,0,0.1-0.1c0.1-0.1,0.3-0.1,0.4-0.2
	c0.1,0,0.2-0.1,0.3-0.1c0.4-0.1,0.8-0.2,1.2-0.2c0.4,0,0.8,0.1,1.2,0.2c0,0,0,0,0,0c0,0,0,0,0,0c0,0,0.1,0,0.1,0.1
	c0.1,0,0.1,0.1,0.2,0.1c0.1,0.1,0.3,0.1,0.4,0.2c0.1,0.1,0.2,0.1,0.3,0.2c0,0,0,0,0.1,0c0.5,0.4,0.9,1,1.1,1.7
	c0,0.1,0.1,0.3,0.1,0.4c0,0.1,0,0.2,0.1,0.4C82.4,34.1,82.4,34.2,82.4,34.5C82.4,34.5,82.4,34.5,82.4,34.5z"/>
<radialGradient id="SVGID_1_" cx="49.8417" cy="57.3279" r="30.2039" gradientTransform="matrix(1 4.994693e-03 -3.733387e-03 0.7475 0.2146 14.2286)" gradientUnits="userSpaceOnUse">
	<stop  offset="0" style="stop-color:#A80028"/>
	<stop  offset="0.404" style="stop-color:#A60028"/>
	<stop  offset="0.5496" style="stop-color:#9F0026"/>
	<stop  offset="0.6533" style="stop-color:#940024"/>
	<stop  offset="0.7372" style="stop-color:#830020"/>
	<stop  offset="0.8091" style="stop-color:#6D001C"/>
	<stop  offset="0.8715" style="stop-color:#520016"/>
	<stop  offset="0.9072" style="stop-color:#3F0012"/>
</radialGradient>
<path class="st6" d="M51.4,58.1c0,6.2-0.4,7.4-1.2,7.4c-0.9,0-1.2-1.4-1.3-7.4c-0.1-5.5,0.2-7.6,1.2-7.6
	C51,50.5,51.4,52.2,51.4,58.1z"/>
<radialGradient id="SVGID_2_" cx="49.8417" cy="57.3279" r="30.2039" gradientTransform="matrix(1 4.994693e-03 -3.733387e-03 0.7475 0.2146 14.2286)" gradientUnits="userSpaceOnUse">
	<stop  offset="0" style="stop-color:#A80028"/>
	<stop  offset="0.404" style="stop-color:#A60028"/>
	<stop  offset="0.5496" style="stop-color:#9F0026"/>
	<stop  offset="0.6533" style="stop-color:#940024"/>
	<stop  offset="0.7372" style="stop-color:#830020"/>
	<stop  offset="0.8091" style="stop-color:#6D001C"/>
	<stop  offset="0.8715" style="stop-color:#520016"/>
	<stop  offset="0.9072" style="stop-color:#3F0012"/>
</radialGradient>
<path class="st7" d="M40,55.9c0.2,3.3-0.6,4.2-1.9,4.4c-0.4-4.4-0.5-6.1-0.7-9C39,51.2,39.9,52.8,40,55.9z"/>
<radialGradient id="SVGID_3_" cx="49.9981" cy="57.3279" r="29.7661" gradientTransform="matrix(1 4.994693e-03 -3.733387e-03 0.7475 0.2147 14.2278)" gradientUnits="userSpaceOnUse">
	<stop  offset="0" style="stop-color:#A80028"/>
	<stop  offset="0.404" style="stop-color:#A60028"/>
	<stop  offset="0.5496" style="stop-color:#9F0026"/>
	<stop  offset="0.6533" style="stop-color:#940024"/>
	<stop  offset="0.7372" style="stop-color:#830020"/>
	<stop  offset="0.8091" style="stop-color:#6D001C"/>
	<stop  offset="0.8715" style="stop-color:#520016"/>
	<stop  offset="0.9072" style="stop-color:#3F0012"/>
</radialGradient>
<path class="st8" d="M62.7,56c-0.2,3-1.1,3.9-2.6,4.1c0.2-3.9,0.3-5.6,0.5-8.3C62.4,51.7,62.9,53.3,62.7,56z"/>
<radialGradient id="placard_1_" cx="49.8417" cy="57.3279" r="30.2039" gradientTransform="matrix(1 4.994693e-03 -3.733387e-03 0.7475 0.2146 14.2286)" gradientUnits="userSpaceOnUse">
	<stop  offset="0" style="stop-color:#A80028"/>
	<stop  offset="0.404" style="stop-color:#A60028"/>
	<stop  offset="0.5496" style="stop-color:#9F0026"/>
	<stop  offset="0.6533" style="stop-color:#940024"/>
	<stop  offset="0.7372" style="stop-color:#830020"/>
	<stop  offset="0.8091" style="stop-color:#6D001C"/>
	<stop  offset="0.8715" style="stop-color:#520016"/>
	<stop  offset="0.9072" style="stop-color:#3F0012"/>
</radialGradient>
<path id="placard" class="st9" d="M72.4,51.9C72.4,51.9,72.4,51.9,72.4,51.9c-0.2-0.4-0.4-0.8-0.6-1.2c0,0,0-0.1-0.1-0.1
	c-0.2-0.4-0.4-0.7-0.7-1.1c0-0.1-0.1-0.1-0.1-0.2c-0.2-0.3-0.4-0.6-0.7-1c0,0-0.1-0.1-0.1-0.1c-0.3-0.3-0.6-0.7-0.9-1
	c-0.1-0.1-0.1-0.1-0.2-0.2c-0.6-0.7-1.4-1.3-2.1-1.9c0,0,0,0-0.1-0.1c-0.4-0.3-0.8-0.6-1.2-0.9l0,0c-2.3-1.6-5-2.8-7.9-3.6
	c-0.5-0.1-1-0.3-1.5-0.4c-0.1,0-0.2,0-0.3-0.1c-0.6-0.1-1.1-0.2-1.7-0.3c-0.1,0-0.2,0-0.3,0c-0.6-0.1-1.2-0.1-1.8-0.2
	c0,0-0.1,0-0.1,0c-0.7,0-1.3-0.1-2-0.1v0c-0.1,0-0.1,0-0.2,0c-2.7,0-5.4,0.4-7.8,1c-0.7,0.2-1.4,0.4-2,0.6c0,0-0.1,0-0.1,0
	c-0.6,0.2-1.3,0.5-1.9,0.7c-0.1,0-0.1,0-0.2,0.1c-0.6,0.3-1.2,0.5-1.7,0.9c-0.1,0-0.1,0.1-0.2,0.1c-0.6,0.3-1.1,0.6-1.6,1
	c-3.5,2.3-6,5.3-7.3,8.7c-0.1,0.3-0.2,0.6-0.3,0.9c0,0.1-0.1,0.2-0.1,0.3c-0.1,0.3-0.2,0.7-0.2,1c0,0.2-0.1,0.3-0.1,0.5
	c0,0.2-0.1,0.4-0.1,0.6c0,0.2,0,0.4-0.1,0.5c0,0.2,0,0.5,0,0.7c0,0.1,0,0.2,0,0.4c0,1.5,0.3,3,0.7,4.5c0,0.1,0.1,0.2,0.1,0.3
	c0.1,0.2,0.1,0.4,0.2,0.6c0,0.1,0.1,0.2,0.2,0.4c0.1,0.2,0.1,0.3,0.2,0.5c0.1,0.1,0.1,0.2,0.2,0.3c1.7,3.2,4.5,6,8.2,8
	c0.4,0.2,0.8,0.4,1.2,0.6c0.1,0.1,0.3,0.1,0.4,0.2c0.5,0.2,0.9,0.4,1.4,0.6c0.1,0.1,0.3,0.1,0.4,0.2c0.5,0.2,1,0.4,1.5,0.5
	c0.1,0,0.3,0.1,0.4,0.1c0.5,0.1,1,0.3,1.5,0.4c2.2,0.5,4.6,0.8,7.1,0.8c0.1,0,0.2,0,0.4,0c0.5,0,0.9,0,1.4,0c0.2,0,0.3,0,0.5,0
	c0.5,0,1-0.1,1.5-0.1c0.1,0,0.2,0,0.3,0c0.4-0.1,0.9-0.1,1.3-0.2c0.1,0,0.2,0,0.4-0.1c0.5-0.1,1-0.2,1.5-0.3
	c2.7-0.6,5.1-1.6,7.3-2.9l0,0c0.4-0.3,0.9-0.5,1.3-0.8c0,0,0,0,0,0c0.4-0.3,0.8-0.5,1.1-0.8c0,0,0.1-0.1,0.1-0.1
	c0.3-0.2,0.6-0.5,0.9-0.7c0.1-0.1,0.1-0.1,0.2-0.2c0.3-0.3,0.6-0.6,0.9-0.9c0,0,0.1-0.1,0.1-0.1c0.3-0.3,0.5-0.5,0.7-0.8
	c0.1-0.1,0.1-0.1,0.2-0.2c0.3-0.3,0.5-0.6,0.8-1c0,0,0,0,0-0.1c0.2-0.3,0.4-0.6,0.6-0.9c0.1-0.1,0.1-0.2,0.2-0.3
	c0.2-0.3,0.3-0.6,0.5-0.8c1-2,1.5-4.1,1.5-6.4c0-1.4-0.2-2.8-0.6-4.1v0C72.8,52.7,72.6,52.3,72.4,51.9z M38.4,63.3l0.4,4.3
	c0,0-1.5-0.1-3.6,0c0,0-0.6-7.2-2-20.2c0.8-0.1,1.7-0.2,2.4-0.2c5.7,0,8.1,3,8.3,8.5C44.1,60.6,42,63.2,38.4,63.3z M55.4,58.2
	c-0.3,7.7-2,10-5.3,10c-3.7,0-5.1-3.2-5.3-10c-0.2-6.1,0.7-11.3,5.3-11.3C54.7,46.9,55.7,51.7,55.4,58.2z M66.7,55.9
	c-0.5,4.8-3.1,7-6.6,7.2l-0.2,4.9c0,0-1.5-0.1-3.6,0c0,0,0.4-6.9,0.8-19.9c0.9-0.1,1.8-0.1,2.6-0.1C65.2,47.9,67.2,50.7,66.7,55.9z"
	/>
<g id="pop">
	<g>
		<g>
			<defs>
				<path id="SVGID_4_" d="M35.6,47.3c-0.7,0-1.6,0.1-2.4,0.2c1.4,13,2,20.2,2,20.2c2.1-0.1,3.6,0,3.6,0l-0.4-4.3
					c3.6-0.1,5.7-2.7,5.5-7.5C43.7,50.3,41.3,47.3,35.6,47.3z M38.1,60.3c-0.4-4.4-0.5-6.1-0.7-9c1.6-0.1,2.5,1.6,2.6,4.6
					C40.3,59.2,39.5,60.1,38.1,60.3z"/>
			</defs>
			<clipPath id="SVGID_5_">
				<use xlink:href="#SVGID_4_"  style="overflow:visible;"/>
			</clipPath>
			<g class="st10">
				<g>
					<defs>
						<rect id="SVGID_6_" x="28.2" y="42.3" width="20.7" height="30.4"/>
					</defs>
					<clipPath id="SVGID_7_">
						<use xlink:href="#SVGID_6_"  style="overflow:visible;"/>
					</clipPath>
					<g style="clip-path:url(#SVGID_7_);">
						
							<image style="overflow:visible;" width="44" height="64" xlink:href="A03D3E21.jpg"  transform="matrix(0.48 0 0 0.48 27.84 42.24)">
						</image>
					</g>
				</g>
			</g>
		</g>
	</g>
	<g>
		<g>
			<defs>
				<path id="SVGID_8_" d="M50.1,46.9c-4.6,0-5.5,5.2-5.3,11.3c0.3,6.8,1.6,10,5.3,10c3.4,0,5-2.3,5.3-10
					C55.7,51.7,54.7,46.9,50.1,46.9z M51.4,58.1c0,6.2-0.4,7.4-1.2,7.4c-0.9,0-1.2-1.4-1.3-7.4c-0.1-5.5,0.2-7.6,1.2-7.6
					C51,50.5,51.4,52.2,51.4,58.1z"/>
			</defs>
			<clipPath id="SVGID_9_">
				<use xlink:href="#SVGID_8_"  style="overflow:visible;"/>
			</clipPath>
			<g class="st11">
				<g>
					<defs>
						<rect id="SVGID_10_" x="39.8" y="41.9" width="20.7" height="31.3"/>
					</defs>
					<clipPath id="SVGID_11_">
						<use xlink:href="#SVGID_10_"  style="overflow:visible;"/>
					</clipPath>
					<g style="clip-path:url(#SVGID_11_);">
						
							<image style="overflow:visible;" width="44" height="66" xlink:href="A03D3E23.jpg"  transform="matrix(0.48 0 0 0.48 39.36 41.76)">
						</image>
					</g>
				</g>
			</g>
		</g>
	</g>
	<g>
		<g>
			<defs>
				<path id="SVGID_12_" d="M59.6,47.9c-0.8,0-1.6,0-2.6,0.1c-0.4,12.9-0.8,19.9-0.8,19.9c2.1-0.1,3.6,0,3.6,0L60,63
					c3.6-0.2,6.2-2.4,6.6-7.2C67.2,50.7,65.2,47.9,59.6,47.9z M62.8,56c-0.2,3-1.1,3.9-2.6,4.1c0.2-3.9,0.3-5.6,0.5-8.3
					C62.4,51.7,63,53.3,62.8,56z"/>
			</defs>
			<clipPath id="SVGID_13_">
				<use xlink:href="#SVGID_12_"  style="overflow:visible;"/>
			</clipPath>
			<g class="st12">
				<g>
					<defs>
						<rect id="SVGID_14_" x="51.2" y="42.9" width="20.5" height="30"/>
					</defs>
					<clipPath id="SVGID_15_">
						<use xlink:href="#SVGID_14_"  style="overflow:visible;"/>
					</clipPath>
					<g style="clip-path:url(#SVGID_15_);">
						
							<image style="overflow:visible;" width="44" height="63" xlink:href="A03D3E26.jpg"  transform="matrix(0.48 0 0 0.48 50.88 42.72)">
						</image>
					</g>
				</g>
			</g>
		</g>
	</g>
</g>
<radialGradient id="SVGID_16_" cx="-161.2644" cy="97.9926" r="79.7443" gradientTransform="matrix(1 4.994693e-03 -4.906266e-03 0.9823 0.4788 2.5415)" gradientUnits="userSpaceOnUse">
	<stop  offset="0.3476" style="stop-color:#8B5E3C"/>
	<stop  offset="0.4081" style="stop-color:#B77E3E"/>
	<stop  offset="0.4681" style="stop-color:#DC993F"/>
	<stop  offset="0.5166" style="stop-color:#F3AA40"/>
	<stop  offset="0.5473" style="stop-color:#FBB040"/>
	<stop  offset="0.6015" style="stop-color:#F8AA42"/>
	<stop  offset="0.7308" style="stop-color:#F4A045"/>
	<stop  offset="0.9704" style="stop-color:#FFFFFF"/>
</radialGradient>
<path class="st13" d="M-161.4,35.6c-34.5,0-62.4,27.9-62.4,62.4c0,37.1,33.8,60.6,62.4,62.4c2.6,0.2,33.6,1.6,51.7-22.4
	c12.6-16.7,11.1-35.4,10.7-40C-101.5,71.2-123.5,35.6-161.4,35.6z M-161.4,120.5c-12.5,0-22.6-10.1-22.6-22.6
	c0-12.5,10.1-22.6,22.6-22.6c12.5,0,22.6,10.1,22.6,22.6C-138.8,110.4-148.9,120.5-161.4,120.5z"/>




<defs>
<script>

let icon = document.querySelector("#popcorn");

function logMyId() {
	console.log(this.id);
}

icon.addEventListener("click", () => { console.log(this); });

</script>
</defs>



</svg>
