<?xml version="1.0" encoding="utf-8"?>
<!-- Generator: Adobe Illustrator 25.0.0, SVG Export Plug-In . SVG Version: 6.00 Build 0)  -->
<svg version="1.1" id="waffles" xmlns="http://www.w3.org/2000/svg" xmlns:xlink="http://www.w3.org/1999/xlink" x="0px" y="0px"
	 viewBox="0 0 100 100" style="enable-background:new 0 0 100 100;" xml:space="preserve">
<style type="text/css">
	.st0{fill:#FFEE8D;}
	.st1{fill:#D88D16;}
	.st2{fill:#FFB127;}
	.st3{fill:#CE8B20;}
	.st4{opacity:0.5;fill:#5E3C0B;enable-background:new    ;}
	.st5{fill:#F4D46E;}
</style>
<g id="waffleStack">
	<circle id="backer" class="st0" cx="50" cy="50" r="48.2"/>
	<g id="waffle4">
		<path class="st1" d="M74.1,72.1H21.5v-8.5h52.6V72.1z"/>
		<path class="st2" d="M74.1,63.7H21.5l9.7-13.4h33L74.1,63.7z"/>
		<path class="st3" d="M38.1,62.2H24.8l3.7-5.2h11L38.1,62.2z"/>
		<path class="st3" d="M53.9,62.2H40.7l1-5.2h11L53.9,62.2z"/>
		<path class="st3" d="M69.7,62.2H56.6L55.1,57h11L69.7,62.2z"/>
		<path class="st3" d="M39.9,55.6H29.5l1.7-2.3h9.5L39.9,55.6z"/>
		<path class="st3" d="M52.5,55.6H42.1l0.5-2.3h9.5L52.5,55.6z"/>
		<path class="st3" d="M65.1,55.6H54.7L54,53.3h9.5L65.1,55.6z"/>
		<path class="st3" d="M41,52.3h-9.1l0.7-0.9h8.6L41,52.3z"/>
		<path class="st3" d="M51.9,52.3h-9.1l0.2-0.9h8.7L51.9,52.3z"/>
		<path class="st3" d="M62.7,52.3h-9.1l-0.2-0.9h8.7L62.7,52.3z"/>
	</g>
	<g id="waffle3">
		<path class="st1" d="M80.2,61.4H27.7v-8.5h52.5V61.4z"/>
		<path class="st2" d="M80.2,52.9H27.7l9.7-13.4h33L80.2,52.9z"/>
		<path class="st3" d="M44.2,51.4H31l3.7-5.2h11L44.2,51.4z"/>
		<path class="st3" d="M60,51.4H46.8l1-5.2h11L60,51.4z"/>
		<path class="st3" d="M75.9,51.4H62.6l-1.5-5.2h11L75.9,51.4z"/>
		<path class="st3" d="M46.1,44.9H35.7l1.7-2.3h9.5L46.1,44.9z"/>
		<path class="st3" d="M58.7,44.9H48.3l0.5-2.3h9.5L58.7,44.9z"/>
		<path class="st3" d="M71.2,44.9H60.8l-0.7-2.3h9.5L71.2,44.9z"/>
		<path class="st3" d="M47,41.5H38l0.7-0.9h8.7L47,41.5z"/>
		<path class="st3" d="M57.9,41.5h-9.1l0.2-0.9h8.7L57.9,41.5z"/>
		<path class="st3" d="M68.8,41.5h-9.1l-0.2-0.9h8.7L68.8,41.5z"/>
	</g>
	<g id="waffle2">
		<path class="st1" d="M74.1,50.6H21.5v-8.5h52.6V50.6z"/>
		<path class="st2" d="M74.1,42.1H21.5l9.7-13.4h33L74.1,42.1z"/>
		<path class="st3" d="M38.1,40.6H24.8l3.7-5.2h11L38.1,40.6z"/>
		<path class="st3" d="M53.9,40.6H40.7l1-5.2h11L53.9,40.6z"/>
		<path class="st3" d="M69.7,40.6H56.6l-1.5-5.2h11L69.7,40.6z"/>
		<path class="st3" d="M39.9,34.1H29.5l1.7-2.3h9.5L39.9,34.1z"/>
		<path class="st3" d="M52.5,34.1H42.1l0.5-2.3h9.5L52.5,34.1z"/>
		<path class="st3" d="M65.1,34.1H54.7L54,31.8h9.5L65.1,34.1z"/>
		<path class="st3" d="M41,30.8h-9.1l0.7-0.9h8.6L41,30.8z"/>
		<path class="st3" d="M51.9,30.8h-9.1l0.2-0.9h8.7L51.9,30.8z"/>
		<path class="st3" d="M62.7,30.8h-9.1l-0.2-0.9h8.7L62.7,30.8z"/>
	</g>
	<g id="waffle1_3_">
		<path class="st1" d="M80.5,39.5H27.9V31h52.6V39.5z"/>
		<path class="st2" d="M80.5,31H27.9l9.9-13.3h33L80.5,31z"/>
		<path class="st3" d="M44.5,29.5H31.3l3.7-5.2h11L44.5,29.5z"/>
		<path class="st3" d="M60.3,29.5H47.2l1-5.2h11L60.3,29.5z"/>
		<path class="st3" d="M76.1,29.5H63l-1.5-5.2h11L76.1,29.5z"/>
		<path class="st3" d="M46.5,23H36l1.7-2.3h9.5L46.5,23z"/>
		<path class="st3" d="M59,23H48.5l0.5-2.3h9.5L59,23z"/>
		<path class="st3" d="M71.6,23H61.1l-0.7-2.3h9.4L71.6,23z"/>
		<path class="st3" d="M47.4,19.7h-9.1l0.7-0.9h8.7L47.4,19.7z"/>
		<path class="st3" d="M58.3,19.7h-9.1l0.2-0.9h8.7L58.3,19.7z"/>
		<path class="st3" d="M69.2,19.7h-9.1l-0.2-0.9h8.7L69.2,19.7z"/>
	</g>
</g>
<g id="toppings">
	<path class="st4" d="M79.8,72.8c-0.5-2.9-3.6-4.5-3.8-4.6c-0.6-0.2-1.3-0.5-1.9-0.8v4.7h-7.6c0-2.9,0-5.7,0-8.5l-1.4-2.2V53
		l-1.4-2.2v-8.5l-1.3-2.6v-8.5L61.8,30c1.3-0.1,1.8,0.3,3.9,0.3c2.2,0,2.3-0.5,4-0.3c1.8,0.1,1.9,0.7,3.7,0.9c0.6,0.1,3.7,0.3,4.4-1
		c0.2-0.5,0.1-1.3-0.3-2.9c-0.3-1.3-0.5-2.1-0.9-3.1c-0.8-1.9-2.1-4.8-4.4-5.4c-0.7-0.1-1.4-0.1-2.5-0.6c-0.7-0.3-0.8-0.7-1.6-0.9
		c-0.7-0.2-1,0-1.8,0c-1,0-1.5-0.3-2.3-0.6c-1.9-0.5-2.3,0.9-5,0.9c-1.8,0-2.2-0.6-4-0.3c-0.8,0.1-1.1,0.2-1.9,0.3
		c-1.4,0-1.7-0.3-2.9-0.5c-1.9-0.2-2.2,0.9-4.5,1c-1.3,0-1.3-0.3-2.9-0.3c-1.1,0-0.8,0.2-3,0.5c-0.7,0.1-1.3,0.1-1.6,0.6
		c-0.2,0.3-0.1,0.6-0.3,0.9c-0.5,0.7-1.6,0.2-2.3,0.7c-1,0.6-0.6,2.1-1.1,3.4c-0.5,1-1.5,2.3-4.4,3.1l-0.8,2.6
		c0.7,0.5,1.7,1,3.1,1.4c0.9,0.2,1.5,0.1,4.6-0.2c3.4-0.3,5.2-0.5,5.7,0.5c0.1,0.1,0.1,0.2,0.1,0.2c0,2.9,0,5.7,0,8.5l-0.1,2.6v8.5
		L41.7,53v8.5l-0.3,2.2v8.5H21.5v-3.2c-2.5,0.9-5.5,2.4-5.4,4c0.1,1.6,2.9,2.6,3.1,2.7c2.7,1,4.2-0.5,7.6-0.3
		c2.6,0.1,3.3,1.3,7.6,3.1c1.9,0.8,6,2.6,9.3,2.9c7.4,0.7,8.6-6.3,16.7-7.4c8.8-1.3,15.6,5.8,18.6,2.9C79.9,75.8,80,74,79.8,72.8z
		 M42.7,72.2c0-2.9,0-5.7,0-8.5l0.2-2.2v-8.5l0.8-2.2v-8.5v-2.6v-8.5c0-0.1,0-0.2,0.1-0.3c0.3-0.6,1.5-0.7,3.1-0.3
		c1.8,0.5,3.3,0.5,4.2,0.3c1.6-0.1,1.8-0.6,3.3-0.5c1.8,0,2.2,0.7,3.9,0.6c1.3-0.1,1.3-0.5,2.6-0.7l0.6,0.9v8.5l1,2.6v8.5l1.6,2.2
		v8.4l1.6,2.2l0.3,8.5H42.7V72.2z"/>
	<g>
		<path class="st5" d="M64.3,20.7l-12.1-0.5l1.3-1.7l9.7,0.3L64.3,20.7z"/>
		<path class="st0" d="M64.2,22.9l-12-0.5l0.1-2.2l12,0.5L64.2,22.9z"/>
	</g>
	<g>
		<path class="st5" d="M57.9,24.1l-17.4,0.6l1.6-2.5l14.2-0.5L57.9,24.1z"/>
		<path class="st0" d="M58,27.2l-17.4,0.6l-0.1-3.2L57.9,24L58,27.2z"/>
	</g>
</g>
<path d="M63.1,16.4c0.2,0,0.5,0,0.7,0.1c0.8,0.2,1.3,0.6,2.3,0.6c0.5,0,0.9-0.1,1.2-0.1c0.2,0,0.4,0,0.6,0.1
	c0.6,0.2,0.8,0.4,1.2,0.7h1.5l0.5,0.7c0.3,0,0.6,0.1,0.9,0.1c2.3,0.6,3.6,3.4,4.4,5.4c0.4,0.9,0.6,1.7,0.8,2.8l3.2,4.3v8.5h-8.4
	l1.9,2.6v2.4l6.1,8.4v8.5h-7.8l1.7,2.3v3.8c0.7,0.2,1.4,0.5,1.9,0.8c0.2,0.1,3.3,1.7,3.8,4.6c0.2,1.1,0.1,3-0.9,3.9
	c-0.5,0.5-1.2,0.7-1.9,0.7c-3.2,0-8.2-3.8-14.5-3.8c-0.7,0-1.4,0-2.2,0.2c-7.8,1.1-9.2,7.5-15.7,7.5c-0.3,0-0.7,0-1,0
	c-3.3-0.2-7.3-2.1-9.3-2.9c-4.2-1.8-4.9-3-7.6-3.1c-0.1,0-0.2,0-0.4,0c-2.2,0-3.6,0.7-5.3,0.7c-0.6,0-1.2-0.1-1.9-0.4
	c-0.2-0.1-3-1.1-3.1-2.7c-0.1-1.6,2.9-3.1,5.4-4v-5.3l6.2-8.5v-2.3l1.7-2.3h-7.9v-8.5l6.4-8.8V31l1.3-1.8l0.8-2.5
	c0.6-0.2,1-0.3,1.5-0.5l3.3-4.4c0.1-0.7,0.2-1.3,0.8-1.6c0.2-0.1,0.4-0.2,0.6-0.2l1.7-2.3h3.9c0.3-0.1,0.5-0.1,1-0.1
	c0.6,0,1,0.1,1.3,0.1h2.9c1-0.3,1.5-0.8,2.6-0.8c0.2,0,0.3,0,0.5,0c1.1,0.1,1.5,0.5,2.9,0.5c0.8-0.1,1.1-0.2,1.9-0.3
	c0.3,0,0.6-0.1,0.8-0.1c1.2,0,1.7,0.4,3.2,0.4C61.2,17.4,61.8,16.4,63.1,16.4 M63.1,14.1C63.1,14.1,63.1,14.1,63.1,14.1
	c-1,0-1.8,0.3-2.4,0.6c-0.6,0.2-1,0.4-1.9,0.4c-0.6,0-0.9-0.1-1.3-0.2c-0.5-0.1-1.1-0.2-1.9-0.2c-0.3,0-0.7,0-1.1,0.1
	c-0.5,0.1-0.8,0.1-1.1,0.2c-0.2,0-0.4,0.1-0.7,0.1c-0.4,0-0.6-0.1-1-0.2c-0.4-0.1-0.8-0.2-1.5-0.3c-0.2,0-0.5,0-0.7,0
	c-1.2,0-2.1,0.4-2.7,0.7c-0.1,0.1-0.3,0.1-0.4,0.2h-2.3c-0.5-0.1-0.9-0.1-1.5-0.1c-0.5,0-0.9,0-1.3,0.1h-3.7c-0.7,0-1.4,0.3-1.8,0.9
	l-1.3,1.7c-0.1,0.1-0.2,0.1-0.4,0.2c-1.2,0.7-1.6,1.8-1.8,2.7L30,24.4c-0.2,0.1-0.4,0.1-0.6,0.2c-0.8,0.2-1.3,0.8-1.6,1.5l-0.6,2.1
	l-1.1,1.4c-0.3,0.4-0.5,0.9-0.5,1.4v1.5l-6,8.2c-0.3,0.4-0.4,0.9-0.4,1.3v8.5c0,1.3,1,2.3,2.3,2.3h3.9v1.5l-5.7,7.9
	c-0.3,0.4-0.4,0.9-0.4,1.3v3.7c-3.8,1.6-5.5,3.5-5.4,5.7c0.1,1.9,1.6,3.4,4.3,4.6l0.1,0c0.1,0,0.1,0.1,0.2,0.1
	c0.9,0.3,1.8,0.5,2.7,0.5c1,0,1.8-0.2,2.7-0.4c0.8-0.2,1.6-0.3,2.6-0.3c0.1,0,0.2,0,0.3,0c1.1,0,1.6,0.3,3,1.1
	c0.9,0.5,2,1.1,3.7,1.8c0.2,0.1,0.5,0.2,0.7,0.3c2.2,0.9,6,2.5,9.3,2.7c0.4,0,0.8,0.1,1.2,0.1c4.1,0,6.7-2.1,8.9-3.9
	c2-1.6,3.9-3.2,7.1-3.6c0.6-0.1,1.2-0.1,1.8-0.1c3.2,0,6.2,1.2,8.8,2.2c2.1,0.8,4,1.6,5.7,1.6c1.4,0,2.6-0.5,3.5-1.4
	c1.7-1.6,1.9-4.2,1.6-6c-0.7-3.9-4.6-6-5-6.2c-0.1,0-0.1-0.1-0.2-0.1c-0.1-0.1-0.3-0.1-0.5-0.2c0,0,0,0,0,0v-2.2h3.8
	c1.3,0,2.3-1,2.3-2.3v-8.5c0-0.5-0.2-1-0.4-1.3l-5.6-7.8v-1.7c0-0.1,0-0.2,0-0.3h4.2c1.3,0,2.3-1,2.3-2.3V31c0-0.5-0.2-1-0.4-1.4
	l-2.9-4c0-0.1,0-0.1,0-0.2c-0.2-0.8-0.4-1.6-0.8-2.5c-0.8-2.1-2.4-5.8-5.9-6.7c-0.1,0-0.1,0-0.2,0c-0.4-0.5-1.1-0.8-1.8-0.8H70
	c-0.3-0.2-0.7-0.4-1.3-0.6c-0.4-0.1-0.8-0.2-1.3-0.2c-0.3,0-0.6,0-0.8,0.1c-0.2,0-0.3,0-0.4,0c-0.3,0-0.4,0-0.8-0.2
	c-0.3-0.1-0.5-0.2-0.8-0.3c0,0-0.1,0-0.1,0C64,14.1,63.6,14.1,63.1,14.1L63.1,14.1L63.1,14.1z"/>
<defs>
<script>

let icon = document.querySelector("#waffles");

function logMyId() {
	console.log(this.id);
}

icon.addEventListener("click", () => { console.log(this); });

</script>
</defs>
</svg>
